%TF.GenerationSoftware,KiCad,Pcbnew,(6.0.6)*%
%TF.CreationDate,2022-09-21T08:03:07-07:00*%
%TF.ProjectId,takshaka-mux-board-rounded,74616b73-6861-46b6-912d-6d75782d626f,rev?*%
%TF.SameCoordinates,Original*%
%TF.FileFunction,Copper,L1,Top*%
%TF.FilePolarity,Positive*%
%FSLAX46Y46*%
G04 Gerber Fmt 4.6, Leading zero omitted, Abs format (unit mm)*
G04 Created by KiCad (PCBNEW (6.0.6)) date 2022-09-21 08:03:07*
%MOMM*%
%LPD*%
G01*
G04 APERTURE LIST*
G04 Aperture macros list*
%AMRoundRect*
0 Rectangle with rounded corners*
0 $1 Rounding radius*
0 $2 $3 $4 $5 $6 $7 $8 $9 X,Y pos of 4 corners*
0 Add a 4 corners polygon primitive as box body*
4,1,4,$2,$3,$4,$5,$6,$7,$8,$9,$2,$3,0*
0 Add four circle primitives for the rounded corners*
1,1,$1+$1,$2,$3*
1,1,$1+$1,$4,$5*
1,1,$1+$1,$6,$7*
1,1,$1+$1,$8,$9*
0 Add four rect primitives between the rounded corners*
20,1,$1+$1,$2,$3,$4,$5,0*
20,1,$1+$1,$4,$5,$6,$7,0*
20,1,$1+$1,$6,$7,$8,$9,0*
20,1,$1+$1,$8,$9,$2,$3,0*%
G04 Aperture macros list end*
%TA.AperFunction,SMDPad,CuDef*%
%ADD10RoundRect,0.150000X0.825000X0.150000X-0.825000X0.150000X-0.825000X-0.150000X0.825000X-0.150000X0*%
%TD*%
%TA.AperFunction,ComponentPad*%
%ADD11R,1.700000X1.700000*%
%TD*%
%TA.AperFunction,ComponentPad*%
%ADD12O,1.700000X1.700000*%
%TD*%
%TA.AperFunction,SMDPad,CuDef*%
%ADD13RoundRect,0.250000X-0.475000X0.250000X-0.475000X-0.250000X0.475000X-0.250000X0.475000X0.250000X0*%
%TD*%
%TA.AperFunction,SMDPad,CuDef*%
%ADD14RoundRect,0.150000X-0.825000X-0.150000X0.825000X-0.150000X0.825000X0.150000X-0.825000X0.150000X0*%
%TD*%
%TA.AperFunction,ViaPad*%
%ADD15C,0.800000*%
%TD*%
%TA.AperFunction,Conductor*%
%ADD16C,0.250000*%
%TD*%
G04 APERTURE END LIST*
D10*
%TO.P,U2,1,X4*%
%TO.N,SLITHER*%
X241275000Y-141955000D03*
%TO.P,U2,2,X6*%
%TO.N,SS_MOD*%
X241275000Y-140685000D03*
%TO.P,U2,3,X*%
%TO.N,MUX_1_SIGNAL*%
X241275000Y-139415000D03*
%TO.P,U2,4,X7*%
%TO.N,SH_MOD*%
X241275000Y-138145000D03*
%TO.P,U2,5,X5*%
%TO.N,SD_MOD*%
X241275000Y-136875000D03*
%TO.P,U2,6,Inh*%
%TO.N,GND*%
X241275000Y-135605000D03*
%TO.P,U2,7,VEE*%
X241275000Y-134335000D03*
%TO.P,U2,8,VSS*%
X241275000Y-133065000D03*
%TO.P,U2,9,C*%
%TO.N,CHANNEL_SELECT_C*%
X236325000Y-133065000D03*
%TO.P,U2,10,B*%
%TO.N,CHANNEL_SELECT_B*%
X236325000Y-134335000D03*
%TO.P,U2,11,A*%
%TO.N,CHANNEL_SELECT_A*%
X236325000Y-135605000D03*
%TO.P,U2,12,X3*%
%TO.N,PH_MOD*%
X236325000Y-136875000D03*
%TO.P,U2,13,X0*%
%TO.N,D|R*%
X236325000Y-138145000D03*
%TO.P,U2,14,X1*%
%TO.N,PD_MOD*%
X236325000Y-139415000D03*
%TO.P,U2,15,X2*%
%TO.N,PS_MOD*%
X236325000Y-140685000D03*
%TO.P,U2,16,VDD*%
%TO.N,+3V3_A*%
X236325000Y-141955000D03*
%TD*%
D11*
%TO.P,J4,1,Pin_1*%
%TO.N,+3V3_A*%
X250750000Y-134470000D03*
D12*
%TO.P,J4,2,Pin_2*%
%TO.N,CHANNEL_SELECT_A*%
X250750000Y-137010000D03*
%TO.P,J4,3,Pin_3*%
%TO.N,CHANNEL_SELECT_B*%
X250750000Y-139550000D03*
%TO.P,J4,4,Pin_4*%
%TO.N,CHANNEL_SELECT_C*%
X250750000Y-142090000D03*
%TO.P,J4,5,Pin_5*%
%TO.N,MUX_1_SIGNAL*%
X250750000Y-144630000D03*
%TO.P,J4,6,Pin_6*%
%TO.N,MUX_2_SIGNAL*%
X250750000Y-147170000D03*
%TO.P,J4,7,Pin_7*%
%TO.N,unconnected-(J4-Pad7)*%
X250750000Y-149710000D03*
%TO.P,J4,8,Pin_8*%
%TO.N,GND*%
X250750000Y-152250000D03*
%TD*%
D13*
%TO.P,C2,1*%
%TO.N,+3V3_A*%
X245960000Y-143940000D03*
%TO.P,C2,2*%
%TO.N,GND*%
X245960000Y-145840000D03*
%TD*%
%TO.P,C1,1*%
%TO.N,+3V3_A*%
X245960000Y-133070000D03*
%TO.P,C1,2*%
%TO.N,GND*%
X245960000Y-134970000D03*
%TD*%
D11*
%TO.P,J3,1,Pin_1*%
%TO.N,DRIFT*%
X230430000Y-134470000D03*
D12*
%TO.P,J3,2,Pin_2*%
%TO.N,SHIFT*%
X227890000Y-134470000D03*
%TO.P,J3,3,Pin_3*%
%TO.N,GROWL*%
X230430000Y-137010000D03*
%TO.P,J3,4,Pin_4*%
%TO.N,HOWL*%
X227890000Y-137010000D03*
%TO.P,J3,5,Pin_5*%
%TO.N,R*%
X230430000Y-139550000D03*
%TO.P,J3,6,Pin_6*%
%TO.N,D*%
X227890000Y-139550000D03*
%TO.P,J3,7,Pin_7*%
%TO.N,A*%
X230430000Y-142090000D03*
%TO.P,J3,8,Pin_8*%
%TO.N,S*%
X227890000Y-142090000D03*
%TO.P,J3,9,Pin_9*%
%TO.N,D|R*%
X230430000Y-144630000D03*
%TO.P,J3,10,Pin_10*%
%TO.N,PD_MOD*%
X227890000Y-144630000D03*
%TO.P,J3,11,Pin_11*%
%TO.N,PS_MOD*%
X230430000Y-147170000D03*
%TO.P,J3,12,Pin_12*%
%TO.N,PH_MOD*%
X227890000Y-147170000D03*
%TO.P,J3,13,Pin_13*%
%TO.N,SLITHER*%
X230430000Y-149710000D03*
%TO.P,J3,14,Pin_14*%
%TO.N,SD_MOD*%
X227890000Y-149710000D03*
%TO.P,J3,15,Pin_15*%
%TO.N,SS_MOD*%
X230430000Y-152250000D03*
%TO.P,J3,16,Pin_16*%
%TO.N,SH_MOD*%
X227890000Y-152250000D03*
%TD*%
D14*
%TO.P,U1,1,X4*%
%TO.N,R*%
X236325000Y-143965000D03*
%TO.P,U1,2,X6*%
%TO.N,A*%
X236325000Y-145235000D03*
%TO.P,U1,3,X*%
%TO.N,MUX_1_SIGNAL*%
X236325000Y-146505000D03*
%TO.P,U1,4,X7*%
%TO.N,S*%
X236325000Y-147775000D03*
%TO.P,U1,5,X5*%
%TO.N,D*%
X236325000Y-149045000D03*
%TO.P,U1,6,Inh*%
%TO.N,GND*%
X236325000Y-150315000D03*
%TO.P,U1,7,VEE*%
X236325000Y-151585000D03*
%TO.P,U1,8,VSS*%
X236325000Y-152855000D03*
%TO.P,U1,9,C*%
%TO.N,CHANNEL_SELECT_C*%
X241275000Y-152855000D03*
%TO.P,U1,10,B*%
%TO.N,CHANNEL_SELECT_B*%
X241275000Y-151585000D03*
%TO.P,U1,11,A*%
%TO.N,CHANNEL_SELECT_A*%
X241275000Y-150315000D03*
%TO.P,U1,12,X3*%
%TO.N,HOWL*%
X241275000Y-149045000D03*
%TO.P,U1,13,X0*%
%TO.N,DRIFT*%
X241275000Y-147775000D03*
%TO.P,U1,14,X1*%
%TO.N,SHIFT*%
X241275000Y-146505000D03*
%TO.P,U1,15,X2*%
%TO.N,GROWL*%
X241275000Y-145235000D03*
%TO.P,U1,16,VDD*%
%TO.N,+3V3_A*%
X241275000Y-143965000D03*
%TD*%
D11*
%TO.P,J5,1,Pin_1*%
%TO.N,unconnected-(J5-Pad1)*%
X253290000Y-152250000D03*
%TD*%
%TO.P,J6,1,Pin_1*%
%TO.N,unconnected-(J6-Pad1)*%
X225350000Y-134475000D03*
%TD*%
%TO.P,J1,1,Pin_1*%
%TO.N,unconnected-(J1-Pad1)*%
X253290000Y-134470000D03*
%TD*%
%TO.P,J2,1,Pin_1*%
%TO.N,unconnected-(J2-Pad1)*%
X225350000Y-152250000D03*
%TD*%
D15*
%TO.N,+3V3_A*%
X245605400Y-142757300D03*
%TO.N,GND*%
X239640000Y-134960000D03*
X244080000Y-145800000D03*
X234010000Y-151600000D03*
X247380000Y-136100000D03*
X239350000Y-132720000D03*
%TO.N,DRIFT*%
X242884800Y-147360100D03*
%TO.N,SLITHER*%
X238920000Y-141030000D03*
%TO.N,PD_MOD*%
X234724100Y-139624300D03*
%TO.N,PS_MOD*%
X237913400Y-140367300D03*
%TO.N,PH_MOD*%
X232720000Y-138260000D03*
%TO.N,SS_MOD*%
X240437700Y-142883100D03*
%TO.N,SH_MOD*%
X239798500Y-138719600D03*
%TO.N,D|R*%
X233680000Y-138970000D03*
%TD*%
D16*
%TO.N,SHIFT*%
X237009675Y-144600000D02*
X235500796Y-144600000D01*
%TO.N,HOWL*%
X226455750Y-147434250D02*
X226936583Y-147915083D01*
%TO.N,CHANNEL_SELECT_B*%
X251030100Y-143303000D02*
X250971199Y-143303000D01*
%TO.N,GROWL*%
X236564900Y-142613600D02*
X235562624Y-142613600D01*
%TO.N,D|R*%
X234092511Y-138557511D02*
G75*
G02*
X235088363Y-138145000I995889J-995889D01*
G01*
%TO.N,SH_MOD*%
X240085799Y-138432299D02*
G75*
G02*
X240779403Y-138145000I693601J-693601D01*
G01*
%TO.N,SS_MOD*%
X239973490Y-141387474D02*
G75*
G02*
X240179250Y-140890750I702510J-26D01*
G01*
X240179257Y-140890757D02*
G75*
G02*
X240675974Y-140685000I496743J-496743D01*
G01*
X240205589Y-142651011D02*
G75*
G02*
X239973500Y-142090661I560311J560311D01*
G01*
%TO.N,SD_MOD*%
X229309527Y-132389992D02*
G75*
G02*
X232195344Y-133585344I-27J-4081208D01*
G01*
X225562689Y-138217489D02*
G75*
G03*
X226525400Y-135893336I-2324189J2324189D01*
G01*
X235488664Y-136231025D02*
G75*
G02*
X234383033Y-135773033I36J1563625D01*
G01*
X237151023Y-136230991D02*
G75*
G02*
X237928400Y-136553000I-23J-1099409D01*
G01*
X226525400Y-133889998D02*
G75*
G02*
X228025398Y-132390000I1500000J-2D01*
G01*
X225795350Y-147615338D02*
G75*
G02*
X224600000Y-144729527I2885850J2885838D01*
G01*
X238705776Y-136875009D02*
G75*
G02*
X237928400Y-136553000I24J1099409D01*
G01*
X224599985Y-140541663D02*
G75*
G02*
X225562700Y-138217500I3286915J-37D01*
G01*
%TO.N,PH_MOD*%
X233412487Y-137567487D02*
G75*
G02*
X235084342Y-136875000I1671813J-1671813D01*
G01*
%TO.N,PS_MOD*%
X236483836Y-140526136D02*
G75*
G02*
X236867347Y-140367300I383464J-383464D01*
G01*
%TO.N,PD_MOD*%
X234828751Y-139519651D02*
G75*
G02*
X235081397Y-139415000I252649J-252649D01*
G01*
%TO.N,S*%
X236135250Y-147775034D02*
G75*
G02*
X235811326Y-147640826I50J458134D01*
G01*
X230245550Y-143265331D02*
G75*
G02*
X232277432Y-144106934I50J-2873469D01*
G01*
X229879291Y-143265303D02*
G75*
G02*
X228472650Y-142682650I9J1989303D01*
G01*
X227893529Y-142103541D02*
G75*
G02*
X227890000Y-142095000I8571J8541D01*
G01*
%TO.N,A*%
X231017650Y-142090032D02*
G75*
G02*
X232020831Y-142505531I50J-1418668D01*
G01*
X235537650Y-145235044D02*
G75*
G02*
X234193559Y-144678259I50J1900844D01*
G01*
%TO.N,D*%
X226399996Y-142093589D02*
G75*
G02*
X227145000Y-140295000I2543604J-11D01*
G01*
X227899998Y-145900000D02*
G75*
G02*
X226400000Y-144400001I2J1500000D01*
G01*
X235911650Y-149045039D02*
G75*
G02*
X235206018Y-148752716I50J997939D01*
G01*
X230662827Y-145899992D02*
G75*
G02*
X233548644Y-147095344I-27J-4081208D01*
G01*
%TO.N,R*%
X230845000Y-139550001D02*
G75*
G02*
X231553449Y-139843449I0J-1001899D01*
G01*
X236000000Y-143965005D02*
G75*
G02*
X235445190Y-143735190I0J784605D01*
G01*
%TO.N,GROWL*%
X235562624Y-142613576D02*
G75*
G02*
X235170974Y-142451372I-24J553876D01*
G01*
X230677619Y-137958037D02*
G75*
G02*
X230430000Y-137360200I597881J597837D01*
G01*
X240846500Y-145234997D02*
G75*
G02*
X240115004Y-144932004I0J1034497D01*
G01*
X236564900Y-142613604D02*
G75*
G02*
X238667543Y-143484543I0J-2973596D01*
G01*
%TO.N,MUX_1_SIGNAL*%
X242287150Y-139415042D02*
G75*
G02*
X244015004Y-140130691I50J-2443558D01*
G01*
X243310527Y-148410007D02*
G75*
G03*
X246196344Y-147214655I-27J4081207D01*
G01*
X248714383Y-144696683D02*
G75*
G02*
X248875257Y-144630000I160917J-160817D01*
G01*
X248581049Y-144696650D02*
G75*
G02*
X248581050Y-144829950I-66649J-66650D01*
G01*
X248714350Y-144696650D02*
G75*
G02*
X248581049Y-144696650I-66650J66652D01*
G01*
X240510960Y-148410024D02*
G75*
G02*
X239994287Y-148195987I40J730724D01*
G01*
X237314150Y-146505030D02*
G75*
G02*
X239002734Y-147204434I50J-2387970D01*
G01*
X249971550Y-144630000D02*
X249177850Y-144630000D01*
X248714350Y-144696650D02*
X248581050Y-144829950D01*
%TO.N,CHANNEL_SELECT_C*%
X250895801Y-148440000D02*
G75*
G03*
X252395800Y-146940001I-1J1500000D01*
G01*
X247198361Y-149635350D02*
G75*
G02*
X250084172Y-148440000I2885839J-2885850D01*
G01*
X248664250Y-139884435D02*
G75*
G02*
X248681576Y-139891578I50J-24465D01*
G01*
X242626850Y-152855021D02*
G75*
G03*
X244934602Y-151899097I-50J3263721D01*
G01*
X250026856Y-138511637D02*
G75*
G02*
X250706800Y-138230000I679944J-679963D01*
G01*
X248646948Y-139877196D02*
G75*
G03*
X248664250Y-139884400I17352J17296D01*
G01*
X248664250Y-139884372D02*
G75*
G02*
X248661278Y-139877223I-50J4172D01*
G01*
X248661277Y-139877222D02*
G75*
G02*
X248646922Y-139877222I-7177J7178D01*
G01*
X250706800Y-138230006D02*
G75*
G02*
X251386740Y-138511640I0J-961594D01*
G01*
X252395815Y-140433362D02*
G75*
G03*
X251750450Y-138875350I-2203415J-38D01*
G01*
X237424376Y-133709009D02*
G75*
G02*
X236647000Y-133387000I24J1099409D01*
G01*
X242113119Y-133708990D02*
G75*
G02*
X242737205Y-133967505I-19J-882610D01*
G01*
X250750006Y-142025000D02*
G75*
G03*
X250704037Y-141914039I-156906J0D01*
G01*
%TO.N,CHANNEL_SELECT_B*%
X250770950Y-145805400D02*
G75*
G03*
X251927200Y-144649150I-50J1156300D01*
G01*
X236641550Y-134335030D02*
G75*
G02*
X237181934Y-134558834I50J-764170D01*
G01*
X251927197Y-141559606D02*
G75*
G03*
X251338600Y-140138600I-2009597J6D01*
G01*
X242316400Y-151584987D02*
G75*
G03*
X244094180Y-150848618I0J2514187D01*
G01*
X242017644Y-136239966D02*
G75*
G02*
X243814128Y-136984128I-44J-2540634D01*
G01*
X250971199Y-143302998D02*
G75*
G02*
X249540304Y-142710304I1J2023598D01*
G01*
X240210138Y-136239984D02*
G75*
G02*
X237910600Y-135287500I-38J3251984D01*
G01*
X251927200Y-142405900D02*
G75*
G02*
X251030100Y-143303000I-897100J0D01*
G01*
X251030100Y-143303000D02*
G75*
G02*
X251927200Y-144200100I0J-897100D01*
G01*
X248151054Y-146791741D02*
G75*
G02*
X250532300Y-145805400I2381246J-2381259D01*
G01*
X251927200Y-142405900D02*
X251927200Y-144200100D01*
%TO.N,CHANNEL_SELECT_A*%
X250720000Y-137009993D02*
G75*
G02*
X250771212Y-137031214I0J-72407D01*
G01*
X254520008Y-142470472D02*
G75*
G03*
X253324655Y-139584655I-4081208J-28D01*
G01*
X236120550Y-135604960D02*
G75*
G02*
X235771532Y-135460432I-50J493560D01*
G01*
X239220021Y-152201352D02*
G75*
G02*
X239772499Y-150867499I1886279J52D01*
G01*
X240636898Y-154210000D02*
G75*
G02*
X239635000Y-153795000I2J1416900D01*
G01*
X240638167Y-131750014D02*
G75*
G02*
X243378300Y-132885000I33J-3875086D01*
G01*
X234847959Y-134536803D02*
G75*
G02*
X234120000Y-132779450I1757341J1757403D01*
G01*
X250720000Y-137010007D02*
G75*
G02*
X250668787Y-136988785I0J72407D01*
G01*
X246106650Y-134020031D02*
G75*
G02*
X243386631Y-132893331I50J3846731D01*
G01*
X246106650Y-134020040D02*
G75*
G02*
X248826667Y-135146669I50J-3846660D01*
G01*
X239989114Y-150650865D02*
G75*
G02*
X240800000Y-150315000I810886J-810935D01*
G01*
X254099991Y-153789991D02*
G75*
G03*
X254520000Y-152776030I-1013991J1013991D01*
G01*
X234120000Y-132779450D02*
G75*
G02*
X235149450Y-131750000I1029400J50D01*
G01*
X253086030Y-154210012D02*
G75*
G03*
X254100000Y-153790000I-30J1434012D01*
G01*
X239635000Y-153795000D02*
G75*
G02*
X239220000Y-152793101I1001900J1001900D01*
G01*
%TO.N,SLITHER*%
X242565000Y-140050000D02*
G75*
G02*
X243100000Y-140585000I0J-535000D01*
G01*
X239410010Y-140540010D02*
G75*
G02*
X240592964Y-140050000I1182990J-1182990D01*
G01*
X242721697Y-141498301D02*
G75*
G03*
X243100000Y-140585000I-913297J913301D01*
G01*
X241770000Y-141955009D02*
G75*
G03*
X242615016Y-141604981I0J1195009D01*
G01*
%TO.N,HOWL*%
X240190987Y-149679994D02*
G75*
G03*
X240957500Y-149362500I13J1083994D01*
G01*
X226455737Y-147434263D02*
G75*
G02*
X225450000Y-145006154I2428063J2428063D01*
G01*
X234881512Y-149679994D02*
G75*
G02*
X233384701Y-149059999I-12J2116794D01*
G01*
X231887887Y-148440006D02*
G75*
G02*
X233384699Y-149060001I13J-2116794D01*
G01*
X225449992Y-141140472D02*
G75*
G02*
X226645345Y-138254656I4081208J-28D01*
G01*
X228203845Y-148439962D02*
G75*
G02*
X226936583Y-147915083I-45J1792162D01*
G01*
%TO.N,SHIFT*%
X229065315Y-136706362D02*
G75*
G03*
X228477650Y-135287650I-2006415J-38D01*
G01*
X230250600Y-140725410D02*
G75*
G02*
X232274033Y-141563533I0J-2861590D01*
G01*
X235500796Y-144600007D02*
G75*
G02*
X235175941Y-144465441I4J459407D01*
G01*
X230250600Y-140725400D02*
G75*
G02*
X229065300Y-139540100I0J1185300D01*
G01*
X227971324Y-134781310D02*
G75*
G02*
X227890000Y-134585000I196276J196310D01*
G01*
X240423550Y-146505030D02*
G75*
G02*
X238970033Y-145902933I50J2055630D01*
G01*
X237009675Y-144600029D02*
G75*
G02*
X238131969Y-145064871I25J-1587171D01*
G01*
%TO.N,DRIFT*%
X242176521Y-147775008D02*
G75*
G03*
X242677349Y-147567549I-21J708308D01*
G01*
%TO.N,GND*%
X239952488Y-134647488D02*
G75*
G02*
X240706941Y-134335000I754412J-754412D01*
G01*
X240686048Y-132719951D02*
G75*
G02*
X241102500Y-132892500I-48J-588949D01*
G01*
%TO.N,+3V3_A*%
X241464795Y-143775195D02*
G75*
G02*
X241923017Y-143585400I458205J-458205D01*
G01*
X241006582Y-143964992D02*
G75*
G03*
X241464800Y-143775200I18J647992D01*
G01*
X248360050Y-133069980D02*
G75*
G02*
X250049999Y-133770001I-50J-2390020D01*
G01*
X245605400Y-143334659D02*
G75*
G02*
X245354659Y-143585400I-250700J-41D01*
G01*
X245354659Y-143585417D02*
G75*
G02*
X245782700Y-143762700I41J-605283D01*
G01*
X245782688Y-143762712D02*
G75*
G02*
X245605400Y-143334659I428012J428012D01*
G01*
X237404450Y-141955029D02*
G75*
G02*
X239247186Y-142718286I50J-2605971D01*
G01*
X240884450Y-143964956D02*
G75*
G02*
X240217739Y-143688839I-50J942856D01*
G01*
%TO.N,CHANNEL_SELECT_C*%
X252395800Y-146940001D02*
X252395800Y-140433362D01*
X250895801Y-148440000D02*
X250084172Y-148440000D01*
X247198355Y-149635344D02*
X244934602Y-151899097D01*
X251386740Y-138511640D02*
X251750450Y-138875350D01*
X250026859Y-138511640D02*
X248661277Y-139877222D01*
X242626850Y-152855000D02*
X241275000Y-152855000D01*
%TO.N,+3V3_A*%
X241006582Y-143965000D02*
X240884450Y-143965000D01*
X245782700Y-143762700D02*
X245960000Y-143940000D01*
X237404450Y-141955000D02*
X236325000Y-141955000D01*
X250050000Y-133770000D02*
X250750000Y-134470000D01*
X245605400Y-143334659D02*
X245605400Y-142757300D01*
X239247186Y-142718286D02*
X240217739Y-143688839D01*
X248360050Y-133070000D02*
X245960000Y-133070000D01*
X241923017Y-143585400D02*
X245354659Y-143585400D01*
%TO.N,GND*%
X241102500Y-132892500D02*
X241275000Y-133065000D01*
X239350000Y-132720000D02*
X240686048Y-132720000D01*
X239640000Y-134960000D02*
X239952500Y-134647500D01*
X240706941Y-134335000D02*
X241275000Y-134335000D01*
%TO.N,DRIFT*%
X242176521Y-147775000D02*
X241275000Y-147775000D01*
X242884800Y-147360100D02*
X242677350Y-147567550D01*
%TO.N,SHIFT*%
X228477650Y-135287650D02*
X227971317Y-134781317D01*
X229065300Y-136706362D02*
X229065300Y-139540100D01*
X238970033Y-145902933D02*
X238131970Y-145064870D01*
X240423550Y-146505000D02*
X241275000Y-146505000D01*
X227890000Y-134585000D02*
X227890000Y-134470000D01*
X232274033Y-141563533D02*
X235175941Y-144465441D01*
%TO.N,HOWL*%
X231887887Y-148440000D02*
X228203845Y-148440000D01*
X226645344Y-138254655D02*
X227890000Y-137010000D01*
X225450000Y-145006154D02*
X225450000Y-141140472D01*
X240957500Y-149362500D02*
X241275000Y-149045000D01*
X240190987Y-149680000D02*
X234881512Y-149680000D01*
%TO.N,SLITHER*%
X238920000Y-141030000D02*
X239410000Y-140540000D01*
X242565000Y-140050000D02*
X240592964Y-140050000D01*
X241770000Y-141955000D02*
X241275000Y-141955000D01*
X242721697Y-141498301D02*
X242615017Y-141604982D01*
%TO.N,CHANNEL_SELECT_A*%
X254520000Y-142470472D02*
X254520000Y-152776030D01*
X239772499Y-150867499D02*
X239989124Y-150650875D01*
X235771532Y-135460432D02*
X234847931Y-134536831D01*
X250668786Y-136988786D02*
X248826668Y-135146668D01*
X240800000Y-150315000D02*
X241275000Y-150315000D01*
X239220000Y-152201352D02*
X239220000Y-152793101D01*
X240636898Y-154210000D02*
X253086030Y-154210000D01*
X240638167Y-131750000D02*
X235149450Y-131750000D01*
X250771213Y-137031213D02*
X253324655Y-139584655D01*
X236120550Y-135605000D02*
X236325000Y-135605000D01*
X243378300Y-132885000D02*
X243386631Y-132893331D01*
%TO.N,CHANNEL_SELECT_B*%
X244094180Y-150848618D02*
X248151056Y-146791743D01*
X251338600Y-140138600D02*
X250750000Y-139550000D01*
X251927200Y-141559606D02*
X251927200Y-142405900D01*
X243814128Y-136984128D02*
X249540304Y-142710304D01*
X237181934Y-134558834D02*
X237910600Y-135287500D01*
X251927200Y-144649150D02*
X251927200Y-144200100D01*
X242017644Y-136240000D02*
X240210138Y-136240000D01*
X236641550Y-134335000D02*
X236325000Y-134335000D01*
X250770950Y-145805400D02*
X250532300Y-145805400D01*
X242316400Y-151585000D02*
X241275000Y-151585000D01*
%TO.N,CHANNEL_SELECT_C*%
X248681577Y-139891577D02*
X250704038Y-141914038D01*
X250750000Y-142025000D02*
X250750000Y-142090000D01*
X248646922Y-139877222D02*
X242737205Y-133967505D01*
X236647000Y-133387000D02*
X236325000Y-133065000D01*
X237424376Y-133709000D02*
X242113119Y-133709000D01*
%TO.N,MUX_1_SIGNAL*%
X249971550Y-144630000D02*
X250750000Y-144630000D01*
X249177850Y-144630000D02*
X248875257Y-144630000D01*
X237314150Y-146505000D02*
X236325000Y-146505000D01*
X239994287Y-148195987D02*
X239002734Y-147204434D01*
X242287150Y-139415000D02*
X241275000Y-139415000D01*
X244015004Y-140130691D02*
X248581049Y-144696650D01*
X246196344Y-147214655D02*
X248581050Y-144829950D01*
X243310527Y-148410000D02*
X240510960Y-148410000D01*
%TO.N,GROWL*%
X240115004Y-144932004D02*
X238667543Y-143484543D01*
X240846500Y-145235000D02*
X241275000Y-145235000D01*
X235170973Y-142451373D02*
X230677628Y-137958028D01*
X230430000Y-137360200D02*
X230430000Y-137010000D01*
%TO.N,R*%
X236000000Y-143965000D02*
X236325000Y-143965000D01*
X231553449Y-139843449D02*
X235445190Y-143735190D01*
X230845000Y-139550000D02*
X230430000Y-139550000D01*
%TO.N,D*%
X226400000Y-142093589D02*
X226400000Y-144400001D01*
X235206017Y-148752717D02*
X233548644Y-147095344D01*
X227145000Y-140295000D02*
X227890000Y-139550000D01*
X227899998Y-145900000D02*
X230662827Y-145900000D01*
X235911650Y-149045000D02*
X236325000Y-149045000D01*
%TO.N,A*%
X231017650Y-142090000D02*
X230430000Y-142090000D01*
X235537650Y-145235000D02*
X236325000Y-145235000D01*
X232020831Y-142505531D02*
X234193559Y-144678259D01*
%TO.N,S*%
X236135250Y-147775000D02*
X236325000Y-147775000D01*
X227890000Y-142095000D02*
X227890000Y-142090000D01*
X235811326Y-147640826D02*
X232277433Y-144106933D01*
X228472650Y-142682650D02*
X227893535Y-142103535D01*
X230245550Y-143265300D02*
X229879291Y-143265300D01*
%TO.N,PD_MOD*%
X235081397Y-139415000D02*
X236325000Y-139415000D01*
X234724100Y-139624300D02*
X234828750Y-139519650D01*
%TO.N,PS_MOD*%
X236483850Y-140526150D02*
X236325000Y-140685000D01*
X237913400Y-140367300D02*
X236867347Y-140367300D01*
%TO.N,PH_MOD*%
X232720000Y-138260000D02*
X233412500Y-137567500D01*
X235084342Y-136875000D02*
X236325000Y-136875000D01*
%TO.N,SD_MOD*%
X232195344Y-133585344D02*
X234383033Y-135773033D01*
X229309527Y-132390000D02*
X228025398Y-132390000D01*
X235488664Y-136231000D02*
X237151023Y-136231000D01*
X238705776Y-136875000D02*
X241275000Y-136875000D01*
X226525400Y-135893336D02*
X226525400Y-133889998D01*
X225795344Y-147615344D02*
X227890000Y-149710000D01*
X224600000Y-144729527D02*
X224600000Y-140541663D01*
%TO.N,SS_MOD*%
X239973500Y-141387474D02*
X239973500Y-142090661D01*
X240437700Y-142883100D02*
X240205600Y-142651000D01*
X240675974Y-140685000D02*
X241275000Y-140685000D01*
%TO.N,SH_MOD*%
X240779403Y-138145000D02*
X241275000Y-138145000D01*
X240085800Y-138432300D02*
X239798500Y-138719600D01*
%TO.N,D|R*%
X235088363Y-138145000D02*
X236325000Y-138145000D01*
X233680000Y-138970000D02*
X234092500Y-138557500D01*
%TD*%
%TA.AperFunction,Conductor*%
%TO.N,GND*%
G36*
X231854318Y-149074578D02*
G01*
X231873677Y-149077127D01*
X231873681Y-149077127D01*
X231881208Y-149078118D01*
X231891483Y-149076984D01*
X231898901Y-149076165D01*
X231920967Y-149075674D01*
X232073260Y-149085655D01*
X232089600Y-149087806D01*
X232263699Y-149122435D01*
X232279620Y-149126701D01*
X232405704Y-149169500D01*
X232447707Y-149183758D01*
X232462926Y-149190061D01*
X232622140Y-149268577D01*
X232636409Y-149276816D01*
X232784001Y-149375433D01*
X232797078Y-149385467D01*
X232903666Y-149478943D01*
X232918855Y-149495330D01*
X232918937Y-149495260D01*
X232920786Y-149497414D01*
X232921342Y-149498013D01*
X232921627Y-149498392D01*
X232921633Y-149498399D01*
X232924107Y-149501694D01*
X232928580Y-149506261D01*
X232928757Y-149506492D01*
X232928985Y-149506674D01*
X232933458Y-149511242D01*
X232944664Y-149520028D01*
X232951504Y-149525796D01*
X233134629Y-149691771D01*
X233137115Y-149693615D01*
X233137119Y-149693618D01*
X233244477Y-149773240D01*
X233351679Y-149852746D01*
X233354319Y-149854329D01*
X233354329Y-149854335D01*
X233445553Y-149909012D01*
X233583462Y-149991671D01*
X233586240Y-149992985D01*
X233586244Y-149992987D01*
X233607464Y-150003023D01*
X233827746Y-150107208D01*
X234082178Y-150198244D01*
X234085168Y-150198993D01*
X234085178Y-150198996D01*
X234317084Y-150257084D01*
X234344309Y-150263903D01*
X234611613Y-150303553D01*
X234614697Y-150303704D01*
X234614702Y-150303705D01*
X234657916Y-150305828D01*
X234722183Y-150308984D01*
X234789240Y-150332304D01*
X234833044Y-150388176D01*
X234842001Y-150434832D01*
X234842001Y-150528983D01*
X234842195Y-150533920D01*
X234844430Y-150562336D01*
X234846730Y-150574931D01*
X234889107Y-150720790D01*
X234895352Y-150735221D01*
X234971912Y-150864678D01*
X234978189Y-150872770D01*
X235004139Y-150938854D01*
X234990241Y-151008477D01*
X234978189Y-151027230D01*
X234971912Y-151035322D01*
X234895352Y-151164779D01*
X234889107Y-151179210D01*
X234850061Y-151313605D01*
X234850101Y-151327706D01*
X234857370Y-151331000D01*
X236052885Y-151331000D01*
X236068124Y-151326525D01*
X236069329Y-151325135D01*
X236071000Y-151317452D01*
X236071000Y-150439500D01*
X236091002Y-150371379D01*
X236144658Y-150324886D01*
X236197000Y-150313500D01*
X236453000Y-150313500D01*
X236521121Y-150333502D01*
X236567614Y-150387158D01*
X236579000Y-150439500D01*
X236579000Y-151312885D01*
X236583475Y-151328124D01*
X236584865Y-151329329D01*
X236592548Y-151331000D01*
X237786878Y-151331000D01*
X237800409Y-151327027D01*
X237801544Y-151319129D01*
X237760893Y-151179210D01*
X237754648Y-151164779D01*
X237678088Y-151035322D01*
X237671811Y-151027230D01*
X237645861Y-150961146D01*
X237659759Y-150891523D01*
X237671811Y-150872770D01*
X237678088Y-150864678D01*
X237754648Y-150735221D01*
X237760893Y-150720790D01*
X237803269Y-150574935D01*
X237805570Y-150562333D01*
X237807807Y-150533915D01*
X237808000Y-150528987D01*
X237808000Y-150439500D01*
X237828002Y-150371379D01*
X237881658Y-150324886D01*
X237934000Y-150313500D01*
X239132419Y-150313500D01*
X239200540Y-150333502D01*
X239247033Y-150387158D01*
X239257137Y-150457432D01*
X239226370Y-150523459D01*
X239133147Y-150627776D01*
X238969370Y-150858601D01*
X238832468Y-151106313D01*
X238724162Y-151367796D01*
X238645816Y-151639761D01*
X238598413Y-151918789D01*
X238587196Y-152118610D01*
X238585644Y-152118523D01*
X238585991Y-152121322D01*
X238586500Y-152121322D01*
X238586500Y-152129246D01*
X238586436Y-152129752D01*
X238586302Y-152134541D01*
X238584458Y-152167388D01*
X238583400Y-152178071D01*
X238582567Y-152183925D01*
X238582566Y-152183934D01*
X238581987Y-152188006D01*
X238581847Y-152201370D01*
X238584102Y-152220000D01*
X238585587Y-152232268D01*
X238586500Y-152247409D01*
X238586500Y-152739106D01*
X238585243Y-152756860D01*
X238581987Y-152779737D01*
X238581847Y-152793101D01*
X238582343Y-152797199D01*
X238584013Y-152811007D01*
X238584727Y-152819075D01*
X238589139Y-152897625D01*
X238596182Y-153023035D01*
X238634758Y-153250077D01*
X238698512Y-153471372D01*
X238786643Y-153684138D01*
X238898041Y-153885698D01*
X239031307Y-154073518D01*
X239156510Y-154213619D01*
X239163312Y-154221916D01*
X239174407Y-154236694D01*
X239183758Y-154246242D01*
X239197966Y-154257383D01*
X239204171Y-154262579D01*
X239332582Y-154377335D01*
X239370047Y-154437642D01*
X239368961Y-154508630D01*
X239329668Y-154567762D01*
X239264643Y-154596263D01*
X239248622Y-154597286D01*
X225525156Y-154597286D01*
X225505769Y-154595786D01*
X225490937Y-154593476D01*
X225490934Y-154593476D01*
X225482066Y-154592095D01*
X225466809Y-154594090D01*
X225441490Y-154594833D01*
X225272510Y-154582745D01*
X225254727Y-154580188D01*
X225124558Y-154551871D01*
X225064394Y-154538782D01*
X225047152Y-154533720D01*
X224864637Y-154465644D01*
X224848297Y-154458181D01*
X224810684Y-154437642D01*
X224739355Y-154398693D01*
X224677343Y-154364831D01*
X224662220Y-154355112D01*
X224506292Y-154238385D01*
X224492705Y-154226612D01*
X224354975Y-154088880D01*
X224343202Y-154075293D01*
X224226477Y-153919364D01*
X224216758Y-153904240D01*
X224126874Y-153739626D01*
X224111783Y-153670252D01*
X224136595Y-153603732D01*
X224193431Y-153561186D01*
X224264246Y-153556122D01*
X224281685Y-153561258D01*
X224389684Y-153601745D01*
X224451866Y-153608500D01*
X226248134Y-153608500D01*
X226310316Y-153601745D01*
X226446705Y-153550615D01*
X226563261Y-153463261D01*
X226650615Y-153346705D01*
X226683947Y-153257793D01*
X226694598Y-153229382D01*
X226737240Y-153172618D01*
X226803802Y-153147918D01*
X226873150Y-153163126D01*
X226907817Y-153191114D01*
X226936250Y-153223938D01*
X227108126Y-153366632D01*
X227301000Y-153479338D01*
X227509692Y-153559030D01*
X227514760Y-153560061D01*
X227514763Y-153560062D01*
X227595559Y-153576500D01*
X227728597Y-153603567D01*
X227733772Y-153603757D01*
X227733774Y-153603757D01*
X227946673Y-153611564D01*
X227946677Y-153611564D01*
X227951837Y-153611753D01*
X227956957Y-153611097D01*
X227956959Y-153611097D01*
X228168288Y-153584025D01*
X228168289Y-153584025D01*
X228173416Y-153583368D01*
X228201938Y-153574811D01*
X228382429Y-153520661D01*
X228382434Y-153520659D01*
X228387384Y-153519174D01*
X228587994Y-153420896D01*
X228769860Y-153291173D01*
X228800350Y-153260790D01*
X228924435Y-153137137D01*
X228928096Y-153133489D01*
X228942478Y-153113475D01*
X229058453Y-152952077D01*
X229059776Y-152953028D01*
X229106645Y-152909857D01*
X229176580Y-152897625D01*
X229242026Y-152925144D01*
X229269875Y-152956994D01*
X229277598Y-152969597D01*
X229329987Y-153055088D01*
X229476250Y-153223938D01*
X229648126Y-153366632D01*
X229841000Y-153479338D01*
X230049692Y-153559030D01*
X230054760Y-153560061D01*
X230054763Y-153560062D01*
X230135559Y-153576500D01*
X230268597Y-153603567D01*
X230273772Y-153603757D01*
X230273774Y-153603757D01*
X230486673Y-153611564D01*
X230486677Y-153611564D01*
X230491837Y-153611753D01*
X230496957Y-153611097D01*
X230496959Y-153611097D01*
X230708288Y-153584025D01*
X230708289Y-153584025D01*
X230713416Y-153583368D01*
X230741938Y-153574811D01*
X230922429Y-153520661D01*
X230922434Y-153520659D01*
X230927384Y-153519174D01*
X231127994Y-153420896D01*
X231309860Y-153291173D01*
X231340350Y-153260790D01*
X231464435Y-153137137D01*
X231468096Y-153133489D01*
X231477163Y-153120871D01*
X234848456Y-153120871D01*
X234889107Y-153260790D01*
X234895352Y-153275221D01*
X234971911Y-153404678D01*
X234981551Y-153417104D01*
X235087896Y-153523449D01*
X235100322Y-153533089D01*
X235229779Y-153609648D01*
X235244210Y-153615893D01*
X235390065Y-153658269D01*
X235402667Y-153660570D01*
X235431084Y-153662807D01*
X235436014Y-153663000D01*
X236052885Y-153663000D01*
X236068124Y-153658525D01*
X236069329Y-153657135D01*
X236071000Y-153649452D01*
X236071000Y-153644884D01*
X236579000Y-153644884D01*
X236583475Y-153660123D01*
X236584865Y-153661328D01*
X236592548Y-153662999D01*
X237213984Y-153662999D01*
X237218920Y-153662805D01*
X237247336Y-153660570D01*
X237259931Y-153658270D01*
X237405790Y-153615893D01*
X237420221Y-153609648D01*
X237549678Y-153533089D01*
X237562104Y-153523449D01*
X237668449Y-153417104D01*
X237678089Y-153404678D01*
X237754648Y-153275221D01*
X237760893Y-153260790D01*
X237799939Y-153126395D01*
X237799899Y-153112294D01*
X237792630Y-153109000D01*
X236597115Y-153109000D01*
X236581876Y-153113475D01*
X236580671Y-153114865D01*
X236579000Y-153122548D01*
X236579000Y-153644884D01*
X236071000Y-153644884D01*
X236071000Y-153127115D01*
X236066525Y-153111876D01*
X236065135Y-153110671D01*
X236057452Y-153109000D01*
X234863122Y-153109000D01*
X234849591Y-153112973D01*
X234848456Y-153120871D01*
X231477163Y-153120871D01*
X231482478Y-153113475D01*
X231595435Y-152956277D01*
X231598453Y-152952077D01*
X231619320Y-152909857D01*
X231695136Y-152756453D01*
X231695137Y-152756451D01*
X231697430Y-152751811D01*
X231762370Y-152538069D01*
X231791529Y-152316590D01*
X231791804Y-152305322D01*
X231793074Y-152253365D01*
X231793074Y-152253361D01*
X231793156Y-152250000D01*
X231774852Y-152027361D01*
X231730521Y-151850871D01*
X234848456Y-151850871D01*
X234889107Y-151990790D01*
X234895352Y-152005221D01*
X234971912Y-152134678D01*
X234978189Y-152142770D01*
X235004139Y-152208854D01*
X234990241Y-152278477D01*
X234978189Y-152297230D01*
X234971912Y-152305322D01*
X234895352Y-152434779D01*
X234889107Y-152449210D01*
X234850061Y-152583605D01*
X234850101Y-152597706D01*
X234857370Y-152601000D01*
X236052885Y-152601000D01*
X236068124Y-152596525D01*
X236069329Y-152595135D01*
X236071000Y-152587452D01*
X236071000Y-152582885D01*
X236579000Y-152582885D01*
X236583475Y-152598124D01*
X236584865Y-152599329D01*
X236592548Y-152601000D01*
X237786878Y-152601000D01*
X237800409Y-152597027D01*
X237801544Y-152589129D01*
X237760893Y-152449210D01*
X237754648Y-152434779D01*
X237678088Y-152305322D01*
X237671811Y-152297230D01*
X237645861Y-152231146D01*
X237659759Y-152161523D01*
X237671811Y-152142770D01*
X237678088Y-152134678D01*
X237754648Y-152005221D01*
X237760893Y-151990790D01*
X237799939Y-151856395D01*
X237799899Y-151842294D01*
X237792630Y-151839000D01*
X236597115Y-151839000D01*
X236581876Y-151843475D01*
X236580671Y-151844865D01*
X236579000Y-151852548D01*
X236579000Y-152582885D01*
X236071000Y-152582885D01*
X236071000Y-151857115D01*
X236066525Y-151841876D01*
X236065135Y-151840671D01*
X236057452Y-151839000D01*
X234863122Y-151839000D01*
X234849591Y-151842973D01*
X234848456Y-151850871D01*
X231730521Y-151850871D01*
X231720431Y-151810702D01*
X231631354Y-151605840D01*
X231510014Y-151418277D01*
X231359670Y-151253051D01*
X231355619Y-151249852D01*
X231355615Y-151249848D01*
X231188414Y-151117800D01*
X231188410Y-151117798D01*
X231184359Y-151114598D01*
X231143053Y-151091796D01*
X231093084Y-151041364D01*
X231078312Y-150971921D01*
X231103428Y-150905516D01*
X231130780Y-150878909D01*
X231199969Y-150829557D01*
X231309860Y-150751173D01*
X231340350Y-150720790D01*
X231464435Y-150597137D01*
X231468096Y-150593489D01*
X231485815Y-150568831D01*
X231595435Y-150416277D01*
X231598453Y-150412077D01*
X231601169Y-150406583D01*
X231695136Y-150216453D01*
X231695137Y-150216451D01*
X231697430Y-150211811D01*
X231762370Y-149998069D01*
X231791529Y-149776590D01*
X231791812Y-149765022D01*
X231793074Y-149713365D01*
X231793074Y-149713361D01*
X231793156Y-149710000D01*
X231774852Y-149487361D01*
X231721967Y-149276816D01*
X231721690Y-149275714D01*
X231721690Y-149275713D01*
X231720431Y-149270702D01*
X231711318Y-149249743D01*
X231702497Y-149179297D01*
X231733163Y-149115265D01*
X231793579Y-149077977D01*
X231826867Y-149073500D01*
X231837872Y-149073500D01*
X231854318Y-149074578D01*
G37*
%TD.AperFunction*%
%TA.AperFunction,Conductor*%
G36*
X249365866Y-149171819D02*
G01*
X249424003Y-149212569D01*
X249450880Y-149278282D01*
X249446960Y-149324864D01*
X249410989Y-149454570D01*
X249387251Y-149676695D01*
X249387548Y-149681848D01*
X249387548Y-149681851D01*
X249397382Y-149852403D01*
X249400110Y-149899715D01*
X249401247Y-149904761D01*
X249401248Y-149904767D01*
X249402205Y-149909012D01*
X249449222Y-150117639D01*
X249487461Y-150211811D01*
X249530642Y-150318153D01*
X249533266Y-150324616D01*
X249574969Y-150392670D01*
X249647291Y-150510688D01*
X249649987Y-150515088D01*
X249796250Y-150683938D01*
X249941685Y-150804680D01*
X249946084Y-150808332D01*
X249968126Y-150826632D01*
X250017898Y-150855716D01*
X250041955Y-150869774D01*
X250090679Y-150921412D01*
X250103750Y-150991195D01*
X250077019Y-151056967D01*
X250036562Y-151090327D01*
X250028457Y-151094546D01*
X250019738Y-151100036D01*
X249849433Y-151227905D01*
X249841726Y-151234748D01*
X249694590Y-151388717D01*
X249688104Y-151396727D01*
X249568098Y-151572649D01*
X249563000Y-151581623D01*
X249473338Y-151774783D01*
X249469775Y-151784470D01*
X249414389Y-151984183D01*
X249415912Y-151992607D01*
X249428292Y-151996000D01*
X250878000Y-151996000D01*
X250946121Y-152016002D01*
X250992614Y-152069658D01*
X251004000Y-152122000D01*
X251004000Y-152378000D01*
X250983998Y-152446121D01*
X250930342Y-152492614D01*
X250878000Y-152504000D01*
X249433225Y-152504000D01*
X249419694Y-152507973D01*
X249418257Y-152517966D01*
X249448565Y-152652446D01*
X249451645Y-152662275D01*
X249531770Y-152859603D01*
X249536413Y-152868794D01*
X249647694Y-153050388D01*
X249653777Y-153058699D01*
X249793213Y-153219667D01*
X249800580Y-153226883D01*
X249953159Y-153353556D01*
X249992794Y-153412459D01*
X249994292Y-153483439D01*
X249957177Y-153543962D01*
X249893233Y-153574811D01*
X249872674Y-153576500D01*
X243766244Y-153576500D01*
X243698123Y-153556498D01*
X243651630Y-153502842D01*
X243641526Y-153432568D01*
X243671020Y-153367988D01*
X243728354Y-153330332D01*
X243767307Y-153318050D01*
X243903139Y-153275221D01*
X243958412Y-153257793D01*
X243958416Y-153257791D01*
X243961031Y-153256967D01*
X244221949Y-153148889D01*
X244272888Y-153127789D01*
X244272892Y-153127787D01*
X244275432Y-153126735D01*
X244286697Y-153120871D01*
X244339794Y-153093230D01*
X244577287Y-152969597D01*
X244579607Y-152968119D01*
X244861982Y-152788224D01*
X244861985Y-152788222D01*
X244864297Y-152786749D01*
X245134280Y-152579582D01*
X245136308Y-152577724D01*
X245136316Y-152577717D01*
X245360425Y-152372358D01*
X245369896Y-152364495D01*
X245376296Y-152359690D01*
X245385845Y-152350339D01*
X245405065Y-152325827D01*
X245415124Y-152314479D01*
X247610936Y-150118667D01*
X247623328Y-150107799D01*
X247625820Y-150105887D01*
X247644846Y-150091288D01*
X247658038Y-150074822D01*
X247671756Y-150060243D01*
X247892418Y-149860247D01*
X247901976Y-149852403D01*
X248163785Y-149658233D01*
X248174066Y-149651363D01*
X248453651Y-149483785D01*
X248464556Y-149477956D01*
X248759224Y-149338588D01*
X248770647Y-149333857D01*
X248924094Y-149278952D01*
X249077543Y-149224046D01*
X249089374Y-149220457D01*
X249112856Y-149214575D01*
X249294927Y-149168968D01*
X249365866Y-149171819D01*
G37*
%TD.AperFunction*%
%TA.AperFunction,Conductor*%
G36*
X244678787Y-144238902D02*
G01*
X244725280Y-144292558D01*
X244735993Y-144331893D01*
X244737474Y-144346166D01*
X244739655Y-144352702D01*
X244739655Y-144352704D01*
X244758729Y-144409875D01*
X244793450Y-144513946D01*
X244886522Y-144664348D01*
X245011697Y-144789305D01*
X245016235Y-144792102D01*
X245056824Y-144849353D01*
X245060054Y-144920276D01*
X245024428Y-144981687D01*
X245015932Y-144989062D01*
X245005793Y-144997098D01*
X244891261Y-145111829D01*
X244882249Y-145123240D01*
X244797184Y-145261243D01*
X244791037Y-145274424D01*
X244739862Y-145428710D01*
X244736995Y-145442086D01*
X244727328Y-145536438D01*
X244727000Y-145542855D01*
X244727000Y-145567885D01*
X244731475Y-145583124D01*
X244732865Y-145584329D01*
X244740548Y-145586000D01*
X246088000Y-145586000D01*
X246156121Y-145606002D01*
X246202614Y-145659658D01*
X246214000Y-145712000D01*
X246214000Y-145968000D01*
X246193998Y-146036121D01*
X246140342Y-146082614D01*
X246088000Y-146094000D01*
X244745116Y-146094000D01*
X244729877Y-146098475D01*
X244728672Y-146099865D01*
X244727001Y-146107548D01*
X244727001Y-146137095D01*
X244727338Y-146143614D01*
X244737257Y-146239206D01*
X244740149Y-146252600D01*
X244791588Y-146406784D01*
X244797761Y-146419962D01*
X244883063Y-146557807D01*
X244892099Y-146569208D01*
X245006829Y-146683739D01*
X245018240Y-146692751D01*
X245156243Y-146777816D01*
X245169424Y-146783963D01*
X245323710Y-146835138D01*
X245337088Y-146838006D01*
X245339854Y-146838289D01*
X245341451Y-146838941D01*
X245343811Y-146839447D01*
X245343721Y-146839868D01*
X245405582Y-146865128D01*
X245446366Y-146923242D01*
X245449256Y-146994180D01*
X245413336Y-147055419D01*
X245402073Y-147064837D01*
X245230919Y-147191773D01*
X245220638Y-147198643D01*
X244941052Y-147366221D01*
X244930147Y-147372050D01*
X244635484Y-147511416D01*
X244624061Y-147516147D01*
X244317155Y-147625961D01*
X244305332Y-147629548D01*
X243989122Y-147708756D01*
X243977012Y-147711164D01*
X243914438Y-147720447D01*
X243844120Y-147710657D01*
X243790257Y-147664405D01*
X243769951Y-147596374D01*
X243775189Y-147562821D01*
X243774929Y-147562766D01*
X243775941Y-147558006D01*
X243776117Y-147556874D01*
X243778342Y-147550028D01*
X243780702Y-147527579D01*
X243797614Y-147366665D01*
X243798304Y-147360100D01*
X243786975Y-147252312D01*
X243779032Y-147176735D01*
X243779032Y-147176733D01*
X243778342Y-147170172D01*
X243719327Y-146988544D01*
X243701369Y-146957439D01*
X243650500Y-146869332D01*
X243623840Y-146823156D01*
X243496053Y-146681234D01*
X243341552Y-146568982D01*
X243335524Y-146566298D01*
X243335522Y-146566297D01*
X243173119Y-146493991D01*
X243173118Y-146493991D01*
X243167088Y-146491306D01*
X243073687Y-146471453D01*
X242986744Y-146452972D01*
X242986739Y-146452972D01*
X242980287Y-146451600D01*
X242884500Y-146451600D01*
X242816379Y-146431598D01*
X242769886Y-146377942D01*
X242758500Y-146325600D01*
X242758500Y-146288498D01*
X242757115Y-146270900D01*
X242756067Y-146257579D01*
X242756066Y-146257574D01*
X242755562Y-146251169D01*
X242709145Y-146091399D01*
X242624453Y-145948193D01*
X242621771Y-145945511D01*
X242596498Y-145881139D01*
X242610400Y-145811516D01*
X242620572Y-145795688D01*
X242624453Y-145791807D01*
X242709145Y-145648601D01*
X242715707Y-145626016D01*
X242741731Y-145536438D01*
X242755562Y-145488831D01*
X242757231Y-145467633D01*
X242758307Y-145453958D01*
X242758307Y-145453950D01*
X242758500Y-145451502D01*
X242758500Y-145018498D01*
X242756195Y-144989206D01*
X242756067Y-144987579D01*
X242756066Y-144987574D01*
X242755562Y-144981169D01*
X242709145Y-144821399D01*
X242624453Y-144678193D01*
X242621771Y-144675511D01*
X242596498Y-144611139D01*
X242610400Y-144541516D01*
X242620572Y-144525688D01*
X242624453Y-144521807D01*
X242709145Y-144378601D01*
X242712434Y-144367281D01*
X242729149Y-144309747D01*
X242767362Y-144249912D01*
X242831858Y-144220234D01*
X242850146Y-144218900D01*
X244610666Y-144218900D01*
X244678787Y-144238902D01*
G37*
%TD.AperFunction*%
%TA.AperFunction,Conductor*%
G36*
X246751497Y-134719776D02*
G01*
X246781880Y-134727386D01*
X247033388Y-134790382D01*
X247045215Y-134793969D01*
X247132855Y-134825326D01*
X247330464Y-134896029D01*
X247341880Y-134900758D01*
X247602148Y-135023851D01*
X247615733Y-135030276D01*
X247626638Y-135036105D01*
X247886499Y-135191856D01*
X247896779Y-135198724D01*
X247949129Y-135237548D01*
X248140113Y-135379187D01*
X248149661Y-135387023D01*
X248347742Y-135566551D01*
X248363086Y-135583204D01*
X248370730Y-135593165D01*
X248376659Y-135597915D01*
X248398160Y-135615140D01*
X248408476Y-135624380D01*
X249386751Y-136602655D01*
X249420777Y-136664967D01*
X249419073Y-136725420D01*
X249410989Y-136754570D01*
X249410441Y-136759700D01*
X249410440Y-136759704D01*
X249406933Y-136792522D01*
X249387251Y-136976695D01*
X249387548Y-136981848D01*
X249387548Y-136981851D01*
X249395821Y-137125336D01*
X249400110Y-137199715D01*
X249401247Y-137204761D01*
X249401248Y-137204767D01*
X249420694Y-137291051D01*
X249449222Y-137417639D01*
X249533266Y-137624616D01*
X249535965Y-137629020D01*
X249615520Y-137758842D01*
X249649987Y-137815088D01*
X249653369Y-137818992D01*
X249653371Y-137818995D01*
X249657213Y-137823431D01*
X249686694Y-137888017D01*
X249676577Y-137958289D01*
X249640057Y-138004401D01*
X249635497Y-138007098D01*
X249618810Y-138023785D01*
X249612788Y-138029426D01*
X249610977Y-138031014D01*
X249609388Y-138032407D01*
X249601980Y-138038421D01*
X249592359Y-138045645D01*
X249585172Y-138051041D01*
X249575623Y-138060391D01*
X249573081Y-138063633D01*
X249573080Y-138063634D01*
X249556405Y-138084900D01*
X249546347Y-138096247D01*
X248743194Y-138899400D01*
X248680882Y-138933426D01*
X248610067Y-138928361D01*
X248565004Y-138899400D01*
X245741081Y-136075477D01*
X245707056Y-136013166D01*
X245707055Y-135978000D01*
X245706000Y-135978000D01*
X245706000Y-135959884D01*
X246214000Y-135959884D01*
X246218475Y-135975123D01*
X246219865Y-135976328D01*
X246227548Y-135977999D01*
X246482095Y-135977999D01*
X246488614Y-135977662D01*
X246584206Y-135967743D01*
X246597600Y-135964851D01*
X246751784Y-135913412D01*
X246764962Y-135907239D01*
X246902807Y-135821937D01*
X246914208Y-135812901D01*
X247028739Y-135698171D01*
X247037751Y-135686760D01*
X247122816Y-135548757D01*
X247128963Y-135535576D01*
X247180138Y-135381290D01*
X247183005Y-135367914D01*
X247192672Y-135273562D01*
X247193000Y-135267146D01*
X247193000Y-135242115D01*
X247188525Y-135226876D01*
X247187135Y-135225671D01*
X247179452Y-135224000D01*
X246232115Y-135224000D01*
X246216876Y-135228475D01*
X246215671Y-135229865D01*
X246214000Y-135237548D01*
X246214000Y-135959884D01*
X245706000Y-135959884D01*
X245706000Y-134842000D01*
X245726002Y-134773879D01*
X245779658Y-134727386D01*
X245832000Y-134716000D01*
X246720883Y-134716000D01*
X246751497Y-134719776D01*
G37*
%TD.AperFunction*%
%TA.AperFunction,Conductor*%
G36*
X241471121Y-134362502D02*
G01*
X241517614Y-134416158D01*
X241529000Y-134468500D01*
X241529000Y-135332885D01*
X241533475Y-135348124D01*
X241534865Y-135349329D01*
X241542548Y-135351000D01*
X242000528Y-135351000D01*
X242016024Y-135355550D01*
X242019337Y-135353760D01*
X242045564Y-135351000D01*
X242736878Y-135351000D01*
X242750409Y-135347027D01*
X242751544Y-135339129D01*
X242710893Y-135199210D01*
X242704646Y-135184775D01*
X242700098Y-135177084D01*
X242682639Y-135108268D01*
X242705156Y-135040937D01*
X242760501Y-134996468D01*
X242831102Y-134988980D01*
X242897647Y-135023851D01*
X243639750Y-135765954D01*
X243673776Y-135828266D01*
X243668711Y-135899081D01*
X243626164Y-135955917D01*
X243559644Y-135980728D01*
X243496781Y-135968951D01*
X243236596Y-135845887D01*
X243236587Y-135845883D01*
X243233802Y-135844566D01*
X242940164Y-135739495D01*
X242937159Y-135738742D01*
X242937155Y-135738741D01*
X242640642Y-135664463D01*
X242640632Y-135664461D01*
X242637642Y-135663712D01*
X242634591Y-135663259D01*
X242634589Y-135663259D01*
X242332204Y-135618399D01*
X242332200Y-135618399D01*
X242329149Y-135617946D01*
X242326068Y-135617795D01*
X242326062Y-135617794D01*
X242098012Y-135606587D01*
X242098085Y-135605096D01*
X242096305Y-135605323D01*
X242096247Y-135606500D01*
X242089616Y-135606174D01*
X242089615Y-135606174D01*
X242086425Y-135606017D01*
X242086424Y-135606017D01*
X242071708Y-135605294D01*
X242050853Y-135604269D01*
X242039296Y-135603165D01*
X242031019Y-135601987D01*
X242031012Y-135601986D01*
X242031179Y-135600811D01*
X242027896Y-135599570D01*
X242015663Y-135602088D01*
X241986736Y-135605588D01*
X241971601Y-135606500D01*
X241147000Y-135606500D01*
X241078879Y-135586498D01*
X241032386Y-135532842D01*
X241021000Y-135480500D01*
X241021000Y-134468500D01*
X241041002Y-134400379D01*
X241094658Y-134353886D01*
X241147000Y-134342500D01*
X241403000Y-134342500D01*
X241471121Y-134362502D01*
G37*
%TD.AperFunction*%
%TA.AperFunction,Conductor*%
G36*
X239734122Y-134362502D02*
G01*
X239780615Y-134416158D01*
X239792001Y-134468500D01*
X239792001Y-134548984D01*
X239792195Y-134553920D01*
X239794430Y-134582336D01*
X239796730Y-134594931D01*
X239839107Y-134740790D01*
X239845352Y-134755221D01*
X239921912Y-134884678D01*
X239928189Y-134892770D01*
X239954139Y-134958854D01*
X239940241Y-135028477D01*
X239928189Y-135047230D01*
X239921912Y-135055322D01*
X239845352Y-135184779D01*
X239839107Y-135199210D01*
X239796731Y-135345065D01*
X239794430Y-135357667D01*
X239792193Y-135386084D01*
X239792000Y-135391014D01*
X239792000Y-135419581D01*
X239771998Y-135487702D01*
X239718342Y-135534195D01*
X239644897Y-135543801D01*
X239634431Y-135542023D01*
X239620654Y-135538879D01*
X239352083Y-135461507D01*
X239338746Y-135456840D01*
X239179825Y-135391014D01*
X239080526Y-135349884D01*
X239067804Y-135343757D01*
X238929186Y-135267146D01*
X238823186Y-135208562D01*
X238811222Y-135201045D01*
X238583279Y-135039313D01*
X238572232Y-135030503D01*
X238389222Y-134866956D01*
X238373216Y-134849705D01*
X238371167Y-134847034D01*
X238366543Y-134841008D01*
X238339110Y-134819030D01*
X238328796Y-134809791D01*
X238076600Y-134557595D01*
X238042574Y-134495283D01*
X238047639Y-134424468D01*
X238090186Y-134367632D01*
X238156706Y-134342821D01*
X238165695Y-134342500D01*
X239666001Y-134342500D01*
X239734122Y-134362502D01*
G37*
%TD.AperFunction*%
%TA.AperFunction,Conductor*%
G36*
X239847091Y-132403502D02*
G01*
X239893584Y-132457158D01*
X239903688Y-132527432D01*
X239887423Y-132573639D01*
X239845355Y-132644773D01*
X239839107Y-132659210D01*
X239796731Y-132805065D01*
X239794430Y-132817667D01*
X239792193Y-132846085D01*
X239792000Y-132851014D01*
X239792000Y-132949500D01*
X239771998Y-133017621D01*
X239718342Y-133064114D01*
X239666000Y-133075500D01*
X237934500Y-133075500D01*
X237866379Y-133055498D01*
X237819886Y-133001842D01*
X237808500Y-132949500D01*
X237808500Y-132848498D01*
X237808097Y-132843373D01*
X237806067Y-132817579D01*
X237806066Y-132817574D01*
X237805562Y-132811169D01*
X237761886Y-132660833D01*
X237761357Y-132659012D01*
X237761356Y-132659010D01*
X237759145Y-132651399D01*
X237713156Y-132573637D01*
X237695698Y-132504823D01*
X237718215Y-132437491D01*
X237773559Y-132393022D01*
X237821611Y-132383500D01*
X239778970Y-132383500D01*
X239847091Y-132403502D01*
G37*
%TD.AperFunction*%
%TD*%
M02*
