M48
; DRILL file {KiCad (6.0.6)} date Wed Sep 21 08:03:09 2022
; FORMAT={-:-/ absolute / inch / decimal}
; #@! TF.CreationDate,2022-09-21T08:03:09-07:00
; #@! TF.GenerationSoftware,Kicad,Pcbnew,(6.0.6)
; #@! TF.FileFunction,MixedPlating,1,2
FMAT,2
INCH
; #@! TA.AperFunction,Plated,PTH,ViaDrill
T1C0.0157
; #@! TA.AperFunction,Plated,PTH,ComponentDrill
T2C0.0394
%
G90
G05
T1
X9.1622Y-5.4433
X9.2Y-5.4713
X9.213Y-5.9685
X9.2411Y-5.497
X9.3667Y-5.5263
X9.4063Y-5.5524
X9.4232Y-5.2252
X9.4346Y-5.3134
X9.4409Y-5.4614
X9.4661Y-5.6253
X9.5624Y-5.8016
X9.6094Y-5.7402
X9.6695Y-5.6204
X9.7394Y-5.3583
T2
X8.872Y-5.2943
X8.872Y-5.9941
X8.972Y-5.2941
X8.972Y-5.3941
X8.972Y-5.4941
X8.972Y-5.5941
X8.972Y-5.6941
X8.972Y-5.7941
X8.972Y-5.8941
X8.972Y-5.9941
X9.072Y-5.2941
X9.072Y-5.3941
X9.072Y-5.4941
X9.072Y-5.5941
X9.072Y-5.6941
X9.072Y-5.7941
X9.072Y-5.8941
X9.072Y-5.9941
X9.872Y-5.2941
X9.872Y-5.3941
X9.872Y-5.4941
X9.872Y-5.5941
X9.872Y-5.6941
X9.872Y-5.7941
X9.872Y-5.8941
X9.872Y-5.9941
X9.972Y-5.2941
X9.972Y-5.9941
T0
M30
