%TF.GenerationSoftware,KiCad,Pcbnew,(6.0.6)*%
%TF.CreationDate,2022-09-21T08:03:07-07:00*%
%TF.ProjectId,takshaka-mux-board-rounded,74616b73-6861-46b6-912d-6d75782d626f,rev?*%
%TF.SameCoordinates,Original*%
%TF.FileFunction,Copper,L2,Bot*%
%TF.FilePolarity,Positive*%
%FSLAX46Y46*%
G04 Gerber Fmt 4.6, Leading zero omitted, Abs format (unit mm)*
G04 Created by KiCad (PCBNEW (6.0.6)) date 2022-09-21 08:03:07*
%MOMM*%
%LPD*%
G01*
G04 APERTURE LIST*
%TA.AperFunction,ComponentPad*%
%ADD10R,1.700000X1.700000*%
%TD*%
%TA.AperFunction,ComponentPad*%
%ADD11O,1.700000X1.700000*%
%TD*%
%TA.AperFunction,ViaPad*%
%ADD12C,0.800000*%
%TD*%
%TA.AperFunction,Conductor*%
%ADD13C,0.250000*%
%TD*%
G04 APERTURE END LIST*
D10*
%TO.P,J4,1,Pin_1*%
%TO.N,+3V3_A*%
X250750000Y-134470000D03*
D11*
%TO.P,J4,2,Pin_2*%
%TO.N,CHANNEL_SELECT_A*%
X250750000Y-137010000D03*
%TO.P,J4,3,Pin_3*%
%TO.N,CHANNEL_SELECT_B*%
X250750000Y-139550000D03*
%TO.P,J4,4,Pin_4*%
%TO.N,CHANNEL_SELECT_C*%
X250750000Y-142090000D03*
%TO.P,J4,5,Pin_5*%
%TO.N,MUX_1_SIGNAL*%
X250750000Y-144630000D03*
%TO.P,J4,6,Pin_6*%
%TO.N,MUX_2_SIGNAL*%
X250750000Y-147170000D03*
%TO.P,J4,7,Pin_7*%
%TO.N,unconnected-(J4-Pad7)*%
X250750000Y-149710000D03*
%TO.P,J4,8,Pin_8*%
%TO.N,GND*%
X250750000Y-152250000D03*
%TD*%
D10*
%TO.P,J3,1,Pin_1*%
%TO.N,DRIFT*%
X230430000Y-134470000D03*
D11*
%TO.P,J3,2,Pin_2*%
%TO.N,SHIFT*%
X227890000Y-134470000D03*
%TO.P,J3,3,Pin_3*%
%TO.N,GROWL*%
X230430000Y-137010000D03*
%TO.P,J3,4,Pin_4*%
%TO.N,HOWL*%
X227890000Y-137010000D03*
%TO.P,J3,5,Pin_5*%
%TO.N,R*%
X230430000Y-139550000D03*
%TO.P,J3,6,Pin_6*%
%TO.N,D*%
X227890000Y-139550000D03*
%TO.P,J3,7,Pin_7*%
%TO.N,A*%
X230430000Y-142090000D03*
%TO.P,J3,8,Pin_8*%
%TO.N,S*%
X227890000Y-142090000D03*
%TO.P,J3,9,Pin_9*%
%TO.N,D|R*%
X230430000Y-144630000D03*
%TO.P,J3,10,Pin_10*%
%TO.N,PD_MOD*%
X227890000Y-144630000D03*
%TO.P,J3,11,Pin_11*%
%TO.N,PS_MOD*%
X230430000Y-147170000D03*
%TO.P,J3,12,Pin_12*%
%TO.N,PH_MOD*%
X227890000Y-147170000D03*
%TO.P,J3,13,Pin_13*%
%TO.N,SLITHER*%
X230430000Y-149710000D03*
%TO.P,J3,14,Pin_14*%
%TO.N,SD_MOD*%
X227890000Y-149710000D03*
%TO.P,J3,15,Pin_15*%
%TO.N,SS_MOD*%
X230430000Y-152250000D03*
%TO.P,J3,16,Pin_16*%
%TO.N,SH_MOD*%
X227890000Y-152250000D03*
%TD*%
D10*
%TO.P,J5,1,Pin_1*%
%TO.N,unconnected-(J5-Pad1)*%
X253290000Y-152250000D03*
%TD*%
%TO.P,J6,1,Pin_1*%
%TO.N,unconnected-(J6-Pad1)*%
X225350000Y-134475000D03*
%TD*%
%TO.P,J1,1,Pin_1*%
%TO.N,unconnected-(J1-Pad1)*%
X253290000Y-134470000D03*
%TD*%
%TO.P,J2,1,Pin_1*%
%TO.N,unconnected-(J2-Pad1)*%
X225350000Y-152250000D03*
%TD*%
D12*
%TO.N,+3V3_A*%
X245605400Y-142757300D03*
%TO.N,GND*%
X239640000Y-134960000D03*
X244080000Y-145800000D03*
X234010000Y-151600000D03*
X247380000Y-136100000D03*
X239350000Y-132720000D03*
%TO.N,DRIFT*%
X242884800Y-147360100D03*
%TO.N,SLITHER*%
X238920000Y-141030000D03*
%TO.N,PD_MOD*%
X234724100Y-139624300D03*
%TO.N,PS_MOD*%
X237913400Y-140367300D03*
%TO.N,PH_MOD*%
X232720000Y-138260000D03*
%TO.N,SS_MOD*%
X240437700Y-142883100D03*
%TO.N,SH_MOD*%
X239798500Y-138719600D03*
%TO.N,D|R*%
X233680000Y-138970000D03*
%TD*%
D13*
%TO.N,D|R*%
X232827931Y-142232058D02*
G75*
G03*
X233680000Y-140175000I-2057031J2057058D01*
G01*
%TO.N,SH_MOD*%
X230323700Y-151074700D02*
G75*
G03*
X231092751Y-150756148I0J1087600D01*
G01*
X229554649Y-151393252D02*
G75*
G02*
X230323700Y-151074700I769051J-769048D01*
G01*
X228293950Y-152250040D02*
G75*
G03*
X228983534Y-151964363I-50J975240D01*
G01*
X240709988Y-140275627D02*
G75*
G03*
X240254250Y-139175350I-1555988J27D01*
G01*
X240176918Y-141671993D02*
G75*
G03*
X240710000Y-140385000I-1287018J1286993D01*
G01*
%TO.N,SS_MOD*%
X230750400Y-152250003D02*
G75*
G03*
X231297357Y-152023442I0J773503D01*
G01*
%TO.N,PH_MOD*%
X226225350Y-145505338D02*
G75*
G02*
X225030000Y-142619527I2885850J2885838D01*
G01*
X225029997Y-140035391D02*
G75*
G02*
X225550000Y-138780000I1775403J-9D01*
G01*
X225550003Y-138780003D02*
G75*
G02*
X226805391Y-138260000I1255397J-1255397D01*
G01*
%TO.N,PS_MOD*%
X230770350Y-147170028D02*
G75*
G03*
X231351363Y-146929336I-50J821728D01*
G01*
%TO.N,PD_MOD*%
X233874929Y-142875258D02*
G75*
G03*
X234724100Y-140825200I-2050029J2050058D01*
G01*
X229904556Y-145810117D02*
G75*
G02*
X228480051Y-145220049I44J2014617D01*
G01*
X230434513Y-145810107D02*
G75*
G03*
X231297603Y-145452596I-13J1220607D01*
G01*
%TO.N,SLITHER*%
X238852835Y-141287186D02*
G75*
G03*
X238920000Y-141125000I-162235J162186D01*
G01*
%TO.N,DRIFT*%
X242884808Y-142463072D02*
G75*
G03*
X241689455Y-139577255I-4081208J-28D01*
G01*
X234891727Y-134469992D02*
G75*
G02*
X237777544Y-135665344I-27J-4081208D01*
G01*
%TO.N,+3V3_A*%
X250742920Y-134497063D02*
G75*
G03*
X250750000Y-134480000I-17020J17063D01*
G01*
X245605426Y-141195950D02*
G75*
G02*
X246709442Y-138530559I3769374J50D01*
G01*
X250750000Y-134480000D02*
X250750000Y-134470000D01*
X250742928Y-134497071D02*
X246709441Y-138530558D01*
X245605400Y-142757300D02*
X245605400Y-141195950D01*
%TO.N,DRIFT*%
X234891727Y-134470000D02*
X230430000Y-134470000D01*
X242884800Y-142463072D02*
X242884800Y-147360100D01*
X241689455Y-139577255D02*
X237777544Y-135665344D01*
%TO.N,SLITHER*%
X238852824Y-141287175D02*
X230430000Y-149710000D01*
X238920000Y-141030000D02*
X238920000Y-141125000D01*
%TO.N,PD_MOD*%
X228480050Y-145220050D02*
X227890000Y-144630000D01*
X233874935Y-142875264D02*
X231297603Y-145452596D01*
X229904556Y-145810100D02*
X230434513Y-145810100D01*
X234724100Y-140825200D02*
X234724100Y-139624300D01*
%TO.N,PS_MOD*%
X230770350Y-147170000D02*
X230430000Y-147170000D01*
X237913400Y-140367300D02*
X231351363Y-146929336D01*
%TO.N,PH_MOD*%
X226225344Y-145505344D02*
X227890000Y-147170000D01*
X225030000Y-142619527D02*
X225030000Y-140035391D01*
X232720000Y-138260000D02*
X226805391Y-138260000D01*
%TO.N,SS_MOD*%
X230750400Y-152250000D02*
X230430000Y-152250000D01*
X240437700Y-142883100D02*
X231297357Y-152023442D01*
%TO.N,SH_MOD*%
X231092751Y-150756148D02*
X240176912Y-141671987D01*
X240710000Y-140275627D02*
X240710000Y-140385000D01*
X228293950Y-152250000D02*
X227890000Y-152250000D01*
X229554648Y-151393251D02*
X228983535Y-151964364D01*
X239798500Y-138719600D02*
X240254250Y-139175350D01*
%TO.N,D|R*%
X232827936Y-142232063D02*
X230430000Y-144630000D01*
X233680000Y-138970000D02*
X233680000Y-140175000D01*
%TD*%
%TA.AperFunction,Conductor*%
%TO.N,GND*%
G36*
X253060018Y-131370000D02*
G01*
X253074851Y-131372310D01*
X253074855Y-131372310D01*
X253083724Y-131373691D01*
X253098981Y-131371696D01*
X253124302Y-131370953D01*
X253293285Y-131383039D01*
X253311064Y-131385596D01*
X253501392Y-131426999D01*
X253518641Y-131432063D01*
X253701150Y-131500136D01*
X253717502Y-131507604D01*
X253888458Y-131600952D01*
X253903582Y-131610672D01*
X254059514Y-131727402D01*
X254073100Y-131739175D01*
X254210825Y-131876900D01*
X254222598Y-131890486D01*
X254339328Y-132046418D01*
X254349048Y-132061542D01*
X254442396Y-132232498D01*
X254449864Y-132248850D01*
X254517937Y-132431359D01*
X254523001Y-132448607D01*
X254564404Y-132638936D01*
X254566962Y-132656721D01*
X254578540Y-132818601D01*
X254577793Y-132836565D01*
X254577692Y-132844845D01*
X254576309Y-132853724D01*
X254577474Y-132862632D01*
X254580427Y-132885217D01*
X254581491Y-132901580D01*
X254581457Y-133064855D01*
X254561441Y-133132972D01*
X254507775Y-133179454D01*
X254437499Y-133189543D01*
X254394947Y-133175348D01*
X254393887Y-133174768D01*
X254386705Y-133169385D01*
X254378304Y-133166236D01*
X254378303Y-133166235D01*
X254316785Y-133143173D01*
X254250316Y-133118255D01*
X254188134Y-133111500D01*
X252391866Y-133111500D01*
X252329684Y-133118255D01*
X252193295Y-133169385D01*
X252095565Y-133242630D01*
X252029059Y-133267478D01*
X251959676Y-133252425D01*
X251944435Y-133242630D01*
X251846705Y-133169385D01*
X251710316Y-133118255D01*
X251648134Y-133111500D01*
X249851866Y-133111500D01*
X249789684Y-133118255D01*
X249653295Y-133169385D01*
X249536739Y-133256739D01*
X249449385Y-133373295D01*
X249398255Y-133509684D01*
X249395779Y-133532476D01*
X249391872Y-133568446D01*
X249391500Y-133571866D01*
X249391500Y-134900405D01*
X249371498Y-134968526D01*
X249354595Y-134989500D01*
X246299669Y-138044425D01*
X246286227Y-138056090D01*
X246279022Y-138061500D01*
X246267746Y-138069966D01*
X246258197Y-138079317D01*
X246255649Y-138082566D01*
X246252899Y-138085637D01*
X246252897Y-138085635D01*
X246251235Y-138087595D01*
X245998777Y-138363105D01*
X245997099Y-138365291D01*
X245997098Y-138365293D01*
X245766396Y-138665953D01*
X245766389Y-138665963D01*
X245764727Y-138668129D01*
X245707352Y-138758191D01*
X245559628Y-138990072D01*
X245559621Y-138990084D01*
X245558152Y-138992390D01*
X245380625Y-139333423D01*
X245379573Y-139335963D01*
X245379572Y-139335965D01*
X245353684Y-139398466D01*
X245233497Y-139688630D01*
X245232676Y-139691233D01*
X245232673Y-139691242D01*
X245118990Y-140051811D01*
X245117887Y-140055309D01*
X245094411Y-140161206D01*
X245037620Y-140417390D01*
X245034676Y-140430668D01*
X244984497Y-140811852D01*
X244969198Y-141162354D01*
X244968994Y-141167037D01*
X244968150Y-141176126D01*
X244967969Y-141178505D01*
X244967387Y-141182594D01*
X244967247Y-141195958D01*
X244970987Y-141226860D01*
X244971900Y-141241999D01*
X244971900Y-142054776D01*
X244951898Y-142122897D01*
X244939542Y-142139079D01*
X244866360Y-142220356D01*
X244770873Y-142385744D01*
X244711858Y-142567372D01*
X244711168Y-142573933D01*
X244711168Y-142573935D01*
X244704883Y-142633737D01*
X244691896Y-142757300D01*
X244692586Y-142763865D01*
X244705916Y-142890689D01*
X244711858Y-142947228D01*
X244770873Y-143128856D01*
X244866360Y-143294244D01*
X244870778Y-143299151D01*
X244870779Y-143299152D01*
X244949552Y-143386638D01*
X244994147Y-143436166D01*
X245148648Y-143548418D01*
X245154676Y-143551102D01*
X245154678Y-143551103D01*
X245317081Y-143623409D01*
X245323112Y-143626094D01*
X245416512Y-143645947D01*
X245503456Y-143664428D01*
X245503461Y-143664428D01*
X245509913Y-143665800D01*
X245700887Y-143665800D01*
X245707339Y-143664428D01*
X245707344Y-143664428D01*
X245794288Y-143645947D01*
X245887688Y-143626094D01*
X245893719Y-143623409D01*
X246056122Y-143551103D01*
X246056124Y-143551102D01*
X246062152Y-143548418D01*
X246216653Y-143436166D01*
X246261248Y-143386638D01*
X246340021Y-143299152D01*
X246340022Y-143299151D01*
X246344440Y-143294244D01*
X246439927Y-143128856D01*
X246498942Y-142947228D01*
X246504885Y-142890689D01*
X246518214Y-142763865D01*
X246518904Y-142757300D01*
X246505917Y-142633737D01*
X246499632Y-142573935D01*
X246499632Y-142573933D01*
X246498942Y-142567372D01*
X246439927Y-142385744D01*
X246344440Y-142220356D01*
X246271263Y-142139085D01*
X246240547Y-142075079D01*
X246238900Y-142054776D01*
X246238900Y-141245961D01*
X246239978Y-141229516D01*
X246242527Y-141210157D01*
X246242527Y-141210153D01*
X246243518Y-141202625D01*
X246241307Y-141182594D01*
X246241215Y-141181758D01*
X246240606Y-141161754D01*
X246250779Y-140954598D01*
X246253719Y-140894742D01*
X246254930Y-140882443D01*
X246255091Y-140881364D01*
X246288302Y-140657456D01*
X246298266Y-140590278D01*
X246300678Y-140578151D01*
X246358688Y-140346550D01*
X246372443Y-140291637D01*
X246376031Y-140279807D01*
X246384194Y-140256994D01*
X246475536Y-140001702D01*
X246480267Y-139990280D01*
X246480389Y-139990023D01*
X246606552Y-139723267D01*
X246612372Y-139712379D01*
X246764221Y-139459032D01*
X246771088Y-139448754D01*
X246947045Y-139211499D01*
X246954882Y-139201950D01*
X247129313Y-139009493D01*
X247145968Y-138994148D01*
X247149907Y-138991126D01*
X247149913Y-138991120D01*
X247155934Y-138986500D01*
X247177915Y-138959063D01*
X247187155Y-138948748D01*
X249176109Y-136959794D01*
X249238421Y-136925768D01*
X249309236Y-136930833D01*
X249366072Y-136973380D01*
X249390995Y-137041636D01*
X249393202Y-137079908D01*
X249400110Y-137199715D01*
X249401247Y-137204761D01*
X249401248Y-137204767D01*
X249421119Y-137292939D01*
X249449222Y-137417639D01*
X249533266Y-137624616D01*
X249649987Y-137815088D01*
X249796250Y-137983938D01*
X249968126Y-138126632D01*
X250003057Y-138147044D01*
X250041445Y-138169476D01*
X250090169Y-138221114D01*
X250103240Y-138290897D01*
X250076509Y-138356669D01*
X250036055Y-138390027D01*
X250023607Y-138396507D01*
X250019474Y-138399610D01*
X250019471Y-138399612D01*
X249854609Y-138523394D01*
X249844965Y-138530635D01*
X249841393Y-138534373D01*
X249713573Y-138668129D01*
X249690629Y-138692138D01*
X249564743Y-138876680D01*
X249540206Y-138929540D01*
X249482526Y-139053803D01*
X249470688Y-139079305D01*
X249410989Y-139294570D01*
X249387251Y-139516695D01*
X249387548Y-139521848D01*
X249387548Y-139521851D01*
X249397228Y-139689726D01*
X249400110Y-139739715D01*
X249401247Y-139744761D01*
X249401248Y-139744767D01*
X249415423Y-139807665D01*
X249449222Y-139957639D01*
X249507637Y-140101498D01*
X249519740Y-140131304D01*
X249533266Y-140164616D01*
X249577131Y-140236197D01*
X249647291Y-140350688D01*
X249649987Y-140355088D01*
X249796250Y-140523938D01*
X249861550Y-140578151D01*
X249960314Y-140660146D01*
X249968126Y-140666632D01*
X250038595Y-140707811D01*
X250041445Y-140709476D01*
X250090169Y-140761114D01*
X250103240Y-140830897D01*
X250076509Y-140896669D01*
X250036055Y-140930027D01*
X250023607Y-140936507D01*
X250019474Y-140939610D01*
X250019471Y-140939612D01*
X249849100Y-141067530D01*
X249844965Y-141070635D01*
X249841393Y-141074373D01*
X249711635Y-141210157D01*
X249690629Y-141232138D01*
X249687720Y-141236403D01*
X249687714Y-141236411D01*
X249675404Y-141254457D01*
X249564743Y-141416680D01*
X249470688Y-141619305D01*
X249410989Y-141834570D01*
X249387251Y-142056695D01*
X249387548Y-142061848D01*
X249387548Y-142061851D01*
X249393011Y-142156590D01*
X249400110Y-142279715D01*
X249401247Y-142284761D01*
X249401248Y-142284767D01*
X249413977Y-142341248D01*
X249449222Y-142497639D01*
X249533266Y-142704616D01*
X249584019Y-142787438D01*
X249647291Y-142890688D01*
X249649987Y-142895088D01*
X249796250Y-143063938D01*
X249968126Y-143206632D01*
X250038595Y-143247811D01*
X250041445Y-143249476D01*
X250090169Y-143301114D01*
X250103240Y-143370897D01*
X250076509Y-143436669D01*
X250036055Y-143470027D01*
X250023607Y-143476507D01*
X250019474Y-143479610D01*
X250019471Y-143479612D01*
X249909786Y-143561966D01*
X249844965Y-143610635D01*
X249841393Y-143614373D01*
X249708664Y-143753266D01*
X249690629Y-143772138D01*
X249564743Y-143956680D01*
X249549003Y-143990590D01*
X249509742Y-144075171D01*
X249470688Y-144159305D01*
X249410989Y-144374570D01*
X249387251Y-144596695D01*
X249387548Y-144601848D01*
X249387548Y-144601851D01*
X249393011Y-144696590D01*
X249400110Y-144819715D01*
X249401247Y-144824761D01*
X249401248Y-144824767D01*
X249421119Y-144912939D01*
X249449222Y-145037639D01*
X249533266Y-145244616D01*
X249535965Y-145249020D01*
X249624115Y-145392868D01*
X249649987Y-145435088D01*
X249796250Y-145603938D01*
X249968126Y-145746632D01*
X250038595Y-145787811D01*
X250041445Y-145789476D01*
X250090169Y-145841114D01*
X250103240Y-145910897D01*
X250076509Y-145976669D01*
X250036055Y-146010027D01*
X250023607Y-146016507D01*
X250019474Y-146019610D01*
X250019471Y-146019612D01*
X249995247Y-146037800D01*
X249844965Y-146150635D01*
X249690629Y-146312138D01*
X249564743Y-146496680D01*
X249549003Y-146530590D01*
X249480634Y-146677879D01*
X249470688Y-146699305D01*
X249410989Y-146914570D01*
X249387251Y-147136695D01*
X249387548Y-147141848D01*
X249387548Y-147141851D01*
X249393011Y-147236590D01*
X249400110Y-147359715D01*
X249401247Y-147364761D01*
X249401248Y-147364767D01*
X249410952Y-147407826D01*
X249449222Y-147577639D01*
X249533266Y-147784616D01*
X249584019Y-147867438D01*
X249647291Y-147970688D01*
X249649987Y-147975088D01*
X249796250Y-148143938D01*
X249968126Y-148286632D01*
X250038595Y-148327811D01*
X250041445Y-148329476D01*
X250090169Y-148381114D01*
X250103240Y-148450897D01*
X250076509Y-148516669D01*
X250036055Y-148550027D01*
X250023607Y-148556507D01*
X250019474Y-148559610D01*
X250019471Y-148559612D01*
X249995247Y-148577800D01*
X249844965Y-148690635D01*
X249690629Y-148852138D01*
X249564743Y-149036680D01*
X249470688Y-149239305D01*
X249410989Y-149454570D01*
X249387251Y-149676695D01*
X249387548Y-149681848D01*
X249387548Y-149681851D01*
X249393011Y-149776590D01*
X249400110Y-149899715D01*
X249401247Y-149904761D01*
X249401248Y-149904767D01*
X249421119Y-149992939D01*
X249449222Y-150117639D01*
X249533266Y-150324616D01*
X249649987Y-150515088D01*
X249796250Y-150683938D01*
X249968126Y-150826632D01*
X249995844Y-150842829D01*
X250041955Y-150869774D01*
X250090679Y-150921412D01*
X250103750Y-150991195D01*
X250077019Y-151056967D01*
X250036562Y-151090327D01*
X250028457Y-151094546D01*
X250019738Y-151100036D01*
X249849433Y-151227905D01*
X249841726Y-151234748D01*
X249694590Y-151388717D01*
X249688104Y-151396727D01*
X249568098Y-151572649D01*
X249563000Y-151581623D01*
X249473338Y-151774783D01*
X249469775Y-151784470D01*
X249414389Y-151984183D01*
X249415912Y-151992607D01*
X249428292Y-151996000D01*
X250878000Y-151996000D01*
X250946121Y-152016002D01*
X250992614Y-152069658D01*
X251004000Y-152122000D01*
X251004000Y-153568517D01*
X251008064Y-153582359D01*
X251021478Y-153584393D01*
X251028184Y-153583534D01*
X251038262Y-153581392D01*
X251242255Y-153520191D01*
X251251842Y-153516433D01*
X251443095Y-153422739D01*
X251451945Y-153417464D01*
X251625328Y-153293792D01*
X251633193Y-153287145D01*
X251737897Y-153182805D01*
X251800268Y-153148889D01*
X251871075Y-153154077D01*
X251927837Y-153196723D01*
X251944819Y-153227826D01*
X251967057Y-153287145D01*
X251989385Y-153346705D01*
X252076739Y-153463261D01*
X252193295Y-153550615D01*
X252329684Y-153601745D01*
X252391866Y-153608500D01*
X254188134Y-153608500D01*
X254250316Y-153601745D01*
X254259727Y-153598217D01*
X254261404Y-153598094D01*
X254265400Y-153597144D01*
X254265554Y-153597790D01*
X254330534Y-153593032D01*
X254392904Y-153626952D01*
X254427034Y-153689207D01*
X254422089Y-153760031D01*
X254414547Y-153776583D01*
X254344839Y-153904244D01*
X254335120Y-153919367D01*
X254218386Y-154075307D01*
X254206612Y-154088894D01*
X254068894Y-154226612D01*
X254055307Y-154238386D01*
X253899367Y-154355120D01*
X253884244Y-154364839D01*
X253713290Y-154458186D01*
X253696937Y-154465654D01*
X253514439Y-154533722D01*
X253497190Y-154538787D01*
X253306855Y-154580191D01*
X253289061Y-154582749D01*
X253127186Y-154594326D01*
X253109227Y-154593579D01*
X253100942Y-154593477D01*
X253092066Y-154592095D01*
X253083163Y-154593259D01*
X253083156Y-154593259D01*
X253060496Y-154596222D01*
X253044160Y-154597286D01*
X225525156Y-154597286D01*
X225505769Y-154595786D01*
X225490937Y-154593476D01*
X225490934Y-154593476D01*
X225482066Y-154592095D01*
X225466809Y-154594090D01*
X225441490Y-154594833D01*
X225272510Y-154582745D01*
X225254727Y-154580188D01*
X225124558Y-154551871D01*
X225064394Y-154538782D01*
X225047152Y-154533720D01*
X224864637Y-154465644D01*
X224848297Y-154458181D01*
X224677343Y-154364831D01*
X224662220Y-154355112D01*
X224506292Y-154238385D01*
X224492705Y-154226612D01*
X224354975Y-154088880D01*
X224343202Y-154075293D01*
X224226477Y-153919364D01*
X224216758Y-153904240D01*
X224126874Y-153739626D01*
X224111783Y-153670252D01*
X224136595Y-153603732D01*
X224193431Y-153561186D01*
X224264246Y-153556122D01*
X224281685Y-153561258D01*
X224389684Y-153601745D01*
X224451866Y-153608500D01*
X226248134Y-153608500D01*
X226310316Y-153601745D01*
X226446705Y-153550615D01*
X226563261Y-153463261D01*
X226650615Y-153346705D01*
X226672943Y-153287145D01*
X226694598Y-153229382D01*
X226737240Y-153172618D01*
X226803802Y-153147918D01*
X226873150Y-153163126D01*
X226907817Y-153191114D01*
X226936250Y-153223938D01*
X227108126Y-153366632D01*
X227301000Y-153479338D01*
X227509692Y-153559030D01*
X227514760Y-153560061D01*
X227514763Y-153560062D01*
X227609862Y-153579410D01*
X227728597Y-153603567D01*
X227733772Y-153603757D01*
X227733774Y-153603757D01*
X227946673Y-153611564D01*
X227946677Y-153611564D01*
X227951837Y-153611753D01*
X227956957Y-153611097D01*
X227956959Y-153611097D01*
X228168288Y-153584025D01*
X228168289Y-153584025D01*
X228173416Y-153583368D01*
X228178366Y-153581883D01*
X228382429Y-153520661D01*
X228382434Y-153520659D01*
X228387384Y-153519174D01*
X228587994Y-153420896D01*
X228769860Y-153291173D01*
X228928096Y-153133489D01*
X228948006Y-153105782D01*
X229058453Y-152952077D01*
X229059776Y-152953028D01*
X229106645Y-152909857D01*
X229176580Y-152897625D01*
X229242026Y-152925144D01*
X229269875Y-152956994D01*
X229329987Y-153055088D01*
X229476250Y-153223938D01*
X229648126Y-153366632D01*
X229841000Y-153479338D01*
X230049692Y-153559030D01*
X230054760Y-153560061D01*
X230054763Y-153560062D01*
X230149862Y-153579410D01*
X230268597Y-153603567D01*
X230273772Y-153603757D01*
X230273774Y-153603757D01*
X230486673Y-153611564D01*
X230486677Y-153611564D01*
X230491837Y-153611753D01*
X230496957Y-153611097D01*
X230496959Y-153611097D01*
X230708288Y-153584025D01*
X230708289Y-153584025D01*
X230713416Y-153583368D01*
X230718366Y-153581883D01*
X230922429Y-153520661D01*
X230922434Y-153520659D01*
X230927384Y-153519174D01*
X231127994Y-153420896D01*
X231309860Y-153291173D01*
X231468096Y-153133489D01*
X231488006Y-153105782D01*
X231595435Y-152956277D01*
X231598453Y-152952077D01*
X231619320Y-152909857D01*
X231695136Y-152756453D01*
X231695137Y-152756451D01*
X231697430Y-152751811D01*
X231762370Y-152538069D01*
X231764471Y-152522115D01*
X231765017Y-152517966D01*
X249418257Y-152517966D01*
X249448565Y-152652446D01*
X249451645Y-152662275D01*
X249531770Y-152859603D01*
X249536413Y-152868794D01*
X249647694Y-153050388D01*
X249653777Y-153058699D01*
X249793213Y-153219667D01*
X249800580Y-153226883D01*
X249964434Y-153362916D01*
X249972881Y-153368831D01*
X250156756Y-153476279D01*
X250166042Y-153480729D01*
X250365001Y-153556703D01*
X250374899Y-153559579D01*
X250478250Y-153580606D01*
X250492299Y-153579410D01*
X250496000Y-153569065D01*
X250496000Y-152522115D01*
X250491525Y-152506876D01*
X250490135Y-152505671D01*
X250482452Y-152504000D01*
X249433225Y-152504000D01*
X249419694Y-152507973D01*
X249418257Y-152517966D01*
X231765017Y-152517966D01*
X231769483Y-152484042D01*
X231798206Y-152419114D01*
X231805310Y-152411393D01*
X240388199Y-143828505D01*
X240450511Y-143794479D01*
X240477294Y-143791600D01*
X240533187Y-143791600D01*
X240539639Y-143790228D01*
X240539644Y-143790228D01*
X240642329Y-143768401D01*
X240719988Y-143751894D01*
X240784061Y-143723367D01*
X240888422Y-143676903D01*
X240888424Y-143676902D01*
X240894452Y-143674218D01*
X240906039Y-143665800D01*
X240986240Y-143607530D01*
X241048953Y-143561966D01*
X241128052Y-143474118D01*
X241172321Y-143424952D01*
X241172322Y-143424951D01*
X241176740Y-143420044D01*
X241249371Y-143294244D01*
X241268923Y-143260379D01*
X241268924Y-143260378D01*
X241272227Y-143254656D01*
X241331242Y-143073028D01*
X241332198Y-143063938D01*
X241350514Y-142889665D01*
X241351204Y-142883100D01*
X241341150Y-142787438D01*
X241331932Y-142699735D01*
X241331932Y-142699733D01*
X241331242Y-142693172D01*
X241272227Y-142511544D01*
X241249574Y-142472307D01*
X241180041Y-142351874D01*
X241176740Y-142346156D01*
X241048953Y-142204234D01*
X240931671Y-142119023D01*
X240899794Y-142095863D01*
X240899793Y-142095862D01*
X240894452Y-142091982D01*
X240877494Y-142084432D01*
X240823397Y-142038453D01*
X240802746Y-141970527D01*
X240825979Y-141896412D01*
X240968663Y-141695314D01*
X240970705Y-141692436D01*
X241104006Y-141451242D01*
X241209465Y-141196640D01*
X241210853Y-141191824D01*
X241265335Y-141002709D01*
X241285754Y-140931831D01*
X241331914Y-140660146D01*
X241342075Y-140479219D01*
X241365866Y-140412327D01*
X241422044Y-140368916D01*
X241492774Y-140362768D01*
X241555599Y-140395836D01*
X241569081Y-140411226D01*
X241666574Y-140542680D01*
X241673444Y-140552961D01*
X241841022Y-140832547D01*
X241846851Y-140843452D01*
X241986219Y-141138121D01*
X241990950Y-141149544D01*
X242100760Y-141456439D01*
X242104350Y-141468272D01*
X242116866Y-141518236D01*
X242180305Y-141771493D01*
X242183555Y-141784468D01*
X242185965Y-141796587D01*
X242229917Y-142092875D01*
X242233796Y-142119023D01*
X242235008Y-142131323D01*
X242247913Y-142393968D01*
X242249254Y-142421261D01*
X242248328Y-142443890D01*
X242246682Y-142456393D01*
X242250539Y-142491326D01*
X242251300Y-142505154D01*
X242251300Y-146657576D01*
X242231298Y-146725697D01*
X242218942Y-146741879D01*
X242145760Y-146823156D01*
X242050273Y-146988544D01*
X241991258Y-147170172D01*
X241990568Y-147176733D01*
X241990568Y-147176735D01*
X241972348Y-147350092D01*
X241971296Y-147360100D01*
X241971986Y-147366665D01*
X241982114Y-147463023D01*
X241991258Y-147550028D01*
X242050273Y-147731656D01*
X242053576Y-147737378D01*
X242053577Y-147737379D01*
X242083392Y-147789020D01*
X242145760Y-147897044D01*
X242273547Y-148038966D01*
X242372643Y-148110964D01*
X242422573Y-148147240D01*
X242428048Y-148151218D01*
X242434076Y-148153902D01*
X242434078Y-148153903D01*
X242569443Y-148214171D01*
X242602512Y-148228894D01*
X242695912Y-148248747D01*
X242782856Y-148267228D01*
X242782861Y-148267228D01*
X242789313Y-148268600D01*
X242980287Y-148268600D01*
X242986739Y-148267228D01*
X242986744Y-148267228D01*
X243073688Y-148248747D01*
X243167088Y-148228894D01*
X243200157Y-148214171D01*
X243335522Y-148153903D01*
X243335524Y-148153902D01*
X243341552Y-148151218D01*
X243347028Y-148147240D01*
X243396957Y-148110964D01*
X243496053Y-148038966D01*
X243623840Y-147897044D01*
X243686208Y-147789020D01*
X243716023Y-147737379D01*
X243716024Y-147737378D01*
X243719327Y-147731656D01*
X243778342Y-147550028D01*
X243787487Y-147463023D01*
X243797614Y-147366665D01*
X243798304Y-147360100D01*
X243797252Y-147350092D01*
X243779032Y-147176735D01*
X243779032Y-147176733D01*
X243778342Y-147170172D01*
X243719327Y-146988544D01*
X243623840Y-146823156D01*
X243550663Y-146741885D01*
X243519947Y-146677879D01*
X243518300Y-146657576D01*
X243518300Y-142517064D01*
X243519557Y-142499311D01*
X243522232Y-142480516D01*
X243522232Y-142480513D01*
X243522813Y-142476432D01*
X243522953Y-142463068D01*
X243522457Y-142458965D01*
X243522077Y-142455823D01*
X243521261Y-142445632D01*
X243512633Y-142226074D01*
X243507399Y-142092875D01*
X243463852Y-141724964D01*
X243391573Y-141361604D01*
X243390907Y-141359243D01*
X243390904Y-141359230D01*
X243291683Y-141007426D01*
X243291009Y-141005036D01*
X243272402Y-140954598D01*
X243163634Y-140659773D01*
X243163632Y-140659768D01*
X243162779Y-140657456D01*
X243127194Y-140580266D01*
X243008702Y-140323240D01*
X243008697Y-140323230D01*
X243007673Y-140321009D01*
X243005820Y-140317699D01*
X242827861Y-139999932D01*
X242827860Y-139999930D01*
X242826649Y-139997768D01*
X242654224Y-139739715D01*
X242622202Y-139691791D01*
X242622199Y-139691787D01*
X242620822Y-139689726D01*
X242506141Y-139544254D01*
X242392997Y-139400731D01*
X242392993Y-139400726D01*
X242391461Y-139398783D01*
X242386629Y-139393555D01*
X242162657Y-139151263D01*
X242154435Y-139141404D01*
X242150049Y-139135562D01*
X242140698Y-139126013D01*
X242116186Y-139106793D01*
X242104838Y-139096734D01*
X238263677Y-135255572D01*
X238252012Y-135242130D01*
X238240616Y-135226952D01*
X238238136Y-135223649D01*
X238228785Y-135214101D01*
X238222965Y-135209538D01*
X238215192Y-135202916D01*
X237961628Y-134968526D01*
X237956016Y-134963338D01*
X237665073Y-134733977D01*
X237357031Y-134528150D01*
X237033790Y-134347126D01*
X237031555Y-134346096D01*
X237031542Y-134346089D01*
X236699582Y-134193053D01*
X236699578Y-134193051D01*
X236697343Y-134192021D01*
X236695031Y-134191168D01*
X236352090Y-134064649D01*
X236352079Y-134064645D01*
X236349763Y-134063791D01*
X236347379Y-134063119D01*
X236347374Y-134063117D01*
X236231109Y-134030327D01*
X235993194Y-133963227D01*
X235629835Y-133890948D01*
X235511939Y-133876993D01*
X235264377Y-133847691D01*
X235264368Y-133847690D01*
X235261924Y-133847401D01*
X234925035Y-133834163D01*
X234912228Y-133833002D01*
X234909181Y-133832568D01*
X234909173Y-133832567D01*
X234905095Y-133831987D01*
X234898478Y-133831918D01*
X234895856Y-133831890D01*
X234895853Y-133831890D01*
X234891731Y-133831847D01*
X234887638Y-133832342D01*
X234887625Y-133832343D01*
X234860816Y-133835587D01*
X234845679Y-133836500D01*
X231914500Y-133836500D01*
X231846379Y-133816498D01*
X231799886Y-133762842D01*
X231788500Y-133710500D01*
X231788500Y-133571866D01*
X231788129Y-133568446D01*
X231784221Y-133532476D01*
X231781745Y-133509684D01*
X231730615Y-133373295D01*
X231643261Y-133256739D01*
X231526705Y-133169385D01*
X231390316Y-133118255D01*
X231328134Y-133111500D01*
X229531866Y-133111500D01*
X229469684Y-133118255D01*
X229333295Y-133169385D01*
X229216739Y-133256739D01*
X229129385Y-133373295D01*
X229126233Y-133381703D01*
X229084919Y-133491907D01*
X229042277Y-133548671D01*
X228975716Y-133573371D01*
X228906367Y-133558163D01*
X228873743Y-133532476D01*
X228823151Y-133476875D01*
X228823142Y-133476866D01*
X228819670Y-133473051D01*
X228815619Y-133469852D01*
X228815615Y-133469848D01*
X228648414Y-133337800D01*
X228648410Y-133337798D01*
X228644359Y-133334598D01*
X228448789Y-133226638D01*
X228443920Y-133224914D01*
X228443916Y-133224912D01*
X228243087Y-133153795D01*
X228243083Y-133153794D01*
X228238212Y-133152069D01*
X228233119Y-133151162D01*
X228233116Y-133151161D01*
X228023373Y-133113800D01*
X228023367Y-133113799D01*
X228018284Y-133112894D01*
X227944452Y-133111992D01*
X227800081Y-133110228D01*
X227800079Y-133110228D01*
X227794911Y-133110165D01*
X227574091Y-133143955D01*
X227361756Y-133213357D01*
X227163607Y-133316507D01*
X227159474Y-133319610D01*
X227159471Y-133319612D01*
X226989100Y-133447530D01*
X226984965Y-133450635D01*
X226981393Y-133454373D01*
X226902936Y-133536473D01*
X226841411Y-133571903D01*
X226770499Y-133568446D01*
X226712713Y-133527200D01*
X226693860Y-133493651D01*
X226653768Y-133386705D01*
X226653767Y-133386704D01*
X226650615Y-133378295D01*
X226563261Y-133261739D01*
X226446705Y-133174385D01*
X226310316Y-133123255D01*
X226248134Y-133116500D01*
X224451866Y-133116500D01*
X224389684Y-133123255D01*
X224253295Y-133174385D01*
X224246110Y-133179770D01*
X224246108Y-133179771D01*
X224199887Y-133214412D01*
X224133380Y-133239260D01*
X224063998Y-133224207D01*
X224013768Y-133174033D01*
X223998322Y-133113497D01*
X223998323Y-133112894D01*
X223998463Y-132913377D01*
X224000209Y-132892561D01*
X224001445Y-132885217D01*
X224003576Y-132872552D01*
X224003729Y-132860000D01*
X224003040Y-132855186D01*
X224003039Y-132855176D01*
X224002157Y-132849017D01*
X224001206Y-132822172D01*
X224013038Y-132656723D01*
X224015596Y-132638934D01*
X224056999Y-132448607D01*
X224062063Y-132431359D01*
X224130136Y-132248850D01*
X224137604Y-132232498D01*
X224230952Y-132061542D01*
X224240672Y-132046418D01*
X224357402Y-131890486D01*
X224369175Y-131876900D01*
X224506900Y-131739175D01*
X224520486Y-131727402D01*
X224676418Y-131610672D01*
X224691542Y-131600952D01*
X224862498Y-131507604D01*
X224878850Y-131500136D01*
X225061359Y-131432063D01*
X225078608Y-131426999D01*
X225268936Y-131385596D01*
X225286715Y-131383039D01*
X225448605Y-131371460D01*
X225466565Y-131372207D01*
X225474845Y-131372308D01*
X225483724Y-131373691D01*
X225515286Y-131369564D01*
X225531621Y-131368500D01*
X253040633Y-131368500D01*
X253060018Y-131370000D01*
G37*
%TD.AperFunction*%
%TD*%
M02*
