%TF.GenerationSoftware,KiCad,Pcbnew,(6.0.1)*%
%TF.CreationDate,2022-09-16T08:00:15-07:00*%
%TF.ProjectId,takshaka-mux-board-rounded,74616b73-6861-46b6-912d-6d75782d626f,rev?*%
%TF.SameCoordinates,Original*%
%TF.FileFunction,Legend,Bot*%
%TF.FilePolarity,Positive*%
%FSLAX46Y46*%
G04 Gerber Fmt 4.6, Leading zero omitted, Abs format (unit mm)*
G04 Created by KiCad (PCBNEW (6.0.1)) date 2022-09-16 08:00:15*
%MOMM*%
%LPD*%
G01*
G04 APERTURE LIST*
%ADD10C,0.150000*%
%ADD11C,0.120000*%
G04 APERTURE END LIST*
D10*
X108305238Y-77462619D02*
X108257619Y-77415000D01*
X108162380Y-77367380D01*
X107924285Y-77367380D01*
X107829047Y-77415000D01*
X107781428Y-77462619D01*
X107733809Y-77557857D01*
X107733809Y-77653095D01*
X107781428Y-77795952D01*
X108352857Y-78367380D01*
X107733809Y-78367380D01*
X107114761Y-77367380D02*
X107019523Y-77367380D01*
X106924285Y-77415000D01*
X106876666Y-77462619D01*
X106829047Y-77557857D01*
X106781428Y-77748333D01*
X106781428Y-77986428D01*
X106829047Y-78176904D01*
X106876666Y-78272142D01*
X106924285Y-78319761D01*
X107019523Y-78367380D01*
X107114761Y-78367380D01*
X107210000Y-78319761D01*
X107257619Y-78272142D01*
X107305238Y-78176904D01*
X107352857Y-77986428D01*
X107352857Y-77748333D01*
X107305238Y-77557857D01*
X107257619Y-77462619D01*
X107210000Y-77415000D01*
X107114761Y-77367380D01*
X106400476Y-77462619D02*
X106352857Y-77415000D01*
X106257619Y-77367380D01*
X106019523Y-77367380D01*
X105924285Y-77415000D01*
X105876666Y-77462619D01*
X105829047Y-77557857D01*
X105829047Y-77653095D01*
X105876666Y-77795952D01*
X106448095Y-78367380D01*
X105829047Y-78367380D01*
X105448095Y-77462619D02*
X105400476Y-77415000D01*
X105305238Y-77367380D01*
X105067142Y-77367380D01*
X104971904Y-77415000D01*
X104924285Y-77462619D01*
X104876666Y-77557857D01*
X104876666Y-77653095D01*
X104924285Y-77795952D01*
X105495714Y-78367380D01*
X104876666Y-78367380D01*
X104448095Y-78272142D02*
X104400476Y-78319761D01*
X104448095Y-78367380D01*
X104495714Y-78319761D01*
X104448095Y-78272142D01*
X104448095Y-78367380D01*
X103781428Y-77367380D02*
X103686190Y-77367380D01*
X103590952Y-77415000D01*
X103543333Y-77462619D01*
X103495714Y-77557857D01*
X103448095Y-77748333D01*
X103448095Y-77986428D01*
X103495714Y-78176904D01*
X103543333Y-78272142D01*
X103590952Y-78319761D01*
X103686190Y-78367380D01*
X103781428Y-78367380D01*
X103876666Y-78319761D01*
X103924285Y-78272142D01*
X103971904Y-78176904D01*
X104019523Y-77986428D01*
X104019523Y-77748333D01*
X103971904Y-77557857D01*
X103924285Y-77462619D01*
X103876666Y-77415000D01*
X103781428Y-77367380D01*
X102971904Y-78367380D02*
X102781428Y-78367380D01*
X102686190Y-78319761D01*
X102638571Y-78272142D01*
X102543333Y-78129285D01*
X102495714Y-77938809D01*
X102495714Y-77557857D01*
X102543333Y-77462619D01*
X102590952Y-77415000D01*
X102686190Y-77367380D01*
X102876666Y-77367380D01*
X102971904Y-77415000D01*
X103019523Y-77462619D01*
X103067142Y-77557857D01*
X103067142Y-77795952D01*
X103019523Y-77891190D01*
X102971904Y-77938809D01*
X102876666Y-77986428D01*
X102686190Y-77986428D01*
X102590952Y-77938809D01*
X102543333Y-77891190D01*
X102495714Y-77795952D01*
X102067142Y-78272142D02*
X102019523Y-78319761D01*
X102067142Y-78367380D01*
X102114761Y-78319761D01*
X102067142Y-78272142D01*
X102067142Y-78367380D01*
X101638571Y-77462619D02*
X101590952Y-77415000D01*
X101495714Y-77367380D01*
X101257619Y-77367380D01*
X101162380Y-77415000D01*
X101114761Y-77462619D01*
X101067142Y-77557857D01*
X101067142Y-77653095D01*
X101114761Y-77795952D01*
X101686190Y-78367380D01*
X101067142Y-78367380D01*
X100733809Y-77367380D02*
X100114761Y-77367380D01*
X100448095Y-77748333D01*
X100305238Y-77748333D01*
X100210000Y-77795952D01*
X100162380Y-77843571D01*
X100114761Y-77938809D01*
X100114761Y-78176904D01*
X100162380Y-78272142D01*
X100210000Y-78319761D01*
X100305238Y-78367380D01*
X100590952Y-78367380D01*
X100686190Y-78319761D01*
X100733809Y-78272142D01*
X105638571Y-79310714D02*
X105400476Y-79977380D01*
X105162380Y-79310714D01*
X104590952Y-78977380D02*
X104495714Y-78977380D01*
X104400476Y-79025000D01*
X104352857Y-79072619D01*
X104305238Y-79167857D01*
X104257619Y-79358333D01*
X104257619Y-79596428D01*
X104305238Y-79786904D01*
X104352857Y-79882142D01*
X104400476Y-79929761D01*
X104495714Y-79977380D01*
X104590952Y-79977380D01*
X104686190Y-79929761D01*
X104733809Y-79882142D01*
X104781428Y-79786904D01*
X104829047Y-79596428D01*
X104829047Y-79358333D01*
X104781428Y-79167857D01*
X104733809Y-79072619D01*
X104686190Y-79025000D01*
X104590952Y-78977380D01*
X103829047Y-79882142D02*
X103781428Y-79929761D01*
X103829047Y-79977380D01*
X103876666Y-79929761D01*
X103829047Y-79882142D01*
X103829047Y-79977380D01*
X102829047Y-79977380D02*
X103400476Y-79977380D01*
X103114761Y-79977380D02*
X103114761Y-78977380D01*
X103210000Y-79120238D01*
X103305238Y-79215476D01*
X103400476Y-79263095D01*
%TO.C,J4*%
X114633333Y-70782380D02*
X114633333Y-71496666D01*
X114680952Y-71639523D01*
X114776190Y-71734761D01*
X114919047Y-71782380D01*
X115014285Y-71782380D01*
X113728571Y-71115714D02*
X113728571Y-71782380D01*
X113966666Y-70734761D02*
X114204761Y-71449047D01*
X113585714Y-71449047D01*
%TO.C,J1*%
X89233333Y-70782380D02*
X89233333Y-71496666D01*
X89280952Y-71639523D01*
X89376190Y-71734761D01*
X89519047Y-71782380D01*
X89614285Y-71782380D01*
X88233333Y-71782380D02*
X88804761Y-71782380D01*
X88519047Y-71782380D02*
X88519047Y-70782380D01*
X88614285Y-70925238D01*
X88709523Y-71020476D01*
X88804761Y-71068095D01*
%TO.C,J2*%
X89233333Y-88562380D02*
X89233333Y-89276666D01*
X89280952Y-89419523D01*
X89376190Y-89514761D01*
X89519047Y-89562380D01*
X89614285Y-89562380D01*
X88804761Y-88657619D02*
X88757142Y-88610000D01*
X88661904Y-88562380D01*
X88423809Y-88562380D01*
X88328571Y-88610000D01*
X88280952Y-88657619D01*
X88233333Y-88752857D01*
X88233333Y-88848095D01*
X88280952Y-88990952D01*
X88852380Y-89562380D01*
X88233333Y-89562380D01*
D11*
%TO.C,J4*%
X115630000Y-72330000D02*
X114300000Y-72330000D01*
X115630000Y-74930000D02*
X112970000Y-74930000D01*
X115630000Y-74930000D02*
X115630000Y-92770000D01*
X112970000Y-74930000D02*
X112970000Y-92770000D01*
X115630000Y-73660000D02*
X115630000Y-72330000D01*
X115630000Y-92770000D02*
X112970000Y-92770000D01*
%TO.C,G1*%
G36*
X109642545Y-87886052D02*
G01*
X109734026Y-87918503D01*
X109847037Y-87963089D01*
X109946693Y-88005884D01*
X109998110Y-88032963D01*
X110000108Y-88047763D01*
X109973022Y-88126055D01*
X109910874Y-88255127D01*
X109822655Y-88419123D01*
X109717357Y-88602187D01*
X109603972Y-88788462D01*
X109491492Y-88962093D01*
X109388909Y-89107222D01*
X109245800Y-89287462D01*
X108822270Y-89738640D01*
X108330539Y-90164327D01*
X107784473Y-90555962D01*
X107197935Y-90904985D01*
X106584791Y-91202836D01*
X105958905Y-91440953D01*
X105334143Y-91610777D01*
X105169071Y-91641689D01*
X104988055Y-91666849D01*
X104851150Y-91676580D01*
X104816467Y-91675419D01*
X104789170Y-91665307D01*
X104817970Y-91642030D01*
X104909953Y-91602254D01*
X105072205Y-91542646D01*
X105311812Y-91459873D01*
X105581314Y-91365069D01*
X106047524Y-91181212D01*
X106470796Y-90982923D01*
X106880879Y-90755668D01*
X107307520Y-90484914D01*
X107805576Y-90121526D01*
X108304776Y-89685373D01*
X108741615Y-89222066D01*
X109107381Y-88740935D01*
X109393360Y-88251309D01*
X109440193Y-88158793D01*
X109517945Y-88014467D01*
X109577913Y-87915042D01*
X109609948Y-87878014D01*
X109642545Y-87886052D01*
G37*
G36*
X106114648Y-86441246D02*
G01*
X106160148Y-86521112D01*
X106214322Y-86653653D01*
X106270773Y-86821349D01*
X106323107Y-87006680D01*
X106364928Y-87192125D01*
X106399085Y-87430376D01*
X106414786Y-87857889D01*
X106381777Y-88298269D01*
X106303012Y-88720887D01*
X106181444Y-89095113D01*
X106169647Y-89122050D01*
X106119590Y-89213053D01*
X106081369Y-89249796D01*
X106075538Y-89226768D01*
X106068786Y-89127806D01*
X106063380Y-88962549D01*
X106059298Y-88743793D01*
X106056517Y-88484334D01*
X106055015Y-88196969D01*
X106054770Y-87894493D01*
X106055758Y-87589703D01*
X106057958Y-87295395D01*
X106061346Y-87024365D01*
X106065901Y-86789409D01*
X106071599Y-86603323D01*
X106078418Y-86478904D01*
X106086336Y-86428948D01*
X106114648Y-86441246D01*
G37*
G36*
X98550899Y-86104797D02*
G01*
X98600592Y-86806805D01*
X98720339Y-87598965D01*
X98906304Y-88337569D01*
X99159248Y-89026277D01*
X99226106Y-89177733D01*
X99380743Y-89493734D01*
X99539144Y-89760631D01*
X99717914Y-90004710D01*
X99933657Y-90252259D01*
X100237768Y-90579557D01*
X100376166Y-90474194D01*
X100442590Y-90426256D01*
X100600186Y-90328415D01*
X100754310Y-90250369D01*
X100882268Y-90202880D01*
X100961363Y-90196707D01*
X101017295Y-90240111D01*
X100999677Y-90302698D01*
X100901759Y-90373093D01*
X100851494Y-90401528D01*
X100723141Y-90482880D01*
X100587062Y-90577216D01*
X100394053Y-90717784D01*
X100542811Y-90877622D01*
X100691568Y-91037460D01*
X100528580Y-90918016D01*
X100480169Y-90883633D01*
X100384482Y-90822700D01*
X100330430Y-90798571D01*
X100298162Y-90818825D01*
X100213892Y-90890625D01*
X100093542Y-91002121D01*
X99951345Y-91140477D01*
X99607421Y-91482383D01*
X99607037Y-91903805D01*
X99606541Y-91977981D01*
X99600853Y-92201337D01*
X99590187Y-92410613D01*
X99576264Y-92568606D01*
X99545876Y-92811986D01*
X99510518Y-92612857D01*
X99508420Y-92600530D01*
X99489826Y-92449751D01*
X99473885Y-92253923D01*
X99463851Y-92052132D01*
X99463673Y-92046451D01*
X99457188Y-91890110D01*
X99444290Y-91789403D01*
X99417578Y-91747133D01*
X99369650Y-91766104D01*
X99293102Y-91849118D01*
X99180535Y-91998979D01*
X99024544Y-92218490D01*
X98930232Y-92349834D01*
X98832343Y-92480448D01*
X98762827Y-92566395D01*
X98732642Y-92593594D01*
X98734587Y-92564226D01*
X98771733Y-92471435D01*
X98840241Y-92333058D01*
X98930903Y-92165913D01*
X99034512Y-91986819D01*
X99141861Y-91812593D01*
X99243741Y-91660053D01*
X99304755Y-91576951D01*
X99456406Y-91385240D01*
X99629925Y-91179737D01*
X99798530Y-90992659D01*
X100133643Y-90636432D01*
X99885664Y-90374557D01*
X99662068Y-90125201D01*
X99215142Y-89532749D01*
X98831292Y-88884567D01*
X98513589Y-88187927D01*
X98265103Y-87450103D01*
X98088906Y-86678368D01*
X97988068Y-85879994D01*
X97958672Y-85497131D01*
X98240973Y-85434304D01*
X98523275Y-85371477D01*
X98550899Y-86104797D01*
G37*
G36*
X104375553Y-81416322D02*
G01*
X105254602Y-81524139D01*
X106090570Y-81703393D01*
X106879349Y-81953276D01*
X107616829Y-82272978D01*
X108116519Y-82545485D01*
X108656099Y-82900829D01*
X109134686Y-83286326D01*
X109548897Y-83697097D01*
X109895349Y-84128267D01*
X110170659Y-84574958D01*
X110371445Y-85032292D01*
X110494322Y-85495393D01*
X110535910Y-85959382D01*
X110492823Y-86419383D01*
X110473873Y-86512765D01*
X110447389Y-86622750D01*
X110429135Y-86673489D01*
X110409681Y-86675243D01*
X110326797Y-86655978D01*
X110205494Y-86614508D01*
X110000977Y-86536402D01*
X110031525Y-86355589D01*
X110058972Y-86110321D01*
X110039396Y-85673070D01*
X109933182Y-85237485D01*
X109741492Y-84806561D01*
X109465488Y-84383289D01*
X109106329Y-83970664D01*
X109063347Y-83927602D01*
X108578221Y-83505270D01*
X108023352Y-83125841D01*
X107408040Y-82793809D01*
X106741582Y-82513668D01*
X106033276Y-82289914D01*
X105292422Y-82127040D01*
X105083517Y-82094192D01*
X104837942Y-82062135D01*
X104588096Y-82035026D01*
X104349306Y-82014031D01*
X104136899Y-82000313D01*
X103966204Y-81995039D01*
X103852546Y-81999372D01*
X103811254Y-82014477D01*
X103815694Y-82033113D01*
X103858122Y-82122151D01*
X103937816Y-82262444D01*
X104045345Y-82439045D01*
X104171279Y-82637003D01*
X104306186Y-82841372D01*
X104440636Y-83037202D01*
X104565199Y-83209547D01*
X104754888Y-83445897D01*
X105046107Y-83768270D01*
X105370732Y-84092674D01*
X105704663Y-84395273D01*
X106023798Y-84652228D01*
X106136796Y-84736122D01*
X106573630Y-85053841D01*
X106966320Y-85325765D01*
X107332880Y-85562094D01*
X107691320Y-85773033D01*
X108059655Y-85968784D01*
X108455897Y-86159550D01*
X108898058Y-86355532D01*
X109404151Y-86566935D01*
X109500265Y-86606488D01*
X109782182Y-86725193D01*
X110046330Y-86840146D01*
X110276588Y-86944119D01*
X110456836Y-87029881D01*
X110570953Y-87090204D01*
X110747183Y-87203376D01*
X111080517Y-87477788D01*
X111331072Y-87783203D01*
X111499405Y-88120951D01*
X111586077Y-88492362D01*
X111591645Y-88898767D01*
X111516669Y-89341497D01*
X111450663Y-89561947D01*
X111334262Y-89867152D01*
X111192652Y-90180043D01*
X111040266Y-90469179D01*
X110891538Y-90703123D01*
X110834598Y-90778803D01*
X110769597Y-90856281D01*
X110738914Y-90880126D01*
X110738747Y-90857967D01*
X110748666Y-90761530D01*
X110769063Y-90602571D01*
X110797982Y-90396052D01*
X110833468Y-90156933D01*
X110848053Y-90057781D01*
X110885686Y-89769580D01*
X110917096Y-89482937D01*
X110939346Y-89226405D01*
X110949500Y-89028536D01*
X110950650Y-88958281D01*
X110948849Y-88766625D01*
X110935071Y-88627886D01*
X110905221Y-88514752D01*
X110855199Y-88399906D01*
X110832063Y-88354072D01*
X110772367Y-88249825D01*
X110703347Y-88156675D01*
X110616044Y-88068777D01*
X110501498Y-87980287D01*
X110350751Y-87885359D01*
X110154843Y-87778149D01*
X109904814Y-87652812D01*
X109591705Y-87503503D01*
X109206556Y-87324377D01*
X108799676Y-87133174D01*
X108389334Y-86930118D01*
X108030400Y-86737584D01*
X107705855Y-86544804D01*
X107398678Y-86341010D01*
X107091849Y-86115434D01*
X106768347Y-85857309D01*
X106411153Y-85555866D01*
X105941188Y-85139485D01*
X105474236Y-84692951D01*
X105070261Y-84264490D01*
X104720350Y-83843281D01*
X104415588Y-83418505D01*
X104147064Y-82979344D01*
X103905863Y-82514979D01*
X103888549Y-82479147D01*
X103792464Y-82289659D01*
X103706872Y-82135573D01*
X103640531Y-82031924D01*
X103602199Y-81993745D01*
X103601682Y-81993740D01*
X103544696Y-82029095D01*
X103483785Y-82114338D01*
X103481385Y-82118828D01*
X103369304Y-82275874D01*
X103183710Y-82471552D01*
X102928761Y-82702444D01*
X102608618Y-82965132D01*
X102227443Y-83256197D01*
X101789394Y-83572221D01*
X101298633Y-83909785D01*
X101173849Y-83993147D01*
X100855094Y-84197675D01*
X100567665Y-84365800D01*
X100284066Y-84512042D01*
X99976799Y-84650920D01*
X99618363Y-84796951D01*
X99374110Y-84888658D01*
X98856177Y-85056156D01*
X98345500Y-85186613D01*
X97850969Y-85279522D01*
X97381474Y-85334373D01*
X96945904Y-85350658D01*
X96553150Y-85327867D01*
X96212102Y-85265494D01*
X95931648Y-85163028D01*
X95720679Y-85019962D01*
X95558467Y-84866856D01*
X95691219Y-84901093D01*
X95819118Y-84922235D01*
X96044768Y-84930431D01*
X96342883Y-84917336D01*
X96716087Y-84882696D01*
X97167002Y-84826257D01*
X97698250Y-84747764D01*
X98312452Y-84646963D01*
X98564941Y-84603035D01*
X99023479Y-84516831D01*
X99417291Y-84431065D01*
X99762075Y-84340367D01*
X100073530Y-84239366D01*
X100367353Y-84122692D01*
X100659242Y-83984975D01*
X100964896Y-83820844D01*
X101300013Y-83624930D01*
X101464807Y-83525126D01*
X101951224Y-83221482D01*
X102374757Y-82942455D01*
X102731926Y-82690570D01*
X103019250Y-82468352D01*
X103233249Y-82278326D01*
X103370444Y-82123015D01*
X103472778Y-81979300D01*
X102900814Y-82004399D01*
X102883241Y-82005184D01*
X102461107Y-82034659D01*
X102083656Y-82086110D01*
X101727793Y-82165767D01*
X101370427Y-82279861D01*
X100988465Y-82434623D01*
X100558815Y-82636282D01*
X100137326Y-82861937D01*
X99684099Y-83159592D01*
X99311965Y-83476193D01*
X99017364Y-83814857D01*
X98796735Y-84178700D01*
X98783530Y-84205606D01*
X98718451Y-84327608D01*
X98659057Y-84394422D01*
X98577655Y-84427306D01*
X98446554Y-84447521D01*
X98360826Y-84459221D01*
X98221135Y-84481730D01*
X98130054Y-84500917D01*
X98089514Y-84508913D01*
X98062961Y-84485187D01*
X98075833Y-84398152D01*
X98079815Y-84383011D01*
X98120327Y-84270856D01*
X98187126Y-84115141D01*
X98267982Y-83944726D01*
X98458564Y-83633715D01*
X98724875Y-83307592D01*
X99051507Y-82981353D01*
X99425450Y-82665167D01*
X99833690Y-82369206D01*
X100263216Y-82103641D01*
X100701016Y-81878644D01*
X101134076Y-81704385D01*
X101302447Y-81648900D01*
X101628426Y-81555576D01*
X101948526Y-81486417D01*
X102286226Y-81437638D01*
X102665008Y-81405451D01*
X103108350Y-81386073D01*
X103457531Y-81380749D01*
X104375553Y-81416322D01*
G37*
G36*
X105426227Y-85248457D02*
G01*
X105625348Y-85278938D01*
X105806700Y-85350138D01*
X105993194Y-85472600D01*
X106207741Y-85656871D01*
X106380229Y-85835045D01*
X106567247Y-86066009D01*
X106742919Y-86318389D01*
X106897141Y-86575243D01*
X107019810Y-86819632D01*
X107100821Y-87034615D01*
X107130070Y-87203252D01*
X107141349Y-87249855D01*
X107194062Y-87270514D01*
X107310909Y-87265720D01*
X107427310Y-87262276D01*
X107524898Y-87287051D01*
X107544839Y-87343004D01*
X107483393Y-87426644D01*
X107363552Y-87510657D01*
X107220411Y-87553164D01*
X107092968Y-87537978D01*
X107000615Y-87468085D01*
X106962745Y-87346472D01*
X106950703Y-87265946D01*
X106878634Y-87082451D01*
X106749503Y-86867191D01*
X106572216Y-86634096D01*
X106355679Y-86397095D01*
X106308570Y-86350520D01*
X106037642Y-86116418D01*
X105787478Y-85963759D01*
X105551774Y-85890418D01*
X105324226Y-85894269D01*
X105098530Y-85973185D01*
X105043016Y-86003527D01*
X104849445Y-86133234D01*
X104647415Y-86297733D01*
X104458219Y-86477291D01*
X104303149Y-86652177D01*
X104203497Y-86802657D01*
X104192554Y-86825066D01*
X104159147Y-86900019D01*
X104135120Y-86975196D01*
X104119200Y-87065308D01*
X104110112Y-87185065D01*
X104106583Y-87349177D01*
X104107338Y-87572354D01*
X104111104Y-87869306D01*
X104111403Y-87890774D01*
X104113689Y-88156408D01*
X104113215Y-88391062D01*
X104110201Y-88580360D01*
X104104866Y-88709926D01*
X104097430Y-88765386D01*
X104078870Y-88790704D01*
X104035200Y-88800677D01*
X104000811Y-88724276D01*
X103975183Y-88560629D01*
X103940264Y-88385444D01*
X103854048Y-88134151D01*
X103715958Y-87819427D01*
X103598767Y-87553008D01*
X103502320Y-87267906D01*
X103458664Y-87019571D01*
X103465146Y-86791100D01*
X103519113Y-86565589D01*
X103598195Y-86384642D01*
X103782095Y-86113736D01*
X104033982Y-85853005D01*
X104341869Y-85614250D01*
X104693768Y-85409271D01*
X104852888Y-85333976D01*
X105004227Y-85278383D01*
X105145773Y-85251944D01*
X105313280Y-85245190D01*
X105426227Y-85248457D01*
G37*
G36*
X100331966Y-84696332D02*
G01*
X100533136Y-84762990D01*
X100705183Y-84900645D01*
X100839155Y-85097333D01*
X100926102Y-85341088D01*
X100957073Y-85619946D01*
X100957073Y-85908850D01*
X100806478Y-85923222D01*
X100701215Y-85919804D01*
X100532976Y-85846725D01*
X100410070Y-85755856D01*
X100378852Y-86005714D01*
X100365849Y-86160181D01*
X100364938Y-86480061D01*
X100389827Y-86833201D01*
X100437819Y-87187702D01*
X100506215Y-87511660D01*
X100517459Y-87555275D01*
X100562036Y-87746553D01*
X100576990Y-87855011D01*
X100562121Y-87881210D01*
X100517224Y-87825711D01*
X100442098Y-87689074D01*
X100348887Y-87487696D01*
X100207946Y-87044834D01*
X100151628Y-86599663D01*
X100181320Y-86160311D01*
X100181331Y-86160245D01*
X100215621Y-85993220D01*
X100255242Y-85853356D01*
X100291618Y-85770927D01*
X100292633Y-85769517D01*
X100316636Y-85668401D01*
X100284432Y-85548193D01*
X100211030Y-85441410D01*
X100111440Y-85380572D01*
X99993806Y-85379401D01*
X99828965Y-85430238D01*
X99661230Y-85524632D01*
X99519483Y-85649464D01*
X99414377Y-85820822D01*
X99389789Y-86007926D01*
X99452543Y-86196480D01*
X99486902Y-86262124D01*
X99518707Y-86376838D01*
X99481127Y-86441619D01*
X99372499Y-86461986D01*
X99336126Y-86460779D01*
X99193371Y-86427099D01*
X99103726Y-86356128D01*
X99084396Y-86259932D01*
X99121047Y-86198425D01*
X99217930Y-86182134D01*
X99218159Y-86182149D01*
X99294948Y-86180600D01*
X99315381Y-86144710D01*
X99293635Y-86049673D01*
X99275657Y-85980072D01*
X99257327Y-85813919D01*
X99285647Y-85649047D01*
X99364810Y-85450159D01*
X99409143Y-85359805D01*
X99590693Y-85072224D01*
X99795923Y-84863008D01*
X100021197Y-84735227D01*
X100262878Y-84691951D01*
X100331966Y-84696332D01*
G37*
%TO.C,J1*%
X90230000Y-74930000D02*
X90230000Y-74990000D01*
X87570000Y-74930000D02*
X87570000Y-74990000D01*
X90230000Y-73660000D02*
X90230000Y-72330000D01*
X90230000Y-74930000D02*
X87570000Y-74930000D01*
X90230000Y-72330000D02*
X88900000Y-72330000D01*
X90230000Y-74990000D02*
X87570000Y-74990000D01*
%TO.C,J2*%
X90230000Y-91440000D02*
X90230000Y-90110000D01*
X90230000Y-92710000D02*
X90230000Y-92770000D01*
X90230000Y-92710000D02*
X87570000Y-92710000D01*
X87570000Y-92710000D02*
X87570000Y-92770000D01*
X90230000Y-92770000D02*
X87570000Y-92770000D01*
X90230000Y-90110000D02*
X88900000Y-90110000D01*
%TO.C,G2*%
G36*
X108209724Y-73298686D02*
G01*
X108304904Y-73367569D01*
X108315563Y-73436353D01*
X108233665Y-73453324D01*
X108195274Y-73475201D01*
X108161323Y-73590501D01*
X108138023Y-73818008D01*
X108122915Y-74173720D01*
X108118798Y-74299103D01*
X108094880Y-74646843D01*
X108049200Y-74872150D01*
X107972846Y-74991728D01*
X107856907Y-75022278D01*
X107692472Y-74980503D01*
X107624860Y-74948237D01*
X107573079Y-74887717D01*
X107544618Y-74773927D01*
X107532592Y-74576527D01*
X107530114Y-74265174D01*
X107530107Y-74249427D01*
X107524945Y-73930855D01*
X107507247Y-73728751D01*
X107472708Y-73616568D01*
X107417025Y-73567756D01*
X107389262Y-73558437D01*
X107269771Y-73566972D01*
X107191993Y-73681169D01*
X107151280Y-73913015D01*
X107142985Y-74274495D01*
X107149750Y-74505761D01*
X107174195Y-74751652D01*
X107223687Y-74924154D01*
X107306924Y-75065217D01*
X107327674Y-75093368D01*
X107410873Y-75217236D01*
X107409150Y-75266508D01*
X107325528Y-75275341D01*
X107226029Y-75256734D01*
X107022694Y-75140562D01*
X106829958Y-74950435D01*
X106691540Y-74724350D01*
X106671220Y-74669753D01*
X106611028Y-74376326D01*
X106596459Y-74037580D01*
X106627000Y-73714426D01*
X106702138Y-73467780D01*
X106731329Y-73415224D01*
X106854183Y-73288352D01*
X107039211Y-73254886D01*
X107232378Y-73288974D01*
X107404070Y-73379663D01*
X107480882Y-73445119D01*
X107550988Y-73463077D01*
X107611775Y-73379663D01*
X107629408Y-73355099D01*
X107775469Y-73275810D01*
X107987897Y-73254434D01*
X108209724Y-73298686D01*
G37*
G36*
X97475139Y-74721580D02*
G01*
X97366941Y-74902724D01*
X97175284Y-75003379D01*
X96982518Y-75008464D01*
X96729119Y-74898516D01*
X96644825Y-74875897D01*
X96476563Y-74940836D01*
X96356929Y-75003145D01*
X96235908Y-75003813D01*
X96056819Y-74934678D01*
X95951213Y-74883062D01*
X95879881Y-74824422D01*
X95930540Y-74790031D01*
X95938917Y-74787823D01*
X95999529Y-74747944D01*
X96035369Y-74651961D01*
X96052460Y-74470523D01*
X96056776Y-74177227D01*
X96644295Y-74177227D01*
X96648177Y-74390743D01*
X96663326Y-74542857D01*
X96710067Y-74697752D01*
X96793871Y-74756333D01*
X96888853Y-74735628D01*
X96965387Y-74589303D01*
X96979713Y-74470866D01*
X96946957Y-74269594D01*
X96860084Y-74112201D01*
X96739923Y-74048637D01*
X96674257Y-74073873D01*
X96644295Y-74177227D01*
X96056776Y-74177227D01*
X96056819Y-74174275D01*
X96056819Y-74171680D01*
X96074297Y-73787379D01*
X96136526Y-73523895D01*
X96258706Y-73360882D01*
X96456039Y-73277995D01*
X96743725Y-73254887D01*
X96913365Y-73265430D01*
X97167898Y-73339977D01*
X97316669Y-73476461D01*
X97343139Y-73663604D01*
X97342382Y-73667318D01*
X97256562Y-73785994D01*
X97109773Y-73823411D01*
X96969182Y-73761909D01*
X96934359Y-73674925D01*
X97024003Y-73576730D01*
X97073999Y-73538183D01*
X97117568Y-73475493D01*
X97046258Y-73431167D01*
X96881524Y-73399218D01*
X96722347Y-73463009D01*
X96647182Y-73635953D01*
X96650046Y-73767925D01*
X96722399Y-73861070D01*
X96899739Y-73948929D01*
X96936853Y-73964923D01*
X97160899Y-74084663D01*
X97337642Y-74212450D01*
X97405824Y-74289988D01*
X97478194Y-74470866D01*
X97491046Y-74502988D01*
X97475139Y-74721580D01*
G37*
G36*
X101103524Y-72395396D02*
G01*
X101328854Y-72452849D01*
X101518264Y-72562627D01*
X101524019Y-72567591D01*
X101615675Y-72656783D01*
X101675702Y-72755632D01*
X101713180Y-72897782D01*
X101737187Y-73116881D01*
X101756805Y-73446576D01*
X101793466Y-74156875D01*
X102150303Y-73376168D01*
X102293025Y-73079068D01*
X102435770Y-72811073D01*
X102554456Y-72617844D01*
X102632633Y-72528299D01*
X102791575Y-72475401D01*
X103080969Y-72460642D01*
X103385138Y-72512830D01*
X103640892Y-72625850D01*
X103766423Y-72721595D01*
X103869256Y-72870396D01*
X103908042Y-73090246D01*
X103912063Y-73257869D01*
X103874779Y-73391002D01*
X103772636Y-73474150D01*
X103664821Y-73508085D01*
X103483704Y-73495533D01*
X103334650Y-73420276D01*
X103272728Y-73301349D01*
X103279906Y-73251419D01*
X103346920Y-73139388D01*
X103444647Y-73079040D01*
X103523846Y-73108241D01*
X103594289Y-73155758D01*
X103671015Y-73104064D01*
X103705682Y-72970827D01*
X103693139Y-72886528D01*
X103575198Y-72739856D01*
X103326443Y-72639513D01*
X103128409Y-72589809D01*
X103129395Y-73517660D01*
X103129452Y-73548344D01*
X103133769Y-73912657D01*
X103143802Y-74234161D01*
X103158131Y-74479022D01*
X103175338Y-74613406D01*
X103203832Y-74686220D01*
X103346880Y-74828219D01*
X103547604Y-74871672D01*
X103759216Y-74801506D01*
X103913384Y-74729623D01*
X104016464Y-74763510D01*
X104057659Y-74843327D01*
X104000054Y-74934353D01*
X103836191Y-74998508D01*
X103587588Y-75022784D01*
X103400778Y-75012556D01*
X103231394Y-74954276D01*
X103086082Y-74820323D01*
X103074960Y-74807280D01*
X103000489Y-74705790D01*
X102952642Y-74591910D01*
X102925419Y-74432665D01*
X102912821Y-74195079D01*
X102908847Y-73846175D01*
X102905762Y-73074489D01*
X102474963Y-73950881D01*
X102370848Y-74158420D01*
X102140599Y-74578552D01*
X101939050Y-74882962D01*
X101756249Y-75087386D01*
X101717423Y-75121760D01*
X101480051Y-75286841D01*
X101252240Y-75342095D01*
X100981677Y-75302019D01*
X100944225Y-75291030D01*
X100832520Y-75227654D01*
X100861256Y-75162741D01*
X101027808Y-75107365D01*
X101200054Y-75044629D01*
X101358025Y-74893976D01*
X101463559Y-74647976D01*
X101522555Y-74291720D01*
X101540909Y-73810300D01*
X101540868Y-73778943D01*
X101526009Y-73299951D01*
X101482801Y-72950180D01*
X101408880Y-72717551D01*
X101301878Y-72589988D01*
X101140548Y-72537601D01*
X100956501Y-72558261D01*
X100832406Y-72651665D01*
X100747910Y-72721559D01*
X100649054Y-72693245D01*
X100602841Y-72572837D01*
X100609130Y-72532562D01*
X100703951Y-72435696D01*
X100881986Y-72389826D01*
X101103524Y-72395396D01*
G37*
G36*
X99105236Y-75687464D02*
G01*
X98862311Y-75782960D01*
X98673572Y-75812885D01*
X98342201Y-75809399D01*
X98026757Y-75750098D01*
X97788637Y-75642986D01*
X97675780Y-75527861D01*
X97644880Y-75446960D01*
X97970386Y-75446960D01*
X98019532Y-75543804D01*
X98045219Y-75561827D01*
X98236896Y-75634862D01*
X98477935Y-75670650D01*
X98690625Y-75656178D01*
X98797115Y-75615709D01*
X98895277Y-75496542D01*
X98859579Y-75326116D01*
X98853006Y-75314219D01*
X98782969Y-75238307D01*
X98663705Y-75216049D01*
X98449699Y-75237617D01*
X98248341Y-75277731D01*
X98051358Y-75354922D01*
X97970386Y-75446960D01*
X97644880Y-75446960D01*
X97586144Y-75293178D01*
X97586145Y-75201596D01*
X97672723Y-75007885D01*
X97875547Y-74885025D01*
X98183528Y-74841401D01*
X98241484Y-74840676D01*
X98538657Y-74815080D01*
X98730692Y-74756825D01*
X98798864Y-74671093D01*
X98796103Y-74657494D01*
X98702850Y-74614142D01*
X98487096Y-74613586D01*
X98327638Y-74618286D01*
X98133246Y-74573232D01*
X97939923Y-74440301D01*
X97829002Y-74340726D01*
X97748092Y-74225981D01*
X97720095Y-74076869D01*
X97725373Y-73845957D01*
X98222877Y-73845957D01*
X98223367Y-74089424D01*
X98265391Y-74295292D01*
X98286009Y-74335335D01*
X98396628Y-74405331D01*
X98523514Y-74373217D01*
X98609065Y-74247074D01*
X98629882Y-74156214D01*
X98652925Y-73895376D01*
X98625676Y-73668316D01*
X98557682Y-73502542D01*
X98458488Y-73425562D01*
X98337638Y-73464883D01*
X98326550Y-73475507D01*
X98258933Y-73622212D01*
X98222877Y-73845957D01*
X97725373Y-73845957D01*
X97725538Y-73838753D01*
X97727028Y-73676070D01*
X97704864Y-73437404D01*
X97659359Y-73277670D01*
X97604339Y-73162609D01*
X97572159Y-73050873D01*
X97572357Y-73045174D01*
X97637297Y-72960299D01*
X97774826Y-72927921D01*
X97921117Y-72963941D01*
X97978570Y-73008437D01*
X97950995Y-73036215D01*
X97900612Y-73060794D01*
X97860796Y-73174418D01*
X97873250Y-73244718D01*
X97933258Y-73282105D01*
X98072771Y-73289349D01*
X98323721Y-73273268D01*
X98575648Y-73258085D01*
X98741646Y-73270144D01*
X98858234Y-73321328D01*
X98973153Y-73422615D01*
X99057063Y-73528504D01*
X99154544Y-73799334D01*
X99150353Y-73895376D01*
X99141771Y-74092061D01*
X99016378Y-74355646D01*
X98943185Y-74456672D01*
X98917587Y-74549556D01*
X98980298Y-74626769D01*
X99012490Y-74660623D01*
X99076665Y-74814775D01*
X99077269Y-74983989D01*
X99009909Y-75098300D01*
X98989163Y-75163547D01*
X99082068Y-75285768D01*
X99179666Y-75401008D01*
X99199250Y-75496542D01*
X99211887Y-75558189D01*
X99105236Y-75687464D01*
G37*
G36*
X109833562Y-74608299D02*
G01*
X109646638Y-74837070D01*
X109383671Y-74973975D01*
X109168142Y-74999415D01*
X108937693Y-74974861D01*
X108932585Y-74973437D01*
X108777561Y-74931795D01*
X108702115Y-74914546D01*
X108696077Y-74910545D01*
X108635879Y-74830491D01*
X108539550Y-74680029D01*
X108446083Y-74461531D01*
X108396293Y-74061126D01*
X108396469Y-74029198D01*
X108934616Y-74029198D01*
X108935520Y-74313084D01*
X108968966Y-74561173D01*
X109036251Y-74723057D01*
X109123256Y-74809059D01*
X109231674Y-74825556D01*
X109331552Y-74702812D01*
X109347556Y-74666589D01*
X109390416Y-74462343D01*
X109406064Y-74191605D01*
X109395767Y-73906650D01*
X109360797Y-73659755D01*
X109302422Y-73503195D01*
X109241810Y-73427751D01*
X109171190Y-73405594D01*
X109067905Y-73491981D01*
X109025250Y-73555665D01*
X108964958Y-73759922D01*
X108934616Y-74029198D01*
X108396469Y-74029198D01*
X108396602Y-74004982D01*
X108415028Y-73777023D01*
X108477790Y-73618081D01*
X108606950Y-73465813D01*
X108767684Y-73346306D01*
X109061671Y-73252913D01*
X109370336Y-73269874D01*
X109643852Y-73400333D01*
X109708025Y-73456859D01*
X109881676Y-73711942D01*
X109956722Y-74011619D01*
X109946324Y-74191605D01*
X109938804Y-74321777D01*
X109833562Y-74608299D01*
G37*
G36*
X111116142Y-72467099D02*
G01*
X111319826Y-72525414D01*
X111504415Y-72672063D01*
X111505071Y-72672720D01*
X111662352Y-72886121D01*
X111711479Y-73115398D01*
X111648834Y-73375609D01*
X111470802Y-73681812D01*
X111173768Y-74049065D01*
X111016646Y-74242034D01*
X110876108Y-74449391D01*
X110804060Y-74601163D01*
X110788596Y-74687372D01*
X110806189Y-74921166D01*
X110900566Y-75103469D01*
X111053294Y-75190681D01*
X111197753Y-75186663D01*
X111358999Y-75076989D01*
X111452284Y-74840768D01*
X111515093Y-74684143D01*
X111629115Y-74629725D01*
X111773069Y-74712500D01*
X111851426Y-74849865D01*
X111814465Y-75032701D01*
X111637646Y-75232847D01*
X111383700Y-75376982D01*
X111049901Y-75414999D01*
X110676148Y-75319043D01*
X110429685Y-75167776D01*
X110256900Y-74918261D01*
X110200000Y-74583505D01*
X110200246Y-74554871D01*
X110217059Y-74387875D01*
X110271903Y-74229069D01*
X110381018Y-74051132D01*
X110560645Y-73826741D01*
X110827022Y-73528574D01*
X110977166Y-73343555D01*
X111117214Y-73075912D01*
X111135801Y-72849600D01*
X111029830Y-72677614D01*
X111013104Y-72665007D01*
X110877771Y-72640754D01*
X110759432Y-72732744D01*
X110691406Y-72917371D01*
X110639462Y-73036819D01*
X110531567Y-73082024D01*
X110421016Y-73029028D01*
X110358239Y-72883029D01*
X110360732Y-72785559D01*
X110458768Y-72612623D01*
X110670322Y-72500833D01*
X110979277Y-72461136D01*
X111116142Y-72467099D01*
G37*
G36*
X100938776Y-74721580D02*
G01*
X100830577Y-74902724D01*
X100638921Y-75003379D01*
X100446155Y-75008464D01*
X100192756Y-74898516D01*
X100108462Y-74875897D01*
X99940199Y-74940836D01*
X99820565Y-75003145D01*
X99699544Y-75003813D01*
X99520455Y-74934678D01*
X99414849Y-74883062D01*
X99343518Y-74824422D01*
X99394177Y-74790031D01*
X99402554Y-74787823D01*
X99463165Y-74747944D01*
X99499006Y-74651961D01*
X99516096Y-74470523D01*
X99520412Y-74177227D01*
X100107931Y-74177227D01*
X100111814Y-74390743D01*
X100126963Y-74542857D01*
X100173704Y-74697752D01*
X100257508Y-74756333D01*
X100352490Y-74735628D01*
X100429024Y-74589303D01*
X100443349Y-74470866D01*
X100410594Y-74269594D01*
X100323720Y-74112201D01*
X100203560Y-74048637D01*
X100137894Y-74073873D01*
X100107931Y-74177227D01*
X99520412Y-74177227D01*
X99520455Y-74174275D01*
X99520455Y-74171680D01*
X99537933Y-73787379D01*
X99600162Y-73523895D01*
X99722342Y-73360882D01*
X99919675Y-73277995D01*
X100207361Y-73254887D01*
X100377002Y-73265430D01*
X100631535Y-73339977D01*
X100780306Y-73476461D01*
X100806775Y-73663604D01*
X100806019Y-73667318D01*
X100720199Y-73785994D01*
X100573410Y-73823411D01*
X100432819Y-73761909D01*
X100397996Y-73674925D01*
X100487639Y-73576730D01*
X100537636Y-73538183D01*
X100581204Y-73475493D01*
X100509894Y-73431167D01*
X100345160Y-73399218D01*
X100185983Y-73463009D01*
X100110819Y-73635953D01*
X100113683Y-73767925D01*
X100186036Y-73861070D01*
X100363376Y-73948929D01*
X100400489Y-73964923D01*
X100624535Y-74084663D01*
X100801279Y-74212450D01*
X100869460Y-74289988D01*
X100941830Y-74470866D01*
X100954682Y-74502988D01*
X100938776Y-74721580D01*
G37*
G36*
X106248986Y-75687464D02*
G01*
X106006061Y-75782960D01*
X105817322Y-75812885D01*
X105485951Y-75809399D01*
X105170507Y-75750098D01*
X104932387Y-75642986D01*
X104819530Y-75527861D01*
X104788630Y-75446960D01*
X105114136Y-75446960D01*
X105163282Y-75543804D01*
X105188969Y-75561827D01*
X105380646Y-75634862D01*
X105621685Y-75670650D01*
X105834375Y-75656178D01*
X105940865Y-75615709D01*
X106039027Y-75496542D01*
X106003329Y-75326116D01*
X105996756Y-75314219D01*
X105926719Y-75238307D01*
X105807455Y-75216049D01*
X105593449Y-75237617D01*
X105392091Y-75277731D01*
X105195108Y-75354922D01*
X105114136Y-75446960D01*
X104788630Y-75446960D01*
X104729894Y-75293178D01*
X104729895Y-75201596D01*
X104816473Y-75007885D01*
X105019297Y-74885025D01*
X105327278Y-74841401D01*
X105385234Y-74840676D01*
X105682407Y-74815080D01*
X105874442Y-74756825D01*
X105942614Y-74671093D01*
X105939853Y-74657494D01*
X105846600Y-74614142D01*
X105630846Y-74613586D01*
X105471388Y-74618286D01*
X105276996Y-74573232D01*
X105083673Y-74440301D01*
X104972752Y-74340726D01*
X104891842Y-74225981D01*
X104863845Y-74076869D01*
X104869123Y-73845957D01*
X105366627Y-73845957D01*
X105367117Y-74089424D01*
X105409141Y-74295292D01*
X105429759Y-74335335D01*
X105540378Y-74405331D01*
X105667264Y-74373217D01*
X105752815Y-74247074D01*
X105773632Y-74156214D01*
X105796675Y-73895376D01*
X105769426Y-73668316D01*
X105701432Y-73502542D01*
X105602238Y-73425562D01*
X105481388Y-73464883D01*
X105470300Y-73475507D01*
X105402683Y-73622212D01*
X105366627Y-73845957D01*
X104869123Y-73845957D01*
X104869288Y-73838753D01*
X104870778Y-73676070D01*
X104848614Y-73437404D01*
X104803109Y-73277670D01*
X104748089Y-73162609D01*
X104715909Y-73050873D01*
X104716107Y-73045174D01*
X104781047Y-72960299D01*
X104918576Y-72927921D01*
X105064867Y-72963941D01*
X105122320Y-73008437D01*
X105094745Y-73036215D01*
X105044362Y-73060794D01*
X105004546Y-73174418D01*
X105017000Y-73244718D01*
X105077008Y-73282105D01*
X105216521Y-73289349D01*
X105467471Y-73273268D01*
X105719398Y-73258085D01*
X105885396Y-73270144D01*
X106001984Y-73321328D01*
X106116903Y-73422615D01*
X106200813Y-73528504D01*
X106298294Y-73799334D01*
X106294103Y-73895376D01*
X106285521Y-74092061D01*
X106160128Y-74355646D01*
X106086935Y-74456672D01*
X106061337Y-74549556D01*
X106124048Y-74626769D01*
X106156240Y-74660623D01*
X106220415Y-74814775D01*
X106221019Y-74983989D01*
X106153659Y-75098300D01*
X106132913Y-75163547D01*
X106225818Y-75285768D01*
X106323416Y-75401008D01*
X106343000Y-75496542D01*
X106355637Y-75558189D01*
X106248986Y-75687464D01*
G37*
%TD*%
M02*
