M48
; DRILL file {KiCad (6.0.1)} date Fri Sep 16 08:00:16 2022
; FORMAT={-:-/ absolute / inch / decimal}
; #@! TF.CreationDate,2022-09-16T08:00:16-07:00
; #@! TF.GenerationSoftware,Kicad,Pcbnew,(6.0.1)
; #@! TF.FileFunction,MixedPlating,1,2
FMAT,2
INCH
; #@! TA.AperFunction,Plated,PTH,ViaDrill
T1C0.0157
; #@! TA.AperFunction,Plated,PTH,ComponentDrill
T2C0.0394
%
G90
G05
T1
X3.7902Y-3.0492
X3.828Y-3.0772
X3.8409Y-3.5744
X3.8691Y-3.1029
X3.9946Y-3.1322
X4.0343Y-3.1583
X4.0512Y-2.8311
X4.0626Y-2.9193
X4.0688Y-3.0673
X4.094Y-3.2312
X4.1903Y-3.4075
X4.2374Y-3.3461
X4.2975Y-3.2263
X4.3673Y-2.9642
T2
X3.5Y-2.9
X3.5Y-3.6
X3.6Y-2.9
X3.6Y-3.0
X3.6Y-3.1
X3.6Y-3.2
X3.6Y-3.3
X3.6Y-3.4
X3.6Y-3.5
X3.6Y-3.6
X3.7Y-2.9
X3.7Y-3.0
X3.7Y-3.1
X3.7Y-3.2
X3.7Y-3.3
X3.7Y-3.4
X3.7Y-3.5
X3.7Y-3.6
X4.5Y-2.9
X4.5Y-3.0
X4.5Y-3.1
X4.5Y-3.2
X4.5Y-3.3
X4.5Y-3.4
X4.5Y-3.5
X4.5Y-3.6
T0
M30
