%TF.GenerationSoftware,KiCad,Pcbnew,(6.0.1)*%
%TF.CreationDate,2022-09-16T08:00:15-07:00*%
%TF.ProjectId,takshaka-mux-board-rounded,74616b73-6861-46b6-912d-6d75782d626f,rev?*%
%TF.SameCoordinates,Original*%
%TF.FileFunction,Copper,L2,Bot*%
%TF.FilePolarity,Positive*%
%FSLAX46Y46*%
G04 Gerber Fmt 4.6, Leading zero omitted, Abs format (unit mm)*
G04 Created by KiCad (PCBNEW (6.0.1)) date 2022-09-16 08:00:15*
%MOMM*%
%LPD*%
G01*
G04 APERTURE LIST*
%TA.AperFunction,ComponentPad*%
%ADD10R,1.700000X1.700000*%
%TD*%
%TA.AperFunction,ComponentPad*%
%ADD11O,1.700000X1.700000*%
%TD*%
%TA.AperFunction,ViaPad*%
%ADD12C,0.800000*%
%TD*%
%TA.AperFunction,Conductor*%
%ADD13C,0.250000*%
%TD*%
G04 APERTURE END LIST*
D10*
%TO.P,J3,1,Pin_1*%
%TO.N,DRIFT*%
X93980000Y-73660000D03*
D11*
%TO.P,J3,2,Pin_2*%
%TO.N,SHIFT*%
X91440000Y-73660000D03*
%TO.P,J3,3,Pin_3*%
%TO.N,RUMBLE*%
X93980000Y-76200000D03*
%TO.P,J3,4,Pin_4*%
%TO.N,HOWL*%
X91440000Y-76200000D03*
%TO.P,J3,5,Pin_5*%
%TO.N,RES*%
X93980000Y-78740000D03*
%TO.P,J3,6,Pin_6*%
%TO.N,DRIVE*%
X91440000Y-78740000D03*
%TO.P,J3,7,Pin_7*%
%TO.N,ATTACK*%
X93980000Y-81280000D03*
%TO.P,J3,8,Pin_8*%
%TO.N,SUSTAIN*%
X91440000Y-81280000D03*
%TO.P,J3,9,Pin_9*%
%TO.N,DECAY*%
X93980000Y-83820000D03*
%TO.P,J3,10,Pin_10*%
%TO.N,P_D_MOD*%
X91440000Y-83820000D03*
%TO.P,J3,11,Pin_11*%
%TO.N,P_S_MOD*%
X93980000Y-86360000D03*
%TO.P,J3,12,Pin_12*%
%TO.N,P_H_MOD*%
X91440000Y-86360000D03*
%TO.P,J3,13,Pin_13*%
%TO.N,SLITHER*%
X93980000Y-88900000D03*
%TO.P,J3,14,Pin_14*%
%TO.N,S_D_MOD*%
X91440000Y-88900000D03*
%TO.P,J3,15,Pin_15*%
%TO.N,S_S_MOD*%
X93980000Y-91440000D03*
%TO.P,J3,16,Pin_16*%
%TO.N,S_C_MOD*%
X91440000Y-91440000D03*
%TD*%
D10*
%TO.P,J4,1,Pin_1*%
%TO.N,+3V3_A*%
X114300000Y-73660000D03*
D11*
%TO.P,J4,2,Pin_2*%
%TO.N,CHANNEL_SELECT_A*%
X114300000Y-76200000D03*
%TO.P,J4,3,Pin_3*%
%TO.N,CHANNEL_SELECT_B*%
X114300000Y-78740000D03*
%TO.P,J4,4,Pin_4*%
%TO.N,CHANNEL_SELECT_C*%
X114300000Y-81280000D03*
%TO.P,J4,5,Pin_5*%
%TO.N,MUX_1_SIGNAL*%
X114300000Y-83820000D03*
%TO.P,J4,6,Pin_6*%
%TO.N,MUX_2_SIGNAL*%
X114300000Y-86360000D03*
%TO.P,J4,7,Pin_7*%
%TO.N,unconnected-(J4-Pad7)*%
X114300000Y-88900000D03*
%TO.P,J4,8,Pin_8*%
%TO.N,GND*%
X114300000Y-91440000D03*
%TD*%
D10*
%TO.P,J1,1,Pin_1*%
%TO.N,unconnected-(J1-Pad1)*%
X88900000Y-73660000D03*
%TD*%
%TO.P,J2,1,Pin_1*%
%TO.N,unconnected-(J2-Pad1)*%
X88900000Y-91440000D03*
%TD*%
D12*
%TO.N,GND*%
X107630000Y-84990000D03*
X97560000Y-90790000D03*
X102900000Y-71910000D03*
X103190000Y-74150000D03*
X110930000Y-75290000D03*
%TO.N,S_C_MOD*%
X103348500Y-77909600D03*
%TO.N,S_S_MOD*%
X103987700Y-82073100D03*
%TO.N,SLITHER*%
X102470000Y-80220000D03*
%TO.N,P_H_MOD*%
X96270000Y-77450000D03*
%TO.N,P_S_MOD*%
X101463400Y-79557300D03*
%TO.N,P_D_MOD*%
X98274100Y-78814300D03*
%TO.N,DECAY*%
X97230000Y-78160000D03*
%TO.N,DRIFT*%
X106434800Y-86550100D03*
%TO.N,+3V3_A*%
X109155400Y-81947300D03*
%TD*%
D13*
%TO.N,S_C_MOD*%
X91843950Y-91439999D02*
G75*
G03*
X92533535Y-91154364I-4J975229D01*
G01*
X104259999Y-79465627D02*
G75*
G03*
X103804249Y-78365351I-1556028J-1D01*
G01*
X93873700Y-90264700D02*
G75*
G03*
X94642751Y-89946148I-1J1087603D01*
G01*
X103726912Y-80861987D02*
G75*
G03*
X104260000Y-79575000I-1286998J1286992D01*
G01*
X93104648Y-90583251D02*
G75*
G02*
X93873700Y-90264700I769048J-769046D01*
G01*
%TO.N,S_S_MOD*%
X94300400Y-91439999D02*
G75*
G03*
X94847356Y-91213441I-4J773521D01*
G01*
%TO.N,SLITHER*%
X102402824Y-80477175D02*
G75*
G03*
X102470000Y-80315000I-162181J162179D01*
G01*
%TO.N,P_H_MOD*%
X89775344Y-84695344D02*
G75*
G02*
X88580000Y-81809527I2885809J2885813D01*
G01*
X88580000Y-79225391D02*
G75*
G02*
X89100000Y-77970000I1775383J3D01*
G01*
X89100000Y-77970000D02*
G75*
G02*
X90355391Y-77450000I1255388J-1255383D01*
G01*
%TO.N,P_S_MOD*%
X94320350Y-86359999D02*
G75*
G03*
X94901362Y-86119335I-2J821680D01*
G01*
%TO.N,P_D_MOD*%
X97424935Y-82065264D02*
G75*
G03*
X98274100Y-80015200I-2050067J2050066D01*
G01*
X93454556Y-85000099D02*
G75*
G02*
X92030050Y-84410050I0J2014555D01*
G01*
X93987368Y-85000100D02*
G75*
G03*
X94845584Y-84644615I-3J1213706D01*
G01*
%TO.N,DECAY*%
X96377936Y-81422063D02*
G75*
G03*
X97230000Y-79365000I-2057072J2057068D01*
G01*
%TO.N,DRIFT*%
X98441727Y-73660000D02*
G75*
G02*
X101327544Y-74855344I4J-4081153D01*
G01*
X106434799Y-81653072D02*
G75*
G03*
X105239454Y-78767256I-4081170J-4D01*
G01*
%TO.N,+3V3_A*%
X114292928Y-73687071D02*
G75*
G03*
X114300000Y-73670000I-17072J17073D01*
G01*
X109155401Y-80385950D02*
G75*
G02*
X110259442Y-77720559I3769422J5D01*
G01*
%TO.N,SLITHER*%
X102470000Y-80220000D02*
X102470000Y-80315000D01*
X102402824Y-80477175D02*
X93980000Y-88900000D01*
%TO.N,DECAY*%
X97230000Y-78160000D02*
X97230000Y-79365000D01*
X96377936Y-81422063D02*
X93980000Y-83820000D01*
%TO.N,+3V3_A*%
X109155400Y-81947300D02*
X109155400Y-80385950D01*
X114292928Y-73687071D02*
X110259441Y-77720558D01*
X114300000Y-73670000D02*
X114300000Y-73660000D01*
%TO.N,S_C_MOD*%
X94642751Y-89946148D02*
X103726912Y-80861987D01*
X104260000Y-79465627D02*
X104260000Y-79575000D01*
X103804250Y-78365350D02*
X103348500Y-77909600D01*
X92533535Y-91154364D02*
X93104648Y-90583251D01*
X91843950Y-91440000D02*
X91440000Y-91440000D01*
%TO.N,P_H_MOD*%
X89775344Y-84695344D02*
X91440000Y-86360000D01*
X88580000Y-81809527D02*
X88580000Y-79225391D01*
X96270000Y-77450000D02*
X90355391Y-77450000D01*
%TO.N,P_D_MOD*%
X97424935Y-82065264D02*
X94845584Y-84644615D01*
X98274100Y-80015200D02*
X98274100Y-78814300D01*
X93454556Y-85000100D02*
X93987368Y-85000100D01*
X92030050Y-84410050D02*
X91440000Y-83820000D01*
%TO.N,P_S_MOD*%
X101463400Y-79557300D02*
X94901363Y-86119336D01*
X94320350Y-86360000D02*
X93980000Y-86360000D01*
%TO.N,S_S_MOD*%
X103987700Y-82073100D02*
X94847357Y-91213442D01*
X94300400Y-91440000D02*
X93980000Y-91440000D01*
%TO.N,DRIFT*%
X106434800Y-86550100D02*
X106434800Y-81653072D01*
X101327544Y-74855344D02*
X105239455Y-78767255D01*
X98441727Y-73660000D02*
X93980000Y-73660000D01*
%TD*%
%TA.AperFunction,Conductor*%
%TO.N,S_C_MOD*%
G36*
X91630814Y-90612122D02*
G01*
X91771811Y-90651108D01*
X91772773Y-90651420D01*
X91908568Y-90701950D01*
X91909083Y-90702155D01*
X92034752Y-90755817D01*
X92152629Y-90806101D01*
X92152793Y-90806160D01*
X92152806Y-90806165D01*
X92222094Y-90831037D01*
X92265074Y-90846465D01*
X92265436Y-90846544D01*
X92265442Y-90846546D01*
X92374103Y-90870345D01*
X92374108Y-90870346D01*
X92374690Y-90870473D01*
X92375288Y-90870480D01*
X92375291Y-90870480D01*
X92483327Y-90871679D01*
X92483330Y-90871679D01*
X92484081Y-90871687D01*
X92595849Y-90843670D01*
X92712597Y-90779985D01*
X92828709Y-90681188D01*
X92837229Y-90678438D01*
X92844562Y-90681827D01*
X93005599Y-90842864D01*
X93009026Y-90851137D01*
X93005767Y-90859239D01*
X92867373Y-91003388D01*
X92867295Y-91003477D01*
X92750002Y-91137271D01*
X92749991Y-91137284D01*
X92749929Y-91137355D01*
X92654629Y-91257005D01*
X92574727Y-91366474D01*
X92503481Y-91469896D01*
X92456414Y-91538805D01*
X92434237Y-91571273D01*
X92434094Y-91571479D01*
X92360113Y-91674953D01*
X92359826Y-91675337D01*
X92274415Y-91785001D01*
X92274042Y-91785456D01*
X92170351Y-91905612D01*
X92169954Y-91906048D01*
X92046982Y-92034818D01*
X92038790Y-92038435D01*
X92033331Y-92037223D01*
X91038359Y-91544604D01*
X91032465Y-91537863D01*
X91033065Y-91528929D01*
X91033702Y-91527803D01*
X91617848Y-90617082D01*
X91625199Y-90611969D01*
X91630814Y-90612122D01*
G37*
%TD.AperFunction*%
%TD*%
%TA.AperFunction,Conductor*%
%TO.N,S_S_MOD*%
G36*
X95341167Y-90558228D02*
G01*
X95502253Y-90719314D01*
X95505680Y-90727587D01*
X95502523Y-90735582D01*
X95361002Y-90886806D01*
X95360859Y-90886959D01*
X95245334Y-91030373D01*
X95155780Y-91161192D01*
X95084298Y-91283049D01*
X95022985Y-91399575D01*
X94964012Y-91514269D01*
X94963876Y-91514525D01*
X94929713Y-91576204D01*
X94899449Y-91630843D01*
X94899072Y-91631476D01*
X94821315Y-91753110D01*
X94820783Y-91753873D01*
X94721716Y-91884654D01*
X94721115Y-91885384D01*
X94598111Y-92023074D01*
X94590044Y-92026960D01*
X94584700Y-92025999D01*
X93868817Y-91712904D01*
X93592436Y-91592028D01*
X93586229Y-91585573D01*
X93586596Y-91576205D01*
X93981648Y-90761260D01*
X94058951Y-90601793D01*
X94065643Y-90595844D01*
X94071237Y-90595330D01*
X94221362Y-90618145D01*
X94222392Y-90618349D01*
X94285215Y-90633765D01*
X94365904Y-90653565D01*
X94366474Y-90653721D01*
X94498556Y-90693687D01*
X94498553Y-90693697D01*
X94498621Y-90693707D01*
X94608261Y-90727587D01*
X94621849Y-90731786D01*
X94738974Y-90761347D01*
X94852829Y-90775783D01*
X94853377Y-90775748D01*
X94853381Y-90775748D01*
X94965631Y-90768552D01*
X94965634Y-90768551D01*
X94966311Y-90768508D01*
X95082316Y-90732934D01*
X95082891Y-90732600D01*
X95082894Y-90732599D01*
X95203271Y-90662746D01*
X95203740Y-90662474D01*
X95325252Y-90557642D01*
X95333754Y-90554833D01*
X95341167Y-90558228D01*
G37*
%TD.AperFunction*%
%TD*%
%TA.AperFunction,Conductor*%
%TO.N,P_S_MOD*%
G36*
X95347199Y-85512069D02*
G01*
X95508285Y-85673155D01*
X95511712Y-85681428D01*
X95508540Y-85689438D01*
X95367434Y-85839680D01*
X95367285Y-85839839D01*
X95251319Y-85981994D01*
X95160635Y-86111274D01*
X95087462Y-86231313D01*
X95087405Y-86231416D01*
X95087402Y-86231421D01*
X95024031Y-86345746D01*
X94962658Y-86458047D01*
X94962471Y-86458376D01*
X94895495Y-86572022D01*
X94895106Y-86572638D01*
X94814729Y-86691393D01*
X94814208Y-86692103D01*
X94712603Y-86819754D01*
X94712010Y-86820443D01*
X94586834Y-86954820D01*
X94578687Y-86958538D01*
X94573336Y-86957452D01*
X93587537Y-86498297D01*
X93581484Y-86491697D01*
X93582134Y-86482222D01*
X93846729Y-85981832D01*
X94088256Y-85525069D01*
X94095152Y-85519358D01*
X94100756Y-85519040D01*
X94171327Y-85532287D01*
X94247400Y-85546568D01*
X94248405Y-85546803D01*
X94388937Y-85586276D01*
X94389506Y-85586452D01*
X94518961Y-85630036D01*
X94519000Y-85630049D01*
X94640055Y-85671277D01*
X94678553Y-85682075D01*
X94754828Y-85703469D01*
X94754833Y-85703470D01*
X94755175Y-85703566D01*
X94755529Y-85703619D01*
X94755532Y-85703620D01*
X94866587Y-85720358D01*
X94866592Y-85720358D01*
X94867154Y-85720443D01*
X94978784Y-85715437D01*
X95092860Y-85682075D01*
X95212176Y-85613885D01*
X95212597Y-85613523D01*
X95212600Y-85613521D01*
X95331298Y-85511470D01*
X95339806Y-85508675D01*
X95347199Y-85512069D01*
G37*
%TD.AperFunction*%
%TD*%
%TA.AperFunction,Conductor*%
%TO.N,P_D_MOD*%
G36*
X91398136Y-83524767D02*
G01*
X92232844Y-83536990D01*
X92241066Y-83540538D01*
X92243927Y-83545488D01*
X92287949Y-83700257D01*
X92288225Y-83701470D01*
X92314869Y-83856036D01*
X92314977Y-83856817D01*
X92330176Y-84003356D01*
X92330194Y-84003548D01*
X92342043Y-84141461D01*
X92358699Y-84270102D01*
X92388334Y-84388948D01*
X92439133Y-84497593D01*
X92519279Y-84595628D01*
X92636957Y-84682644D01*
X92637499Y-84682895D01*
X92637501Y-84682896D01*
X92790546Y-84753700D01*
X92796615Y-84760284D01*
X92796609Y-84768370D01*
X92717756Y-84982039D01*
X92711677Y-84988614D01*
X92702975Y-84989052D01*
X92701702Y-84988614D01*
X92646876Y-84969759D01*
X92507037Y-84921666D01*
X92507025Y-84921662D01*
X92506911Y-84921623D01*
X92506797Y-84921590D01*
X92506781Y-84921585D01*
X92329928Y-84870487D01*
X92329783Y-84870445D01*
X92175586Y-84834608D01*
X92175456Y-84834584D01*
X92175440Y-84834581D01*
X92037596Y-84809499D01*
X92037575Y-84809495D01*
X92037495Y-84809481D01*
X92037409Y-84809468D01*
X92037389Y-84809465D01*
X91908684Y-84790433D01*
X91782456Y-84772849D01*
X91782233Y-84772816D01*
X91703410Y-84760284D01*
X91651817Y-84752081D01*
X91651379Y-84752001D01*
X91510003Y-84723511D01*
X91509416Y-84723377D01*
X91455015Y-84709416D01*
X91350070Y-84682482D01*
X91349467Y-84682310D01*
X91289269Y-84663374D01*
X91172972Y-84626792D01*
X91166110Y-84621041D01*
X91164787Y-84615918D01*
X91164302Y-84596062D01*
X91138307Y-83533120D01*
X91141531Y-83524767D01*
X91150175Y-83521136D01*
X91398136Y-83524767D01*
G37*
%TD.AperFunction*%
%TD*%
%TA.AperFunction,Conductor*%
%TO.N,SLITHER*%
G36*
X102553659Y-80044059D02*
G01*
X102559932Y-80051025D01*
X102717225Y-80524358D01*
X102716582Y-80533290D01*
X102713150Y-80537402D01*
X102649369Y-80585326D01*
X102648767Y-80585749D01*
X102585483Y-80627343D01*
X102584922Y-80627690D01*
X102526582Y-80661487D01*
X102526194Y-80661702D01*
X102470842Y-80691021D01*
X102416676Y-80719105D01*
X102362064Y-80749133D01*
X102361916Y-80749225D01*
X102305333Y-80784289D01*
X102305319Y-80784298D01*
X102305163Y-80784395D01*
X102305012Y-80784503D01*
X102305005Y-80784508D01*
X102244295Y-80828061D01*
X102244131Y-80828179D01*
X102177125Y-80883775D01*
X102176992Y-80883901D01*
X102176986Y-80883906D01*
X102110570Y-80946661D01*
X102102203Y-80949852D01*
X102094262Y-80946430D01*
X101933449Y-80785617D01*
X101930022Y-80777344D01*
X101933098Y-80769437D01*
X101978700Y-80719696D01*
X101978702Y-80719694D01*
X101978907Y-80719470D01*
X102018593Y-80665579D01*
X102020715Y-80661702D01*
X102046260Y-80615016D01*
X102046475Y-80614623D01*
X102064444Y-80565199D01*
X102074392Y-80515907D01*
X102078210Y-80465347D01*
X102077789Y-80412116D01*
X102075021Y-80354816D01*
X102071804Y-80292172D01*
X102071793Y-80291872D01*
X102070222Y-80230719D01*
X102073435Y-80222361D01*
X102077797Y-80219469D01*
X102544709Y-80043766D01*
X102553659Y-80044059D01*
G37*
%TD.AperFunction*%
%TD*%
%TA.AperFunction,Conductor*%
%TO.N,SLITHER*%
G36*
X95094478Y-87624459D02*
G01*
X95255541Y-87785522D01*
X95258968Y-87793795D01*
X95255957Y-87801630D01*
X95159114Y-87909025D01*
X95129686Y-87941659D01*
X95034721Y-88077880D01*
X95034526Y-88078272D01*
X95034523Y-88078277D01*
X95024989Y-88097443D01*
X94971109Y-88205754D01*
X94931461Y-88328993D01*
X94908386Y-88451308D01*
X94908363Y-88451512D01*
X94908362Y-88451521D01*
X94894492Y-88576411D01*
X94894483Y-88576504D01*
X94882407Y-88707827D01*
X94882366Y-88708205D01*
X94864739Y-88849428D01*
X94864608Y-88850241D01*
X94834101Y-89005043D01*
X94833845Y-89006087D01*
X94785347Y-89170725D01*
X94779722Y-89177693D01*
X94774355Y-89179117D01*
X94013149Y-89193997D01*
X93691645Y-89200282D01*
X93683306Y-89197017D01*
X93679718Y-89188355D01*
X93689108Y-88708015D01*
X93700883Y-88105646D01*
X93704471Y-88097443D01*
X93709274Y-88094654D01*
X93797282Y-88068728D01*
X93873912Y-88046154D01*
X93874956Y-88045898D01*
X94029758Y-88015391D01*
X94030571Y-88015260D01*
X94171794Y-87997633D01*
X94172172Y-87997592D01*
X94226979Y-87992552D01*
X94303588Y-87985507D01*
X94304109Y-87985449D01*
X94428478Y-87971637D01*
X94428487Y-87971636D01*
X94428691Y-87971613D01*
X94428906Y-87971573D01*
X94428909Y-87971572D01*
X94461248Y-87965471D01*
X94551006Y-87948538D01*
X94551344Y-87948429D01*
X94551349Y-87948428D01*
X94605322Y-87931064D01*
X94674245Y-87908890D01*
X94738499Y-87876926D01*
X94801722Y-87845476D01*
X94801727Y-87845473D01*
X94802119Y-87845278D01*
X94938340Y-87750313D01*
X94938613Y-87750067D01*
X95078370Y-87624043D01*
X95086809Y-87621048D01*
X95094478Y-87624459D01*
G37*
%TD.AperFunction*%
%TD*%
%TA.AperFunction,Conductor*%
%TO.N,DECAY*%
G36*
X97238433Y-77968769D02*
G01*
X97584174Y-78328297D01*
X97587439Y-78336635D01*
X97586119Y-78341809D01*
X97553736Y-78404005D01*
X97553443Y-78404534D01*
X97518513Y-78463921D01*
X97518320Y-78464236D01*
X97485118Y-78516809D01*
X97485115Y-78516811D01*
X97485116Y-78516812D01*
X97454261Y-78565640D01*
X97426476Y-78613647D01*
X97402374Y-78663935D01*
X97382564Y-78719610D01*
X97367658Y-78783777D01*
X97358266Y-78859538D01*
X97358257Y-78859799D01*
X97355407Y-78938722D01*
X97351684Y-78946866D01*
X97343715Y-78950000D01*
X97116285Y-78950000D01*
X97108012Y-78946573D01*
X97104593Y-78938722D01*
X97101742Y-78859799D01*
X97101733Y-78859538D01*
X97092341Y-78783777D01*
X97077435Y-78719610D01*
X97057625Y-78663935D01*
X97033523Y-78613647D01*
X97005738Y-78565640D01*
X96974883Y-78516812D01*
X96941666Y-78464214D01*
X96941486Y-78463921D01*
X96906556Y-78404534D01*
X96906263Y-78404005D01*
X96873881Y-78341810D01*
X96873100Y-78332889D01*
X96875826Y-78328297D01*
X97221567Y-77968769D01*
X97229771Y-77965181D01*
X97238433Y-77968769D01*
G37*
%TD.AperFunction*%
%TD*%
%TA.AperFunction,Conductor*%
%TO.N,DECAY*%
G36*
X95094478Y-82544459D02*
G01*
X95255540Y-82705522D01*
X95258967Y-82713795D01*
X95255956Y-82721630D01*
X95129932Y-82861386D01*
X95129686Y-82861659D01*
X95034720Y-82997880D01*
X95034525Y-82998272D01*
X95034522Y-82998277D01*
X95024988Y-83017443D01*
X94971108Y-83125754D01*
X94931460Y-83248993D01*
X94908385Y-83371308D01*
X94908362Y-83371512D01*
X94908361Y-83371521D01*
X94894492Y-83496411D01*
X94894483Y-83496504D01*
X94882407Y-83627827D01*
X94882366Y-83628205D01*
X94864738Y-83769428D01*
X94864607Y-83770241D01*
X94834101Y-83925043D01*
X94833845Y-83926087D01*
X94785347Y-84090725D01*
X94779722Y-84097693D01*
X94774355Y-84099117D01*
X94013149Y-84113997D01*
X93691645Y-84120282D01*
X93683306Y-84117017D01*
X93679718Y-84108355D01*
X93689108Y-83628015D01*
X93700883Y-83025646D01*
X93704471Y-83017443D01*
X93709274Y-83014654D01*
X93797282Y-82988728D01*
X93873912Y-82966154D01*
X93874956Y-82965898D01*
X94029758Y-82935391D01*
X94030571Y-82935260D01*
X94171794Y-82917633D01*
X94172172Y-82917592D01*
X94226979Y-82912552D01*
X94303588Y-82905507D01*
X94304109Y-82905449D01*
X94428478Y-82891637D01*
X94428487Y-82891636D01*
X94428691Y-82891613D01*
X94428906Y-82891573D01*
X94428909Y-82891572D01*
X94461222Y-82885476D01*
X94551007Y-82868538D01*
X94551345Y-82868429D01*
X94551350Y-82868428D01*
X94605325Y-82851063D01*
X94674245Y-82828890D01*
X94738498Y-82796927D01*
X94801722Y-82765477D01*
X94801727Y-82765474D01*
X94802119Y-82765279D01*
X94938340Y-82670313D01*
X94938613Y-82670067D01*
X95078370Y-82544043D01*
X95086809Y-82541048D01*
X95094478Y-82544459D01*
G37*
%TD.AperFunction*%
%TD*%
%TA.AperFunction,Conductor*%
%TO.N,+3V3_A*%
G36*
X109277388Y-81160727D02*
G01*
X109280807Y-81168578D01*
X109283666Y-81247761D01*
X109293058Y-81323522D01*
X109307964Y-81387689D01*
X109327774Y-81443364D01*
X109351876Y-81493652D01*
X109379661Y-81541659D01*
X109379704Y-81541727D01*
X109379710Y-81541737D01*
X109410516Y-81590487D01*
X109410518Y-81590490D01*
X109443720Y-81643063D01*
X109443913Y-81643378D01*
X109478843Y-81702765D01*
X109479136Y-81703294D01*
X109511519Y-81765491D01*
X109512300Y-81774412D01*
X109509575Y-81779002D01*
X109163833Y-82138531D01*
X109155629Y-82142119D01*
X109146967Y-82138531D01*
X108801226Y-81779003D01*
X108797961Y-81770664D01*
X108799281Y-81765490D01*
X108831663Y-81703294D01*
X108831956Y-81702765D01*
X108866886Y-81643378D01*
X108867079Y-81643063D01*
X108900281Y-81590490D01*
X108900284Y-81590488D01*
X108900283Y-81590487D01*
X108931089Y-81541737D01*
X108931095Y-81541727D01*
X108931138Y-81541659D01*
X108958923Y-81493652D01*
X108983025Y-81443364D01*
X109002835Y-81387689D01*
X109017741Y-81323522D01*
X109027133Y-81247761D01*
X109029993Y-81168578D01*
X109033716Y-81160434D01*
X109041685Y-81157300D01*
X109269115Y-81157300D01*
X109277388Y-81160727D01*
G37*
%TD.AperFunction*%
%TD*%
%TA.AperFunction,Conductor*%
%TO.N,+3V3_A*%
G36*
X114591737Y-73358111D02*
G01*
X114595468Y-73366711D01*
X114592228Y-74449629D01*
X114588776Y-74457892D01*
X114584028Y-74460758D01*
X114478277Y-74493908D01*
X114417944Y-74512821D01*
X114416925Y-74513091D01*
X114369944Y-74523248D01*
X114260891Y-74546825D01*
X114260084Y-74546970D01*
X114117790Y-74567427D01*
X114117410Y-74567476D01*
X113984952Y-74582076D01*
X113858810Y-74598236D01*
X113801549Y-74609911D01*
X113735743Y-74623328D01*
X113735740Y-74623329D01*
X113735386Y-74623401D01*
X113735044Y-74623515D01*
X113611321Y-74664896D01*
X113611319Y-74664897D01*
X113610906Y-74665035D01*
X113610514Y-74665234D01*
X113481974Y-74730410D01*
X113481971Y-74730412D01*
X113481594Y-74730603D01*
X113481246Y-74730848D01*
X113343968Y-74827363D01*
X113343961Y-74827369D01*
X113343676Y-74827569D01*
X113343416Y-74827804D01*
X113343411Y-74827808D01*
X113272900Y-74891531D01*
X113201630Y-74955940D01*
X113193195Y-74958945D01*
X113185513Y-74955533D01*
X113024462Y-74794482D01*
X113021035Y-74786209D01*
X113024050Y-74778369D01*
X113150615Y-74638153D01*
X113150857Y-74637885D01*
X113246376Y-74501293D01*
X113246567Y-74500912D01*
X113246570Y-74500906D01*
X113278376Y-74437275D01*
X113310463Y-74373082D01*
X113350421Y-74249492D01*
X113373557Y-74126763D01*
X113387176Y-74001132D01*
X113398566Y-73869016D01*
X113398600Y-73868678D01*
X113415033Y-73726515D01*
X113415149Y-73725739D01*
X113443878Y-73569735D01*
X113444112Y-73568721D01*
X113490276Y-73402631D01*
X113495794Y-73395578D01*
X113501127Y-73394072D01*
X113983820Y-73376638D01*
X114583346Y-73354985D01*
X114591737Y-73358111D01*
G37*
%TD.AperFunction*%
%TD*%
%TA.AperFunction,Conductor*%
%TO.N,S_C_MOD*%
G36*
X103718289Y-77778173D02*
G01*
X103726493Y-77781761D01*
X103729071Y-77785914D01*
X103764093Y-77883366D01*
X103798975Y-77972775D01*
X103832501Y-78050662D01*
X103866176Y-78121134D01*
X103901509Y-78188299D01*
X103901534Y-78188342D01*
X103901547Y-78188367D01*
X103939953Y-78256168D01*
X103940006Y-78256261D01*
X103983176Y-78329129D01*
X104007348Y-78369236D01*
X104032514Y-78410992D01*
X104032524Y-78411009D01*
X104089514Y-78505932D01*
X104089559Y-78506007D01*
X104149813Y-78608105D01*
X104151067Y-78616972D01*
X104145635Y-78624157D01*
X103949593Y-78738582D01*
X103940720Y-78739793D01*
X103933829Y-78734766D01*
X103876748Y-78645226D01*
X103876597Y-78644989D01*
X103815102Y-78566489D01*
X103753973Y-78505432D01*
X103691793Y-78458497D01*
X103691438Y-78458298D01*
X103691434Y-78458296D01*
X103659776Y-78440602D01*
X103627143Y-78422362D01*
X103558606Y-78393706D01*
X103484764Y-78369207D01*
X103484697Y-78369187D01*
X103484677Y-78369181D01*
X103404210Y-78345548D01*
X103404199Y-78345545D01*
X103315623Y-78319437D01*
X103315370Y-78319359D01*
X103225146Y-78290020D01*
X103218339Y-78284203D01*
X103217067Y-78279123D01*
X103216622Y-78256320D01*
X103207317Y-77780344D01*
X103210582Y-77772005D01*
X103219244Y-77768417D01*
X103718289Y-77778173D01*
G37*
%TD.AperFunction*%
%TD*%
%TA.AperFunction,Conductor*%
%TO.N,P_H_MOD*%
G36*
X90341630Y-85084043D02*
G01*
X90481386Y-85210067D01*
X90481659Y-85210313D01*
X90617880Y-85305278D01*
X90618272Y-85305473D01*
X90618277Y-85305476D01*
X90681500Y-85336926D01*
X90745754Y-85368890D01*
X90814677Y-85391064D01*
X90868650Y-85408428D01*
X90868655Y-85408429D01*
X90868993Y-85408538D01*
X90958751Y-85425471D01*
X90991090Y-85431572D01*
X90991093Y-85431573D01*
X90991308Y-85431613D01*
X90991512Y-85431636D01*
X90991521Y-85431637D01*
X91115890Y-85445449D01*
X91116411Y-85445507D01*
X91193020Y-85452552D01*
X91247827Y-85457592D01*
X91248205Y-85457633D01*
X91389428Y-85475260D01*
X91390241Y-85475391D01*
X91545043Y-85505898D01*
X91546087Y-85506154D01*
X91621152Y-85528267D01*
X91710726Y-85554654D01*
X91717693Y-85560278D01*
X91719117Y-85565645D01*
X91730892Y-86168015D01*
X91740282Y-86648355D01*
X91737017Y-86656694D01*
X91728355Y-86660282D01*
X91406851Y-86653997D01*
X90645646Y-86639117D01*
X90637443Y-86635529D01*
X90634653Y-86630725D01*
X90586154Y-86466087D01*
X90585898Y-86465043D01*
X90555391Y-86310241D01*
X90555260Y-86309428D01*
X90537633Y-86168205D01*
X90537592Y-86167827D01*
X90525507Y-86036411D01*
X90511637Y-85911521D01*
X90511636Y-85911512D01*
X90511613Y-85911308D01*
X90488538Y-85788993D01*
X90448890Y-85665754D01*
X90396420Y-85560278D01*
X90385476Y-85538277D01*
X90385473Y-85538272D01*
X90385278Y-85537880D01*
X90290313Y-85401659D01*
X90290067Y-85401386D01*
X90164043Y-85261630D01*
X90161048Y-85253191D01*
X90164459Y-85245522D01*
X90325522Y-85084459D01*
X90333795Y-85081032D01*
X90341630Y-85084043D01*
G37*
%TD.AperFunction*%
%TD*%
%TA.AperFunction,Conductor*%
%TO.N,P_H_MOD*%
G36*
X96101703Y-77095826D02*
G01*
X96461231Y-77441567D01*
X96464819Y-77449771D01*
X96461231Y-77458433D01*
X96101703Y-77804174D01*
X96093365Y-77807439D01*
X96088191Y-77806119D01*
X96025994Y-77773736D01*
X96025465Y-77773443D01*
X96016739Y-77768311D01*
X95966061Y-77738503D01*
X95965785Y-77738333D01*
X95913190Y-77705118D01*
X95913188Y-77705115D01*
X95913187Y-77705116D01*
X95864437Y-77674310D01*
X95864427Y-77674304D01*
X95864359Y-77674261D01*
X95816352Y-77646476D01*
X95816150Y-77646379D01*
X95816144Y-77646376D01*
X95766339Y-77622506D01*
X95766064Y-77622374D01*
X95710389Y-77602564D01*
X95684557Y-77596563D01*
X95646524Y-77587728D01*
X95646521Y-77587728D01*
X95646222Y-77587658D01*
X95645913Y-77587620D01*
X95645909Y-77587619D01*
X95601886Y-77582162D01*
X95570461Y-77578266D01*
X95514870Y-77576259D01*
X95491278Y-77575407D01*
X95483134Y-77571684D01*
X95480000Y-77563715D01*
X95480000Y-77336285D01*
X95483427Y-77328012D01*
X95491278Y-77324593D01*
X95524212Y-77323403D01*
X95570461Y-77321733D01*
X95601886Y-77317837D01*
X95645909Y-77312380D01*
X95645913Y-77312379D01*
X95646222Y-77312341D01*
X95646521Y-77312271D01*
X95646524Y-77312271D01*
X95710070Y-77297509D01*
X95710068Y-77297509D01*
X95710389Y-77297435D01*
X95766064Y-77277625D01*
X95785766Y-77268182D01*
X95816144Y-77253623D01*
X95816150Y-77253620D01*
X95816352Y-77253523D01*
X95864359Y-77225738D01*
X95913187Y-77194883D01*
X95965785Y-77161666D01*
X95966061Y-77161496D01*
X96025465Y-77126556D01*
X96025994Y-77126263D01*
X96033879Y-77122158D01*
X96088191Y-77093881D01*
X96097111Y-77093100D01*
X96101703Y-77095826D01*
G37*
%TD.AperFunction*%
%TD*%
%TA.AperFunction,Conductor*%
%TO.N,P_D_MOD*%
G36*
X98282533Y-78623069D02*
G01*
X98628274Y-78982597D01*
X98631539Y-78990935D01*
X98630219Y-78996109D01*
X98597836Y-79058305D01*
X98597543Y-79058834D01*
X98562613Y-79118221D01*
X98562420Y-79118536D01*
X98529218Y-79171109D01*
X98529215Y-79171111D01*
X98529216Y-79171112D01*
X98498361Y-79219940D01*
X98470576Y-79267947D01*
X98446474Y-79318235D01*
X98426664Y-79373910D01*
X98411758Y-79438077D01*
X98402366Y-79513838D01*
X98402357Y-79514099D01*
X98399507Y-79593022D01*
X98395784Y-79601166D01*
X98387815Y-79604300D01*
X98160385Y-79604300D01*
X98152112Y-79600873D01*
X98148693Y-79593022D01*
X98145842Y-79514099D01*
X98145833Y-79513838D01*
X98136441Y-79438077D01*
X98121535Y-79373910D01*
X98101725Y-79318235D01*
X98077623Y-79267947D01*
X98049838Y-79219940D01*
X98018983Y-79171112D01*
X97985766Y-79118514D01*
X97985586Y-79118221D01*
X97950656Y-79058834D01*
X97950363Y-79058305D01*
X97917981Y-78996110D01*
X97917200Y-78987189D01*
X97919926Y-78982597D01*
X98265667Y-78623069D01*
X98273871Y-78619481D01*
X98282533Y-78623069D01*
G37*
%TD.AperFunction*%
%TD*%
%TA.AperFunction,Conductor*%
%TO.N,P_S_MOD*%
G36*
X101600995Y-79419382D02*
G01*
X101604583Y-79428044D01*
X101594834Y-79926743D01*
X101591246Y-79934947D01*
X101586653Y-79937673D01*
X101519767Y-79958757D01*
X101519211Y-79958917D01*
X101452530Y-79976206D01*
X101452197Y-79976287D01*
X101391489Y-79989999D01*
X101391489Y-79989998D01*
X101391485Y-79990000D01*
X101335145Y-80002707D01*
X101281553Y-80017006D01*
X101281334Y-80017083D01*
X101281331Y-80017084D01*
X101229244Y-80035418D01*
X101229236Y-80035421D01*
X101228950Y-80035522D01*
X101175575Y-80060883D01*
X101175297Y-80061056D01*
X101175290Y-80061060D01*
X101119925Y-80095551D01*
X101119662Y-80095715D01*
X101119424Y-80095901D01*
X101119419Y-80095904D01*
X101059643Y-80142495D01*
X101059636Y-80142501D01*
X101059450Y-80142646D01*
X101030207Y-80169851D01*
X101001437Y-80196615D01*
X100993046Y-80199741D01*
X100985195Y-80196322D01*
X100824377Y-80035504D01*
X100820950Y-80027231D01*
X100824083Y-80019264D01*
X100878053Y-79961249D01*
X100878198Y-79961063D01*
X100878204Y-79961056D01*
X100924795Y-79901280D01*
X100924798Y-79901275D01*
X100924984Y-79901037D01*
X100925148Y-79900774D01*
X100959639Y-79845409D01*
X100959643Y-79845402D01*
X100959816Y-79845124D01*
X100985177Y-79791749D01*
X100985278Y-79791463D01*
X100985281Y-79791455D01*
X101003615Y-79739368D01*
X101003616Y-79739365D01*
X101003693Y-79739146D01*
X101017992Y-79685554D01*
X101030699Y-79629214D01*
X101030702Y-79629210D01*
X101030700Y-79629210D01*
X101044412Y-79568502D01*
X101044500Y-79568143D01*
X101061775Y-79501518D01*
X101061941Y-79500937D01*
X101083027Y-79434046D01*
X101088783Y-79427186D01*
X101093957Y-79425866D01*
X101592656Y-79416117D01*
X101600995Y-79419382D01*
G37*
%TD.AperFunction*%
%TD*%
%TA.AperFunction,Conductor*%
%TO.N,S_S_MOD*%
G36*
X104125295Y-81935182D02*
G01*
X104128883Y-81943844D01*
X104119134Y-82442543D01*
X104115546Y-82450747D01*
X104110953Y-82453473D01*
X104044067Y-82474557D01*
X104043511Y-82474717D01*
X103976830Y-82492006D01*
X103976497Y-82492087D01*
X103915789Y-82505799D01*
X103915789Y-82505798D01*
X103915785Y-82505800D01*
X103859445Y-82518507D01*
X103805853Y-82532806D01*
X103805634Y-82532883D01*
X103805631Y-82532884D01*
X103753544Y-82551218D01*
X103753536Y-82551221D01*
X103753250Y-82551322D01*
X103699875Y-82576683D01*
X103699597Y-82576856D01*
X103699590Y-82576860D01*
X103644225Y-82611351D01*
X103643962Y-82611515D01*
X103643724Y-82611701D01*
X103643719Y-82611704D01*
X103583943Y-82658295D01*
X103583936Y-82658301D01*
X103583750Y-82658446D01*
X103554507Y-82685651D01*
X103525737Y-82712415D01*
X103517346Y-82715541D01*
X103509495Y-82712122D01*
X103348677Y-82551304D01*
X103345250Y-82543031D01*
X103348383Y-82535064D01*
X103402353Y-82477049D01*
X103402498Y-82476863D01*
X103402504Y-82476856D01*
X103449095Y-82417080D01*
X103449098Y-82417075D01*
X103449284Y-82416837D01*
X103449448Y-82416574D01*
X103483939Y-82361209D01*
X103483943Y-82361202D01*
X103484116Y-82360924D01*
X103509477Y-82307549D01*
X103509578Y-82307263D01*
X103509581Y-82307255D01*
X103527915Y-82255168D01*
X103527916Y-82255165D01*
X103527993Y-82254946D01*
X103542292Y-82201354D01*
X103554999Y-82145014D01*
X103555002Y-82145010D01*
X103555000Y-82145010D01*
X103568712Y-82084302D01*
X103568800Y-82083943D01*
X103586075Y-82017318D01*
X103586241Y-82016737D01*
X103607327Y-81949846D01*
X103613083Y-81942986D01*
X103618257Y-81941666D01*
X104116956Y-81931917D01*
X104125295Y-81935182D01*
G37*
%TD.AperFunction*%
%TD*%
%TA.AperFunction,Conductor*%
%TO.N,DRIFT*%
G36*
X106556788Y-85763527D02*
G01*
X106560207Y-85771378D01*
X106563066Y-85850561D01*
X106572458Y-85926322D01*
X106587364Y-85990489D01*
X106607174Y-86046164D01*
X106631276Y-86096452D01*
X106659061Y-86144459D01*
X106659104Y-86144527D01*
X106659110Y-86144537D01*
X106689916Y-86193287D01*
X106689918Y-86193290D01*
X106723120Y-86245863D01*
X106723313Y-86246178D01*
X106758243Y-86305565D01*
X106758536Y-86306094D01*
X106790919Y-86368291D01*
X106791700Y-86377212D01*
X106788975Y-86381802D01*
X106443233Y-86741331D01*
X106435029Y-86744919D01*
X106426367Y-86741331D01*
X106080626Y-86381803D01*
X106077361Y-86373464D01*
X106078681Y-86368290D01*
X106111063Y-86306094D01*
X106111356Y-86305565D01*
X106146286Y-86246178D01*
X106146479Y-86245863D01*
X106179681Y-86193290D01*
X106179684Y-86193288D01*
X106179683Y-86193287D01*
X106210489Y-86144537D01*
X106210495Y-86144527D01*
X106210538Y-86144459D01*
X106238323Y-86096452D01*
X106262425Y-86046164D01*
X106282235Y-85990489D01*
X106297141Y-85926322D01*
X106306533Y-85850561D01*
X106309393Y-85771378D01*
X106313116Y-85763234D01*
X106321085Y-85760100D01*
X106548515Y-85760100D01*
X106556788Y-85763527D01*
G37*
%TD.AperFunction*%
%TD*%
%TA.AperFunction,Conductor*%
%TO.N,DRIFT*%
G36*
X94358034Y-72899102D02*
G01*
X94508744Y-72981224D01*
X94509663Y-72981781D01*
X94640713Y-73069682D01*
X94641357Y-73070149D01*
X94721073Y-73132172D01*
X94753688Y-73157548D01*
X94753984Y-73157786D01*
X94855455Y-73242167D01*
X94953741Y-73320804D01*
X95056548Y-73390978D01*
X95171726Y-73450085D01*
X95242846Y-73473953D01*
X95306721Y-73495390D01*
X95306724Y-73495391D01*
X95307127Y-73495526D01*
X95416165Y-73514983D01*
X95470241Y-73524633D01*
X95470245Y-73524633D01*
X95470601Y-73524697D01*
X95470969Y-73524716D01*
X95658904Y-73534427D01*
X95666989Y-73538276D01*
X95670000Y-73546111D01*
X95670000Y-73773889D01*
X95666573Y-73782162D01*
X95658904Y-73785573D01*
X95479259Y-73794855D01*
X95470601Y-73795302D01*
X95470245Y-73795366D01*
X95470241Y-73795366D01*
X95416165Y-73805016D01*
X95307127Y-73824473D01*
X95306724Y-73824608D01*
X95306721Y-73824609D01*
X95242846Y-73846046D01*
X95171726Y-73869914D01*
X95056548Y-73929021D01*
X94953741Y-73999195D01*
X94855455Y-74077832D01*
X94855417Y-74077864D01*
X94753984Y-74162213D01*
X94753688Y-74162451D01*
X94641357Y-74249850D01*
X94640713Y-74250317D01*
X94539073Y-74318492D01*
X94509663Y-74338218D01*
X94508744Y-74338775D01*
X94361413Y-74419057D01*
X94358034Y-74420898D01*
X94349130Y-74421847D01*
X94344326Y-74419057D01*
X94077487Y-74162451D01*
X93563769Y-73668433D01*
X93560181Y-73660229D01*
X93563769Y-73651567D01*
X93673431Y-73546111D01*
X94344326Y-72900943D01*
X94352665Y-72897678D01*
X94358034Y-72899102D01*
G37*
%TD.AperFunction*%
%TD*%
%TA.AperFunction,Conductor*%
%TO.N,GND*%
G36*
X115260056Y-70559500D02*
G01*
X115262284Y-70559847D01*
X115274859Y-70561805D01*
X115274861Y-70561805D01*
X115283730Y-70563186D01*
X115292632Y-70562022D01*
X115292634Y-70562022D01*
X115298959Y-70561195D01*
X115324282Y-70560452D01*
X115488126Y-70572170D01*
X115493343Y-70572543D01*
X115511137Y-70575101D01*
X115701540Y-70616521D01*
X115718788Y-70621586D01*
X115901358Y-70689682D01*
X115917710Y-70697149D01*
X115983020Y-70732810D01*
X116088734Y-70790534D01*
X116103848Y-70800248D01*
X116213516Y-70882344D01*
X116259842Y-70917023D01*
X116273428Y-70928796D01*
X116411204Y-71066572D01*
X116422977Y-71080158D01*
X116539752Y-71236152D01*
X116549469Y-71251271D01*
X116642851Y-71422290D01*
X116650318Y-71438642D01*
X116718414Y-71621212D01*
X116723480Y-71638462D01*
X116764899Y-71828863D01*
X116767457Y-71846658D01*
X116779041Y-72008629D01*
X116778297Y-72026533D01*
X116778195Y-72034858D01*
X116776814Y-72043730D01*
X116777978Y-72052631D01*
X116777978Y-72052636D01*
X116780927Y-72075185D01*
X116781991Y-72091548D01*
X116777796Y-92246420D01*
X116776296Y-92265779D01*
X116772600Y-92289516D01*
X116773764Y-92298418D01*
X116773764Y-92298420D01*
X116774591Y-92304745D01*
X116775334Y-92330068D01*
X116764816Y-92477139D01*
X116763243Y-92499129D01*
X116760685Y-92516923D01*
X116732589Y-92646081D01*
X116719266Y-92707324D01*
X116714200Y-92724574D01*
X116646104Y-92907144D01*
X116638637Y-92923496D01*
X116545255Y-93094515D01*
X116535538Y-93109634D01*
X116477802Y-93186761D01*
X116418763Y-93265628D01*
X116406990Y-93279214D01*
X116269214Y-93416990D01*
X116255627Y-93428763D01*
X116099634Y-93545538D01*
X116084520Y-93555252D01*
X115978806Y-93612976D01*
X115913496Y-93648637D01*
X115897144Y-93656104D01*
X115714574Y-93724200D01*
X115697326Y-93729265D01*
X115533808Y-93764837D01*
X115506923Y-93770685D01*
X115489128Y-93773243D01*
X115440229Y-93776740D01*
X115327155Y-93784827D01*
X115309253Y-93784083D01*
X115300928Y-93783981D01*
X115292056Y-93782600D01*
X115283154Y-93783764D01*
X115283151Y-93783764D01*
X115260535Y-93786722D01*
X115244197Y-93787786D01*
X89075114Y-93787786D01*
X89055729Y-93786286D01*
X89055447Y-93786242D01*
X89052903Y-93785846D01*
X89040927Y-93783981D01*
X89040925Y-93783981D01*
X89032056Y-93782600D01*
X89023154Y-93783764D01*
X89023152Y-93783764D01*
X89016827Y-93784591D01*
X88991504Y-93785334D01*
X88822443Y-93773243D01*
X88804649Y-93770685D01*
X88777764Y-93764837D01*
X88614246Y-93729265D01*
X88596998Y-93724200D01*
X88414428Y-93656104D01*
X88398076Y-93648637D01*
X88332766Y-93612976D01*
X88227052Y-93555252D01*
X88211938Y-93545538D01*
X88055945Y-93428763D01*
X88042358Y-93416990D01*
X87904582Y-93279214D01*
X87892809Y-93265628D01*
X87833770Y-93186761D01*
X87776034Y-93109634D01*
X87766317Y-93094515D01*
X87676131Y-92929349D01*
X87661040Y-92859974D01*
X87685851Y-92793454D01*
X87742687Y-92750908D01*
X87813503Y-92745844D01*
X87830949Y-92750982D01*
X87939684Y-92791745D01*
X88001866Y-92798500D01*
X89798134Y-92798500D01*
X89860316Y-92791745D01*
X89996705Y-92740615D01*
X90113261Y-92653261D01*
X90200615Y-92536705D01*
X90222799Y-92477529D01*
X90244598Y-92419382D01*
X90287240Y-92362618D01*
X90353802Y-92337918D01*
X90423150Y-92353126D01*
X90457817Y-92381114D01*
X90486250Y-92413938D01*
X90658126Y-92556632D01*
X90851000Y-92669338D01*
X91059692Y-92749030D01*
X91064760Y-92750061D01*
X91064763Y-92750062D01*
X91159862Y-92769410D01*
X91278597Y-92793567D01*
X91283772Y-92793757D01*
X91283774Y-92793757D01*
X91496673Y-92801564D01*
X91496677Y-92801564D01*
X91501837Y-92801753D01*
X91506957Y-92801097D01*
X91506959Y-92801097D01*
X91718288Y-92774025D01*
X91718289Y-92774025D01*
X91723416Y-92773368D01*
X91728366Y-92771883D01*
X91932429Y-92710661D01*
X91932434Y-92710659D01*
X91937384Y-92709174D01*
X92137994Y-92610896D01*
X92319860Y-92481173D01*
X92478096Y-92323489D01*
X92482493Y-92317370D01*
X92486205Y-92312205D01*
X92497404Y-92298712D01*
X92537014Y-92257234D01*
X92537061Y-92257184D01*
X92537340Y-92256892D01*
X92545571Y-92248066D01*
X92545968Y-92247630D01*
X92554944Y-92237504D01*
X92579793Y-92208710D01*
X92629602Y-92150991D01*
X92689250Y-92112487D01*
X92760247Y-92112343D01*
X92820050Y-92150606D01*
X92832425Y-92167476D01*
X92877285Y-92240680D01*
X92877290Y-92240687D01*
X92879987Y-92245088D01*
X93026250Y-92413938D01*
X93198126Y-92556632D01*
X93391000Y-92669338D01*
X93599692Y-92749030D01*
X93604760Y-92750061D01*
X93604763Y-92750062D01*
X93699862Y-92769410D01*
X93818597Y-92793567D01*
X93823772Y-92793757D01*
X93823774Y-92793757D01*
X94036673Y-92801564D01*
X94036677Y-92801564D01*
X94041837Y-92801753D01*
X94046957Y-92801097D01*
X94046959Y-92801097D01*
X94258288Y-92774025D01*
X94258289Y-92774025D01*
X94263416Y-92773368D01*
X94268366Y-92771883D01*
X94472429Y-92710661D01*
X94472434Y-92710659D01*
X94477384Y-92709174D01*
X94677994Y-92610896D01*
X94859860Y-92481173D01*
X95018096Y-92323489D01*
X95022493Y-92317370D01*
X95043690Y-92287872D01*
X95052046Y-92277456D01*
X95099960Y-92223822D01*
X95113302Y-92208267D01*
X95113903Y-92207537D01*
X95126653Y-92191395D01*
X95186710Y-92112113D01*
X95225340Y-92061116D01*
X95225353Y-92061099D01*
X95225720Y-92060614D01*
X95227043Y-92058794D01*
X95237142Y-92044903D01*
X95237172Y-92044860D01*
X95237491Y-92044422D01*
X95238023Y-92043659D01*
X95238374Y-92043134D01*
X95248977Y-92027259D01*
X95249004Y-92027217D01*
X95249331Y-92026728D01*
X95327088Y-91905094D01*
X95335528Y-91891419D01*
X95335905Y-91890786D01*
X95336114Y-91890421D01*
X95336144Y-91890371D01*
X95343606Y-91877383D01*
X95343619Y-91877360D01*
X95343835Y-91876984D01*
X95374099Y-91822345D01*
X95374100Y-91822343D01*
X95408263Y-91760664D01*
X95412499Y-91752856D01*
X95412635Y-91752600D01*
X95412645Y-91752582D01*
X95415678Y-91746778D01*
X95415710Y-91746716D01*
X95415790Y-91746563D01*
X95435636Y-91707966D01*
X112968257Y-91707966D01*
X112998565Y-91842446D01*
X113001645Y-91852275D01*
X113081770Y-92049603D01*
X113086413Y-92058794D01*
X113197694Y-92240388D01*
X113203777Y-92248699D01*
X113343213Y-92409667D01*
X113350580Y-92416883D01*
X113514434Y-92552916D01*
X113522881Y-92558831D01*
X113706756Y-92666279D01*
X113716042Y-92670729D01*
X113915001Y-92746703D01*
X113924899Y-92749579D01*
X114028250Y-92770606D01*
X114042299Y-92769410D01*
X114046000Y-92759065D01*
X114046000Y-92758517D01*
X114554000Y-92758517D01*
X114558064Y-92772359D01*
X114571478Y-92774393D01*
X114578184Y-92773534D01*
X114588262Y-92771392D01*
X114792255Y-92710191D01*
X114801842Y-92706433D01*
X114993095Y-92612739D01*
X115001945Y-92607464D01*
X115175328Y-92483792D01*
X115183200Y-92477139D01*
X115334052Y-92326812D01*
X115340730Y-92318965D01*
X115465003Y-92146020D01*
X115470313Y-92137183D01*
X115564670Y-91946267D01*
X115568469Y-91936672D01*
X115630377Y-91732910D01*
X115632555Y-91722837D01*
X115633986Y-91711962D01*
X115631775Y-91697778D01*
X115618617Y-91694000D01*
X114572115Y-91694000D01*
X114556876Y-91698475D01*
X114555671Y-91699865D01*
X114554000Y-91707548D01*
X114554000Y-92758517D01*
X114046000Y-92758517D01*
X114046000Y-91712115D01*
X114041525Y-91696876D01*
X114040135Y-91695671D01*
X114032452Y-91694000D01*
X112983225Y-91694000D01*
X112969694Y-91697973D01*
X112968257Y-91707966D01*
X95435636Y-91707966D01*
X95473384Y-91634551D01*
X95473867Y-91633621D01*
X95527064Y-91532520D01*
X95529882Y-91527454D01*
X95582755Y-91437319D01*
X95587465Y-91429895D01*
X95650582Y-91337696D01*
X95656417Y-91329845D01*
X95741723Y-91223944D01*
X95747835Y-91216908D01*
X95863691Y-91093109D01*
X95866594Y-91090109D01*
X103878740Y-83077964D01*
X103882014Y-83074806D01*
X103900516Y-83057594D01*
X103900526Y-83057585D01*
X103909519Y-83049219D01*
X103917861Y-83042111D01*
X103923821Y-83037466D01*
X103968798Y-83015102D01*
X103978505Y-83012512D01*
X103983265Y-83011341D01*
X103995016Y-83008691D01*
X104027552Y-83001352D01*
X104027608Y-83001601D01*
X104027768Y-83001566D01*
X104027711Y-83001316D01*
X104088419Y-82987604D01*
X104091162Y-82986961D01*
X104096374Y-82985739D01*
X104096442Y-82985722D01*
X104096564Y-82985694D01*
X104096897Y-82985613D01*
X104104328Y-82983746D01*
X104171009Y-82966457D01*
X104183997Y-82962905D01*
X104184553Y-82962745D01*
X104191854Y-82960544D01*
X104196395Y-82959176D01*
X104196441Y-82959162D01*
X104196792Y-82959056D01*
X104206649Y-82955949D01*
X104218315Y-82952877D01*
X104237069Y-82948891D01*
X104263530Y-82943267D01*
X104263533Y-82943266D01*
X104269988Y-82941894D01*
X104334050Y-82913372D01*
X104438422Y-82866903D01*
X104438424Y-82866902D01*
X104444452Y-82864218D01*
X104456039Y-82855800D01*
X104536240Y-82797530D01*
X104598953Y-82751966D01*
X104678052Y-82664118D01*
X104722321Y-82614952D01*
X104722322Y-82614951D01*
X104726740Y-82610044D01*
X104804410Y-82475516D01*
X104818923Y-82450379D01*
X104818924Y-82450378D01*
X104822227Y-82444656D01*
X104881242Y-82263028D01*
X104882198Y-82253938D01*
X104900514Y-82079665D01*
X104901204Y-82073100D01*
X104891150Y-81977438D01*
X104881932Y-81889735D01*
X104881932Y-81889733D01*
X104881242Y-81883172D01*
X104822227Y-81701544D01*
X104791875Y-81648972D01*
X104730041Y-81541874D01*
X104726740Y-81536156D01*
X104691397Y-81496903D01*
X104603375Y-81399145D01*
X104603374Y-81399144D01*
X104598953Y-81394234D01*
X104490094Y-81315143D01*
X104449794Y-81285863D01*
X104449793Y-81285862D01*
X104444452Y-81281982D01*
X104432191Y-81276523D01*
X104427486Y-81274428D01*
X104373390Y-81228449D01*
X104352740Y-81160522D01*
X104375973Y-81086409D01*
X104414844Y-81031626D01*
X104520699Y-80882436D01*
X104654002Y-80641243D01*
X104670449Y-80601538D01*
X104758108Y-80389910D01*
X104758108Y-80389909D01*
X104759462Y-80386641D01*
X104835752Y-80121833D01*
X104881914Y-79850147D01*
X104892075Y-79669219D01*
X104915865Y-79602327D01*
X104972044Y-79558916D01*
X105042774Y-79552768D01*
X105105599Y-79585836D01*
X105119079Y-79601224D01*
X105150691Y-79643847D01*
X105216573Y-79732679D01*
X105223443Y-79742960D01*
X105304491Y-79878180D01*
X105386618Y-80015200D01*
X105391020Y-80022545D01*
X105396847Y-80033446D01*
X105440254Y-80125223D01*
X105536214Y-80328114D01*
X105540946Y-80339538D01*
X105650758Y-80646443D01*
X105654347Y-80658275D01*
X105733550Y-80974466D01*
X105735961Y-80986591D01*
X105778969Y-81276523D01*
X105783789Y-81309020D01*
X105785001Y-81321321D01*
X105787769Y-81377666D01*
X105799247Y-81611312D01*
X105798321Y-81633938D01*
X105797673Y-81638857D01*
X105797673Y-81638863D01*
X105796682Y-81646390D01*
X105798440Y-81662311D01*
X105800539Y-81681326D01*
X105801300Y-81695153D01*
X105801300Y-85762500D01*
X105801218Y-85767050D01*
X105799862Y-85804574D01*
X105798989Y-85815509D01*
X105798059Y-85823014D01*
X105782062Y-85870651D01*
X105777042Y-85879323D01*
X105774510Y-85883507D01*
X105750240Y-85921914D01*
X105750067Y-85921804D01*
X105749990Y-85921923D01*
X105750165Y-85922033D01*
X105716963Y-85974606D01*
X105713318Y-85980466D01*
X105713125Y-85980781D01*
X105708412Y-85988631D01*
X105708297Y-85988826D01*
X105708283Y-85988850D01*
X105697734Y-86006785D01*
X105673482Y-86048018D01*
X105666967Y-86059429D01*
X105666674Y-86059958D01*
X105660476Y-86071498D01*
X105652042Y-86087697D01*
X105647048Y-86097288D01*
X105644414Y-86102090D01*
X105600273Y-86178544D01*
X105541258Y-86360172D01*
X105540568Y-86366733D01*
X105540568Y-86366735D01*
X105521986Y-86543535D01*
X105521296Y-86550100D01*
X105521986Y-86556665D01*
X105532114Y-86653023D01*
X105541258Y-86740028D01*
X105600273Y-86921656D01*
X105603576Y-86927378D01*
X105603577Y-86927379D01*
X105633392Y-86979020D01*
X105695760Y-87087044D01*
X105823547Y-87228966D01*
X105922643Y-87300964D01*
X105972573Y-87337240D01*
X105978048Y-87341218D01*
X105984076Y-87343902D01*
X105984078Y-87343903D01*
X106119443Y-87404171D01*
X106152512Y-87418894D01*
X106245913Y-87438747D01*
X106332856Y-87457228D01*
X106332861Y-87457228D01*
X106339313Y-87458600D01*
X106530287Y-87458600D01*
X106536739Y-87457228D01*
X106536744Y-87457228D01*
X106623687Y-87438747D01*
X106717088Y-87418894D01*
X106750157Y-87404171D01*
X106885522Y-87343903D01*
X106885524Y-87343902D01*
X106891552Y-87341218D01*
X106897028Y-87337240D01*
X106946957Y-87300964D01*
X107046053Y-87228966D01*
X107173840Y-87087044D01*
X107236208Y-86979020D01*
X107266023Y-86927379D01*
X107266024Y-86927378D01*
X107269327Y-86921656D01*
X107328342Y-86740028D01*
X107337487Y-86653023D01*
X107347614Y-86556665D01*
X107348304Y-86550100D01*
X107347614Y-86543535D01*
X107329032Y-86366735D01*
X107329032Y-86366733D01*
X107328342Y-86360172D01*
X107269327Y-86178544D01*
X107225189Y-86102094D01*
X107222548Y-86097283D01*
X107209257Y-86071756D01*
X107209122Y-86071496D01*
X107202925Y-86059958D01*
X107202632Y-86059429D01*
X107196117Y-86048018D01*
X107171865Y-86006785D01*
X107161316Y-85988850D01*
X107161302Y-85988826D01*
X107161187Y-85988631D01*
X107156474Y-85980781D01*
X107156281Y-85980466D01*
X107152636Y-85974606D01*
X107119434Y-85922033D01*
X107119502Y-85921990D01*
X107119441Y-85921862D01*
X107119359Y-85921914D01*
X107095089Y-85883507D01*
X107092557Y-85879323D01*
X107087537Y-85870651D01*
X107071540Y-85823014D01*
X107070610Y-85815509D01*
X107069737Y-85804572D01*
X107068382Y-85767061D01*
X107068300Y-85762513D01*
X107068300Y-81947300D01*
X108241896Y-81947300D01*
X108242586Y-81953865D01*
X108255916Y-82080689D01*
X108261858Y-82137228D01*
X108320873Y-82318856D01*
X108416360Y-82484244D01*
X108420778Y-82489151D01*
X108420779Y-82489152D01*
X108499552Y-82576638D01*
X108544147Y-82626166D01*
X108698648Y-82738418D01*
X108704676Y-82741102D01*
X108704678Y-82741103D01*
X108846786Y-82804373D01*
X108873112Y-82816094D01*
X108966512Y-82835947D01*
X109053456Y-82854428D01*
X109053461Y-82854428D01*
X109059913Y-82855800D01*
X109250887Y-82855800D01*
X109257339Y-82854428D01*
X109257344Y-82854428D01*
X109344288Y-82835947D01*
X109437688Y-82816094D01*
X109464014Y-82804373D01*
X109606122Y-82741103D01*
X109606124Y-82741102D01*
X109612152Y-82738418D01*
X109766653Y-82626166D01*
X109811248Y-82576638D01*
X109890021Y-82489152D01*
X109890022Y-82489151D01*
X109894440Y-82484244D01*
X109989927Y-82318856D01*
X110048942Y-82137228D01*
X110054885Y-82080689D01*
X110068214Y-81953865D01*
X110068904Y-81947300D01*
X110056436Y-81828670D01*
X110049632Y-81763935D01*
X110049632Y-81763933D01*
X110048942Y-81757372D01*
X109989927Y-81575744D01*
X109945789Y-81499294D01*
X109943148Y-81494483D01*
X109932883Y-81474767D01*
X109929722Y-81468696D01*
X109923525Y-81457158D01*
X109923232Y-81456629D01*
X109916717Y-81445218D01*
X109889618Y-81399145D01*
X109881916Y-81386050D01*
X109881902Y-81386026D01*
X109881787Y-81385831D01*
X109877074Y-81377981D01*
X109876881Y-81377666D01*
X109873236Y-81371806D01*
X109840034Y-81319233D01*
X109840102Y-81319190D01*
X109840041Y-81319062D01*
X109839959Y-81319114D01*
X109815689Y-81280707D01*
X109813157Y-81276523D01*
X109808137Y-81267851D01*
X109792140Y-81220214D01*
X109791210Y-81212709D01*
X109790337Y-81201772D01*
X109788982Y-81164261D01*
X109788900Y-81159713D01*
X109788900Y-80435967D01*
X109789978Y-80419521D01*
X109792527Y-80400163D01*
X109792527Y-80400159D01*
X109793518Y-80392632D01*
X109791197Y-80371605D01*
X109790589Y-80351604D01*
X109801764Y-80124118D01*
X109803698Y-80084752D01*
X109804909Y-80072451D01*
X109810222Y-80036638D01*
X109825221Y-79935516D01*
X109848248Y-79780284D01*
X109850660Y-79768157D01*
X109916497Y-79505320D01*
X109922429Y-79481634D01*
X109926019Y-79469802D01*
X109929905Y-79458944D01*
X110005384Y-79247995D01*
X110025521Y-79191716D01*
X110030252Y-79180293D01*
X110156541Y-78913275D01*
X110162370Y-78902370D01*
X110163051Y-78901235D01*
X110262522Y-78735277D01*
X110314220Y-78649025D01*
X110321090Y-78638744D01*
X110497037Y-78401508D01*
X110504881Y-78391950D01*
X110679310Y-78199496D01*
X110695967Y-78184149D01*
X110705933Y-78176502D01*
X110710679Y-78170578D01*
X110710682Y-78170575D01*
X110727918Y-78149060D01*
X110737158Y-78138745D01*
X112726109Y-76149794D01*
X112788421Y-76115768D01*
X112859236Y-76120833D01*
X112916072Y-76163380D01*
X112940995Y-76231636D01*
X112943202Y-76269908D01*
X112950110Y-76389715D01*
X112951247Y-76394761D01*
X112951248Y-76394767D01*
X112971119Y-76482939D01*
X112999222Y-76607639D01*
X113048584Y-76729203D01*
X113076221Y-76797265D01*
X113083266Y-76814616D01*
X113199987Y-77005088D01*
X113346250Y-77173938D01*
X113518126Y-77316632D01*
X113553054Y-77337042D01*
X113591445Y-77359476D01*
X113640169Y-77411114D01*
X113653240Y-77480897D01*
X113626509Y-77546669D01*
X113586055Y-77580027D01*
X113573607Y-77586507D01*
X113569474Y-77589610D01*
X113569471Y-77589612D01*
X113404609Y-77713394D01*
X113394965Y-77720635D01*
X113240629Y-77882138D01*
X113114743Y-78066680D01*
X113087549Y-78125265D01*
X113032526Y-78243803D01*
X113020688Y-78269305D01*
X112960989Y-78484570D01*
X112937251Y-78706695D01*
X112937548Y-78711848D01*
X112937548Y-78711851D01*
X112947528Y-78884941D01*
X112950110Y-78929715D01*
X112951247Y-78934761D01*
X112951248Y-78934767D01*
X112955081Y-78951773D01*
X112999222Y-79147639D01*
X113036565Y-79239604D01*
X113065759Y-79311500D01*
X113083266Y-79354616D01*
X113127131Y-79426197D01*
X113197291Y-79540688D01*
X113199987Y-79545088D01*
X113346250Y-79713938D01*
X113518126Y-79856632D01*
X113543354Y-79871374D01*
X113591445Y-79899476D01*
X113640169Y-79951114D01*
X113653240Y-80020897D01*
X113626509Y-80086669D01*
X113586055Y-80120027D01*
X113573607Y-80126507D01*
X113569474Y-80129610D01*
X113569471Y-80129612D01*
X113399100Y-80257530D01*
X113394965Y-80260635D01*
X113391393Y-80264373D01*
X113245678Y-80416855D01*
X113240629Y-80422138D01*
X113114743Y-80606680D01*
X113020688Y-80809305D01*
X112960989Y-81024570D01*
X112937251Y-81246695D01*
X112937548Y-81251848D01*
X112937548Y-81251851D01*
X112948719Y-81445585D01*
X112950110Y-81469715D01*
X112951247Y-81474761D01*
X112951248Y-81474767D01*
X112956237Y-81496903D01*
X112999222Y-81687639D01*
X113083266Y-81894616D01*
X113134019Y-81977438D01*
X113197291Y-82080688D01*
X113199987Y-82085088D01*
X113346250Y-82253938D01*
X113518126Y-82396632D01*
X113588595Y-82437811D01*
X113591445Y-82439476D01*
X113640169Y-82491114D01*
X113653240Y-82560897D01*
X113626509Y-82626669D01*
X113586055Y-82660027D01*
X113573607Y-82666507D01*
X113569474Y-82669610D01*
X113569471Y-82669612D01*
X113459786Y-82751966D01*
X113394965Y-82800635D01*
X113391393Y-82804373D01*
X113246539Y-82955954D01*
X113240629Y-82962138D01*
X113237720Y-82966403D01*
X113237714Y-82966411D01*
X113213899Y-83001322D01*
X113114743Y-83146680D01*
X113020688Y-83349305D01*
X112960989Y-83564570D01*
X112937251Y-83786695D01*
X112937548Y-83791848D01*
X112937548Y-83791851D01*
X112949360Y-83996700D01*
X112950110Y-84009715D01*
X112951247Y-84014761D01*
X112951248Y-84014767D01*
X112971119Y-84102939D01*
X112999222Y-84227639D01*
X113083266Y-84434616D01*
X113199987Y-84625088D01*
X113346250Y-84793938D01*
X113518126Y-84936632D01*
X113588595Y-84977811D01*
X113591445Y-84979476D01*
X113640169Y-85031114D01*
X113653240Y-85100897D01*
X113626509Y-85166669D01*
X113586055Y-85200027D01*
X113573607Y-85206507D01*
X113569474Y-85209610D01*
X113569471Y-85209612D01*
X113545247Y-85227800D01*
X113394965Y-85340635D01*
X113240629Y-85502138D01*
X113237715Y-85506410D01*
X113237714Y-85506411D01*
X113168265Y-85608219D01*
X113114743Y-85686680D01*
X113100089Y-85718249D01*
X113024346Y-85881425D01*
X113020688Y-85889305D01*
X112960989Y-86104570D01*
X112937251Y-86326695D01*
X112937548Y-86331848D01*
X112937548Y-86331851D01*
X112943011Y-86426590D01*
X112950110Y-86549715D01*
X112951247Y-86554761D01*
X112951248Y-86554767D01*
X112971119Y-86642939D01*
X112999222Y-86767639D01*
X113083266Y-86974616D01*
X113134019Y-87057438D01*
X113197291Y-87160688D01*
X113199987Y-87165088D01*
X113346250Y-87333938D01*
X113518126Y-87476632D01*
X113588595Y-87517811D01*
X113591445Y-87519476D01*
X113640169Y-87571114D01*
X113653240Y-87640897D01*
X113626509Y-87706669D01*
X113586055Y-87740027D01*
X113573607Y-87746507D01*
X113569474Y-87749610D01*
X113569471Y-87749612D01*
X113545247Y-87767800D01*
X113394965Y-87880635D01*
X113240629Y-88042138D01*
X113114743Y-88226680D01*
X113020688Y-88429305D01*
X112960989Y-88644570D01*
X112937251Y-88866695D01*
X112937548Y-88871848D01*
X112937548Y-88871851D01*
X112943011Y-88966590D01*
X112950110Y-89089715D01*
X112951247Y-89094761D01*
X112951248Y-89094767D01*
X112971119Y-89182939D01*
X112999222Y-89307639D01*
X113083266Y-89514616D01*
X113134019Y-89597438D01*
X113197291Y-89700688D01*
X113199987Y-89705088D01*
X113346250Y-89873938D01*
X113518126Y-90016632D01*
X113577041Y-90051059D01*
X113591955Y-90059774D01*
X113640679Y-90111412D01*
X113653750Y-90181195D01*
X113627019Y-90246967D01*
X113586562Y-90280327D01*
X113578457Y-90284546D01*
X113569738Y-90290036D01*
X113399433Y-90417905D01*
X113391726Y-90424748D01*
X113244590Y-90578717D01*
X113238104Y-90586727D01*
X113118098Y-90762649D01*
X113113000Y-90771623D01*
X113023338Y-90964783D01*
X113019775Y-90974470D01*
X112964389Y-91174183D01*
X112965912Y-91182607D01*
X112978292Y-91186000D01*
X115618344Y-91186000D01*
X115631875Y-91182027D01*
X115633180Y-91172947D01*
X115591214Y-91005875D01*
X115587894Y-90996124D01*
X115502972Y-90800814D01*
X115498105Y-90791739D01*
X115382426Y-90612926D01*
X115376136Y-90604757D01*
X115232806Y-90447240D01*
X115225273Y-90440215D01*
X115058139Y-90308222D01*
X115049556Y-90302520D01*
X115012602Y-90282120D01*
X114962631Y-90231687D01*
X114947859Y-90162245D01*
X114972975Y-90095839D01*
X115000327Y-90069232D01*
X115025805Y-90051059D01*
X115179860Y-89941173D01*
X115338096Y-89783489D01*
X115397594Y-89700689D01*
X115465435Y-89606277D01*
X115468453Y-89602077D01*
X115489320Y-89559857D01*
X115565136Y-89406453D01*
X115565137Y-89406451D01*
X115567430Y-89401811D01*
X115632370Y-89188069D01*
X115661529Y-88966590D01*
X115663156Y-88900000D01*
X115644852Y-88677361D01*
X115590431Y-88460702D01*
X115501354Y-88255840D01*
X115380014Y-88068277D01*
X115229670Y-87903051D01*
X115225619Y-87899852D01*
X115225615Y-87899848D01*
X115058414Y-87767800D01*
X115058410Y-87767798D01*
X115054359Y-87764598D01*
X115013053Y-87741796D01*
X114963084Y-87691364D01*
X114948312Y-87621921D01*
X114973428Y-87555516D01*
X115000780Y-87528909D01*
X115044603Y-87497650D01*
X115179860Y-87401173D01*
X115237331Y-87343903D01*
X115334435Y-87247137D01*
X115338096Y-87243489D01*
X115397594Y-87160689D01*
X115465435Y-87066277D01*
X115468453Y-87062077D01*
X115489320Y-87019857D01*
X115565136Y-86866453D01*
X115565137Y-86866451D01*
X115567430Y-86861811D01*
X115621956Y-86682346D01*
X115630865Y-86653023D01*
X115630865Y-86653021D01*
X115632370Y-86648069D01*
X115661529Y-86426590D01*
X115661896Y-86411572D01*
X115663074Y-86363365D01*
X115663074Y-86363361D01*
X115663156Y-86360000D01*
X115644852Y-86137361D01*
X115590431Y-85920702D01*
X115501354Y-85715840D01*
X115431731Y-85608219D01*
X115382822Y-85532617D01*
X115382820Y-85532614D01*
X115380014Y-85528277D01*
X115229670Y-85363051D01*
X115225619Y-85359852D01*
X115225615Y-85359848D01*
X115058414Y-85227800D01*
X115058410Y-85227798D01*
X115054359Y-85224598D01*
X115013053Y-85201796D01*
X114963084Y-85151364D01*
X114948312Y-85081921D01*
X114973428Y-85015516D01*
X115000780Y-84988909D01*
X115044603Y-84957650D01*
X115179860Y-84861173D01*
X115338096Y-84703489D01*
X115397594Y-84620689D01*
X115465435Y-84526277D01*
X115468453Y-84522077D01*
X115567430Y-84321811D01*
X115632370Y-84108069D01*
X115661529Y-83886590D01*
X115663156Y-83820000D01*
X115644852Y-83597361D01*
X115590431Y-83380702D01*
X115501354Y-83175840D01*
X115424853Y-83057588D01*
X115382822Y-82992617D01*
X115382820Y-82992614D01*
X115380014Y-82988277D01*
X115229670Y-82823051D01*
X115225619Y-82819852D01*
X115225615Y-82819848D01*
X115058414Y-82687800D01*
X115058410Y-82687798D01*
X115054359Y-82684598D01*
X115013053Y-82661796D01*
X114963084Y-82611364D01*
X114948312Y-82541921D01*
X114973428Y-82475516D01*
X115000780Y-82448909D01*
X115044603Y-82417650D01*
X115179860Y-82321173D01*
X115338096Y-82163489D01*
X115397594Y-82080689D01*
X115465435Y-81986277D01*
X115468453Y-81982077D01*
X115488886Y-81940735D01*
X115565136Y-81786453D01*
X115565137Y-81786451D01*
X115567430Y-81781811D01*
X115608777Y-81645722D01*
X115630865Y-81573023D01*
X115630865Y-81573021D01*
X115632370Y-81568069D01*
X115661529Y-81346590D01*
X115662146Y-81321326D01*
X115663074Y-81283365D01*
X115663074Y-81283361D01*
X115663156Y-81280000D01*
X115644852Y-81057361D01*
X115590431Y-80840702D01*
X115501354Y-80635840D01*
X115421745Y-80512783D01*
X115382822Y-80452617D01*
X115382820Y-80452614D01*
X115380014Y-80448277D01*
X115229670Y-80283051D01*
X115225619Y-80279852D01*
X115225615Y-80279848D01*
X115058414Y-80147800D01*
X115058410Y-80147798D01*
X115054359Y-80144598D01*
X115013053Y-80121796D01*
X114963084Y-80071364D01*
X114948312Y-80001921D01*
X114973428Y-79935516D01*
X115000780Y-79908909D01*
X115063174Y-79864404D01*
X115179860Y-79781173D01*
X115338096Y-79623489D01*
X115347946Y-79609782D01*
X115465435Y-79446277D01*
X115468453Y-79442077D01*
X115473057Y-79432763D01*
X115565136Y-79246453D01*
X115565137Y-79246451D01*
X115567430Y-79241811D01*
X115623688Y-79056646D01*
X115630865Y-79033023D01*
X115630865Y-79033021D01*
X115632370Y-79028069D01*
X115661529Y-78806590D01*
X115661611Y-78803240D01*
X115663074Y-78743365D01*
X115663074Y-78743361D01*
X115663156Y-78740000D01*
X115644852Y-78517361D01*
X115590431Y-78300702D01*
X115501354Y-78095840D01*
X115404099Y-77945506D01*
X115382822Y-77912617D01*
X115382820Y-77912614D01*
X115380014Y-77908277D01*
X115229670Y-77743051D01*
X115225619Y-77739852D01*
X115225615Y-77739848D01*
X115058414Y-77607800D01*
X115058410Y-77607798D01*
X115054359Y-77604598D01*
X115013053Y-77581796D01*
X114963084Y-77531364D01*
X114948312Y-77461921D01*
X114973428Y-77395516D01*
X115000780Y-77368909D01*
X115045456Y-77337042D01*
X115179860Y-77241173D01*
X115338096Y-77083489D01*
X115397594Y-77000689D01*
X115465435Y-76906277D01*
X115468453Y-76902077D01*
X115482245Y-76874172D01*
X115565136Y-76706453D01*
X115565137Y-76706451D01*
X115567430Y-76701811D01*
X115632370Y-76488069D01*
X115661529Y-76266590D01*
X115663156Y-76200000D01*
X115644852Y-75977361D01*
X115590431Y-75760702D01*
X115501354Y-75555840D01*
X115380014Y-75368277D01*
X115376532Y-75364450D01*
X115232798Y-75206488D01*
X115201746Y-75142642D01*
X115210141Y-75072143D01*
X115255317Y-75017375D01*
X115281761Y-75003706D01*
X115388297Y-74963767D01*
X115396705Y-74960615D01*
X115513261Y-74873261D01*
X115600615Y-74756705D01*
X115651745Y-74620316D01*
X115658500Y-74558134D01*
X115658500Y-72761866D01*
X115651745Y-72699684D01*
X115600615Y-72563295D01*
X115513261Y-72446739D01*
X115396705Y-72359385D01*
X115260316Y-72308255D01*
X115198134Y-72301500D01*
X113401866Y-72301500D01*
X113339684Y-72308255D01*
X113203295Y-72359385D01*
X113086739Y-72446739D01*
X112999385Y-72563295D01*
X112948255Y-72699684D01*
X112941500Y-72761866D01*
X112941500Y-73481318D01*
X112939416Y-73504138D01*
X112933532Y-73536092D01*
X112915550Y-73633735D01*
X112912731Y-73650635D01*
X112912615Y-73651411D01*
X112910393Y-73668182D01*
X112893960Y-73810345D01*
X112893151Y-73817834D01*
X112893117Y-73818172D01*
X112893088Y-73818484D01*
X112893085Y-73818513D01*
X112892456Y-73825239D01*
X112892427Y-73825564D01*
X112881651Y-73950568D01*
X112881383Y-73953326D01*
X112871194Y-74047311D01*
X112869747Y-74057073D01*
X112858646Y-74115960D01*
X112854717Y-74131379D01*
X112841834Y-74171227D01*
X112834648Y-74188802D01*
X112823984Y-74210136D01*
X112823979Y-74210148D01*
X112812818Y-74232476D01*
X112803371Y-74248347D01*
X112757104Y-74314509D01*
X112747381Y-74326724D01*
X112687648Y-74392900D01*
X112656922Y-74426940D01*
X112652485Y-74431609D01*
X109849671Y-77234423D01*
X109836229Y-77246088D01*
X109827194Y-77252872D01*
X109817748Y-77259964D01*
X109808199Y-77269315D01*
X109805651Y-77272564D01*
X109802901Y-77275635D01*
X109802899Y-77275633D01*
X109801239Y-77277590D01*
X109708887Y-77378374D01*
X109548777Y-77553102D01*
X109547110Y-77555274D01*
X109547107Y-77555278D01*
X109495099Y-77623056D01*
X109314725Y-77858125D01*
X109108148Y-78182386D01*
X109046099Y-78301581D01*
X108933771Y-78517361D01*
X108930618Y-78523417D01*
X108783487Y-78878624D01*
X108782661Y-78881244D01*
X108782658Y-78881252D01*
X108668703Y-79242672D01*
X108667874Y-79245302D01*
X108584659Y-79620661D01*
X108584301Y-79623380D01*
X108584300Y-79623386D01*
X108578651Y-79666298D01*
X108534476Y-80001844D01*
X108523014Y-80264373D01*
X108518958Y-80357278D01*
X108518200Y-80365453D01*
X108517968Y-80368507D01*
X108517387Y-80372587D01*
X108517247Y-80385951D01*
X108517742Y-80390041D01*
X108517742Y-80390042D01*
X108520987Y-80416855D01*
X108521900Y-80431993D01*
X108521900Y-81159700D01*
X108521818Y-81164250D01*
X108520462Y-81201774D01*
X108519589Y-81212709D01*
X108518659Y-81220214D01*
X108502662Y-81267851D01*
X108497642Y-81276523D01*
X108495110Y-81280707D01*
X108492176Y-81285350D01*
X108470840Y-81319114D01*
X108470667Y-81319004D01*
X108470590Y-81319123D01*
X108470765Y-81319233D01*
X108437563Y-81371806D01*
X108433918Y-81377666D01*
X108433725Y-81377981D01*
X108429012Y-81385831D01*
X108428897Y-81386026D01*
X108428883Y-81386050D01*
X108421181Y-81399145D01*
X108394082Y-81445218D01*
X108387567Y-81456629D01*
X108387274Y-81457158D01*
X108381076Y-81468698D01*
X108377916Y-81474767D01*
X108367648Y-81494488D01*
X108365014Y-81499290D01*
X108320873Y-81575744D01*
X108261858Y-81757372D01*
X108261168Y-81763933D01*
X108261168Y-81763935D01*
X108254364Y-81828670D01*
X108241896Y-81947300D01*
X107068300Y-81947300D01*
X107068300Y-81707066D01*
X107069557Y-81689312D01*
X107072232Y-81670516D01*
X107072813Y-81666435D01*
X107072953Y-81653071D01*
X107072064Y-81645722D01*
X107071248Y-81635531D01*
X107071186Y-81633938D01*
X107057392Y-81282878D01*
X107057052Y-81280000D01*
X107026229Y-81019588D01*
X107013846Y-80914967D01*
X106957459Y-80631492D01*
X106942053Y-80554038D01*
X106942050Y-80554027D01*
X106941569Y-80551607D01*
X106938802Y-80541794D01*
X106841680Y-80197427D01*
X106841678Y-80197422D01*
X106841006Y-80195038D01*
X106712777Y-79847457D01*
X106682220Y-79781173D01*
X106564112Y-79524980D01*
X106557672Y-79511010D01*
X106555823Y-79507707D01*
X106415026Y-79256296D01*
X106376649Y-79187768D01*
X106345988Y-79141880D01*
X106172202Y-78881791D01*
X106172199Y-78881787D01*
X106170822Y-78879726D01*
X106030369Y-78701562D01*
X105942997Y-78590731D01*
X105942993Y-78590726D01*
X105941461Y-78588783D01*
X105936629Y-78583555D01*
X105712659Y-78341266D01*
X105704426Y-78331392D01*
X105702529Y-78328866D01*
X105702527Y-78328863D01*
X105700048Y-78325562D01*
X105695655Y-78321076D01*
X105693590Y-78318966D01*
X105693586Y-78318962D01*
X105690698Y-78316013D01*
X105666186Y-78296793D01*
X105654838Y-78286734D01*
X101813675Y-74445570D01*
X101802010Y-74432128D01*
X101790614Y-74416949D01*
X101790608Y-74416942D01*
X101788137Y-74413651D01*
X101778787Y-74404102D01*
X101775546Y-74401561D01*
X101775536Y-74401552D01*
X101772953Y-74399527D01*
X101765173Y-74392900D01*
X101506018Y-74153338D01*
X101215074Y-73923976D01*
X101057238Y-73818513D01*
X100909087Y-73719522D01*
X100909085Y-73719521D01*
X100907032Y-73718149D01*
X100818647Y-73668651D01*
X100585939Y-73538328D01*
X100585929Y-73538323D01*
X100583790Y-73537125D01*
X100247342Y-73382020D01*
X99899762Y-73253791D01*
X99658277Y-73185685D01*
X99545572Y-73153899D01*
X99545567Y-73153898D01*
X99543192Y-73153228D01*
X99179831Y-73080952D01*
X99060822Y-73066866D01*
X98814374Y-73037697D01*
X98814363Y-73037696D01*
X98811920Y-73037407D01*
X98475105Y-73024173D01*
X98462299Y-73023013D01*
X98459173Y-73022568D01*
X98459172Y-73022568D01*
X98455090Y-73021987D01*
X98448111Y-73021914D01*
X98445846Y-73021890D01*
X98445844Y-73021890D01*
X98441726Y-73021847D01*
X98437636Y-73022342D01*
X98437635Y-73022342D01*
X98435768Y-73022568D01*
X98410819Y-73025587D01*
X98395684Y-73026500D01*
X95676680Y-73026500D01*
X95670178Y-73026332D01*
X95663190Y-73025971D01*
X95536418Y-73019420D01*
X95520800Y-73017631D01*
X95505409Y-73014884D01*
X95505404Y-73014883D01*
X95442387Y-73003638D01*
X95421462Y-72998011D01*
X95421440Y-72998003D01*
X95364257Y-72955925D01*
X95338899Y-72889612D01*
X95338500Y-72879589D01*
X95338500Y-72761866D01*
X95331745Y-72699684D01*
X95280615Y-72563295D01*
X95193261Y-72446739D01*
X95076705Y-72359385D01*
X94940316Y-72308255D01*
X94878134Y-72301500D01*
X93081866Y-72301500D01*
X93019684Y-72308255D01*
X92883295Y-72359385D01*
X92766739Y-72446739D01*
X92679385Y-72563295D01*
X92676233Y-72571703D01*
X92634919Y-72681907D01*
X92592277Y-72738671D01*
X92525716Y-72763371D01*
X92456367Y-72748163D01*
X92423743Y-72722476D01*
X92373151Y-72666875D01*
X92373142Y-72666866D01*
X92369670Y-72663051D01*
X92365619Y-72659852D01*
X92365615Y-72659848D01*
X92198414Y-72527800D01*
X92198410Y-72527798D01*
X92194359Y-72524598D01*
X91998789Y-72416638D01*
X91993920Y-72414914D01*
X91993916Y-72414912D01*
X91793087Y-72343795D01*
X91793083Y-72343794D01*
X91788212Y-72342069D01*
X91783119Y-72341162D01*
X91783116Y-72341161D01*
X91573373Y-72303800D01*
X91573367Y-72303799D01*
X91568284Y-72302894D01*
X91494452Y-72301992D01*
X91350081Y-72300228D01*
X91350079Y-72300228D01*
X91344911Y-72300165D01*
X91124091Y-72333955D01*
X90911756Y-72403357D01*
X90713607Y-72506507D01*
X90709474Y-72509610D01*
X90709471Y-72509612D01*
X90539100Y-72637530D01*
X90534965Y-72640635D01*
X90478537Y-72699684D01*
X90454283Y-72725064D01*
X90392759Y-72760494D01*
X90321846Y-72757037D01*
X90264060Y-72715791D01*
X90245207Y-72682243D01*
X90203767Y-72571703D01*
X90200615Y-72563295D01*
X90113261Y-72446739D01*
X89996705Y-72359385D01*
X89860316Y-72308255D01*
X89798134Y-72301500D01*
X88001866Y-72301500D01*
X87939684Y-72308255D01*
X87803295Y-72359385D01*
X87749388Y-72399786D01*
X87682884Y-72424633D01*
X87613502Y-72409580D01*
X87563271Y-72359406D01*
X87547825Y-72298871D01*
X87547965Y-72099464D01*
X87549465Y-72080167D01*
X87551805Y-72065140D01*
X87553186Y-72056270D01*
X87552022Y-72047366D01*
X87551195Y-72041041D01*
X87550452Y-72015713D01*
X87562543Y-71846657D01*
X87565101Y-71828863D01*
X87606520Y-71638462D01*
X87611586Y-71621212D01*
X87679682Y-71438642D01*
X87687149Y-71422290D01*
X87780531Y-71251271D01*
X87790248Y-71236152D01*
X87907023Y-71080158D01*
X87918796Y-71066572D01*
X88056572Y-70928796D01*
X88070158Y-70917023D01*
X88116484Y-70882344D01*
X88226152Y-70800248D01*
X88241266Y-70790534D01*
X88346980Y-70732810D01*
X88412290Y-70697149D01*
X88428642Y-70689682D01*
X88611212Y-70621586D01*
X88628460Y-70616521D01*
X88818863Y-70575101D01*
X88836658Y-70572543D01*
X88885557Y-70569046D01*
X88998631Y-70560959D01*
X89016533Y-70561703D01*
X89024858Y-70561805D01*
X89033730Y-70563186D01*
X89042632Y-70562022D01*
X89042635Y-70562022D01*
X89065251Y-70559064D01*
X89081589Y-70558000D01*
X115240672Y-70558000D01*
X115260056Y-70559500D01*
G37*
%TD.AperFunction*%
%TD*%
M02*
