%TF.GenerationSoftware,KiCad,Pcbnew,(6.0.1)*%
%TF.CreationDate,2022-09-16T08:00:14-07:00*%
%TF.ProjectId,takshaka-mux-board-rounded,74616b73-6861-46b6-912d-6d75782d626f,rev?*%
%TF.SameCoordinates,Original*%
%TF.FileFunction,Copper,L1,Top*%
%TF.FilePolarity,Positive*%
%FSLAX46Y46*%
G04 Gerber Fmt 4.6, Leading zero omitted, Abs format (unit mm)*
G04 Created by KiCad (PCBNEW (6.0.1)) date 2022-09-16 08:00:14*
%MOMM*%
%LPD*%
G01*
G04 APERTURE LIST*
G04 Aperture macros list*
%AMRoundRect*
0 Rectangle with rounded corners*
0 $1 Rounding radius*
0 $2 $3 $4 $5 $6 $7 $8 $9 X,Y pos of 4 corners*
0 Add a 4 corners polygon primitive as box body*
4,1,4,$2,$3,$4,$5,$6,$7,$8,$9,$2,$3,0*
0 Add four circle primitives for the rounded corners*
1,1,$1+$1,$2,$3*
1,1,$1+$1,$4,$5*
1,1,$1+$1,$6,$7*
1,1,$1+$1,$8,$9*
0 Add four rect primitives between the rounded corners*
20,1,$1+$1,$2,$3,$4,$5,0*
20,1,$1+$1,$4,$5,$6,$7,0*
20,1,$1+$1,$6,$7,$8,$9,0*
20,1,$1+$1,$8,$9,$2,$3,0*%
G04 Aperture macros list end*
%TA.AperFunction,SMDPad,CuDef*%
%ADD10RoundRect,0.150000X0.825000X0.150000X-0.825000X0.150000X-0.825000X-0.150000X0.825000X-0.150000X0*%
%TD*%
%TA.AperFunction,SMDPad,CuDef*%
%ADD11RoundRect,0.250000X-0.475000X0.250000X-0.475000X-0.250000X0.475000X-0.250000X0.475000X0.250000X0*%
%TD*%
%TA.AperFunction,ComponentPad*%
%ADD12R,1.700000X1.700000*%
%TD*%
%TA.AperFunction,ComponentPad*%
%ADD13O,1.700000X1.700000*%
%TD*%
%TA.AperFunction,SMDPad,CuDef*%
%ADD14RoundRect,0.150000X-0.825000X-0.150000X0.825000X-0.150000X0.825000X0.150000X-0.825000X0.150000X0*%
%TD*%
%TA.AperFunction,ViaPad*%
%ADD15C,0.800000*%
%TD*%
%TA.AperFunction,Conductor*%
%ADD16C,0.250000*%
%TD*%
G04 APERTURE END LIST*
D10*
%TO.P,U2,16,VDD*%
%TO.N,+3V3_A*%
X99875000Y-81145000D03*
%TO.P,U2,15,X2*%
%TO.N,P_S_MOD*%
X99875000Y-79875000D03*
%TO.P,U2,14,X1*%
%TO.N,P_D_MOD*%
X99875000Y-78605000D03*
%TO.P,U2,13,X0*%
%TO.N,DECAY*%
X99875000Y-77335000D03*
%TO.P,U2,12,X3*%
%TO.N,P_H_MOD*%
X99875000Y-76065000D03*
%TO.P,U2,11,A*%
%TO.N,CHANNEL_SELECT_A*%
X99875000Y-74795000D03*
%TO.P,U2,10,B*%
%TO.N,CHANNEL_SELECT_B*%
X99875000Y-73525000D03*
%TO.P,U2,9,C*%
%TO.N,CHANNEL_SELECT_C*%
X99875000Y-72255000D03*
%TO.P,U2,8,VSS*%
%TO.N,GND*%
X104825000Y-72255000D03*
%TO.P,U2,7,VEE*%
X104825000Y-73525000D03*
%TO.P,U2,6,Inh*%
X104825000Y-74795000D03*
%TO.P,U2,5,X5*%
%TO.N,S_D_MOD*%
X104825000Y-76065000D03*
%TO.P,U2,4,X7*%
%TO.N,S_C_MOD*%
X104825000Y-77335000D03*
%TO.P,U2,3,X*%
%TO.N,MUX_1_SIGNAL*%
X104825000Y-78605000D03*
%TO.P,U2,2,X6*%
%TO.N,S_S_MOD*%
X104825000Y-79875000D03*
%TO.P,U2,1,X4*%
%TO.N,SLITHER*%
X104825000Y-81145000D03*
%TD*%
D11*
%TO.P,C2,2*%
%TO.N,GND*%
X109510000Y-85030000D03*
%TO.P,C2,1*%
%TO.N,+3V3_A*%
X109510000Y-83130000D03*
%TD*%
%TO.P,C1,2*%
%TO.N,GND*%
X109510000Y-74160000D03*
%TO.P,C1,1*%
%TO.N,+3V3_A*%
X109510000Y-72260000D03*
%TD*%
D12*
%TO.P,J3,1,Pin_1*%
%TO.N,DRIFT*%
X93980000Y-73660000D03*
D13*
%TO.P,J3,2,Pin_2*%
%TO.N,SHIFT*%
X91440000Y-73660000D03*
%TO.P,J3,3,Pin_3*%
%TO.N,RUMBLE*%
X93980000Y-76200000D03*
%TO.P,J3,4,Pin_4*%
%TO.N,HOWL*%
X91440000Y-76200000D03*
%TO.P,J3,5,Pin_5*%
%TO.N,RES*%
X93980000Y-78740000D03*
%TO.P,J3,6,Pin_6*%
%TO.N,DRIVE*%
X91440000Y-78740000D03*
%TO.P,J3,7,Pin_7*%
%TO.N,ATTACK*%
X93980000Y-81280000D03*
%TO.P,J3,8,Pin_8*%
%TO.N,SUSTAIN*%
X91440000Y-81280000D03*
%TO.P,J3,9,Pin_9*%
%TO.N,DECAY*%
X93980000Y-83820000D03*
%TO.P,J3,10,Pin_10*%
%TO.N,P_D_MOD*%
X91440000Y-83820000D03*
%TO.P,J3,11,Pin_11*%
%TO.N,P_S_MOD*%
X93980000Y-86360000D03*
%TO.P,J3,12,Pin_12*%
%TO.N,P_H_MOD*%
X91440000Y-86360000D03*
%TO.P,J3,13,Pin_13*%
%TO.N,SLITHER*%
X93980000Y-88900000D03*
%TO.P,J3,14,Pin_14*%
%TO.N,S_D_MOD*%
X91440000Y-88900000D03*
%TO.P,J3,15,Pin_15*%
%TO.N,S_S_MOD*%
X93980000Y-91440000D03*
%TO.P,J3,16,Pin_16*%
%TO.N,S_C_MOD*%
X91440000Y-91440000D03*
%TD*%
D14*
%TO.P,U1,16,VDD*%
%TO.N,+3V3_A*%
X104825000Y-83155000D03*
%TO.P,U1,15,X2*%
%TO.N,RUMBLE*%
X104825000Y-84425000D03*
%TO.P,U1,14,X1*%
%TO.N,SHIFT*%
X104825000Y-85695000D03*
%TO.P,U1,13,X0*%
%TO.N,DRIFT*%
X104825000Y-86965000D03*
%TO.P,U1,12,X3*%
%TO.N,HOWL*%
X104825000Y-88235000D03*
%TO.P,U1,11,A*%
%TO.N,CHANNEL_SELECT_A*%
X104825000Y-89505000D03*
%TO.P,U1,10,B*%
%TO.N,CHANNEL_SELECT_B*%
X104825000Y-90775000D03*
%TO.P,U1,9,C*%
%TO.N,CHANNEL_SELECT_C*%
X104825000Y-92045000D03*
%TO.P,U1,8,VSS*%
%TO.N,GND*%
X99875000Y-92045000D03*
%TO.P,U1,7,VEE*%
X99875000Y-90775000D03*
%TO.P,U1,6,Inh*%
X99875000Y-89505000D03*
%TO.P,U1,5,X5*%
%TO.N,DRIVE*%
X99875000Y-88235000D03*
%TO.P,U1,4,X7*%
%TO.N,SUSTAIN*%
X99875000Y-86965000D03*
%TO.P,U1,3,X*%
%TO.N,MUX_1_SIGNAL*%
X99875000Y-85695000D03*
%TO.P,U1,2,X6*%
%TO.N,ATTACK*%
X99875000Y-84425000D03*
%TO.P,U1,1,X4*%
%TO.N,RES*%
X99875000Y-83155000D03*
%TD*%
D12*
%TO.P,J4,1,Pin_1*%
%TO.N,+3V3_A*%
X114300000Y-73660000D03*
D13*
%TO.P,J4,2,Pin_2*%
%TO.N,CHANNEL_SELECT_A*%
X114300000Y-76200000D03*
%TO.P,J4,3,Pin_3*%
%TO.N,CHANNEL_SELECT_B*%
X114300000Y-78740000D03*
%TO.P,J4,4,Pin_4*%
%TO.N,CHANNEL_SELECT_C*%
X114300000Y-81280000D03*
%TO.P,J4,5,Pin_5*%
%TO.N,MUX_1_SIGNAL*%
X114300000Y-83820000D03*
%TO.P,J4,6,Pin_6*%
%TO.N,MUX_2_SIGNAL*%
X114300000Y-86360000D03*
%TO.P,J4,7,Pin_7*%
%TO.N,unconnected-(J4-Pad7)*%
X114300000Y-88900000D03*
%TO.P,J4,8,Pin_8*%
%TO.N,GND*%
X114300000Y-91440000D03*
%TD*%
D12*
%TO.P,J1,1,Pin_1*%
%TO.N,unconnected-(J1-Pad1)*%
X88900000Y-73660000D03*
%TD*%
%TO.P,J2,1,Pin_1*%
%TO.N,unconnected-(J2-Pad1)*%
X88900000Y-91440000D03*
%TD*%
D15*
%TO.N,GND*%
X107630000Y-84990000D03*
X97560000Y-90790000D03*
X102900000Y-71910000D03*
X103190000Y-74150000D03*
X110930000Y-75290000D03*
%TO.N,S_C_MOD*%
X103348500Y-77909600D03*
%TO.N,S_S_MOD*%
X103987700Y-82073100D03*
%TO.N,SLITHER*%
X102470000Y-80220000D03*
%TO.N,P_H_MOD*%
X96270000Y-77450000D03*
%TO.N,P_S_MOD*%
X101463400Y-79557300D03*
%TO.N,P_D_MOD*%
X98274100Y-78814300D03*
%TO.N,DECAY*%
X97230000Y-78160000D03*
%TO.N,DRIFT*%
X106434800Y-86550100D03*
%TO.N,+3V3_A*%
X109155400Y-81947300D03*
%TD*%
D16*
%TO.N,SHIFT*%
X100581451Y-83790000D02*
X99063390Y-83790000D01*
%TO.N,RUMBLE*%
X100114900Y-81803600D02*
X99071506Y-81803600D01*
%TO.N,HOWL*%
X90005750Y-86624250D02*
X90496341Y-87114841D01*
%TO.N,CHANNEL_SELECT_B*%
X114580100Y-82493000D02*
X114482836Y-82493000D01*
%TO.N,CHANNEL_SELECT_C*%
X114290497Y-77564300D02*
X114340740Y-77564300D01*
X114256800Y-77564300D02*
X114290497Y-77564300D01*
%TO.N,MUX_1_SIGNAL*%
X104006066Y-87600000D02*
G75*
G02*
X103583103Y-87424803I-1J598157D01*
G01*
X112131048Y-83886651D02*
G75*
G02*
X112131049Y-84019949I-66649J-66649D01*
G01*
X112264350Y-83886650D02*
G75*
G02*
X112131049Y-83886650I-66650J66652D01*
G01*
X105837150Y-78605001D02*
G75*
G02*
X107565003Y-79320692I4J-2443567D01*
G01*
X106860527Y-87599999D02*
G75*
G03*
X109746343Y-86404654I-4J4081170D01*
G01*
X112264350Y-83886650D02*
G75*
G02*
X112425257Y-83820000I160902J-160894D01*
G01*
X100864150Y-85695000D02*
G75*
G02*
X102552734Y-86394434I4J-2388009D01*
G01*
X113521550Y-83820000D02*
X112727850Y-83820000D01*
X112264350Y-83886650D02*
X112131049Y-84019949D01*
%TO.N,CHANNEL_SELECT_C*%
X100974376Y-72898999D02*
G75*
G02*
X100197001Y-72576999I4J1099384D01*
G01*
X114445801Y-87630000D02*
G75*
G03*
X115945800Y-86130001I-2J1500001D01*
G01*
X112214250Y-79074401D02*
G75*
G02*
X112231577Y-79081577I1J-24502D01*
G01*
X106176850Y-92044999D02*
G75*
G03*
X108484601Y-91089096I-5J3263664D01*
G01*
X114299999Y-81215000D02*
G75*
G03*
X114254038Y-81104038I-156929J-2D01*
G01*
X113330523Y-77947976D02*
G75*
G02*
X114256800Y-77564300I926275J-926274D01*
G01*
X105679673Y-72899000D02*
G75*
G02*
X106275499Y-73145799I0J-842625D01*
G01*
X110748355Y-88825344D02*
G75*
G02*
X113634172Y-87630000I2885813J-2885809D01*
G01*
X114340740Y-77564301D02*
G75*
G02*
X115123725Y-77888627I-7J-1107320D01*
G01*
X115945799Y-79521327D02*
G75*
G03*
X115372600Y-78137500I-1957027J0D01*
G01*
X112196922Y-79067222D02*
G75*
G03*
X112214250Y-79074400I17330J17331D01*
G01*
X112214250Y-79074399D02*
G75*
G02*
X112211277Y-79067222I0J4204D01*
G01*
X112211277Y-79067222D02*
G75*
G02*
X112196922Y-79067222I-7177J7178D01*
G01*
%TO.N,CHANNEL_SELECT_B*%
X115477200Y-81595900D02*
G75*
G02*
X114580100Y-82493000I-897102J2D01*
G01*
X114580100Y-82493000D02*
G75*
G02*
X115477200Y-83390100I0J-897100D01*
G01*
X103760138Y-75430000D02*
G75*
G02*
X101460600Y-74477500I2J3252041D01*
G01*
X105478685Y-75430000D02*
G75*
G02*
X107427032Y-76237032I-1J-2755380D01*
G01*
X114348878Y-84995400D02*
G75*
G03*
X115477200Y-83867078I0J1128322D01*
G01*
X100191550Y-73525000D02*
G75*
G02*
X100731934Y-73748834I1J-764216D01*
G01*
X115477200Y-80749606D02*
G75*
G03*
X114888600Y-79328600I-2009615J-4D01*
G01*
X111701056Y-85981743D02*
G75*
G02*
X114082300Y-84995400I2381243J-2381243D01*
G01*
X114482836Y-82493000D02*
G75*
G02*
X113117430Y-81927430I2J1930979D01*
G01*
X105866400Y-90774999D02*
G75*
G03*
X107644180Y-90038617I-3J2514166D01*
G01*
X115477200Y-81595900D02*
X115477200Y-83390100D01*
%TO.N,CHANNEL_SELECT_A*%
X98397931Y-73726831D02*
G75*
G02*
X97670000Y-71969450I1757383J1757382D01*
G01*
X116449600Y-79869596D02*
G75*
G03*
X115374800Y-77274800I-3669599J-2D01*
G01*
X114270000Y-76200000D02*
G75*
G02*
X114218786Y-76178786I3J72433D01*
G01*
X109656650Y-73210000D02*
G75*
G02*
X112376668Y-74336668I2J-3846682D01*
G01*
X103185000Y-92985000D02*
G75*
G02*
X102770000Y-91983101I1001892J1001896D01*
G01*
X113957906Y-93399999D02*
G75*
G03*
X115719799Y-92670199I-1J2491697D01*
G01*
X104186898Y-93400000D02*
G75*
G02*
X103185000Y-92985000I-1J1416894D01*
G01*
X114270000Y-76200001D02*
G75*
G02*
X114321212Y-76221214I0J-72426D01*
G01*
X104188167Y-70940001D02*
G75*
G02*
X106928299Y-72075001I4J-3875124D01*
G01*
X109656650Y-73210000D02*
G75*
G02*
X106936631Y-72083331I1J3846689D01*
G01*
X103539124Y-89840875D02*
G75*
G02*
X104350000Y-89505000I810875J-810877D01*
G01*
X102770000Y-91391352D02*
G75*
G02*
X103322500Y-90057500I1886348J1D01*
G01*
X97670000Y-71969450D02*
G75*
G02*
X98699450Y-70940000I1029447J3D01*
G01*
X99670550Y-74794999D02*
G75*
G02*
X99321533Y-74650431I-2J493581D01*
G01*
X115719800Y-92670200D02*
G75*
G03*
X116449600Y-90908306I-1761898J1761895D01*
G01*
%TO.N,S_C_MOD*%
X103635800Y-77622300D02*
G75*
G02*
X104329403Y-77335000I693598J-693589D01*
G01*
%TO.N,S_S_MOD*%
X103729250Y-80080750D02*
G75*
G02*
X104225974Y-79875000I496719J-496712D01*
G01*
X103755600Y-81841000D02*
G75*
G02*
X103523500Y-81280661I560331J560336D01*
G01*
X103523501Y-80577474D02*
G75*
G02*
X103729251Y-80080751I702461J5D01*
G01*
%TO.N,S_D_MOD*%
X102255776Y-76064999D02*
G75*
G02*
X101478401Y-75742999I4J1099384D01*
G01*
X99053355Y-75420999D02*
G75*
G02*
X97922646Y-74952644I-3J1599059D01*
G01*
X100701023Y-75421001D02*
G75*
G02*
X101478399Y-75743001I0J-1099377D01*
G01*
X92859527Y-71580000D02*
G75*
G02*
X95745344Y-72775344I4J-4081153D01*
G01*
X89112700Y-77407500D02*
G75*
G03*
X90075400Y-75083336I-2324172J2324167D01*
G01*
X89345344Y-86805344D02*
G75*
G02*
X88150000Y-83919527I2885809J2885813D01*
G01*
X88150001Y-79731663D02*
G75*
G02*
X89112701Y-77407501I3286855J3D01*
G01*
X90075400Y-73079998D02*
G75*
G02*
X91575398Y-71580000I1499997J1D01*
G01*
%TO.N,SLITHER*%
X105320000Y-81144999D02*
G75*
G03*
X106165017Y-80794981I0J1195031D01*
G01*
X106115000Y-79240000D02*
G75*
G02*
X106650000Y-79775000I1J-534999D01*
G01*
X102960000Y-79730000D02*
G75*
G02*
X104142964Y-79240000I1182959J-1182951D01*
G01*
X106271697Y-80688302D02*
G75*
G03*
X106650000Y-79775000I-913305J913304D01*
G01*
%TO.N,P_H_MOD*%
X96962500Y-76757500D02*
G75*
G02*
X98634342Y-76065000I1671837J-1671828D01*
G01*
%TO.N,P_S_MOD*%
X100033850Y-79716150D02*
G75*
G02*
X100417347Y-79557300I383494J-383488D01*
G01*
%TO.N,P_D_MOD*%
X98378750Y-78709650D02*
G75*
G02*
X98631397Y-78605000I252643J-252637D01*
G01*
%TO.N,DECAY*%
X97642500Y-77747500D02*
G75*
G02*
X98638363Y-77335000I995860J-995856D01*
G01*
%TO.N,SUSTAIN*%
X99685250Y-86964999D02*
G75*
G02*
X99361327Y-86830825I0J458097D01*
G01*
X93795550Y-82455300D02*
G75*
G02*
X95827433Y-83296933I1J-2873515D01*
G01*
X93429291Y-82455299D02*
G75*
G02*
X92022651Y-81872649I0J1989290D01*
G01*
X91443535Y-81293535D02*
G75*
G02*
X91440000Y-81285000I8528J8532D01*
G01*
%TO.N,ATTACK*%
X99087650Y-84424999D02*
G75*
G02*
X97743560Y-83868258I3J1900838D01*
G01*
X94567650Y-81280000D02*
G75*
G02*
X95570831Y-81695531I3J-1418704D01*
G01*
%TO.N,DRIVE*%
X89950000Y-81283589D02*
G75*
G02*
X90695000Y-79485000I2543584J2D01*
G01*
X91449998Y-85090000D02*
G75*
G02*
X89950000Y-83590001I1J1499999D01*
G01*
X99461650Y-88234999D02*
G75*
G02*
X98756018Y-87942716I0J997915D01*
G01*
X94212827Y-85090000D02*
G75*
G02*
X97098644Y-86285344I4J-4081153D01*
G01*
%TO.N,RES*%
X94395000Y-78740001D02*
G75*
G02*
X95103448Y-79033450I3J-1001891D01*
G01*
X99550000Y-83155000D02*
G75*
G02*
X98995190Y-82925190I2J784623D01*
G01*
%TO.N,HOWL*%
X91740045Y-87630000D02*
G75*
G02*
X90496341Y-87114841I2J1758868D01*
G01*
X89000000Y-80330472D02*
G75*
G02*
X90195344Y-77444655I4081153J4D01*
G01*
X103740987Y-88870000D02*
G75*
G03*
X104507500Y-88552500I-4J1084022D01*
G01*
X90005750Y-86624250D02*
G75*
G02*
X89000000Y-84196154I2428087J2428092D01*
G01*
X98431512Y-88870000D02*
G75*
G02*
X96934700Y-88250000I1J2116813D01*
G01*
X95437887Y-87630001D02*
G75*
G02*
X96934699Y-88250001I3J-2116806D01*
G01*
%TO.N,RUMBLE*%
X94227628Y-77148028D02*
G75*
G02*
X93980000Y-76550200I597825J597826D01*
G01*
X104396500Y-84425000D02*
G75*
G02*
X103665004Y-84122004I4J1034500D01*
G01*
X100114900Y-81803601D02*
G75*
G02*
X102217542Y-82674544I3J-2973579D01*
G01*
X99071506Y-81803599D02*
G75*
G02*
X98750049Y-81670447I-1J454608D01*
G01*
%TO.N,SHIFT*%
X99063390Y-83789999D02*
G75*
G02*
X98717035Y-83646535I-2J489815D01*
G01*
X93800600Y-79915400D02*
G75*
G02*
X95824033Y-80753533I3J-2861560D01*
G01*
X92615299Y-75896362D02*
G75*
G03*
X92027650Y-74477650I-2006366J-2D01*
G01*
X100581451Y-83790000D02*
G75*
G02*
X101666572Y-84239472I-1J-1534594D01*
G01*
X93800600Y-79915400D02*
G75*
G02*
X92615300Y-78730100I1J1185301D01*
G01*
X91521317Y-73971317D02*
G75*
G02*
X91440000Y-73775000I196311J196314D01*
G01*
X103973550Y-85695000D02*
G75*
G02*
X102520033Y-85092933I4J2055591D01*
G01*
%TO.N,DRIFT*%
X105726521Y-86965000D02*
G75*
G03*
X106227350Y-86757550I-4J708288D01*
G01*
%TO.N,GND*%
X103502500Y-73837500D02*
G75*
G02*
X104256941Y-73525000I754440J-754437D01*
G01*
X104236048Y-71910001D02*
G75*
G02*
X104652499Y-72082501I1J-588949D01*
G01*
%TO.N,+3V3_A*%
X105014800Y-82965200D02*
G75*
G02*
X105473017Y-82775400I458214J-458208D01*
G01*
X100954450Y-81145001D02*
G75*
G02*
X102797185Y-81908287I2J-2606018D01*
G01*
X111910050Y-72260001D02*
G75*
G02*
X113599999Y-72960001I0J-2389950D01*
G01*
X104556582Y-83154999D02*
G75*
G03*
X105014799Y-82965199I-4J648028D01*
G01*
X109155400Y-82524659D02*
G75*
G02*
X108904659Y-82775400I-250743J2D01*
G01*
X108904659Y-82775400D02*
G75*
G02*
X109332700Y-82952700I3J-605334D01*
G01*
X109332700Y-82952700D02*
G75*
G02*
X109155400Y-82524659I428034J428038D01*
G01*
X104434450Y-83154999D02*
G75*
G02*
X103767739Y-82878839I-1J942869D01*
G01*
%TO.N,GND*%
X104652500Y-72082500D02*
X104825000Y-72255000D01*
X102900000Y-71910000D02*
X104236048Y-71910000D01*
X103190000Y-74150000D02*
X103502500Y-73837500D01*
X104256941Y-73525000D02*
X104825000Y-73525000D01*
%TO.N,S_S_MOD*%
X104225974Y-79875000D02*
X104825000Y-79875000D01*
X103523500Y-81280661D02*
X103523500Y-80577474D01*
X103987700Y-82073100D02*
X103755600Y-81841000D01*
%TO.N,SLITHER*%
X106115000Y-79240000D02*
X104142964Y-79240000D01*
X102470000Y-80220000D02*
X102960000Y-79730000D01*
X105320000Y-81145000D02*
X104825000Y-81145000D01*
X106165017Y-80794981D02*
X106271697Y-80688302D01*
%TO.N,DECAY*%
X97230000Y-78160000D02*
X97642500Y-77747500D01*
X98638363Y-77335000D02*
X99875000Y-77335000D01*
%TO.N,P_H_MOD*%
X98634342Y-76065000D02*
X99875000Y-76065000D01*
X96270000Y-77450000D02*
X96962500Y-76757500D01*
%TO.N,SHIFT*%
X91440000Y-73775000D02*
X91440000Y-73660000D01*
X92615300Y-75896362D02*
X92615300Y-78730100D01*
X92027650Y-74477650D02*
X91521317Y-73971317D01*
X98717035Y-83646535D02*
X95824033Y-80753533D01*
X103973550Y-85695000D02*
X104825000Y-85695000D01*
X101666572Y-84239472D02*
X102520033Y-85092933D01*
%TO.N,CHANNEL_SELECT_B*%
X105866400Y-90775000D02*
X104825000Y-90775000D01*
X111701056Y-85981743D02*
X107644181Y-90038618D01*
X115477200Y-83390100D02*
X115477200Y-83867078D01*
X114348878Y-84995400D02*
X114082300Y-84995400D01*
%TO.N,CHANNEL_SELECT_C*%
X113330523Y-77947976D02*
X112211277Y-79067222D01*
X115123726Y-77888626D02*
X115372600Y-78137500D01*
X114445801Y-87630000D02*
X113634172Y-87630000D01*
X115945800Y-86130001D02*
X115945800Y-79521327D01*
X108484602Y-91089097D02*
X110748355Y-88825344D01*
X106176850Y-92045000D02*
X104825000Y-92045000D01*
%TO.N,RUMBLE*%
X103665004Y-84122004D02*
X102217543Y-82674543D01*
X104396500Y-84425000D02*
X104825000Y-84425000D01*
X94227628Y-77148028D02*
X98750048Y-81670448D01*
X93980000Y-76550200D02*
X93980000Y-76200000D01*
%TO.N,RES*%
X94395000Y-78740000D02*
X93980000Y-78740000D01*
X99550000Y-83155000D02*
X99875000Y-83155000D01*
X95103449Y-79033449D02*
X98995190Y-82925190D01*
%TO.N,DRIVE*%
X90695000Y-79485000D02*
X91440000Y-78740000D01*
X89950000Y-81283589D02*
X89950000Y-83590001D01*
X91449998Y-85090000D02*
X94212827Y-85090000D01*
X99461650Y-88235000D02*
X99875000Y-88235000D01*
X98756017Y-87942717D02*
X97098644Y-86285344D01*
%TO.N,HOWL*%
X90195344Y-77444655D02*
X91440000Y-76200000D01*
X89000000Y-80330472D02*
X89000000Y-84196154D01*
X103740987Y-88870000D02*
X98431512Y-88870000D01*
X91740045Y-87630000D02*
X95437887Y-87630000D01*
X104507500Y-88552500D02*
X104825000Y-88235000D01*
%TO.N,SUSTAIN*%
X91440000Y-81285000D02*
X91440000Y-81280000D01*
X92022650Y-81872650D02*
X91443535Y-81293535D01*
X93795550Y-82455300D02*
X93429291Y-82455300D01*
X99361326Y-86830826D02*
X95827433Y-83296933D01*
X99685250Y-86965000D02*
X99875000Y-86965000D01*
%TO.N,S_D_MOD*%
X102255776Y-76065000D02*
X104825000Y-76065000D01*
X97922645Y-74952645D02*
X95745344Y-72775344D01*
X99053355Y-75421000D02*
X100701023Y-75421000D01*
X90075400Y-75083336D02*
X90075400Y-73079998D01*
X92859527Y-71580000D02*
X91575398Y-71580000D01*
X88150000Y-83919527D02*
X88150000Y-79731663D01*
X89345344Y-86805344D02*
X91440000Y-88900000D01*
%TO.N,CHANNEL_SELECT_A*%
X106928300Y-72075000D02*
X106936631Y-72083331D01*
X114218786Y-76178786D02*
X112376668Y-74336668D01*
X104188167Y-70940000D02*
X98699450Y-70940000D01*
X98397931Y-73726831D02*
X99321532Y-74650432D01*
X99670550Y-74795000D02*
X99875000Y-74795000D01*
X115374800Y-77274800D02*
X114321213Y-76221213D01*
X116449600Y-79869596D02*
X116449600Y-90908306D01*
X113957906Y-93400000D02*
X104186898Y-93400000D01*
X102770000Y-91983101D02*
X102770000Y-91391352D01*
X103539124Y-89840875D02*
X103322500Y-90057500D01*
X104350000Y-89505000D02*
X104825000Y-89505000D01*
%TO.N,CHANNEL_SELECT_C*%
X114300000Y-81215000D02*
X114300000Y-81280000D01*
X112231577Y-79081577D02*
X114254038Y-81104038D01*
%TO.N,CHANNEL_SELECT_B*%
X115477200Y-81595900D02*
X115477200Y-80749606D01*
X114888600Y-79328600D02*
X114300000Y-78740000D01*
%TO.N,+3V3_A*%
X113600000Y-72960000D02*
X114300000Y-73660000D01*
X111910050Y-72260000D02*
X109510000Y-72260000D01*
%TO.N,MUX_1_SIGNAL*%
X113521550Y-83820000D02*
X114300000Y-83820000D01*
X105837150Y-78605000D02*
X104825000Y-78605000D01*
X112131049Y-83886650D02*
X107565004Y-79320691D01*
X112131049Y-84019949D02*
X109746344Y-86404655D01*
X104006066Y-87600000D02*
X106860527Y-87600000D01*
X103583103Y-87424803D02*
X102552734Y-86394434D01*
X100864150Y-85695000D02*
X99875000Y-85695000D01*
X112727850Y-83820000D02*
X112425257Y-83820000D01*
%TO.N,CHANNEL_SELECT_C*%
X100197000Y-72577000D02*
X99875000Y-72255000D01*
X100974376Y-72899000D02*
X105679673Y-72899000D01*
X106275499Y-73145799D02*
X112196922Y-79067222D01*
%TO.N,CHANNEL_SELECT_B*%
X100191550Y-73525000D02*
X99875000Y-73525000D01*
X101460600Y-74477500D02*
X100731934Y-73748834D01*
X103760138Y-75430000D02*
X105478685Y-75430000D01*
X107427032Y-76237032D02*
X113117430Y-81927430D01*
%TO.N,S_C_MOD*%
X104329403Y-77335000D02*
X104825000Y-77335000D01*
X103635800Y-77622300D02*
X103348500Y-77909600D01*
%TO.N,P_S_MOD*%
X100033850Y-79716150D02*
X99875000Y-79875000D01*
X101463400Y-79557300D02*
X100417347Y-79557300D01*
%TO.N,P_D_MOD*%
X98378750Y-78709650D02*
X98274100Y-78814300D01*
X98631397Y-78605000D02*
X99875000Y-78605000D01*
%TO.N,ATTACK*%
X97743559Y-83868259D02*
X95570831Y-81695531D01*
X99087650Y-84425000D02*
X99875000Y-84425000D01*
X94567650Y-81280000D02*
X93980000Y-81280000D01*
%TO.N,DRIFT*%
X106434800Y-86550100D02*
X106227350Y-86757550D01*
X105726521Y-86965000D02*
X104825000Y-86965000D01*
%TO.N,+3V3_A*%
X109155400Y-81947300D02*
X109155400Y-82524659D01*
X109332700Y-82952700D02*
X109510000Y-83130000D01*
X105473017Y-82775400D02*
X108904659Y-82775400D01*
X104556582Y-83155000D02*
X104434450Y-83155000D01*
X102797186Y-81908286D02*
X103767739Y-82878839D01*
X100954450Y-81145000D02*
X99875000Y-81145000D01*
%TD*%
%TA.AperFunction,Conductor*%
%TO.N,P_D_MOD*%
G36*
X98326739Y-78416383D02*
G01*
X98372758Y-78418532D01*
X98373190Y-78418560D01*
X98428752Y-78423221D01*
X98447614Y-78424804D01*
X98448006Y-78424843D01*
X98513606Y-78432663D01*
X98513638Y-78432667D01*
X98513940Y-78432707D01*
X98574330Y-78441506D01*
X98574449Y-78441524D01*
X98633102Y-78450687D01*
X98693433Y-78459585D01*
X98758769Y-78467573D01*
X98758789Y-78467575D01*
X98758871Y-78467585D01*
X98832912Y-78474068D01*
X98919049Y-78478413D01*
X99009259Y-78479820D01*
X99017477Y-78483376D01*
X99020776Y-78491519D01*
X99020776Y-78718993D01*
X99017349Y-78727266D01*
X99009789Y-78730671D01*
X98944897Y-78734634D01*
X98944466Y-78734727D01*
X98944463Y-78734727D01*
X98919795Y-78740028D01*
X98882723Y-78747994D01*
X98882230Y-78748200D01*
X98832299Y-78769045D01*
X98832296Y-78769046D01*
X98831768Y-78769267D01*
X98789549Y-78797639D01*
X98753581Y-78832294D01*
X98721380Y-78872421D01*
X98712765Y-78884900D01*
X98690462Y-78917204D01*
X98658412Y-78965726D01*
X98658265Y-78965943D01*
X98622722Y-79017221D01*
X98622335Y-79017747D01*
X98585768Y-79064679D01*
X98577980Y-79069099D01*
X98572593Y-79068502D01*
X98150301Y-78917204D01*
X98103086Y-78900288D01*
X98096453Y-78894272D01*
X98096180Y-78884900D01*
X98282677Y-78422171D01*
X98288948Y-78415779D01*
X98294074Y-78414858D01*
X98326739Y-78416383D01*
G37*
%TD.AperFunction*%
%TD*%
%TA.AperFunction,Conductor*%
%TO.N,MUX_1_SIGNAL*%
G36*
X113935666Y-83060936D02*
G01*
X114204222Y-83319193D01*
X114584327Y-83684721D01*
X114716231Y-83811567D01*
X114719819Y-83819771D01*
X114716231Y-83828433D01*
X113935666Y-84579064D01*
X113927327Y-84582329D01*
X113921970Y-84580912D01*
X113874275Y-84554999D01*
X113769335Y-84497985D01*
X113768452Y-84497452D01*
X113635630Y-84409087D01*
X113634983Y-84408624D01*
X113520972Y-84321029D01*
X113520691Y-84320806D01*
X113417672Y-84236518D01*
X113417667Y-84236514D01*
X113417590Y-84236451D01*
X113317673Y-84157995D01*
X113213184Y-84088100D01*
X113096225Y-84029309D01*
X113048648Y-84013669D01*
X112959294Y-83984296D01*
X112959292Y-83984295D01*
X112958898Y-83984166D01*
X112793306Y-83955215D01*
X112707553Y-83950873D01*
X112602658Y-83945562D01*
X112594569Y-83941721D01*
X112591550Y-83933877D01*
X112591550Y-83706123D01*
X112594977Y-83697850D01*
X112602658Y-83694438D01*
X112713278Y-83688836D01*
X112793306Y-83684784D01*
X112958898Y-83655833D01*
X112959292Y-83655704D01*
X112959294Y-83655703D01*
X113095811Y-83610826D01*
X113095810Y-83610826D01*
X113096225Y-83610690D01*
X113213184Y-83551899D01*
X113317673Y-83482004D01*
X113417590Y-83403548D01*
X113417672Y-83403481D01*
X113520691Y-83319193D01*
X113520972Y-83318970D01*
X113634983Y-83231375D01*
X113635630Y-83230912D01*
X113681957Y-83200091D01*
X113768452Y-83142547D01*
X113769342Y-83142011D01*
X113921971Y-83059088D01*
X113930876Y-83058150D01*
X113935666Y-83060936D01*
G37*
%TD.AperFunction*%
%TD*%
%TA.AperFunction,Conductor*%
%TO.N,CHANNEL_SELECT_B*%
G36*
X114586660Y-78452340D02*
G01*
X115095925Y-78464806D01*
X115104111Y-78468434D01*
X115106799Y-78472993D01*
X115162235Y-78649302D01*
X115162408Y-78649907D01*
X115203203Y-78809099D01*
X115203340Y-78809699D01*
X115231710Y-78950940D01*
X115231796Y-78951417D01*
X115252390Y-79081714D01*
X115252419Y-79081912D01*
X115269841Y-79208063D01*
X115288701Y-79336785D01*
X115313613Y-79474789D01*
X115313644Y-79474923D01*
X115313646Y-79474933D01*
X115339791Y-79588124D01*
X115349208Y-79628895D01*
X115349256Y-79629061D01*
X115349256Y-79629062D01*
X115380601Y-79738061D01*
X115400115Y-79805921D01*
X115400162Y-79806057D01*
X115400166Y-79806071D01*
X115467255Y-80001865D01*
X115466695Y-80010803D01*
X115460226Y-80016639D01*
X115246469Y-80095267D01*
X115237523Y-80094907D01*
X115231808Y-80089189D01*
X115161278Y-79936373D01*
X115161028Y-79935831D01*
X115074239Y-79818349D01*
X115058848Y-79805769D01*
X114976954Y-79738834D01*
X114976952Y-79738833D01*
X114976387Y-79738371D01*
X114867895Y-79687716D01*
X114749184Y-79658206D01*
X114747241Y-79657956D01*
X114620786Y-79641674D01*
X114620772Y-79641672D01*
X114620675Y-79641660D01*
X114620591Y-79641653D01*
X114620574Y-79641651D01*
X114482866Y-79629906D01*
X114482659Y-79629886D01*
X114412006Y-79622595D01*
X114336339Y-79614787D01*
X114335586Y-79614684D01*
X114233766Y-79597168D01*
X114181192Y-79588124D01*
X114179976Y-79587847D01*
X114025470Y-79543920D01*
X114018450Y-79538361D01*
X114016971Y-79532837D01*
X114001143Y-78450168D01*
X114004449Y-78441846D01*
X114013128Y-78438301D01*
X114586660Y-78452340D01*
G37*
%TD.AperFunction*%
%TD*%
%TA.AperFunction,Conductor*%
%TO.N,CHANNEL_SELECT_A*%
G36*
X99777231Y-74519856D02*
G01*
X100014924Y-74798935D01*
X100017680Y-74807455D01*
X100013603Y-74815428D01*
X100011626Y-74816788D01*
X99864944Y-74896844D01*
X99670132Y-75003167D01*
X99661228Y-75004122D01*
X99656710Y-75001603D01*
X99618866Y-74967625D01*
X99618865Y-74967624D01*
X99618622Y-74967406D01*
X99610616Y-74961733D01*
X99576792Y-74937766D01*
X99576784Y-74937761D01*
X99576530Y-74937581D01*
X99576261Y-74937432D01*
X99576254Y-74937427D01*
X99536027Y-74915063D01*
X99535817Y-74914946D01*
X99495709Y-74896789D01*
X99480236Y-74890493D01*
X99455503Y-74880430D01*
X99455377Y-74880378D01*
X99432536Y-74870774D01*
X99414515Y-74863197D01*
X99413939Y-74862936D01*
X99371734Y-74842309D01*
X99370842Y-74841823D01*
X99326350Y-74815038D01*
X99325375Y-74814382D01*
X99277610Y-74778648D01*
X99276724Y-74777915D01*
X99233450Y-74738351D01*
X99229657Y-74730239D01*
X99233072Y-74721443D01*
X99393609Y-74560906D01*
X99401882Y-74557479D01*
X99409408Y-74560222D01*
X99439670Y-74585651D01*
X99476404Y-74604858D01*
X99511930Y-74612836D01*
X99530487Y-74612112D01*
X99546173Y-74611501D01*
X99546175Y-74611501D01*
X99546782Y-74611477D01*
X99547374Y-74611327D01*
X99581091Y-74602780D01*
X99581095Y-74602779D01*
X99581496Y-74602677D01*
X99616606Y-74588330D01*
X99616786Y-74588240D01*
X99616795Y-74588236D01*
X99652571Y-74570366D01*
X99652574Y-74570365D01*
X99652645Y-74570329D01*
X99690040Y-74550627D01*
X99690289Y-74550500D01*
X99729307Y-74531117D01*
X99729987Y-74530805D01*
X99763808Y-74516649D01*
X99772761Y-74516616D01*
X99777231Y-74519856D01*
G37*
%TD.AperFunction*%
%TD*%
%TA.AperFunction,Conductor*%
%TO.N,S_S_MOD*%
G36*
X103657377Y-81403761D02*
G01*
X103662021Y-81410367D01*
X103678861Y-81473579D01*
X103706863Y-81529545D01*
X103707336Y-81530093D01*
X103707336Y-81530094D01*
X103718128Y-81542617D01*
X103742453Y-81570844D01*
X103743044Y-81571258D01*
X103743047Y-81571260D01*
X103784359Y-81600153D01*
X103784838Y-81600488D01*
X103785375Y-81600721D01*
X103832873Y-81621335D01*
X103832877Y-81621337D01*
X103833224Y-81621487D01*
X103833590Y-81621592D01*
X103833593Y-81621593D01*
X103844096Y-81624604D01*
X103886818Y-81636852D01*
X103886975Y-81636887D01*
X103886981Y-81636888D01*
X103915296Y-81643106D01*
X103944825Y-81649591D01*
X104006206Y-81662664D01*
X104006668Y-81662772D01*
X104070450Y-81679121D01*
X104071359Y-81679394D01*
X104129258Y-81699361D01*
X104135962Y-81705298D01*
X104137139Y-81710769D01*
X104122383Y-82208186D01*
X104118712Y-82216354D01*
X104110341Y-82219534D01*
X104109005Y-82219417D01*
X103602314Y-82145770D01*
X103594620Y-82141189D01*
X103592523Y-82136482D01*
X103577420Y-82060805D01*
X103577418Y-82060796D01*
X103577405Y-82060731D01*
X103560333Y-81989220D01*
X103542936Y-81926576D01*
X103525230Y-81869326D01*
X103507228Y-81813997D01*
X103488980Y-81757229D01*
X103488911Y-81757008D01*
X103470439Y-81695370D01*
X103470343Y-81695030D01*
X103451634Y-81624987D01*
X103451539Y-81624604D01*
X103432583Y-81542617D01*
X103432503Y-81542243D01*
X103415565Y-81456266D01*
X103417328Y-81447486D01*
X103424953Y-81442492D01*
X103648624Y-81401867D01*
X103657377Y-81403761D01*
G37*
%TD.AperFunction*%
%TD*%
%TA.AperFunction,Conductor*%
%TO.N,P_S_MOD*%
G36*
X100357438Y-79438567D02*
G01*
X100361892Y-79446796D01*
X100369943Y-79541578D01*
X100381110Y-79673056D01*
X100378396Y-79681589D01*
X100371393Y-79685584D01*
X100331011Y-79692377D01*
X100331007Y-79692378D01*
X100330425Y-79692476D01*
X100290034Y-79708179D01*
X100259018Y-79730130D01*
X100235545Y-79757555D01*
X100217783Y-79789679D01*
X100203900Y-79825727D01*
X100203839Y-79825929D01*
X100192065Y-79864924D01*
X100180487Y-79906354D01*
X100180405Y-79906634D01*
X100167325Y-79949302D01*
X100167079Y-79950021D01*
X100153560Y-79985680D01*
X100147423Y-79992201D01*
X100142005Y-79993216D01*
X99775346Y-79973854D01*
X99767266Y-79969996D01*
X99764280Y-79961554D01*
X99764542Y-79959638D01*
X99847834Y-79584086D01*
X99852970Y-79576751D01*
X99857743Y-79575017D01*
X99909733Y-79568239D01*
X99909742Y-79568237D01*
X99909998Y-79568204D01*
X99910248Y-79568147D01*
X99910257Y-79568145D01*
X99940881Y-79561116D01*
X99961493Y-79556386D01*
X100006657Y-79541578D01*
X100048055Y-79524740D01*
X100048150Y-79524698D01*
X100048161Y-79524693D01*
X100088248Y-79506828D01*
X100088354Y-79506782D01*
X100129530Y-79488918D01*
X100130051Y-79488706D01*
X100174878Y-79471766D01*
X100175677Y-79471497D01*
X100206268Y-79462439D01*
X100226772Y-79456368D01*
X100227723Y-79456130D01*
X100287769Y-79443703D01*
X100288713Y-79443547D01*
X100348810Y-79436173D01*
X100357438Y-79438567D01*
G37*
%TD.AperFunction*%
%TD*%
%TA.AperFunction,Conductor*%
%TO.N,+3V3_A*%
G36*
X108960395Y-82652069D02*
G01*
X108961033Y-82652106D01*
X108982981Y-82653966D01*
X109012706Y-82656485D01*
X109013185Y-82656536D01*
X109040006Y-82660006D01*
X109061338Y-82662765D01*
X109105856Y-82669946D01*
X109146464Y-82677131D01*
X109183131Y-82683408D01*
X109215822Y-82687861D01*
X109244506Y-82689577D01*
X109269149Y-82687641D01*
X109289720Y-82681139D01*
X109593196Y-83092737D01*
X109593942Y-83093748D01*
X109593942Y-83093749D01*
X109702111Y-83240456D01*
X109704263Y-83249148D01*
X109699637Y-83256816D01*
X109690292Y-83258850D01*
X109019826Y-83118155D01*
X109012434Y-83113102D01*
X109010537Y-83106294D01*
X109010766Y-83099767D01*
X109010770Y-83099612D01*
X109011198Y-83077401D01*
X109011198Y-83077389D01*
X109011200Y-83077283D01*
X109010616Y-83050684D01*
X109008140Y-83021729D01*
X109002901Y-82992236D01*
X108994023Y-82964026D01*
X108980634Y-82938918D01*
X108961859Y-82918730D01*
X108960609Y-82918058D01*
X108937710Y-82905759D01*
X108937708Y-82905758D01*
X108936825Y-82905284D01*
X108935833Y-82905133D01*
X108935832Y-82905133D01*
X108914601Y-82901908D01*
X108906936Y-82897278D01*
X108904658Y-82890341D01*
X108904658Y-82662456D01*
X108908085Y-82654183D01*
X108916708Y-82650761D01*
X108960395Y-82652069D01*
G37*
%TD.AperFunction*%
%TD*%
%TA.AperFunction,Conductor*%
%TO.N,SUSTAIN*%
G36*
X99780374Y-86683934D02*
G01*
X99784673Y-86687257D01*
X100014939Y-86972936D01*
X100017463Y-86981526D01*
X100013172Y-86989386D01*
X100011352Y-86990592D01*
X99670183Y-87173216D01*
X99661271Y-87174099D01*
X99656753Y-87171524D01*
X99618496Y-87136439D01*
X99618492Y-87136436D01*
X99618295Y-87136255D01*
X99618086Y-87136096D01*
X99618081Y-87136092D01*
X99599278Y-87121805D01*
X99576519Y-87104512D01*
X99576297Y-87104372D01*
X99536770Y-87079486D01*
X99536762Y-87079481D01*
X99536601Y-87079380D01*
X99497603Y-87058334D01*
X99497539Y-87058302D01*
X99497514Y-87058289D01*
X99458679Y-87038901D01*
X99458579Y-87038851D01*
X99418835Y-87018532D01*
X99418358Y-87018273D01*
X99377104Y-86994708D01*
X99376399Y-86994272D01*
X99332422Y-86964839D01*
X99331660Y-86964283D01*
X99283912Y-86926417D01*
X99283212Y-86925815D01*
X99239242Y-86884900D01*
X99235520Y-86876756D01*
X99238939Y-86868062D01*
X99399498Y-86707503D01*
X99407771Y-86704076D01*
X99415359Y-86706871D01*
X99438344Y-86726465D01*
X99444197Y-86731454D01*
X99445629Y-86732675D01*
X99482399Y-86753192D01*
X99483062Y-86753377D01*
X99483064Y-86753378D01*
X99497960Y-86757537D01*
X99517988Y-86763130D01*
X99518693Y-86763152D01*
X99518695Y-86763152D01*
X99529879Y-86763496D01*
X99552934Y-86764206D01*
X99553524Y-86764103D01*
X99553527Y-86764103D01*
X99587361Y-86758208D01*
X99587363Y-86758207D01*
X99587779Y-86758135D01*
X99588174Y-86758006D01*
X99588179Y-86758005D01*
X99622827Y-86746711D01*
X99622828Y-86746711D01*
X99623060Y-86746635D01*
X99656328Y-86732675D01*
X99659238Y-86731454D01*
X99659239Y-86731454D01*
X99659319Y-86731420D01*
X99659376Y-86731394D01*
X99659406Y-86731381D01*
X99697041Y-86714232D01*
X99697187Y-86714167D01*
X99736653Y-86696835D01*
X99737216Y-86696605D01*
X99761912Y-86687258D01*
X99771424Y-86683658D01*
X99780374Y-86683934D01*
G37*
%TD.AperFunction*%
%TD*%
%TA.AperFunction,Conductor*%
%TO.N,SUSTAIN*%
G36*
X92093850Y-81000293D02*
G01*
X92235148Y-81003526D01*
X92243340Y-81007141D01*
X92246160Y-81012115D01*
X92288632Y-81166246D01*
X92288897Y-81167456D01*
X92314230Y-81321559D01*
X92314331Y-81322331D01*
X92328461Y-81468500D01*
X92328478Y-81468696D01*
X92339437Y-81606129D01*
X92339439Y-81606150D01*
X92339449Y-81606273D01*
X92355363Y-81734556D01*
X92384339Y-81852964D01*
X92434505Y-81961031D01*
X92513991Y-82058289D01*
X92566596Y-82096970D01*
X92630439Y-82143915D01*
X92630443Y-82143917D01*
X92630924Y-82144271D01*
X92631466Y-82144518D01*
X92631470Y-82144521D01*
X92783615Y-82214027D01*
X92789716Y-82220582D01*
X92789751Y-82228659D01*
X92751947Y-82332854D01*
X92733621Y-82383366D01*
X92712071Y-82442761D01*
X92706028Y-82449370D01*
X92697327Y-82449855D01*
X92500669Y-82383366D01*
X92323062Y-82332890D01*
X92322922Y-82332858D01*
X92322907Y-82332854D01*
X92168656Y-82297494D01*
X92168512Y-82297461D01*
X92124479Y-82289500D01*
X92030269Y-82272466D01*
X92030247Y-82272463D01*
X92030189Y-82272452D01*
X91901259Y-82253233D01*
X91774974Y-82235188D01*
X91774805Y-82235162D01*
X91673748Y-82218512D01*
X91644512Y-82213695D01*
X91644021Y-82213604D01*
X91502804Y-82184094D01*
X91502198Y-82183950D01*
X91343126Y-82141767D01*
X91342522Y-82141589D01*
X91166340Y-82084567D01*
X91159524Y-82078760D01*
X91158245Y-82073626D01*
X91158004Y-82058726D01*
X91140679Y-80990646D01*
X91143971Y-80982319D01*
X91152644Y-80978760D01*
X92093850Y-81000293D01*
G37*
%TD.AperFunction*%
%TD*%
%TA.AperFunction,Conductor*%
%TO.N,ATTACK*%
G36*
X94587232Y-80684946D02*
G01*
X94706811Y-80800534D01*
X94706897Y-80800617D01*
X94817893Y-80900213D01*
X94817975Y-80900281D01*
X94817977Y-80900283D01*
X94918127Y-80983659D01*
X94918143Y-80983672D01*
X94918190Y-80983711D01*
X95011951Y-81057072D01*
X95103337Y-81126259D01*
X95196459Y-81197195D01*
X95196553Y-81197267D01*
X95295537Y-81275881D01*
X95295759Y-81276063D01*
X95359699Y-81330171D01*
X95404721Y-81368270D01*
X95405027Y-81368538D01*
X95528260Y-81480397D01*
X95528544Y-81480664D01*
X95661830Y-81610006D01*
X95665381Y-81618226D01*
X95661955Y-81626675D01*
X95501076Y-81787554D01*
X95492803Y-81790981D01*
X95485380Y-81788325D01*
X95460279Y-81767721D01*
X95376025Y-81698564D01*
X95366586Y-81690816D01*
X95366585Y-81690815D01*
X95365996Y-81690332D01*
X95365302Y-81690017D01*
X95365299Y-81690015D01*
X95299959Y-81660346D01*
X95246774Y-81636196D01*
X95245829Y-81636101D01*
X95245826Y-81636100D01*
X95152329Y-81626675D01*
X95133254Y-81624752D01*
X95132370Y-81624939D01*
X95132368Y-81624939D01*
X95023409Y-81647976D01*
X95022780Y-81648109D01*
X94912697Y-81698373D01*
X94800351Y-81767653D01*
X94683085Y-81848057D01*
X94570348Y-81923583D01*
X94558537Y-81931495D01*
X94557930Y-81931875D01*
X94423714Y-82010348D01*
X94422612Y-82010916D01*
X94326442Y-82054089D01*
X94283196Y-82073503D01*
X94274245Y-82073765D01*
X94269521Y-82070443D01*
X93566361Y-81250082D01*
X93563578Y-81241571D01*
X93567630Y-81233585D01*
X93569629Y-81232203D01*
X94573485Y-80683093D01*
X94582388Y-80682130D01*
X94587232Y-80684946D01*
G37*
%TD.AperFunction*%
%TD*%
%TA.AperFunction,Conductor*%
%TO.N,RES*%
G36*
X94587001Y-78145174D02*
G01*
X94709833Y-78273213D01*
X94710192Y-78273605D01*
X94814405Y-78392612D01*
X94814745Y-78393019D01*
X94901186Y-78501261D01*
X94901411Y-78501554D01*
X94949461Y-78566514D01*
X94976697Y-78603335D01*
X94976831Y-78603519D01*
X95006953Y-78645938D01*
X95047583Y-78703155D01*
X95120289Y-78804766D01*
X95201478Y-78912516D01*
X95297729Y-79030641D01*
X95415621Y-79163375D01*
X95415682Y-79163439D01*
X95415691Y-79163448D01*
X95553760Y-79306685D01*
X95557034Y-79315020D01*
X95553609Y-79323078D01*
X95392581Y-79484106D01*
X95384308Y-79487533D01*
X95376735Y-79484751D01*
X95260687Y-79386182D01*
X95143973Y-79323033D01*
X95032229Y-79295817D01*
X94922869Y-79298064D01*
X94862797Y-79311904D01*
X94813683Y-79323219D01*
X94813678Y-79323221D01*
X94813307Y-79323306D01*
X94700960Y-79365074D01*
X94583241Y-79416899D01*
X94457798Y-79472211D01*
X94457307Y-79472413D01*
X94321820Y-79524663D01*
X94320880Y-79524981D01*
X94234666Y-79549910D01*
X94180291Y-79565633D01*
X94171392Y-79564639D01*
X94167266Y-79560822D01*
X93572782Y-78656949D01*
X93571099Y-78648154D01*
X93576128Y-78640745D01*
X93577331Y-78640052D01*
X94573334Y-78142807D01*
X94582267Y-78142178D01*
X94587001Y-78145174D01*
G37*
%TD.AperFunction*%
%TD*%
%TA.AperFunction,Conductor*%
%TO.N,RUMBLE*%
G36*
X93863792Y-75800432D02*
G01*
X94605306Y-76206677D01*
X94813240Y-76320595D01*
X94818849Y-76327575D01*
X94819085Y-76333181D01*
X94789555Y-76478830D01*
X94789308Y-76479820D01*
X94748041Y-76619487D01*
X94747868Y-76620026D01*
X94702728Y-76748869D01*
X94660211Y-76869349D01*
X94626837Y-76983978D01*
X94626782Y-76984322D01*
X94626781Y-76984327D01*
X94618767Y-77034552D01*
X94609039Y-77095514D01*
X94613252Y-77206717D01*
X94613448Y-77207398D01*
X94613448Y-77207400D01*
X94645717Y-77319681D01*
X94645908Y-77320345D01*
X94646249Y-77320945D01*
X94683406Y-77386314D01*
X94713443Y-77439158D01*
X94713808Y-77439583D01*
X94815225Y-77557687D01*
X94818015Y-77566196D01*
X94814622Y-77573582D01*
X94653545Y-77734659D01*
X94645272Y-77738086D01*
X94637248Y-77734901D01*
X94636992Y-77734659D01*
X94487757Y-77594030D01*
X94346809Y-77477775D01*
X94218959Y-77386314D01*
X94100494Y-77312036D01*
X93987704Y-77247332D01*
X93877017Y-77184670D01*
X93876708Y-77184488D01*
X93764575Y-77116368D01*
X93764032Y-77116016D01*
X93697442Y-77069954D01*
X93646620Y-77034799D01*
X93645934Y-77034287D01*
X93519385Y-76932302D01*
X93518736Y-76931738D01*
X93385184Y-76806860D01*
X93381482Y-76798706D01*
X93382590Y-76793330D01*
X93847586Y-75805709D01*
X93854210Y-75799684D01*
X93863792Y-75800432D01*
G37*
%TD.AperFunction*%
%TD*%
%TA.AperFunction,Conductor*%
%TO.N,DRIFT*%
G36*
X106194464Y-86397502D02*
G01*
X106572695Y-86419129D01*
X106580759Y-86423023D01*
X106583708Y-86431478D01*
X106583410Y-86433511D01*
X106494945Y-86805988D01*
X106462850Y-86941120D01*
X106457604Y-86948377D01*
X106452608Y-86950059D01*
X106379322Y-86957231D01*
X106379120Y-86957265D01*
X106379113Y-86957266D01*
X106340983Y-86963700D01*
X106309813Y-86968959D01*
X106248991Y-86983521D01*
X106248823Y-86983571D01*
X106193514Y-86999987D01*
X106193482Y-86999997D01*
X106193458Y-87000004D01*
X106193442Y-87000009D01*
X106193420Y-87000016D01*
X106139818Y-87017495D01*
X106139746Y-87017518D01*
X106084867Y-87035022D01*
X106084459Y-87035144D01*
X106024880Y-87051787D01*
X106024272Y-87051938D01*
X105980974Y-87061472D01*
X105956580Y-87066843D01*
X105955857Y-87066979D01*
X105876467Y-87079292D01*
X105875760Y-87079379D01*
X105792906Y-87087104D01*
X105784351Y-87084460D01*
X105780145Y-87076219D01*
X105765305Y-86849437D01*
X105768184Y-86840958D01*
X105775184Y-86837112D01*
X105836263Y-86827628D01*
X105891047Y-86805686D01*
X105931843Y-86774174D01*
X105961536Y-86734339D01*
X105983012Y-86687425D01*
X105999156Y-86634679D01*
X106012853Y-86577345D01*
X106026935Y-86516903D01*
X106027058Y-86516423D01*
X106044313Y-86454384D01*
X106044619Y-86453439D01*
X106065106Y-86398371D01*
X106071203Y-86391812D01*
X106076740Y-86390770D01*
X106194464Y-86397502D01*
G37*
%TD.AperFunction*%
%TD*%
%TA.AperFunction,Conductor*%
%TO.N,+3V3_A*%
G36*
X105271202Y-82680813D02*
G01*
X105276818Y-82688021D01*
X105290086Y-82737750D01*
X105323475Y-82862898D01*
X105335378Y-82907514D01*
X105334199Y-82916391D01*
X105327851Y-82921603D01*
X105285050Y-82936205D01*
X105285047Y-82936207D01*
X105284582Y-82936365D01*
X105242827Y-82958948D01*
X105242379Y-82959323D01*
X105211483Y-82985157D01*
X105211480Y-82985160D01*
X105211009Y-82985554D01*
X105187210Y-83015914D01*
X105169511Y-83049760D01*
X105155990Y-83086823D01*
X105144731Y-83126833D01*
X105144708Y-83126922D01*
X105144701Y-83126949D01*
X105133840Y-83169413D01*
X105133780Y-83169638D01*
X105121403Y-83214304D01*
X105121210Y-83214932D01*
X105108040Y-83253831D01*
X105102141Y-83260568D01*
X105096839Y-83261778D01*
X104866433Y-83259404D01*
X104715816Y-83257853D01*
X104742308Y-82931230D01*
X104742766Y-82925593D01*
X104747015Y-82873193D01*
X104751100Y-82865224D01*
X104755432Y-82862898D01*
X104809348Y-82847334D01*
X104809351Y-82847333D01*
X104809469Y-82847299D01*
X104862365Y-82829519D01*
X104908928Y-82811691D01*
X104951733Y-82793708D01*
X104993352Y-82775462D01*
X105036250Y-82756893D01*
X105036444Y-82756811D01*
X105056499Y-82748658D01*
X105083150Y-82737824D01*
X105083517Y-82737682D01*
X105136633Y-82718145D01*
X105137052Y-82718000D01*
X105199253Y-82697762D01*
X105199666Y-82697636D01*
X105262307Y-82679785D01*
X105271202Y-82680813D01*
G37*
%TD.AperFunction*%
%TD*%
%TA.AperFunction,Conductor*%
%TO.N,+3V3_A*%
G36*
X100013167Y-80878730D02*
G01*
X100055611Y-80900119D01*
X100055857Y-80900246D01*
X100099361Y-80923474D01*
X100138637Y-80944671D01*
X100175639Y-80963608D01*
X100212421Y-80980111D01*
X100212616Y-80980181D01*
X100212623Y-80980184D01*
X100250798Y-80993918D01*
X100250806Y-80993921D01*
X100251041Y-80994005D01*
X100251280Y-80994068D01*
X100251285Y-80994069D01*
X100293299Y-81005050D01*
X100293307Y-81005052D01*
X100293553Y-81005116D01*
X100293812Y-81005160D01*
X100293814Y-81005160D01*
X100341793Y-81013231D01*
X100342013Y-81013268D01*
X100342235Y-81013288D01*
X100342237Y-81013288D01*
X100350925Y-81014060D01*
X100398477Y-81018288D01*
X100398660Y-81018293D01*
X100398665Y-81018293D01*
X100453601Y-81019707D01*
X100461783Y-81023345D01*
X100465000Y-81031403D01*
X100465000Y-81258597D01*
X100461573Y-81266870D01*
X100453601Y-81270293D01*
X100398665Y-81271706D01*
X100398660Y-81271706D01*
X100398477Y-81271711D01*
X100350925Y-81275939D01*
X100342237Y-81276711D01*
X100342235Y-81276711D01*
X100342013Y-81276731D01*
X100341793Y-81276768D01*
X100293814Y-81284839D01*
X100293812Y-81284839D01*
X100293553Y-81284883D01*
X100293307Y-81284947D01*
X100293299Y-81284949D01*
X100251285Y-81295930D01*
X100251280Y-81295931D01*
X100251041Y-81295994D01*
X100250806Y-81296078D01*
X100250798Y-81296081D01*
X100212623Y-81309815D01*
X100212616Y-81309818D01*
X100212421Y-81309888D01*
X100175639Y-81326391D01*
X100138637Y-81345328D01*
X100138615Y-81345340D01*
X100138607Y-81345344D01*
X100099407Y-81366500D01*
X100099361Y-81366525D01*
X100055857Y-81389753D01*
X100055611Y-81389880D01*
X100013167Y-81411270D01*
X100004237Y-81411933D01*
X99999792Y-81409255D01*
X99913624Y-81326391D01*
X99733769Y-81153433D01*
X99730181Y-81145229D01*
X99733769Y-81136567D01*
X99843127Y-81031403D01*
X99979513Y-80900246D01*
X99999792Y-80880745D01*
X100008131Y-80877480D01*
X100013167Y-80878730D01*
G37*
%TD.AperFunction*%
%TD*%
%TA.AperFunction,Conductor*%
%TO.N,+3V3_A*%
G36*
X109278615Y-82528086D02*
G01*
X109281909Y-82534602D01*
X109285285Y-82556825D01*
X109298731Y-82581859D01*
X109318919Y-82600634D01*
X109319582Y-82600988D01*
X109319584Y-82600989D01*
X109336441Y-82609978D01*
X109344027Y-82614024D01*
X109357743Y-82618340D01*
X109371880Y-82622789D01*
X109371885Y-82622790D01*
X109372237Y-82622901D01*
X109372596Y-82622965D01*
X109372601Y-82622966D01*
X109401482Y-82628096D01*
X109401730Y-82628140D01*
X109430685Y-82630616D01*
X109457284Y-82631200D01*
X109457390Y-82631198D01*
X109457402Y-82631198D01*
X109468178Y-82630990D01*
X109479706Y-82630768D01*
X109479754Y-82630766D01*
X109479768Y-82630766D01*
X109481797Y-82630695D01*
X109486296Y-82630537D01*
X109494683Y-82633672D01*
X109498155Y-82639826D01*
X109517057Y-82729898D01*
X109592938Y-83091508D01*
X109592939Y-83091510D01*
X109625187Y-83245188D01*
X109625440Y-83246395D01*
X109638849Y-83310291D01*
X109637194Y-83319092D01*
X109629801Y-83324145D01*
X109620455Y-83322111D01*
X109473749Y-83213943D01*
X109473750Y-83213943D01*
X109061139Y-82909720D01*
X109067641Y-82889150D01*
X109069577Y-82864506D01*
X109067861Y-82835822D01*
X109063408Y-82803131D01*
X109057132Y-82766465D01*
X109049946Y-82725856D01*
X109042766Y-82681339D01*
X109040006Y-82660006D01*
X109039554Y-82656505D01*
X109036537Y-82633186D01*
X109036484Y-82632690D01*
X109036358Y-82631197D01*
X109032107Y-82581034D01*
X109032070Y-82580396D01*
X109030762Y-82536709D01*
X109033940Y-82528337D01*
X109042457Y-82524659D01*
X109270342Y-82524659D01*
X109278615Y-82528086D01*
G37*
%TD.AperFunction*%
%TD*%
%TA.AperFunction,Conductor*%
%TO.N,S_S_MOD*%
G36*
X104699846Y-79610397D02*
G01*
X104734155Y-79643390D01*
X104917481Y-79819686D01*
X104966231Y-79866567D01*
X104969819Y-79874771D01*
X104966231Y-79883433D01*
X104700192Y-80139270D01*
X104691853Y-80142535D01*
X104686843Y-80141298D01*
X104618628Y-80107133D01*
X104618513Y-80107075D01*
X104606098Y-80100686D01*
X104549668Y-80071646D01*
X104529105Y-80061550D01*
X104485621Y-80040201D01*
X104485604Y-80040193D01*
X104485469Y-80040127D01*
X104485304Y-80040057D01*
X104424059Y-80014100D01*
X104424055Y-80014099D01*
X104423799Y-80013990D01*
X104423544Y-80013910D01*
X104423534Y-80013906D01*
X104362876Y-79994808D01*
X104362872Y-79994807D01*
X104362513Y-79994694D01*
X104362139Y-79994629D01*
X104362136Y-79994628D01*
X104342122Y-79991137D01*
X104299467Y-79983697D01*
X104265290Y-79983064D01*
X104232971Y-79982465D01*
X104232966Y-79982465D01*
X104232516Y-79982457D01*
X104159515Y-79992432D01*
X104078319Y-80015082D01*
X103997162Y-80047693D01*
X103988208Y-80047598D01*
X103982151Y-80041683D01*
X103981412Y-80040057D01*
X103888254Y-79835344D01*
X103887946Y-79826395D01*
X103894431Y-79819686D01*
X103989988Y-79780160D01*
X103990822Y-79779852D01*
X103998703Y-79777273D01*
X104083901Y-79749399D01*
X104084750Y-79749156D01*
X104167441Y-79728980D01*
X104168202Y-79728821D01*
X104176245Y-79727417D01*
X104243441Y-79715684D01*
X104243892Y-79715616D01*
X104314643Y-79706304D01*
X104314709Y-79706296D01*
X104383412Y-79697647D01*
X104383432Y-79697644D01*
X104383552Y-79697629D01*
X104453177Y-79686393D01*
X104453355Y-79686352D01*
X104453363Y-79686350D01*
X104502601Y-79674883D01*
X104526307Y-79669363D01*
X104567033Y-79656003D01*
X104605483Y-79643390D01*
X104605489Y-79643388D01*
X104605729Y-79643309D01*
X104605960Y-79643209D01*
X104605968Y-79643206D01*
X104687088Y-79608093D01*
X104696042Y-79607951D01*
X104699846Y-79610397D01*
G37*
%TD.AperFunction*%
%TD*%
%TA.AperFunction,Conductor*%
%TO.N,SLITHER*%
G36*
X103214983Y-79386752D02*
G01*
X103332880Y-79580653D01*
X103334250Y-79589502D01*
X103329311Y-79596507D01*
X103234638Y-79658758D01*
X103234633Y-79658762D01*
X103234418Y-79658903D01*
X103151321Y-79724685D01*
X103151096Y-79724908D01*
X103151087Y-79724916D01*
X103110378Y-79765265D01*
X103086097Y-79789331D01*
X103085866Y-79789628D01*
X103035618Y-79854224D01*
X103035613Y-79854232D01*
X103035387Y-79854522D01*
X102995833Y-79921938D01*
X102964076Y-79993263D01*
X102936757Y-80070177D01*
X102910519Y-80154361D01*
X102910519Y-80154362D01*
X102882050Y-80247338D01*
X102881977Y-80247570D01*
X102850439Y-80343392D01*
X102844597Y-80350179D01*
X102839554Y-80351432D01*
X102340744Y-80361183D01*
X102332405Y-80357918D01*
X102328817Y-80349256D01*
X102338573Y-79850190D01*
X102342161Y-79841986D01*
X102346288Y-79839418D01*
X102378932Y-79827600D01*
X102448494Y-79802418D01*
X102448579Y-79802384D01*
X102448603Y-79802375D01*
X102541579Y-79765265D01*
X102541692Y-79765220D01*
X102558186Y-79757848D01*
X102622522Y-79729094D01*
X102622535Y-79729088D01*
X102622642Y-79729040D01*
X102622753Y-79728984D01*
X102622764Y-79728979D01*
X102695568Y-79692405D01*
X102695658Y-79692360D01*
X102695730Y-79692320D01*
X102695743Y-79692313D01*
X102764951Y-79653720D01*
X102764964Y-79653713D01*
X102765058Y-79653660D01*
X102835157Y-79611421D01*
X102910271Y-79564123D01*
X102994716Y-79510249D01*
X102994719Y-79510254D01*
X102994760Y-79510221D01*
X103092809Y-79448277D01*
X103162912Y-79405035D01*
X103198844Y-79382872D01*
X103207684Y-79381445D01*
X103214983Y-79386752D01*
G37*
%TD.AperFunction*%
%TD*%
%TA.AperFunction,Conductor*%
%TO.N,SLITHER*%
G36*
X104963139Y-80878656D02*
G01*
X105023011Y-80908342D01*
X105083149Y-80938588D01*
X105083172Y-80938599D01*
X105083196Y-80938611D01*
X105129165Y-80960588D01*
X105138493Y-80965048D01*
X105191352Y-80987034D01*
X105191578Y-80987106D01*
X105191583Y-80987108D01*
X105211885Y-80993591D01*
X105244040Y-81003858D01*
X105244366Y-81003923D01*
X105244369Y-81003924D01*
X105271930Y-81009440D01*
X105298868Y-81014832D01*
X105299231Y-81014859D01*
X105299237Y-81014860D01*
X105357809Y-81019242D01*
X105357814Y-81019242D01*
X105358147Y-81019267D01*
X105358478Y-81019253D01*
X105358479Y-81019253D01*
X105423912Y-81016488D01*
X105423918Y-81016487D01*
X105424189Y-81016476D01*
X105499305Y-81005769D01*
X105574742Y-80988930D01*
X105583563Y-80990472D01*
X105588623Y-80997442D01*
X105626523Y-81145229D01*
X105644963Y-81217133D01*
X105643699Y-81225998D01*
X105636382Y-81231411D01*
X105551525Y-81251946D01*
X105551230Y-81252013D01*
X105531986Y-81256131D01*
X105468387Y-81269741D01*
X105468145Y-81269790D01*
X105419266Y-81279175D01*
X105395819Y-81283677D01*
X105331271Y-81295409D01*
X105271874Y-81306657D01*
X105271789Y-81306676D01*
X105271782Y-81306677D01*
X105215015Y-81319086D01*
X105215008Y-81319088D01*
X105214874Y-81319117D01*
X105157517Y-81334485D01*
X105097050Y-81354458D01*
X105096903Y-81354516D01*
X105096887Y-81354522D01*
X105030858Y-81380675D01*
X105030717Y-81380731D01*
X104963003Y-81411691D01*
X104954055Y-81412014D01*
X104950029Y-81409483D01*
X104872089Y-81334532D01*
X104683769Y-81153433D01*
X104680181Y-81145229D01*
X104683769Y-81136567D01*
X104808636Y-81016488D01*
X104949834Y-80880705D01*
X104958172Y-80877440D01*
X104963139Y-80878656D01*
G37*
%TD.AperFunction*%
%TD*%
%TA.AperFunction,Conductor*%
%TO.N,DECAY*%
G36*
X97907010Y-77409014D02*
G01*
X98006274Y-77590119D01*
X98016153Y-77608144D01*
X98017124Y-77617045D01*
X98011969Y-77623765D01*
X97929017Y-77674176D01*
X97928741Y-77674344D01*
X97856092Y-77730286D01*
X97800314Y-77786860D01*
X97758142Y-77845145D01*
X97726307Y-77906222D01*
X97701542Y-77971171D01*
X97680581Y-78041070D01*
X97680553Y-78041172D01*
X97680553Y-78041174D01*
X97660184Y-78116896D01*
X97660156Y-78117000D01*
X97637059Y-78199829D01*
X97636934Y-78200247D01*
X97610394Y-78283297D01*
X97604611Y-78290135D01*
X97599480Y-78291434D01*
X97256979Y-78298129D01*
X97100744Y-78301183D01*
X97092405Y-78297918D01*
X97088817Y-78289256D01*
X97098572Y-77790239D01*
X97102160Y-77782035D01*
X97106350Y-77779444D01*
X97197914Y-77746880D01*
X97197930Y-77746874D01*
X97282550Y-77714932D01*
X97282572Y-77714923D01*
X97282626Y-77714903D01*
X97282675Y-77714883D01*
X97282693Y-77714876D01*
X97356646Y-77684758D01*
X97356660Y-77684752D01*
X97356714Y-77684730D01*
X97424030Y-77654870D01*
X97424117Y-77654828D01*
X97424141Y-77654817D01*
X97488317Y-77623882D01*
X97488425Y-77623830D01*
X97553750Y-77590119D01*
X97623857Y-77552245D01*
X97702595Y-77508716D01*
X97793816Y-77458041D01*
X97793848Y-77458024D01*
X97891100Y-77404392D01*
X97899999Y-77403397D01*
X97907010Y-77409014D01*
G37*
%TD.AperFunction*%
%TD*%
%TA.AperFunction,Conductor*%
%TO.N,DECAY*%
G36*
X99750208Y-77070745D02*
G01*
X99770487Y-77090246D01*
X99906874Y-77221403D01*
X100016231Y-77326567D01*
X100019819Y-77334771D01*
X100016231Y-77343433D01*
X99836376Y-77516391D01*
X99750208Y-77599255D01*
X99741869Y-77602520D01*
X99736833Y-77601270D01*
X99694388Y-77579880D01*
X99694142Y-77579753D01*
X99650638Y-77556525D01*
X99650592Y-77556500D01*
X99611392Y-77535344D01*
X99611384Y-77535340D01*
X99611362Y-77535328D01*
X99574360Y-77516391D01*
X99537578Y-77499888D01*
X99537383Y-77499818D01*
X99537376Y-77499815D01*
X99499201Y-77486081D01*
X99499193Y-77486078D01*
X99498958Y-77485994D01*
X99498719Y-77485931D01*
X99498714Y-77485930D01*
X99456700Y-77474949D01*
X99456692Y-77474947D01*
X99456446Y-77474883D01*
X99456187Y-77474839D01*
X99456185Y-77474839D01*
X99408206Y-77466768D01*
X99407986Y-77466731D01*
X99407764Y-77466711D01*
X99407762Y-77466711D01*
X99399074Y-77465939D01*
X99351522Y-77461711D01*
X99351339Y-77461706D01*
X99351334Y-77461706D01*
X99296399Y-77460293D01*
X99288217Y-77456655D01*
X99285000Y-77448597D01*
X99285000Y-77221403D01*
X99288427Y-77213130D01*
X99296399Y-77209707D01*
X99351334Y-77208293D01*
X99351339Y-77208293D01*
X99351522Y-77208288D01*
X99399074Y-77204060D01*
X99407762Y-77203288D01*
X99407764Y-77203288D01*
X99407986Y-77203268D01*
X99408206Y-77203231D01*
X99456185Y-77195160D01*
X99456187Y-77195160D01*
X99456446Y-77195116D01*
X99456692Y-77195052D01*
X99456700Y-77195050D01*
X99498714Y-77184069D01*
X99498719Y-77184068D01*
X99498958Y-77184005D01*
X99499193Y-77183921D01*
X99499201Y-77183918D01*
X99537376Y-77170184D01*
X99537383Y-77170181D01*
X99537578Y-77170111D01*
X99574360Y-77153608D01*
X99611362Y-77134671D01*
X99650638Y-77113474D01*
X99694142Y-77090246D01*
X99694388Y-77090119D01*
X99736833Y-77068730D01*
X99745763Y-77068067D01*
X99750208Y-77070745D01*
G37*
%TD.AperFunction*%
%TD*%
%TA.AperFunction,Conductor*%
%TO.N,P_H_MOD*%
G36*
X99750208Y-75800745D02*
G01*
X99770487Y-75820246D01*
X99906874Y-75951403D01*
X100016231Y-76056567D01*
X100019819Y-76064771D01*
X100016231Y-76073433D01*
X99836376Y-76246391D01*
X99750208Y-76329255D01*
X99741869Y-76332520D01*
X99736833Y-76331270D01*
X99694388Y-76309880D01*
X99694142Y-76309753D01*
X99650638Y-76286525D01*
X99650592Y-76286500D01*
X99611392Y-76265344D01*
X99611384Y-76265340D01*
X99611362Y-76265328D01*
X99574360Y-76246391D01*
X99537578Y-76229888D01*
X99537383Y-76229818D01*
X99537376Y-76229815D01*
X99499201Y-76216081D01*
X99499193Y-76216078D01*
X99498958Y-76215994D01*
X99498719Y-76215931D01*
X99498714Y-76215930D01*
X99456700Y-76204949D01*
X99456692Y-76204947D01*
X99456446Y-76204883D01*
X99456187Y-76204839D01*
X99456185Y-76204839D01*
X99408206Y-76196768D01*
X99407986Y-76196731D01*
X99407764Y-76196711D01*
X99407762Y-76196711D01*
X99399074Y-76195939D01*
X99351522Y-76191711D01*
X99351339Y-76191706D01*
X99351334Y-76191706D01*
X99296399Y-76190293D01*
X99288217Y-76186655D01*
X99285000Y-76178597D01*
X99285000Y-75951403D01*
X99288427Y-75943130D01*
X99296399Y-75939707D01*
X99351334Y-75938293D01*
X99351339Y-75938293D01*
X99351522Y-75938288D01*
X99399074Y-75934060D01*
X99407762Y-75933288D01*
X99407764Y-75933288D01*
X99407986Y-75933268D01*
X99408206Y-75933231D01*
X99456185Y-75925160D01*
X99456187Y-75925160D01*
X99456446Y-75925116D01*
X99456692Y-75925052D01*
X99456700Y-75925050D01*
X99498714Y-75914069D01*
X99498719Y-75914068D01*
X99498958Y-75914005D01*
X99499193Y-75913921D01*
X99499201Y-75913918D01*
X99537376Y-75900184D01*
X99537383Y-75900181D01*
X99537578Y-75900111D01*
X99574360Y-75883608D01*
X99611362Y-75864671D01*
X99650638Y-75843474D01*
X99694142Y-75820246D01*
X99694388Y-75820119D01*
X99736833Y-75798730D01*
X99745763Y-75798067D01*
X99750208Y-75800745D01*
G37*
%TD.AperFunction*%
%TD*%
%TA.AperFunction,Conductor*%
%TO.N,P_H_MOD*%
G36*
X96748204Y-76810977D02*
G01*
X96909022Y-76971795D01*
X96912449Y-76980068D01*
X96909315Y-76988037D01*
X96882551Y-77016807D01*
X96855346Y-77046050D01*
X96855201Y-77046236D01*
X96855195Y-77046243D01*
X96828450Y-77080557D01*
X96808415Y-77106262D01*
X96808252Y-77106523D01*
X96808251Y-77106525D01*
X96773760Y-77161890D01*
X96773756Y-77161897D01*
X96773583Y-77162175D01*
X96748222Y-77215550D01*
X96748121Y-77215836D01*
X96748118Y-77215844D01*
X96729784Y-77267931D01*
X96729706Y-77268153D01*
X96715407Y-77321745D01*
X96715376Y-77321883D01*
X96702700Y-77378085D01*
X96702697Y-77378089D01*
X96702699Y-77378089D01*
X96688987Y-77438797D01*
X96688906Y-77439130D01*
X96671617Y-77505811D01*
X96671457Y-77506367D01*
X96650373Y-77573253D01*
X96644617Y-77580114D01*
X96639443Y-77581434D01*
X96140744Y-77591183D01*
X96132405Y-77587918D01*
X96128817Y-77579256D01*
X96138566Y-77080557D01*
X96142154Y-77072353D01*
X96146746Y-77069627D01*
X96213637Y-77048541D01*
X96214218Y-77048375D01*
X96280843Y-77031100D01*
X96281202Y-77031012D01*
X96341910Y-77017300D01*
X96341910Y-77017301D01*
X96341914Y-77017299D01*
X96398254Y-77004592D01*
X96451846Y-76990293D01*
X96452068Y-76990215D01*
X96504155Y-76971881D01*
X96504163Y-76971878D01*
X96504449Y-76971777D01*
X96557824Y-76946416D01*
X96558102Y-76946243D01*
X96558109Y-76946239D01*
X96613474Y-76911748D01*
X96613476Y-76911747D01*
X96613737Y-76911584D01*
X96613975Y-76911398D01*
X96613980Y-76911395D01*
X96673756Y-76864804D01*
X96673763Y-76864798D01*
X96673949Y-76864653D01*
X96731964Y-76810683D01*
X96740353Y-76807558D01*
X96748204Y-76810977D01*
G37*
%TD.AperFunction*%
%TD*%
%TA.AperFunction,Conductor*%
%TO.N,SHIFT*%
G36*
X92273306Y-73537473D02*
G01*
X92280676Y-73542559D01*
X92282451Y-73547383D01*
X92307456Y-73736918D01*
X92307472Y-73737048D01*
X92326359Y-73906762D01*
X92341253Y-74055897D01*
X92355347Y-74191778D01*
X92371843Y-74321785D01*
X92393940Y-74453300D01*
X92393971Y-74453441D01*
X92393972Y-74453446D01*
X92424117Y-74590421D01*
X92424839Y-74593703D01*
X92467742Y-74750376D01*
X92525848Y-74930700D01*
X92598433Y-75131213D01*
X92598027Y-75140158D01*
X92591573Y-75146138D01*
X92378729Y-75226677D01*
X92369779Y-75226400D01*
X92363968Y-75220642D01*
X92278747Y-75036205D01*
X92278529Y-75035733D01*
X92177724Y-74891600D01*
X92066377Y-74788406D01*
X92065844Y-74788091D01*
X92065842Y-74788089D01*
X91945161Y-74716669D01*
X91944742Y-74716421D01*
X91944286Y-74716246D01*
X91813348Y-74666019D01*
X91813339Y-74666016D01*
X91813073Y-74665914D01*
X91812792Y-74665837D01*
X91812789Y-74665836D01*
X91737579Y-74645229D01*
X91671625Y-74627158D01*
X91520820Y-74590462D01*
X91520483Y-74590374D01*
X91426833Y-74564399D01*
X91360871Y-74546103D01*
X91359980Y-74545818D01*
X91191768Y-74484316D01*
X91190552Y-74483791D01*
X91020913Y-74398931D01*
X91015047Y-74392165D01*
X91014620Y-74386462D01*
X91200184Y-73319697D01*
X91204978Y-73312133D01*
X91214165Y-73310262D01*
X92273306Y-73537473D01*
G37*
%TD.AperFunction*%
%TD*%
%TA.AperFunction,Conductor*%
%TO.N,SHIFT*%
G36*
X104700208Y-85430745D02*
G01*
X104720487Y-85450246D01*
X104856874Y-85581403D01*
X104966231Y-85686567D01*
X104969819Y-85694771D01*
X104966231Y-85703433D01*
X104786376Y-85876391D01*
X104700208Y-85959255D01*
X104691869Y-85962520D01*
X104686833Y-85961270D01*
X104644388Y-85939880D01*
X104644142Y-85939753D01*
X104600638Y-85916525D01*
X104600592Y-85916500D01*
X104561392Y-85895344D01*
X104561384Y-85895340D01*
X104561362Y-85895328D01*
X104524360Y-85876391D01*
X104487578Y-85859888D01*
X104487383Y-85859818D01*
X104487376Y-85859815D01*
X104449201Y-85846081D01*
X104449193Y-85846078D01*
X104448958Y-85845994D01*
X104448719Y-85845931D01*
X104448714Y-85845930D01*
X104406700Y-85834949D01*
X104406692Y-85834947D01*
X104406446Y-85834883D01*
X104406187Y-85834839D01*
X104406185Y-85834839D01*
X104358206Y-85826768D01*
X104357986Y-85826731D01*
X104357764Y-85826711D01*
X104357762Y-85826711D01*
X104349074Y-85825939D01*
X104301522Y-85821711D01*
X104301339Y-85821706D01*
X104301334Y-85821706D01*
X104246399Y-85820293D01*
X104238217Y-85816655D01*
X104235000Y-85808597D01*
X104235000Y-85581403D01*
X104238427Y-85573130D01*
X104246399Y-85569707D01*
X104301334Y-85568293D01*
X104301339Y-85568293D01*
X104301522Y-85568288D01*
X104349074Y-85564060D01*
X104357762Y-85563288D01*
X104357764Y-85563288D01*
X104357986Y-85563268D01*
X104358206Y-85563231D01*
X104406185Y-85555160D01*
X104406187Y-85555160D01*
X104406446Y-85555116D01*
X104406692Y-85555052D01*
X104406700Y-85555050D01*
X104448714Y-85544069D01*
X104448719Y-85544068D01*
X104448958Y-85544005D01*
X104449193Y-85543921D01*
X104449201Y-85543918D01*
X104487376Y-85530184D01*
X104487383Y-85530181D01*
X104487578Y-85530111D01*
X104524360Y-85513608D01*
X104561362Y-85494671D01*
X104600638Y-85473474D01*
X104644142Y-85450246D01*
X104644388Y-85450119D01*
X104686833Y-85428730D01*
X104695763Y-85428067D01*
X104700208Y-85430745D01*
G37*
%TD.AperFunction*%
%TD*%
%TA.AperFunction,Conductor*%
%TO.N,CHANNEL_SELECT_B*%
G36*
X104963167Y-90508730D02*
G01*
X105005611Y-90530119D01*
X105005857Y-90530246D01*
X105049361Y-90553474D01*
X105088637Y-90574671D01*
X105125639Y-90593608D01*
X105162421Y-90610111D01*
X105162616Y-90610181D01*
X105162623Y-90610184D01*
X105200798Y-90623918D01*
X105200806Y-90623921D01*
X105201041Y-90624005D01*
X105201280Y-90624068D01*
X105201285Y-90624069D01*
X105243299Y-90635050D01*
X105243307Y-90635052D01*
X105243553Y-90635116D01*
X105243812Y-90635160D01*
X105243814Y-90635160D01*
X105291793Y-90643231D01*
X105292013Y-90643268D01*
X105292235Y-90643288D01*
X105292237Y-90643288D01*
X105300925Y-90644060D01*
X105348477Y-90648288D01*
X105348660Y-90648293D01*
X105348665Y-90648293D01*
X105403601Y-90649707D01*
X105411783Y-90653345D01*
X105415000Y-90661403D01*
X105415000Y-90888597D01*
X105411573Y-90896870D01*
X105403601Y-90900293D01*
X105348665Y-90901706D01*
X105348660Y-90901706D01*
X105348477Y-90901711D01*
X105300925Y-90905939D01*
X105292237Y-90906711D01*
X105292235Y-90906711D01*
X105292013Y-90906731D01*
X105291793Y-90906768D01*
X105243814Y-90914839D01*
X105243812Y-90914839D01*
X105243553Y-90914883D01*
X105243307Y-90914947D01*
X105243299Y-90914949D01*
X105201285Y-90925930D01*
X105201280Y-90925931D01*
X105201041Y-90925994D01*
X105200806Y-90926078D01*
X105200798Y-90926081D01*
X105162623Y-90939815D01*
X105162616Y-90939818D01*
X105162421Y-90939888D01*
X105125639Y-90956391D01*
X105088637Y-90975328D01*
X105088615Y-90975340D01*
X105088607Y-90975344D01*
X105049407Y-90996500D01*
X105049361Y-90996525D01*
X105005857Y-91019753D01*
X105005611Y-91019880D01*
X104963167Y-91041270D01*
X104954237Y-91041933D01*
X104949792Y-91039255D01*
X104863624Y-90956391D01*
X104683769Y-90783433D01*
X104680181Y-90775229D01*
X104683769Y-90766567D01*
X104793127Y-90661403D01*
X104929513Y-90530246D01*
X104949792Y-90510745D01*
X104958131Y-90507480D01*
X104963167Y-90508730D01*
G37*
%TD.AperFunction*%
%TD*%
%TA.AperFunction,Conductor*%
%TO.N,CHANNEL_SELECT_C*%
G36*
X104963167Y-91778730D02*
G01*
X105005611Y-91800119D01*
X105005857Y-91800246D01*
X105049361Y-91823474D01*
X105088637Y-91844671D01*
X105125639Y-91863608D01*
X105162421Y-91880111D01*
X105162616Y-91880181D01*
X105162623Y-91880184D01*
X105200798Y-91893918D01*
X105200806Y-91893921D01*
X105201041Y-91894005D01*
X105201280Y-91894068D01*
X105201285Y-91894069D01*
X105243299Y-91905050D01*
X105243307Y-91905052D01*
X105243553Y-91905116D01*
X105243812Y-91905160D01*
X105243814Y-91905160D01*
X105291793Y-91913231D01*
X105292013Y-91913268D01*
X105292235Y-91913288D01*
X105292237Y-91913288D01*
X105300925Y-91914060D01*
X105348477Y-91918288D01*
X105348660Y-91918293D01*
X105348665Y-91918293D01*
X105403601Y-91919707D01*
X105411783Y-91923345D01*
X105415000Y-91931403D01*
X105415000Y-92158597D01*
X105411573Y-92166870D01*
X105403601Y-92170293D01*
X105348665Y-92171706D01*
X105348660Y-92171706D01*
X105348477Y-92171711D01*
X105300925Y-92175939D01*
X105292237Y-92176711D01*
X105292235Y-92176711D01*
X105292013Y-92176731D01*
X105291793Y-92176768D01*
X105243814Y-92184839D01*
X105243812Y-92184839D01*
X105243553Y-92184883D01*
X105243307Y-92184947D01*
X105243299Y-92184949D01*
X105201285Y-92195930D01*
X105201280Y-92195931D01*
X105201041Y-92195994D01*
X105200806Y-92196078D01*
X105200798Y-92196081D01*
X105162623Y-92209815D01*
X105162616Y-92209818D01*
X105162421Y-92209888D01*
X105125639Y-92226391D01*
X105088637Y-92245328D01*
X105088615Y-92245340D01*
X105088607Y-92245344D01*
X105049407Y-92266500D01*
X105049361Y-92266525D01*
X105005857Y-92289753D01*
X105005611Y-92289880D01*
X104963167Y-92311270D01*
X104954237Y-92311933D01*
X104949792Y-92309255D01*
X104863624Y-92226391D01*
X104683769Y-92053433D01*
X104680181Y-92045229D01*
X104683769Y-92036567D01*
X104793127Y-91931403D01*
X104929513Y-91800246D01*
X104949792Y-91780745D01*
X104958131Y-91777480D01*
X104963167Y-91778730D01*
G37*
%TD.AperFunction*%
%TD*%
%TA.AperFunction,Conductor*%
%TO.N,RUMBLE*%
G36*
X104700209Y-84160746D02*
G01*
X104836560Y-84291868D01*
X104966231Y-84416567D01*
X104969819Y-84424771D01*
X104966231Y-84433433D01*
X104753277Y-84638221D01*
X104699995Y-84689460D01*
X104691656Y-84692725D01*
X104686979Y-84691648D01*
X104665360Y-84681660D01*
X104625612Y-84663296D01*
X104625592Y-84663287D01*
X104625481Y-84663236D01*
X104564809Y-84638269D01*
X104509671Y-84618583D01*
X104457524Y-84602667D01*
X104449001Y-84600415D01*
X104405881Y-84589022D01*
X104405861Y-84589017D01*
X104405823Y-84589007D01*
X104352023Y-84576089D01*
X104293580Y-84562401D01*
X104293482Y-84562377D01*
X104228068Y-84546459D01*
X104227865Y-84546408D01*
X104152715Y-84526695D01*
X104152496Y-84526636D01*
X104113818Y-84515568D01*
X104076320Y-84504838D01*
X104069309Y-84499267D01*
X104068328Y-84490243D01*
X104126857Y-84294103D01*
X104133212Y-84272805D01*
X104138861Y-84265859D01*
X104147329Y-84264819D01*
X104212458Y-84281528D01*
X104278609Y-84291922D01*
X104278951Y-84291935D01*
X104278953Y-84291935D01*
X104324632Y-84293644D01*
X104336899Y-84294103D01*
X104337296Y-84294064D01*
X104337302Y-84294064D01*
X104388950Y-84289010D01*
X104388954Y-84289009D01*
X104389346Y-84288971D01*
X104437965Y-84277426D01*
X104438283Y-84277310D01*
X104438290Y-84277308D01*
X104472560Y-84264819D01*
X104484774Y-84260368D01*
X104531788Y-84238696D01*
X104580952Y-84213349D01*
X104580976Y-84213336D01*
X104581025Y-84213311D01*
X104581035Y-84213306D01*
X104603616Y-84201398D01*
X104634409Y-84185160D01*
X104634535Y-84185095D01*
X104686833Y-84158731D01*
X104695762Y-84158067D01*
X104700209Y-84160746D01*
G37*
%TD.AperFunction*%
%TD*%
%TA.AperFunction,Conductor*%
%TO.N,RES*%
G36*
X99750296Y-82890830D02*
G01*
X100016231Y-83146567D01*
X100019819Y-83154771D01*
X100016231Y-83163433D01*
X99750045Y-83419412D01*
X99741706Y-83422677D01*
X99736944Y-83421561D01*
X99684498Y-83396815D01*
X99684489Y-83396811D01*
X99684472Y-83396803D01*
X99659115Y-83385549D01*
X99632146Y-83373580D01*
X99584939Y-83354032D01*
X99540640Y-83336906D01*
X99516015Y-83327895D01*
X99497043Y-83320952D01*
X99497012Y-83320941D01*
X99451817Y-83304874D01*
X99441183Y-83301090D01*
X99402902Y-83287470D01*
X99402817Y-83287440D01*
X99347799Y-83267386D01*
X99347666Y-83267336D01*
X99284552Y-83243460D01*
X99284401Y-83243402D01*
X99221578Y-83218635D01*
X99215138Y-83212412D01*
X99215014Y-83203385D01*
X99231081Y-83163433D01*
X99299761Y-82992644D01*
X99306027Y-82986247D01*
X99314378Y-82985931D01*
X99315309Y-82986247D01*
X99362150Y-83002160D01*
X99362155Y-83002161D01*
X99362519Y-83002285D01*
X99362897Y-83002359D01*
X99362900Y-83002360D01*
X99413422Y-83012276D01*
X99413881Y-83012366D01*
X99416814Y-83012460D01*
X99458975Y-83013814D01*
X99458980Y-83013814D01*
X99459486Y-83013830D01*
X99500842Y-83007893D01*
X99539459Y-82995772D01*
X99576844Y-82978684D01*
X99577052Y-82978569D01*
X99614380Y-82957916D01*
X99614396Y-82957907D01*
X99614506Y-82957846D01*
X99653952Y-82934475D01*
X99696460Y-82909921D01*
X99696903Y-82909677D01*
X99736777Y-82888888D01*
X99745697Y-82888102D01*
X99750296Y-82890830D01*
G37*
%TD.AperFunction*%
%TD*%
%TA.AperFunction,Conductor*%
%TO.N,DRIVE*%
G36*
X91736694Y-78442983D02*
G01*
X91740282Y-78451645D01*
X91719117Y-79534342D01*
X91715529Y-79542546D01*
X91710712Y-79545339D01*
X91622250Y-79571279D01*
X91531235Y-79597966D01*
X91530275Y-79598204D01*
X91411153Y-79622432D01*
X91356232Y-79633602D01*
X91355655Y-79633704D01*
X91265791Y-79647206D01*
X91193562Y-79658058D01*
X91193490Y-79658069D01*
X91042379Y-79679806D01*
X90948764Y-79698122D01*
X90901928Y-79707285D01*
X90901924Y-79707286D01*
X90901597Y-79707350D01*
X90770128Y-79749181D01*
X90769679Y-79749416D01*
X90769680Y-79749416D01*
X90647488Y-79813495D01*
X90647485Y-79813497D01*
X90646955Y-79813775D01*
X90531065Y-79909610D01*
X90421441Y-80045166D01*
X90378990Y-80119903D01*
X90322480Y-80219390D01*
X90315415Y-80224891D01*
X90307205Y-80224140D01*
X90214246Y-80179096D01*
X90102440Y-80124918D01*
X90096489Y-80118228D01*
X90096927Y-80109468D01*
X90192992Y-79902279D01*
X90193031Y-79902195D01*
X90229937Y-79813495D01*
X90270631Y-79715690D01*
X90270638Y-79715673D01*
X90270678Y-79715576D01*
X90270718Y-79715467D01*
X90329845Y-79552845D01*
X90329851Y-79552826D01*
X90329895Y-79552706D01*
X90375548Y-79406245D01*
X90412502Y-79268854D01*
X90445622Y-79133192D01*
X90479749Y-78992025D01*
X90479797Y-78991833D01*
X90519781Y-78837862D01*
X90519857Y-78837582D01*
X90570598Y-78663319D01*
X90570694Y-78663009D01*
X90634485Y-78468934D01*
X90640324Y-78462144D01*
X90645371Y-78460889D01*
X91728355Y-78439718D01*
X91736694Y-78442983D01*
G37*
%TD.AperFunction*%
%TD*%
%TA.AperFunction,Conductor*%
%TO.N,DRIVE*%
G36*
X99750220Y-87970757D02*
G01*
X100016231Y-88226567D01*
X100019819Y-88234771D01*
X100016231Y-88243433D01*
X99920791Y-88335213D01*
X99750001Y-88499454D01*
X99741662Y-88502719D01*
X99736975Y-88501638D01*
X99695537Y-88482442D01*
X99676960Y-88473836D01*
X99676950Y-88473831D01*
X99676858Y-88473789D01*
X99676755Y-88473746D01*
X99617586Y-88449159D01*
X99617574Y-88449154D01*
X99617448Y-88449102D01*
X99609324Y-88446145D01*
X99563635Y-88429512D01*
X99563622Y-88429508D01*
X99563505Y-88429465D01*
X99512531Y-88413405D01*
X99512413Y-88413372D01*
X99512405Y-88413370D01*
X99495105Y-88408589D01*
X99462027Y-88399447D01*
X99461981Y-88399435D01*
X99461965Y-88399431D01*
X99409496Y-88386119D01*
X99352517Y-88371967D01*
X99352421Y-88371943D01*
X99313624Y-88361960D01*
X99288434Y-88355478D01*
X99288296Y-88355442D01*
X99214856Y-88335208D01*
X99214656Y-88335150D01*
X99140465Y-88313017D01*
X99133518Y-88307369D01*
X99132636Y-88298341D01*
X99154887Y-88226567D01*
X99199836Y-88081579D01*
X99205559Y-88074692D01*
X99214017Y-88073737D01*
X99276460Y-88090336D01*
X99276464Y-88090337D01*
X99276743Y-88090411D01*
X99277023Y-88090456D01*
X99277027Y-88090457D01*
X99340452Y-88100688D01*
X99340454Y-88100688D01*
X99340806Y-88100745D01*
X99371876Y-88101876D01*
X99396881Y-88102787D01*
X99396883Y-88102787D01*
X99397297Y-88102802D01*
X99397700Y-88102760D01*
X99397706Y-88102760D01*
X99420838Y-88100361D01*
X99448162Y-88097528D01*
X99448547Y-88097433D01*
X99448552Y-88097432D01*
X99495024Y-88085951D01*
X99495023Y-88085951D01*
X99495348Y-88085871D01*
X99540802Y-88068778D01*
X99586471Y-88047197D01*
X99634301Y-88022075D01*
X99686095Y-87994438D01*
X99686313Y-87994323D01*
X99736825Y-87968751D01*
X99745754Y-87968072D01*
X99750220Y-87970757D01*
G37*
%TD.AperFunction*%
%TD*%
%TA.AperFunction,Conductor*%
%TO.N,HOWL*%
G36*
X91736694Y-75902983D02*
G01*
X91740282Y-75911645D01*
X91736719Y-76093912D01*
X91728320Y-76523587D01*
X91719117Y-76994353D01*
X91715529Y-77002557D01*
X91710726Y-77005346D01*
X91652566Y-77022479D01*
X91546087Y-77053845D01*
X91545043Y-77054101D01*
X91390241Y-77084607D01*
X91389428Y-77084738D01*
X91248205Y-77102366D01*
X91247827Y-77102407D01*
X91193008Y-77107448D01*
X91116412Y-77114492D01*
X91116385Y-77114495D01*
X90991521Y-77128361D01*
X90991512Y-77128362D01*
X90991308Y-77128385D01*
X90991093Y-77128425D01*
X90991090Y-77128426D01*
X90958751Y-77134527D01*
X90868993Y-77151460D01*
X90868655Y-77151569D01*
X90868650Y-77151570D01*
X90846762Y-77158612D01*
X90745754Y-77191108D01*
X90681500Y-77223072D01*
X90618277Y-77254522D01*
X90618272Y-77254525D01*
X90617880Y-77254720D01*
X90481659Y-77349686D01*
X90481388Y-77349931D01*
X90481386Y-77349932D01*
X90341630Y-77475956D01*
X90333191Y-77478951D01*
X90325522Y-77475540D01*
X90164459Y-77314477D01*
X90161032Y-77306204D01*
X90164043Y-77298369D01*
X90290067Y-77158612D01*
X90290068Y-77158610D01*
X90290313Y-77158339D01*
X90385278Y-77022118D01*
X90385473Y-77021726D01*
X90385476Y-77021721D01*
X90416926Y-76958499D01*
X90448890Y-76894245D01*
X90488538Y-76771006D01*
X90511614Y-76648691D01*
X90525507Y-76523587D01*
X90537592Y-76392171D01*
X90537633Y-76391793D01*
X90555261Y-76250571D01*
X90555392Y-76249758D01*
X90585898Y-76094956D01*
X90586154Y-76093912D01*
X90634653Y-75929275D01*
X90640278Y-75922307D01*
X90645645Y-75920883D01*
X91406851Y-75906003D01*
X91728355Y-75899718D01*
X91736694Y-75902983D01*
G37*
%TD.AperFunction*%
%TD*%
%TA.AperFunction,Conductor*%
%TO.N,HOWL*%
G36*
X104927240Y-88132437D02*
G01*
X104930828Y-88141099D01*
X104923608Y-88510405D01*
X104920020Y-88518609D01*
X104915965Y-88521151D01*
X104850609Y-88545298D01*
X104850601Y-88545301D01*
X104850504Y-88545337D01*
X104850403Y-88545380D01*
X104850397Y-88545382D01*
X104788577Y-88571474D01*
X104788566Y-88571479D01*
X104788450Y-88571528D01*
X104734335Y-88597695D01*
X104685207Y-88624573D01*
X104638113Y-88652896D01*
X104638050Y-88652936D01*
X104638016Y-88652957D01*
X104590098Y-88683401D01*
X104538210Y-88716823D01*
X104479547Y-88753863D01*
X104479416Y-88753944D01*
X104411110Y-88795290D01*
X104410872Y-88795430D01*
X104340045Y-88836050D01*
X104331163Y-88837194D01*
X104324005Y-88831599D01*
X104280641Y-88753828D01*
X104213518Y-88633445D01*
X104212482Y-88624551D01*
X104217671Y-88617743D01*
X104277630Y-88581391D01*
X104277637Y-88581386D01*
X104277842Y-88581262D01*
X104334007Y-88539919D01*
X104334247Y-88539697D01*
X104334253Y-88539692D01*
X104378322Y-88498918D01*
X104378600Y-88498661D01*
X104413702Y-88456588D01*
X104441396Y-88412798D01*
X104463764Y-88366390D01*
X104482888Y-88316462D01*
X104500850Y-88262113D01*
X104500860Y-88262083D01*
X104519701Y-88202536D01*
X104519752Y-88202378D01*
X104539009Y-88144395D01*
X104544868Y-88137625D01*
X104549881Y-88136386D01*
X104801004Y-88131477D01*
X104918901Y-88129172D01*
X104927240Y-88132437D01*
G37*
%TD.AperFunction*%
%TD*%
%TA.AperFunction,Conductor*%
%TO.N,S_D_MOD*%
G36*
X104700208Y-75800745D02*
G01*
X104720487Y-75820246D01*
X104856874Y-75951403D01*
X104966231Y-76056567D01*
X104969819Y-76064771D01*
X104966231Y-76073433D01*
X104786376Y-76246391D01*
X104700208Y-76329255D01*
X104691869Y-76332520D01*
X104686833Y-76331270D01*
X104644388Y-76309880D01*
X104644142Y-76309753D01*
X104600638Y-76286525D01*
X104600592Y-76286500D01*
X104561392Y-76265344D01*
X104561384Y-76265340D01*
X104561362Y-76265328D01*
X104524360Y-76246391D01*
X104487578Y-76229888D01*
X104487383Y-76229818D01*
X104487376Y-76229815D01*
X104449201Y-76216081D01*
X104449193Y-76216078D01*
X104448958Y-76215994D01*
X104448719Y-76215931D01*
X104448714Y-76215930D01*
X104406700Y-76204949D01*
X104406692Y-76204947D01*
X104406446Y-76204883D01*
X104406187Y-76204839D01*
X104406185Y-76204839D01*
X104358206Y-76196768D01*
X104357986Y-76196731D01*
X104357764Y-76196711D01*
X104357762Y-76196711D01*
X104349074Y-76195939D01*
X104301522Y-76191711D01*
X104301339Y-76191706D01*
X104301334Y-76191706D01*
X104246399Y-76190293D01*
X104238217Y-76186655D01*
X104235000Y-76178597D01*
X104235000Y-75951403D01*
X104238427Y-75943130D01*
X104246399Y-75939707D01*
X104301334Y-75938293D01*
X104301339Y-75938293D01*
X104301522Y-75938288D01*
X104349074Y-75934060D01*
X104357762Y-75933288D01*
X104357764Y-75933288D01*
X104357986Y-75933268D01*
X104358206Y-75933231D01*
X104406185Y-75925160D01*
X104406187Y-75925160D01*
X104406446Y-75925116D01*
X104406692Y-75925052D01*
X104406700Y-75925050D01*
X104448714Y-75914069D01*
X104448719Y-75914068D01*
X104448958Y-75914005D01*
X104449193Y-75913921D01*
X104449201Y-75913918D01*
X104487376Y-75900184D01*
X104487383Y-75900181D01*
X104487578Y-75900111D01*
X104524360Y-75883608D01*
X104561362Y-75864671D01*
X104600638Y-75843474D01*
X104644142Y-75820246D01*
X104644388Y-75820119D01*
X104686833Y-75798730D01*
X104695763Y-75798067D01*
X104700208Y-75800745D01*
G37*
%TD.AperFunction*%
%TD*%
%TA.AperFunction,Conductor*%
%TO.N,S_D_MOD*%
G36*
X90341630Y-87624043D02*
G01*
X90481386Y-87750067D01*
X90481659Y-87750313D01*
X90617880Y-87845278D01*
X90618272Y-87845473D01*
X90618277Y-87845476D01*
X90681500Y-87876926D01*
X90745754Y-87908890D01*
X90814677Y-87931064D01*
X90868650Y-87948428D01*
X90868655Y-87948429D01*
X90868993Y-87948538D01*
X90958751Y-87965471D01*
X90991090Y-87971572D01*
X90991093Y-87971573D01*
X90991308Y-87971613D01*
X90991512Y-87971636D01*
X90991521Y-87971637D01*
X91115890Y-87985449D01*
X91116411Y-87985507D01*
X91193020Y-87992552D01*
X91247827Y-87997592D01*
X91248205Y-87997633D01*
X91389428Y-88015260D01*
X91390241Y-88015391D01*
X91545043Y-88045898D01*
X91546087Y-88046154D01*
X91621152Y-88068267D01*
X91710726Y-88094654D01*
X91717693Y-88100278D01*
X91719117Y-88105645D01*
X91730892Y-88708015D01*
X91740282Y-89188355D01*
X91737017Y-89196694D01*
X91728355Y-89200282D01*
X91406851Y-89193997D01*
X90645646Y-89179117D01*
X90637443Y-89175529D01*
X90634653Y-89170725D01*
X90586154Y-89006087D01*
X90585898Y-89005043D01*
X90555391Y-88850241D01*
X90555260Y-88849428D01*
X90537633Y-88708205D01*
X90537592Y-88707827D01*
X90525507Y-88576411D01*
X90511637Y-88451521D01*
X90511636Y-88451512D01*
X90511613Y-88451308D01*
X90488538Y-88328993D01*
X90448890Y-88205754D01*
X90396420Y-88100278D01*
X90385476Y-88078277D01*
X90385473Y-88078272D01*
X90385278Y-88077880D01*
X90290313Y-87941659D01*
X90290067Y-87941386D01*
X90164043Y-87801630D01*
X90161048Y-87793191D01*
X90164459Y-87785522D01*
X90325522Y-87624459D01*
X90333795Y-87621032D01*
X90341630Y-87624043D01*
G37*
%TD.AperFunction*%
%TD*%
%TA.AperFunction,Conductor*%
%TO.N,CHANNEL_SELECT_A*%
G36*
X113162842Y-74945253D02*
G01*
X113301382Y-75070143D01*
X113301656Y-75070390D01*
X113436837Y-75164376D01*
X113563869Y-75226916D01*
X113564293Y-75227048D01*
X113564295Y-75227049D01*
X113686118Y-75265037D01*
X113686123Y-75265038D01*
X113686488Y-75265152D01*
X113686866Y-75265217D01*
X113686873Y-75265219D01*
X113808196Y-75286187D01*
X113808202Y-75286188D01*
X113808429Y-75286227D01*
X113933427Y-75297285D01*
X114065113Y-75305463D01*
X114065391Y-75305484D01*
X114207172Y-75317888D01*
X114207892Y-75317975D01*
X114363608Y-75341707D01*
X114364607Y-75341904D01*
X114530373Y-75382181D01*
X114537604Y-75387464D01*
X114539283Y-75392740D01*
X114549214Y-75535865D01*
X114615087Y-76485210D01*
X114011287Y-76503440D01*
X114008929Y-76503511D01*
X113520502Y-76518258D01*
X113512129Y-76515082D01*
X113509105Y-76510426D01*
X113451125Y-76344687D01*
X113450815Y-76343648D01*
X113412070Y-76187864D01*
X113411894Y-76187025D01*
X113387412Y-76044787D01*
X113387346Y-76044358D01*
X113369561Y-75911848D01*
X113369555Y-75911809D01*
X113369546Y-75911739D01*
X113350860Y-75785198D01*
X113323696Y-75661166D01*
X113323587Y-75660851D01*
X113323585Y-75660843D01*
X113280568Y-75536261D01*
X113280567Y-75536258D01*
X113280431Y-75535865D01*
X113213443Y-75405520D01*
X113168493Y-75341904D01*
X113115312Y-75266638D01*
X113115309Y-75266635D01*
X113115111Y-75266354D01*
X112985280Y-75122843D01*
X112982271Y-75114410D01*
X112985683Y-75106722D01*
X113146735Y-74945670D01*
X113155008Y-74942243D01*
X113162842Y-74945253D01*
G37*
%TD.AperFunction*%
%TD*%
%TA.AperFunction,Conductor*%
%TO.N,CHANNEL_SELECT_A*%
G36*
X115094765Y-75920892D02*
G01*
X115102968Y-75924479D01*
X115105592Y-75928764D01*
X115188729Y-76169082D01*
X115262385Y-76380881D01*
X115328835Y-76565642D01*
X115393023Y-76732555D01*
X115393058Y-76732637D01*
X115459845Y-76890703D01*
X115459856Y-76890727D01*
X115459893Y-76890815D01*
X115534388Y-77049613D01*
X115549771Y-77079390D01*
X115604770Y-77185850D01*
X115621452Y-77218142D01*
X115726029Y-77405595D01*
X115853063Y-77621165D01*
X115946919Y-77774848D01*
X116001434Y-77864114D01*
X116002822Y-77872961D01*
X115997602Y-77880162D01*
X115918479Y-77929084D01*
X115804389Y-77999625D01*
X115795550Y-78001062D01*
X115788562Y-77996255D01*
X115638118Y-77775108D01*
X115638117Y-77775107D01*
X115637941Y-77774848D01*
X115486205Y-77596836D01*
X115485901Y-77596564D01*
X115336339Y-77462900D01*
X115336335Y-77462897D01*
X115336005Y-77462602D01*
X115183692Y-77363267D01*
X115025615Y-77289952D01*
X115025311Y-77289850D01*
X114858287Y-77233832D01*
X114858125Y-77233778D01*
X114857972Y-77233737D01*
X114857964Y-77233735D01*
X114794321Y-77216847D01*
X114677573Y-77185867D01*
X114480378Y-77137357D01*
X114480249Y-77137324D01*
X114262949Y-77079389D01*
X114262439Y-77079241D01*
X114029058Y-77005455D01*
X114022203Y-76999693D01*
X114020887Y-76994528D01*
X114011332Y-76505767D01*
X114011287Y-76503440D01*
X113999480Y-75899480D01*
X115094765Y-75920892D01*
G37*
%TD.AperFunction*%
%TD*%
%TA.AperFunction,Conductor*%
%TO.N,CHANNEL_SELECT_A*%
G36*
X104699976Y-89240522D02*
G01*
X104892686Y-89425842D01*
X104966231Y-89496567D01*
X104969819Y-89504771D01*
X104966231Y-89513433D01*
X104785923Y-89686827D01*
X104700179Y-89769283D01*
X104691840Y-89772548D01*
X104686852Y-89771322D01*
X104629327Y-89742665D01*
X104629230Y-89742617D01*
X104571083Y-89712976D01*
X104517730Y-89686907D01*
X104517726Y-89686905D01*
X104517566Y-89686827D01*
X104492002Y-89675871D01*
X104466682Y-89665020D01*
X104466676Y-89665018D01*
X104466455Y-89664923D01*
X104466225Y-89664847D01*
X104466218Y-89664844D01*
X104415835Y-89648119D01*
X104415836Y-89648119D01*
X104415525Y-89648016D01*
X104362553Y-89636858D01*
X104305312Y-89632201D01*
X104304944Y-89632216D01*
X104304943Y-89632216D01*
X104241890Y-89634785D01*
X104241883Y-89634786D01*
X104241580Y-89634798D01*
X104169130Y-89645401D01*
X104096761Y-89662204D01*
X104087927Y-89660737D01*
X104082813Y-89653833D01*
X104042902Y-89504771D01*
X104024146Y-89434719D01*
X104025317Y-89425842D01*
X104032569Y-89420354D01*
X104114758Y-89399486D01*
X104115046Y-89399417D01*
X104195641Y-89381114D01*
X104195851Y-89381069D01*
X104266043Y-89366611D01*
X104266152Y-89366589D01*
X104328815Y-89354303D01*
X104386524Y-89342572D01*
X104441924Y-89329767D01*
X104442479Y-89329613D01*
X104497552Y-89314290D01*
X104497566Y-89314286D01*
X104497705Y-89314247D01*
X104497843Y-89314200D01*
X104497854Y-89314197D01*
X104529063Y-89303657D01*
X104556557Y-89294372D01*
X104556680Y-89294323D01*
X104556693Y-89294318D01*
X104598098Y-89277740D01*
X104621169Y-89268503D01*
X104621298Y-89268444D01*
X104621307Y-89268440D01*
X104686991Y-89238321D01*
X104695940Y-89237987D01*
X104699976Y-89240522D01*
G37*
%TD.AperFunction*%
%TD*%
%TA.AperFunction,Conductor*%
%TO.N,CHANNEL_SELECT_C*%
G36*
X113261737Y-79934186D02*
G01*
X113407463Y-80066255D01*
X113407468Y-80066259D01*
X113407724Y-80066491D01*
X113549017Y-80167174D01*
X113681119Y-80236646D01*
X113807785Y-80282797D01*
X113932770Y-80313518D01*
X114059832Y-80336701D01*
X114192498Y-80360196D01*
X114192977Y-80360292D01*
X114321614Y-80388982D01*
X114334755Y-80391913D01*
X114335647Y-80392149D01*
X114490490Y-80439759D01*
X114491545Y-80440139D01*
X114656040Y-80508570D01*
X114662362Y-80514912D01*
X114663200Y-80520408D01*
X114567414Y-81599074D01*
X114563269Y-81607012D01*
X114554270Y-81609644D01*
X113480144Y-81471769D01*
X113472376Y-81467317D01*
X113470126Y-81462269D01*
X113440038Y-81297724D01*
X113439902Y-81296755D01*
X113424813Y-81142071D01*
X113424767Y-81141388D01*
X113419311Y-81000656D01*
X113419304Y-81000439D01*
X113416672Y-80869955D01*
X113416671Y-80869896D01*
X113410023Y-80746215D01*
X113392507Y-80625803D01*
X113392393Y-80625412D01*
X113357404Y-80505447D01*
X113357403Y-80505444D01*
X113357271Y-80504992D01*
X113303161Y-80392014D01*
X113297657Y-80380523D01*
X113297656Y-80380522D01*
X113297461Y-80380114D01*
X113206223Y-80247500D01*
X113196584Y-80236781D01*
X113084126Y-80111734D01*
X113081141Y-80103291D01*
X113084552Y-80095637D01*
X113245607Y-79934582D01*
X113253880Y-79931155D01*
X113261737Y-79934186D01*
G37*
%TD.AperFunction*%
%TD*%
%TA.AperFunction,Conductor*%
%TO.N,+3V3_A*%
G36*
X112968393Y-72368259D02*
G01*
X113171345Y-72456642D01*
X113354399Y-72526976D01*
X113354533Y-72527020D01*
X113354544Y-72527024D01*
X113406792Y-72544212D01*
X113514158Y-72579531D01*
X113657750Y-72619157D01*
X113792303Y-72650706D01*
X113924943Y-72679028D01*
X114062704Y-72708954D01*
X114062913Y-72709002D01*
X114132155Y-72725793D01*
X114212765Y-72745340D01*
X114213177Y-72745447D01*
X114382458Y-72793086D01*
X114382903Y-72793221D01*
X114537868Y-72843696D01*
X114571037Y-72854499D01*
X114577843Y-72860320D01*
X114579112Y-72865393D01*
X114587312Y-73284890D01*
X114600282Y-73948355D01*
X114597017Y-73956694D01*
X114588355Y-73960282D01*
X113505691Y-73939117D01*
X113497487Y-73935529D01*
X113494681Y-73930670D01*
X113444965Y-73758787D01*
X113444716Y-73757752D01*
X113412324Y-73589816D01*
X113412217Y-73589164D01*
X113391021Y-73432015D01*
X113391006Y-73431900D01*
X113372693Y-73285175D01*
X113372692Y-73285169D01*
X113372675Y-73285032D01*
X113348856Y-73148095D01*
X113311160Y-73020506D01*
X113251192Y-72901631D01*
X113160558Y-72790836D01*
X113057796Y-72708947D01*
X113031253Y-72687795D01*
X113031249Y-72687792D01*
X113030862Y-72687484D01*
X112863297Y-72596168D01*
X112857673Y-72589200D01*
X112858260Y-72581019D01*
X112915281Y-72456600D01*
X112953087Y-72374110D01*
X112959648Y-72368018D01*
X112968393Y-72368259D01*
G37*
%TD.AperFunction*%
%TD*%
%TA.AperFunction,Conductor*%
%TO.N,+3V3_A*%
G36*
X109735428Y-71813968D02*
G01*
X109793176Y-71844580D01*
X109817290Y-71857363D01*
X109817967Y-71857751D01*
X109893252Y-71904416D01*
X109893711Y-71904716D01*
X109959554Y-71949932D01*
X109959679Y-71950019D01*
X110020118Y-71992685D01*
X110020213Y-71992752D01*
X110020316Y-71992820D01*
X110079219Y-72031702D01*
X110079225Y-72031706D01*
X110079418Y-72031833D01*
X110141386Y-72066168D01*
X110141688Y-72066293D01*
X110141692Y-72066295D01*
X110169184Y-72077683D01*
X110210273Y-72094704D01*
X110261697Y-72108650D01*
X110289884Y-72116294D01*
X110289887Y-72116295D01*
X110290235Y-72116389D01*
X110385425Y-72130172D01*
X110449006Y-72132851D01*
X110488793Y-72134528D01*
X110496914Y-72138301D01*
X110500000Y-72146218D01*
X110500000Y-72373782D01*
X110496573Y-72382055D01*
X110488793Y-72385472D01*
X110455107Y-72386891D01*
X110385425Y-72389827D01*
X110290235Y-72403610D01*
X110289887Y-72403704D01*
X110289884Y-72403705D01*
X110261697Y-72411349D01*
X110210273Y-72425295D01*
X110169184Y-72442316D01*
X110141692Y-72453704D01*
X110141688Y-72453706D01*
X110141386Y-72453831D01*
X110079418Y-72488166D01*
X110079225Y-72488293D01*
X110079219Y-72488297D01*
X110020316Y-72527179D01*
X110020213Y-72527247D01*
X110020121Y-72527312D01*
X110020118Y-72527314D01*
X109959679Y-72569980D01*
X109959554Y-72570067D01*
X109893711Y-72615283D01*
X109893252Y-72615583D01*
X109817967Y-72662248D01*
X109817289Y-72662636D01*
X109791126Y-72676506D01*
X109735428Y-72706032D01*
X109726513Y-72706879D01*
X109721838Y-72704128D01*
X109497144Y-72488050D01*
X109268769Y-72268433D01*
X109265181Y-72260229D01*
X109268769Y-72251567D01*
X109409338Y-72116389D01*
X109629451Y-71904716D01*
X109721838Y-71815872D01*
X109730177Y-71812607D01*
X109735428Y-71813968D01*
G37*
%TD.AperFunction*%
%TD*%
%TA.AperFunction,Conductor*%
%TO.N,MUX_1_SIGNAL*%
G36*
X104963167Y-78338730D02*
G01*
X105005611Y-78360119D01*
X105005857Y-78360246D01*
X105049361Y-78383474D01*
X105088637Y-78404671D01*
X105125639Y-78423608D01*
X105162421Y-78440111D01*
X105162616Y-78440181D01*
X105162623Y-78440184D01*
X105200798Y-78453918D01*
X105200806Y-78453921D01*
X105201041Y-78454005D01*
X105201280Y-78454068D01*
X105201285Y-78454069D01*
X105243299Y-78465050D01*
X105243307Y-78465052D01*
X105243553Y-78465116D01*
X105243812Y-78465160D01*
X105243814Y-78465160D01*
X105291793Y-78473231D01*
X105292013Y-78473268D01*
X105292235Y-78473288D01*
X105292237Y-78473288D01*
X105300925Y-78474060D01*
X105348477Y-78478288D01*
X105348660Y-78478293D01*
X105348665Y-78478293D01*
X105403601Y-78479707D01*
X105411783Y-78483345D01*
X105415000Y-78491403D01*
X105415000Y-78718597D01*
X105411573Y-78726870D01*
X105403601Y-78730293D01*
X105348665Y-78731706D01*
X105348660Y-78731706D01*
X105348477Y-78731711D01*
X105300925Y-78735939D01*
X105292237Y-78736711D01*
X105292235Y-78736711D01*
X105292013Y-78736731D01*
X105291793Y-78736768D01*
X105243814Y-78744839D01*
X105243812Y-78744839D01*
X105243553Y-78744883D01*
X105243307Y-78744947D01*
X105243299Y-78744949D01*
X105201285Y-78755930D01*
X105201280Y-78755931D01*
X105201041Y-78755994D01*
X105200806Y-78756078D01*
X105200798Y-78756081D01*
X105162623Y-78769815D01*
X105162616Y-78769818D01*
X105162421Y-78769888D01*
X105125639Y-78786391D01*
X105088637Y-78805328D01*
X105088615Y-78805340D01*
X105088607Y-78805344D01*
X105049407Y-78826500D01*
X105049361Y-78826525D01*
X105005857Y-78849753D01*
X105005611Y-78849880D01*
X104963167Y-78871270D01*
X104954237Y-78871933D01*
X104949792Y-78869255D01*
X104863624Y-78786391D01*
X104683769Y-78613433D01*
X104680181Y-78605229D01*
X104683769Y-78596567D01*
X104793127Y-78491403D01*
X104929513Y-78360246D01*
X104949792Y-78340745D01*
X104958131Y-78337480D01*
X104963167Y-78338730D01*
G37*
%TD.AperFunction*%
%TD*%
%TA.AperFunction,Conductor*%
%TO.N,MUX_1_SIGNAL*%
G36*
X100013167Y-85428730D02*
G01*
X100055611Y-85450119D01*
X100055857Y-85450246D01*
X100099361Y-85473474D01*
X100138637Y-85494671D01*
X100175639Y-85513608D01*
X100212421Y-85530111D01*
X100212616Y-85530181D01*
X100212623Y-85530184D01*
X100250798Y-85543918D01*
X100250806Y-85543921D01*
X100251041Y-85544005D01*
X100251280Y-85544068D01*
X100251285Y-85544069D01*
X100293299Y-85555050D01*
X100293307Y-85555052D01*
X100293553Y-85555116D01*
X100293812Y-85555160D01*
X100293814Y-85555160D01*
X100341793Y-85563231D01*
X100342013Y-85563268D01*
X100342235Y-85563288D01*
X100342237Y-85563288D01*
X100350925Y-85564060D01*
X100398477Y-85568288D01*
X100398660Y-85568293D01*
X100398665Y-85568293D01*
X100453601Y-85569707D01*
X100461783Y-85573345D01*
X100465000Y-85581403D01*
X100465000Y-85808597D01*
X100461573Y-85816870D01*
X100453601Y-85820293D01*
X100398665Y-85821706D01*
X100398660Y-85821706D01*
X100398477Y-85821711D01*
X100350925Y-85825939D01*
X100342237Y-85826711D01*
X100342235Y-85826711D01*
X100342013Y-85826731D01*
X100341793Y-85826768D01*
X100293814Y-85834839D01*
X100293812Y-85834839D01*
X100293553Y-85834883D01*
X100293307Y-85834947D01*
X100293299Y-85834949D01*
X100251285Y-85845930D01*
X100251280Y-85845931D01*
X100251041Y-85845994D01*
X100250806Y-85846078D01*
X100250798Y-85846081D01*
X100212623Y-85859815D01*
X100212616Y-85859818D01*
X100212421Y-85859888D01*
X100175639Y-85876391D01*
X100138637Y-85895328D01*
X100138615Y-85895340D01*
X100138607Y-85895344D01*
X100099407Y-85916500D01*
X100099361Y-85916525D01*
X100055857Y-85939753D01*
X100055611Y-85939880D01*
X100013167Y-85961270D01*
X100004237Y-85961933D01*
X99999792Y-85959255D01*
X99913624Y-85876391D01*
X99733769Y-85703433D01*
X99730181Y-85695229D01*
X99733769Y-85686567D01*
X99843127Y-85581403D01*
X99979513Y-85450246D01*
X99999792Y-85430745D01*
X100008131Y-85427480D01*
X100013167Y-85428730D01*
G37*
%TD.AperFunction*%
%TD*%
%TA.AperFunction,Conductor*%
%TO.N,CHANNEL_SELECT_C*%
G36*
X99877386Y-72151054D02*
G01*
X100150124Y-72156386D01*
X100158327Y-72159974D01*
X100160994Y-72164387D01*
X100180558Y-72223171D01*
X100199752Y-72283434D01*
X100218054Y-72338270D01*
X100237551Y-72388617D01*
X100260333Y-72435409D01*
X100288486Y-72479583D01*
X100324098Y-72522074D01*
X100369257Y-72563817D01*
X100426051Y-72605749D01*
X100486934Y-72642922D01*
X100492208Y-72650157D01*
X100491033Y-72658644D01*
X100379785Y-72856360D01*
X100372741Y-72861890D01*
X100363726Y-72860748D01*
X100348757Y-72852082D01*
X100292386Y-72819445D01*
X100292200Y-72819335D01*
X100223471Y-72777306D01*
X100223282Y-72777188D01*
X100164399Y-72739608D01*
X100164309Y-72739550D01*
X100112186Y-72705609D01*
X100063908Y-72674611D01*
X100023636Y-72650157D01*
X100016639Y-72645908D01*
X100016628Y-72645902D01*
X100016538Y-72645847D01*
X99967097Y-72618580D01*
X99912604Y-72592071D01*
X99850081Y-72565586D01*
X99784031Y-72541153D01*
X99777460Y-72535069D01*
X99776392Y-72530409D01*
X99776224Y-72521789D01*
X99770387Y-72223236D01*
X99769172Y-72161099D01*
X99772437Y-72152760D01*
X99781099Y-72149172D01*
X99877386Y-72151054D01*
G37*
%TD.AperFunction*%
%TD*%
%TA.AperFunction,Conductor*%
%TO.N,CHANNEL_SELECT_B*%
G36*
X100013061Y-73258449D02*
G01*
X100064817Y-73282918D01*
X100116532Y-73306036D01*
X100163123Y-73325599D01*
X100163194Y-73325627D01*
X100163211Y-73325634D01*
X100206709Y-73342816D01*
X100206803Y-73342853D01*
X100249787Y-73359044D01*
X100294287Y-73375416D01*
X100342517Y-73393216D01*
X100396691Y-73413690D01*
X100458945Y-73438052D01*
X100459049Y-73438094D01*
X100520814Y-73463205D01*
X100527188Y-73469495D01*
X100527218Y-73478519D01*
X100448512Y-73668609D01*
X100440315Y-73688405D01*
X100433984Y-73694738D01*
X100425647Y-73694975D01*
X100410733Y-73689766D01*
X100378971Y-73678672D01*
X100328888Y-73668609D01*
X100328404Y-73668594D01*
X100328399Y-73668593D01*
X100299162Y-73667661D01*
X100284372Y-73667190D01*
X100283852Y-73667267D01*
X100244430Y-73673103D01*
X100244425Y-73673104D01*
X100243960Y-73673173D01*
X100218386Y-73681396D01*
X100206543Y-73685203D01*
X100206540Y-73685204D01*
X100206189Y-73685317D01*
X100205863Y-73685469D01*
X100205858Y-73685471D01*
X100187294Y-73694128D01*
X100169598Y-73702380D01*
X100169415Y-73702483D01*
X100169409Y-73702486D01*
X100155408Y-73710362D01*
X100132722Y-73723122D01*
X100132637Y-73723173D01*
X100132625Y-73723180D01*
X100094137Y-73746277D01*
X100094007Y-73746354D01*
X100052499Y-73770539D01*
X100052032Y-73770797D01*
X100013228Y-73791096D01*
X100004309Y-73791895D01*
X99999695Y-73789162D01*
X99980469Y-73770673D01*
X99733769Y-73533433D01*
X99730181Y-73525229D01*
X99733769Y-73516567D01*
X99815431Y-73438037D01*
X99999950Y-73260593D01*
X100008289Y-73257328D01*
X100013061Y-73258449D01*
G37*
%TD.AperFunction*%
%TD*%
%TA.AperFunction,Conductor*%
%TO.N,S_C_MOD*%
G36*
X104699948Y-77070495D02*
G01*
X104966231Y-77326567D01*
X104969819Y-77334771D01*
X104966231Y-77343433D01*
X104700185Y-77599278D01*
X104691847Y-77602542D01*
X104686849Y-77601311D01*
X104627725Y-77571779D01*
X104567990Y-77541143D01*
X104512844Y-77514013D01*
X104460100Y-77491310D01*
X104407573Y-77473957D01*
X104407234Y-77473888D01*
X104407230Y-77473887D01*
X104382142Y-77468786D01*
X104353078Y-77462877D01*
X104294428Y-77458991D01*
X104294044Y-77459016D01*
X104294040Y-77459016D01*
X104262342Y-77461079D01*
X104229437Y-77463220D01*
X104229108Y-77463279D01*
X104229103Y-77463280D01*
X104197627Y-77468961D01*
X104155921Y-77476488D01*
X104082565Y-77496719D01*
X104073679Y-77495615D01*
X104068299Y-77488964D01*
X104000009Y-77272680D01*
X104000786Y-77263759D01*
X104007845Y-77257938D01*
X104092439Y-77232900D01*
X104092859Y-77232784D01*
X104175578Y-77211610D01*
X104175960Y-77211519D01*
X104248380Y-77195551D01*
X104248647Y-77195496D01*
X104267171Y-77191862D01*
X104313522Y-77182770D01*
X104373582Y-77171324D01*
X104373610Y-77171318D01*
X104373621Y-77171316D01*
X104389724Y-77167945D01*
X104431382Y-77159224D01*
X104463334Y-77151152D01*
X104489501Y-77144541D01*
X104489506Y-77144540D01*
X104489635Y-77144507D01*
X104551052Y-77125207D01*
X104551208Y-77125147D01*
X104551214Y-77125145D01*
X104570855Y-77117601D01*
X104618348Y-77099360D01*
X104687012Y-77068270D01*
X104695962Y-77067979D01*
X104699948Y-77070495D01*
G37*
%TD.AperFunction*%
%TD*%
%TA.AperFunction,Conductor*%
%TO.N,S_C_MOD*%
G36*
X103919769Y-77292328D02*
G01*
X103925946Y-77298728D01*
X103997628Y-77479449D01*
X104009795Y-77510125D01*
X104009660Y-77519079D01*
X104003949Y-77525002D01*
X103972555Y-77539948D01*
X103941304Y-77554825D01*
X103941300Y-77554827D01*
X103940868Y-77555033D01*
X103885802Y-77593493D01*
X103845604Y-77635724D01*
X103817249Y-77681774D01*
X103797711Y-77731688D01*
X103783962Y-77785514D01*
X103783930Y-77785684D01*
X103772979Y-77843285D01*
X103772977Y-77843298D01*
X103772963Y-77843375D01*
X103761769Y-77904875D01*
X103761683Y-77905302D01*
X103747285Y-77970522D01*
X103747072Y-77971342D01*
X103728787Y-78032681D01*
X103723140Y-78039631D01*
X103717804Y-78041037D01*
X103681496Y-78041747D01*
X103219244Y-78050783D01*
X103210905Y-78047518D01*
X103207317Y-78038856D01*
X103217070Y-77539948D01*
X103220658Y-77531744D01*
X103224986Y-77529105D01*
X103300677Y-77503248D01*
X103300791Y-77503210D01*
X103372711Y-77479466D01*
X103372803Y-77479436D01*
X103436542Y-77458975D01*
X103436586Y-77458961D01*
X103495380Y-77440344D01*
X103552344Y-77422169D01*
X103552377Y-77422158D01*
X103552390Y-77422154D01*
X103610676Y-77403007D01*
X103673574Y-77381429D01*
X103744238Y-77356007D01*
X103744302Y-77355983D01*
X103825831Y-77325323D01*
X103825865Y-77325310D01*
X103910816Y-77292144D01*
X103919769Y-77292328D01*
G37*
%TD.AperFunction*%
%TD*%
%TA.AperFunction,Conductor*%
%TO.N,P_S_MOD*%
G36*
X101295103Y-79203126D02*
G01*
X101654631Y-79548867D01*
X101658219Y-79557071D01*
X101654631Y-79565733D01*
X101295103Y-79911474D01*
X101286765Y-79914739D01*
X101281591Y-79913419D01*
X101219394Y-79881036D01*
X101218865Y-79880743D01*
X101210139Y-79875611D01*
X101159461Y-79845803D01*
X101159185Y-79845633D01*
X101106590Y-79812418D01*
X101106588Y-79812415D01*
X101106587Y-79812416D01*
X101057837Y-79781610D01*
X101057827Y-79781604D01*
X101057759Y-79781561D01*
X101009752Y-79753776D01*
X101009550Y-79753679D01*
X101009544Y-79753676D01*
X100959739Y-79729806D01*
X100959464Y-79729674D01*
X100903789Y-79709864D01*
X100877957Y-79703863D01*
X100839924Y-79695028D01*
X100839921Y-79695028D01*
X100839622Y-79694958D01*
X100839313Y-79694920D01*
X100839309Y-79694919D01*
X100795286Y-79689462D01*
X100763861Y-79685566D01*
X100708270Y-79683559D01*
X100684678Y-79682707D01*
X100676534Y-79678984D01*
X100673400Y-79671015D01*
X100673400Y-79443585D01*
X100676827Y-79435312D01*
X100684678Y-79431893D01*
X100717612Y-79430703D01*
X100763861Y-79429033D01*
X100795286Y-79425137D01*
X100839309Y-79419680D01*
X100839313Y-79419679D01*
X100839622Y-79419641D01*
X100839921Y-79419571D01*
X100839924Y-79419571D01*
X100903470Y-79404809D01*
X100903468Y-79404809D01*
X100903789Y-79404735D01*
X100959464Y-79384925D01*
X100979166Y-79375482D01*
X101009544Y-79360923D01*
X101009550Y-79360920D01*
X101009752Y-79360823D01*
X101057759Y-79333038D01*
X101106587Y-79302183D01*
X101159185Y-79268966D01*
X101159461Y-79268796D01*
X101218865Y-79233856D01*
X101219394Y-79233563D01*
X101227279Y-79229458D01*
X101281591Y-79201181D01*
X101290511Y-79200400D01*
X101295103Y-79203126D01*
G37*
%TD.AperFunction*%
%TD*%
%TA.AperFunction,Conductor*%
%TO.N,P_D_MOD*%
G36*
X99750208Y-78340745D02*
G01*
X99770487Y-78360246D01*
X99906874Y-78491403D01*
X100016231Y-78596567D01*
X100019819Y-78604771D01*
X100016231Y-78613433D01*
X99836376Y-78786391D01*
X99750208Y-78869255D01*
X99741869Y-78872520D01*
X99736833Y-78871270D01*
X99694388Y-78849880D01*
X99694142Y-78849753D01*
X99650638Y-78826525D01*
X99650592Y-78826500D01*
X99611392Y-78805344D01*
X99611384Y-78805340D01*
X99611362Y-78805328D01*
X99574360Y-78786391D01*
X99537578Y-78769888D01*
X99537383Y-78769818D01*
X99537376Y-78769815D01*
X99499201Y-78756081D01*
X99499193Y-78756078D01*
X99498958Y-78755994D01*
X99498719Y-78755931D01*
X99498714Y-78755930D01*
X99456700Y-78744949D01*
X99456692Y-78744947D01*
X99456446Y-78744883D01*
X99456187Y-78744839D01*
X99456185Y-78744839D01*
X99408206Y-78736768D01*
X99407986Y-78736731D01*
X99407764Y-78736711D01*
X99407762Y-78736711D01*
X99399074Y-78735939D01*
X99351522Y-78731711D01*
X99351339Y-78731706D01*
X99351334Y-78731706D01*
X99296399Y-78730293D01*
X99288217Y-78726655D01*
X99285000Y-78718597D01*
X99285000Y-78491403D01*
X99288427Y-78483130D01*
X99296399Y-78479707D01*
X99351334Y-78478293D01*
X99351339Y-78478293D01*
X99351522Y-78478288D01*
X99399074Y-78474060D01*
X99407762Y-78473288D01*
X99407764Y-78473288D01*
X99407986Y-78473268D01*
X99408206Y-78473231D01*
X99456185Y-78465160D01*
X99456187Y-78465160D01*
X99456446Y-78465116D01*
X99456692Y-78465052D01*
X99456700Y-78465050D01*
X99498714Y-78454069D01*
X99498719Y-78454068D01*
X99498958Y-78454005D01*
X99499193Y-78453921D01*
X99499201Y-78453918D01*
X99537376Y-78440184D01*
X99537383Y-78440181D01*
X99537578Y-78440111D01*
X99574360Y-78423608D01*
X99611362Y-78404671D01*
X99650638Y-78383474D01*
X99694142Y-78360246D01*
X99694388Y-78360119D01*
X99736833Y-78338730D01*
X99745763Y-78338067D01*
X99750208Y-78340745D01*
G37*
%TD.AperFunction*%
%TD*%
%TA.AperFunction,Conductor*%
%TO.N,ATTACK*%
G36*
X99750208Y-84160745D02*
G01*
X99770487Y-84180246D01*
X99906874Y-84311403D01*
X100016231Y-84416567D01*
X100019819Y-84424771D01*
X100016231Y-84433433D01*
X99836376Y-84606391D01*
X99750208Y-84689255D01*
X99741869Y-84692520D01*
X99736833Y-84691270D01*
X99694388Y-84669880D01*
X99694142Y-84669753D01*
X99650638Y-84646525D01*
X99650592Y-84646500D01*
X99611392Y-84625344D01*
X99611384Y-84625340D01*
X99611362Y-84625328D01*
X99574360Y-84606391D01*
X99537578Y-84589888D01*
X99537383Y-84589818D01*
X99537376Y-84589815D01*
X99499201Y-84576081D01*
X99499193Y-84576078D01*
X99498958Y-84575994D01*
X99498719Y-84575931D01*
X99498714Y-84575930D01*
X99456700Y-84564949D01*
X99456692Y-84564947D01*
X99456446Y-84564883D01*
X99456187Y-84564839D01*
X99456185Y-84564839D01*
X99408206Y-84556768D01*
X99407986Y-84556731D01*
X99407764Y-84556711D01*
X99407762Y-84556711D01*
X99399074Y-84555939D01*
X99351522Y-84551711D01*
X99351339Y-84551706D01*
X99351334Y-84551706D01*
X99296399Y-84550293D01*
X99288217Y-84546655D01*
X99285000Y-84538597D01*
X99285000Y-84311403D01*
X99288427Y-84303130D01*
X99296399Y-84299707D01*
X99351334Y-84298293D01*
X99351339Y-84298293D01*
X99351522Y-84298288D01*
X99399074Y-84294060D01*
X99407762Y-84293288D01*
X99407764Y-84293288D01*
X99407986Y-84293268D01*
X99408206Y-84293231D01*
X99456185Y-84285160D01*
X99456187Y-84285160D01*
X99456446Y-84285116D01*
X99456692Y-84285052D01*
X99456700Y-84285050D01*
X99498714Y-84274069D01*
X99498719Y-84274068D01*
X99498958Y-84274005D01*
X99499193Y-84273921D01*
X99499201Y-84273918D01*
X99537376Y-84260184D01*
X99537383Y-84260181D01*
X99537578Y-84260111D01*
X99574360Y-84243608D01*
X99611362Y-84224671D01*
X99650638Y-84203474D01*
X99694142Y-84180246D01*
X99694388Y-84180119D01*
X99736833Y-84158730D01*
X99745763Y-84158067D01*
X99750208Y-84160745D01*
G37*
%TD.AperFunction*%
%TD*%
%TA.AperFunction,Conductor*%
%TO.N,DRIFT*%
G36*
X104963167Y-86698730D02*
G01*
X105005611Y-86720119D01*
X105005857Y-86720246D01*
X105049361Y-86743474D01*
X105088637Y-86764671D01*
X105125639Y-86783608D01*
X105162421Y-86800111D01*
X105162616Y-86800181D01*
X105162623Y-86800184D01*
X105200798Y-86813918D01*
X105200806Y-86813921D01*
X105201041Y-86814005D01*
X105201280Y-86814068D01*
X105201285Y-86814069D01*
X105243299Y-86825050D01*
X105243307Y-86825052D01*
X105243553Y-86825116D01*
X105243812Y-86825160D01*
X105243814Y-86825160D01*
X105291793Y-86833231D01*
X105292013Y-86833268D01*
X105292235Y-86833288D01*
X105292237Y-86833288D01*
X105300925Y-86834060D01*
X105348477Y-86838288D01*
X105348660Y-86838293D01*
X105348665Y-86838293D01*
X105403601Y-86839707D01*
X105411783Y-86843345D01*
X105415000Y-86851403D01*
X105415000Y-87078597D01*
X105411573Y-87086870D01*
X105403601Y-87090293D01*
X105348665Y-87091706D01*
X105348660Y-87091706D01*
X105348477Y-87091711D01*
X105300925Y-87095939D01*
X105292237Y-87096711D01*
X105292235Y-87096711D01*
X105292013Y-87096731D01*
X105291793Y-87096768D01*
X105243814Y-87104839D01*
X105243812Y-87104839D01*
X105243553Y-87104883D01*
X105243307Y-87104947D01*
X105243299Y-87104949D01*
X105201285Y-87115930D01*
X105201280Y-87115931D01*
X105201041Y-87115994D01*
X105200806Y-87116078D01*
X105200798Y-87116081D01*
X105162623Y-87129815D01*
X105162616Y-87129818D01*
X105162421Y-87129888D01*
X105125639Y-87146391D01*
X105088637Y-87165328D01*
X105088615Y-87165340D01*
X105088607Y-87165344D01*
X105049407Y-87186500D01*
X105049361Y-87186525D01*
X105005857Y-87209753D01*
X105005611Y-87209880D01*
X104963167Y-87231270D01*
X104954237Y-87231933D01*
X104949792Y-87229255D01*
X104863624Y-87146391D01*
X104683769Y-86973433D01*
X104680181Y-86965229D01*
X104683769Y-86956567D01*
X104793127Y-86851403D01*
X104929513Y-86720246D01*
X104949792Y-86700745D01*
X104958131Y-86697480D01*
X104963167Y-86698730D01*
G37*
%TD.AperFunction*%
%TD*%
%TA.AperFunction,Conductor*%
%TO.N,+3V3_A*%
G36*
X109160060Y-81765943D02*
G01*
X109166132Y-81772015D01*
X109381008Y-82266855D01*
X109381160Y-82275808D01*
X109377520Y-82280703D01*
X109371824Y-82285194D01*
X109358186Y-82298385D01*
X109344204Y-82314682D01*
X109330399Y-82334074D01*
X109317289Y-82356546D01*
X109305396Y-82382085D01*
X109295241Y-82410680D01*
X109287342Y-82442315D01*
X109282222Y-82476979D01*
X109282208Y-82477262D01*
X109282208Y-82477265D01*
X109280938Y-82503524D01*
X109277116Y-82511622D01*
X109269252Y-82514659D01*
X109041547Y-82514659D01*
X109033274Y-82511232D01*
X109029861Y-82503524D01*
X109028591Y-82477265D01*
X109028591Y-82477262D01*
X109028577Y-82476979D01*
X109023457Y-82442315D01*
X109015558Y-82410680D01*
X109005403Y-82382085D01*
X108993510Y-82356546D01*
X108980400Y-82334074D01*
X108966595Y-82314682D01*
X108952613Y-82298385D01*
X108938975Y-82285194D01*
X108933280Y-82280703D01*
X108928905Y-82272891D01*
X108929792Y-82266856D01*
X109144668Y-81772015D01*
X109151107Y-81765791D01*
X109160060Y-81765943D01*
G37*
%TD.AperFunction*%
%TD*%
%TA.AperFunction,Conductor*%
%TO.N,+3V3_A*%
G36*
X104700238Y-82890773D02*
G01*
X104975000Y-83155000D01*
X104866433Y-83259404D01*
X104833437Y-83291135D01*
X104700011Y-83419444D01*
X104691672Y-83422709D01*
X104686966Y-83421619D01*
X104628998Y-83394651D01*
X104628972Y-83394639D01*
X104628900Y-83394606D01*
X104628823Y-83394573D01*
X104628797Y-83394562D01*
X104571495Y-83370380D01*
X104571477Y-83370373D01*
X104571366Y-83370326D01*
X104567515Y-83368881D01*
X104519295Y-83350781D01*
X104519275Y-83350774D01*
X104519203Y-83350747D01*
X104469980Y-83334451D01*
X104469875Y-83334420D01*
X104469850Y-83334412D01*
X104433183Y-83323553D01*
X104421270Y-83320025D01*
X104370643Y-83306052D01*
X104315728Y-83291135D01*
X104315637Y-83291110D01*
X104254017Y-83273836D01*
X104253840Y-83273785D01*
X104183053Y-83252732D01*
X104182837Y-83252665D01*
X104111640Y-83229985D01*
X104104797Y-83224209D01*
X104104078Y-83215177D01*
X104118573Y-83171169D01*
X104175087Y-82999584D01*
X104180930Y-82992798D01*
X104189368Y-82991981D01*
X104248139Y-83008513D01*
X104248144Y-83008514D01*
X104248435Y-83008596D01*
X104248737Y-83008647D01*
X104248742Y-83008648D01*
X104277400Y-83013476D01*
X104309314Y-83018852D01*
X104363065Y-83020733D01*
X104363489Y-83020685D01*
X104363492Y-83020685D01*
X104411115Y-83015307D01*
X104411120Y-83015306D01*
X104411528Y-83015260D01*
X104411924Y-83015156D01*
X104411930Y-83015155D01*
X104456198Y-83003539D01*
X104456541Y-83003449D01*
X104499944Y-82986321D01*
X104543575Y-82964893D01*
X104543668Y-82964843D01*
X104543689Y-82964832D01*
X104573844Y-82948527D01*
X104589274Y-82940185D01*
X104638757Y-82913282D01*
X104639030Y-82913138D01*
X104686814Y-82888782D01*
X104695741Y-82888078D01*
X104700238Y-82890773D01*
G37*
%TD.AperFunction*%
%TD*%
%TA.AperFunction,Conductor*%
%TO.N,GND*%
G36*
X95404316Y-88264578D02*
G01*
X95423674Y-88267127D01*
X95423678Y-88267127D01*
X95431205Y-88268118D01*
X95438751Y-88267285D01*
X95438759Y-88267285D01*
X95448928Y-88266162D01*
X95470993Y-88265671D01*
X95623257Y-88275651D01*
X95639597Y-88277802D01*
X95813697Y-88312432D01*
X95829617Y-88316698D01*
X95997707Y-88373757D01*
X96012932Y-88380063D01*
X96067123Y-88406787D01*
X96172135Y-88458573D01*
X96186409Y-88466814D01*
X96334005Y-88565435D01*
X96347080Y-88575468D01*
X96453668Y-88668942D01*
X96468860Y-88685335D01*
X96468943Y-88685264D01*
X96470816Y-88687445D01*
X96471349Y-88688020D01*
X96474107Y-88691694D01*
X96478575Y-88696256D01*
X96478756Y-88696492D01*
X96478988Y-88696678D01*
X96483458Y-88701242D01*
X96494674Y-88710036D01*
X96501519Y-88715809D01*
X96684628Y-88881772D01*
X96901678Y-89042746D01*
X97133460Y-89181672D01*
X97136238Y-89182986D01*
X97136242Y-89182988D01*
X97202749Y-89214443D01*
X97377744Y-89297209D01*
X97514886Y-89346279D01*
X97629271Y-89387207D01*
X97629279Y-89387209D01*
X97632176Y-89388246D01*
X97762108Y-89420793D01*
X97891302Y-89453155D01*
X97891306Y-89453156D01*
X97894305Y-89453907D01*
X97897367Y-89454361D01*
X97897371Y-89454362D01*
X98158548Y-89493103D01*
X98161609Y-89493557D01*
X98164695Y-89493709D01*
X98164699Y-89493709D01*
X98272184Y-89498990D01*
X98339241Y-89522311D01*
X98383045Y-89578183D01*
X98392001Y-89624838D01*
X98392001Y-89718983D01*
X98392195Y-89723920D01*
X98394430Y-89752336D01*
X98396730Y-89764931D01*
X98439107Y-89910790D01*
X98445352Y-89925221D01*
X98521912Y-90054678D01*
X98528189Y-90062770D01*
X98554139Y-90128854D01*
X98540241Y-90198477D01*
X98528189Y-90217230D01*
X98521912Y-90225322D01*
X98445352Y-90354779D01*
X98439107Y-90369210D01*
X98400061Y-90503605D01*
X98400101Y-90517706D01*
X98407370Y-90521000D01*
X99602885Y-90521000D01*
X99618124Y-90516525D01*
X99619329Y-90515135D01*
X99621000Y-90507452D01*
X99621000Y-89629500D01*
X99641002Y-89561379D01*
X99694658Y-89514886D01*
X99747000Y-89503500D01*
X100003000Y-89503500D01*
X100071121Y-89523502D01*
X100117614Y-89577158D01*
X100129000Y-89629500D01*
X100129000Y-90502885D01*
X100133475Y-90518124D01*
X100134865Y-90519329D01*
X100142548Y-90521000D01*
X101336878Y-90521000D01*
X101350409Y-90517027D01*
X101351544Y-90509129D01*
X101310893Y-90369210D01*
X101304648Y-90354779D01*
X101228088Y-90225322D01*
X101221811Y-90217230D01*
X101195861Y-90151146D01*
X101209759Y-90081523D01*
X101221811Y-90062770D01*
X101228088Y-90054678D01*
X101304648Y-89925221D01*
X101310893Y-89910790D01*
X101353269Y-89764935D01*
X101355570Y-89752333D01*
X101357807Y-89723915D01*
X101358000Y-89718987D01*
X101358000Y-89629500D01*
X101378002Y-89561379D01*
X101431658Y-89514886D01*
X101484000Y-89503500D01*
X102682419Y-89503500D01*
X102750540Y-89523502D01*
X102797033Y-89577158D01*
X102807137Y-89647432D01*
X102776370Y-89713459D01*
X102683149Y-89817774D01*
X102519371Y-90048597D01*
X102464010Y-90148766D01*
X102388967Y-90284546D01*
X102382467Y-90296306D01*
X102381115Y-90299569D01*
X102381113Y-90299574D01*
X102352269Y-90369210D01*
X102274158Y-90557786D01*
X102195807Y-90829749D01*
X102148399Y-91108774D01*
X102137172Y-91308706D01*
X102135634Y-91308620D01*
X102135968Y-91311322D01*
X102136500Y-91311322D01*
X102136500Y-91319253D01*
X102136424Y-91319855D01*
X102136302Y-91324192D01*
X102134425Y-91357615D01*
X102133368Y-91368289D01*
X102131987Y-91377988D01*
X102131847Y-91391352D01*
X102132342Y-91395442D01*
X102132342Y-91395443D01*
X102135587Y-91422256D01*
X102136500Y-91437394D01*
X102136500Y-91929105D01*
X102135243Y-91946859D01*
X102131987Y-91969736D01*
X102131847Y-91983100D01*
X102134013Y-92001003D01*
X102134726Y-92009055D01*
X102146181Y-92213034D01*
X102184757Y-92440076D01*
X102248511Y-92661372D01*
X102285598Y-92750908D01*
X102335210Y-92870680D01*
X102336642Y-92874138D01*
X102448041Y-93075699D01*
X102581307Y-93263519D01*
X102583652Y-93266143D01*
X102706517Y-93403629D01*
X102713327Y-93411937D01*
X102724406Y-93426693D01*
X102733757Y-93436242D01*
X102747965Y-93447383D01*
X102754164Y-93452574D01*
X102818360Y-93509943D01*
X102883141Y-93567835D01*
X102920606Y-93628142D01*
X102919520Y-93699130D01*
X102880227Y-93758262D01*
X102815202Y-93786763D01*
X102799181Y-93787786D01*
X89075114Y-93787786D01*
X89055729Y-93786286D01*
X89055447Y-93786242D01*
X89052903Y-93785846D01*
X89040927Y-93783981D01*
X89040925Y-93783981D01*
X89032056Y-93782600D01*
X89023154Y-93783764D01*
X89023152Y-93783764D01*
X89016827Y-93784591D01*
X88991504Y-93785334D01*
X88822443Y-93773243D01*
X88804649Y-93770685D01*
X88747541Y-93758262D01*
X88614246Y-93729265D01*
X88596998Y-93724200D01*
X88414428Y-93656104D01*
X88398076Y-93648637D01*
X88288295Y-93588693D01*
X88227052Y-93555252D01*
X88211938Y-93545538D01*
X88055945Y-93428763D01*
X88042358Y-93416990D01*
X87904582Y-93279214D01*
X87892809Y-93265628D01*
X87801625Y-93143820D01*
X87776034Y-93109634D01*
X87766317Y-93094515D01*
X87754357Y-93072610D01*
X87676131Y-92929349D01*
X87661040Y-92859974D01*
X87685851Y-92793454D01*
X87742687Y-92750908D01*
X87813503Y-92745844D01*
X87830949Y-92750982D01*
X87939684Y-92791745D01*
X88001866Y-92798500D01*
X89798134Y-92798500D01*
X89860316Y-92791745D01*
X89996705Y-92740615D01*
X90113261Y-92653261D01*
X90200615Y-92536705D01*
X90232823Y-92450790D01*
X90244598Y-92419382D01*
X90287240Y-92362618D01*
X90353802Y-92337918D01*
X90423150Y-92353126D01*
X90457817Y-92381114D01*
X90486250Y-92413938D01*
X90658126Y-92556632D01*
X90851000Y-92669338D01*
X91059692Y-92749030D01*
X91064760Y-92750061D01*
X91064763Y-92750062D01*
X91145559Y-92766500D01*
X91278597Y-92793567D01*
X91283772Y-92793757D01*
X91283774Y-92793757D01*
X91496673Y-92801564D01*
X91496677Y-92801564D01*
X91501837Y-92801753D01*
X91506957Y-92801097D01*
X91506959Y-92801097D01*
X91718288Y-92774025D01*
X91718289Y-92774025D01*
X91723416Y-92773368D01*
X91798032Y-92750982D01*
X91932429Y-92710661D01*
X91932434Y-92710659D01*
X91937384Y-92709174D01*
X92137994Y-92610896D01*
X92319860Y-92481173D01*
X92350350Y-92450790D01*
X92474435Y-92327137D01*
X92478096Y-92323489D01*
X92488993Y-92308325D01*
X92608453Y-92142077D01*
X92609776Y-92143028D01*
X92656645Y-92099857D01*
X92726580Y-92087625D01*
X92792026Y-92115144D01*
X92819875Y-92146994D01*
X92879987Y-92245088D01*
X93026250Y-92413938D01*
X93198126Y-92556632D01*
X93391000Y-92669338D01*
X93599692Y-92749030D01*
X93604760Y-92750061D01*
X93604763Y-92750062D01*
X93685559Y-92766500D01*
X93818597Y-92793567D01*
X93823772Y-92793757D01*
X93823774Y-92793757D01*
X94036673Y-92801564D01*
X94036677Y-92801564D01*
X94041837Y-92801753D01*
X94046957Y-92801097D01*
X94046959Y-92801097D01*
X94258288Y-92774025D01*
X94258289Y-92774025D01*
X94263416Y-92773368D01*
X94338032Y-92750982D01*
X94472429Y-92710661D01*
X94472434Y-92710659D01*
X94477384Y-92709174D01*
X94677994Y-92610896D01*
X94859860Y-92481173D01*
X94890350Y-92450790D01*
X95014435Y-92327137D01*
X95018096Y-92323489D01*
X95027163Y-92310871D01*
X98398456Y-92310871D01*
X98439107Y-92450790D01*
X98445352Y-92465221D01*
X98521911Y-92594678D01*
X98531551Y-92607104D01*
X98637896Y-92713449D01*
X98650322Y-92723089D01*
X98779779Y-92799648D01*
X98794210Y-92805893D01*
X98940065Y-92848269D01*
X98952667Y-92850570D01*
X98981084Y-92852807D01*
X98986014Y-92853000D01*
X99602885Y-92853000D01*
X99618124Y-92848525D01*
X99619329Y-92847135D01*
X99621000Y-92839452D01*
X99621000Y-92834884D01*
X100129000Y-92834884D01*
X100133475Y-92850123D01*
X100134865Y-92851328D01*
X100142548Y-92852999D01*
X100763984Y-92852999D01*
X100768920Y-92852805D01*
X100797336Y-92850570D01*
X100809931Y-92848270D01*
X100955790Y-92805893D01*
X100970221Y-92799648D01*
X101099678Y-92723089D01*
X101112104Y-92713449D01*
X101218449Y-92607104D01*
X101228089Y-92594678D01*
X101304648Y-92465221D01*
X101310893Y-92450790D01*
X101349939Y-92316395D01*
X101349899Y-92302294D01*
X101342630Y-92299000D01*
X100147115Y-92299000D01*
X100131876Y-92303475D01*
X100130671Y-92304865D01*
X100129000Y-92312548D01*
X100129000Y-92834884D01*
X99621000Y-92834884D01*
X99621000Y-92317115D01*
X99616525Y-92301876D01*
X99615135Y-92300671D01*
X99607452Y-92299000D01*
X98413122Y-92299000D01*
X98399591Y-92302973D01*
X98398456Y-92310871D01*
X95027163Y-92310871D01*
X95028993Y-92308325D01*
X95145435Y-92146277D01*
X95148453Y-92142077D01*
X95169320Y-92099857D01*
X95245136Y-91946453D01*
X95245137Y-91946451D01*
X95247430Y-91941811D01*
X95312370Y-91728069D01*
X95341529Y-91506590D01*
X95341804Y-91495322D01*
X95343074Y-91443365D01*
X95343074Y-91443361D01*
X95343156Y-91440000D01*
X95324852Y-91217361D01*
X95280521Y-91040871D01*
X98398456Y-91040871D01*
X98439107Y-91180790D01*
X98445352Y-91195221D01*
X98521912Y-91324678D01*
X98528189Y-91332770D01*
X98554139Y-91398854D01*
X98540241Y-91468477D01*
X98528189Y-91487230D01*
X98521912Y-91495322D01*
X98445352Y-91624779D01*
X98439107Y-91639210D01*
X98400061Y-91773605D01*
X98400101Y-91787706D01*
X98407370Y-91791000D01*
X99602885Y-91791000D01*
X99618124Y-91786525D01*
X99619329Y-91785135D01*
X99621000Y-91777452D01*
X99621000Y-91772885D01*
X100129000Y-91772885D01*
X100133475Y-91788124D01*
X100134865Y-91789329D01*
X100142548Y-91791000D01*
X101336878Y-91791000D01*
X101350409Y-91787027D01*
X101351544Y-91779129D01*
X101310893Y-91639210D01*
X101304648Y-91624779D01*
X101228088Y-91495322D01*
X101221811Y-91487230D01*
X101195861Y-91421146D01*
X101209759Y-91351523D01*
X101221811Y-91332770D01*
X101228088Y-91324678D01*
X101304648Y-91195221D01*
X101310893Y-91180790D01*
X101349939Y-91046395D01*
X101349899Y-91032294D01*
X101342630Y-91029000D01*
X100147115Y-91029000D01*
X100131876Y-91033475D01*
X100130671Y-91034865D01*
X100129000Y-91042548D01*
X100129000Y-91772885D01*
X99621000Y-91772885D01*
X99621000Y-91047115D01*
X99616525Y-91031876D01*
X99615135Y-91030671D01*
X99607452Y-91029000D01*
X98413122Y-91029000D01*
X98399591Y-91032973D01*
X98398456Y-91040871D01*
X95280521Y-91040871D01*
X95270431Y-91000702D01*
X95181354Y-90795840D01*
X95060014Y-90608277D01*
X94909670Y-90443051D01*
X94905619Y-90439852D01*
X94905615Y-90439848D01*
X94738414Y-90307800D01*
X94738410Y-90307798D01*
X94734359Y-90304598D01*
X94693053Y-90281796D01*
X94643084Y-90231364D01*
X94628312Y-90161921D01*
X94653428Y-90095516D01*
X94680780Y-90068909D01*
X94724603Y-90037650D01*
X94859860Y-89941173D01*
X94890350Y-89910790D01*
X95014435Y-89787137D01*
X95018096Y-89783489D01*
X95035815Y-89758831D01*
X95145435Y-89606277D01*
X95148453Y-89602077D01*
X95151169Y-89596583D01*
X95245136Y-89406453D01*
X95245137Y-89406451D01*
X95247430Y-89401811D01*
X95301956Y-89222346D01*
X95310865Y-89193023D01*
X95310865Y-89193021D01*
X95312370Y-89188069D01*
X95341529Y-88966590D01*
X95341812Y-88955022D01*
X95343074Y-88903365D01*
X95343074Y-88903361D01*
X95343156Y-88900000D01*
X95324852Y-88677361D01*
X95272556Y-88469162D01*
X95271690Y-88465714D01*
X95271690Y-88465713D01*
X95270431Y-88460702D01*
X95261318Y-88439743D01*
X95252497Y-88369297D01*
X95283163Y-88305265D01*
X95343579Y-88267977D01*
X95376867Y-88263500D01*
X95387870Y-88263500D01*
X95404316Y-88264578D01*
G37*
%TD.AperFunction*%
%TA.AperFunction,Conductor*%
G36*
X112915869Y-88361812D02*
G01*
X112974006Y-88402563D01*
X113000882Y-88468276D01*
X112996962Y-88514857D01*
X112960989Y-88644570D01*
X112937251Y-88866695D01*
X112937548Y-88871848D01*
X112937548Y-88871851D01*
X112947382Y-89042395D01*
X112950110Y-89089715D01*
X112951247Y-89094761D01*
X112951248Y-89094767D01*
X112970477Y-89180089D01*
X112999222Y-89307639D01*
X113035451Y-89396860D01*
X113080642Y-89508153D01*
X113083266Y-89514616D01*
X113128605Y-89588602D01*
X113197291Y-89700688D01*
X113199987Y-89705088D01*
X113346250Y-89873938D01*
X113518126Y-90016632D01*
X113567908Y-90045722D01*
X113591955Y-90059774D01*
X113640679Y-90111412D01*
X113653750Y-90181195D01*
X113627019Y-90246967D01*
X113586562Y-90280327D01*
X113578457Y-90284546D01*
X113569738Y-90290036D01*
X113399433Y-90417905D01*
X113391726Y-90424748D01*
X113244590Y-90578717D01*
X113238104Y-90586727D01*
X113118098Y-90762649D01*
X113113000Y-90771623D01*
X113023338Y-90964783D01*
X113019775Y-90974470D01*
X112964389Y-91174183D01*
X112965912Y-91182607D01*
X112978292Y-91186000D01*
X114428000Y-91186000D01*
X114496121Y-91206002D01*
X114542614Y-91259658D01*
X114554000Y-91312000D01*
X114554000Y-91568000D01*
X114533998Y-91636121D01*
X114480342Y-91682614D01*
X114428000Y-91694000D01*
X112983225Y-91694000D01*
X112969694Y-91697973D01*
X112968257Y-91707966D01*
X112998565Y-91842446D01*
X113001645Y-91852275D01*
X113081770Y-92049603D01*
X113086413Y-92058794D01*
X113197694Y-92240388D01*
X113203777Y-92248699D01*
X113343213Y-92409667D01*
X113350580Y-92416883D01*
X113503159Y-92543556D01*
X113542794Y-92602459D01*
X113544292Y-92673439D01*
X113507177Y-92733962D01*
X113443233Y-92764811D01*
X113422674Y-92766500D01*
X107316207Y-92766500D01*
X107248086Y-92746498D01*
X107201593Y-92692842D01*
X107191489Y-92622568D01*
X107220983Y-92557988D01*
X107278318Y-92520332D01*
X107508397Y-92447789D01*
X107508405Y-92447786D01*
X107511025Y-92446960D01*
X107825427Y-92316730D01*
X108127283Y-92159594D01*
X108414295Y-91976747D01*
X108595892Y-91837403D01*
X108682110Y-91771246D01*
X108682116Y-91771241D01*
X108684278Y-91769582D01*
X108766762Y-91694000D01*
X108910415Y-91562367D01*
X108919884Y-91554506D01*
X108922983Y-91552179D01*
X108922996Y-91552168D01*
X108926295Y-91549691D01*
X108935844Y-91540340D01*
X108955064Y-91515828D01*
X108965123Y-91504480D01*
X111160936Y-89308667D01*
X111173327Y-89297800D01*
X111188820Y-89285912D01*
X111188821Y-89285911D01*
X111194847Y-89281287D01*
X111208075Y-89264776D01*
X111221793Y-89250197D01*
X111442413Y-89050239D01*
X111451971Y-89042395D01*
X111713779Y-88848225D01*
X111724060Y-88841355D01*
X111943187Y-88710015D01*
X112003649Y-88673776D01*
X112014545Y-88667951D01*
X112103709Y-88625780D01*
X112309222Y-88528580D01*
X112320645Y-88523849D01*
X112473483Y-88469162D01*
X112627542Y-88414038D01*
X112639368Y-88410451D01*
X112844930Y-88358961D01*
X112915869Y-88361812D01*
G37*
%TD.AperFunction*%
%TA.AperFunction,Conductor*%
G36*
X108228787Y-83428902D02*
G01*
X108275280Y-83482558D01*
X108285993Y-83521893D01*
X108287474Y-83536166D01*
X108289655Y-83542702D01*
X108289655Y-83542704D01*
X108312907Y-83612399D01*
X108343450Y-83703946D01*
X108436522Y-83854348D01*
X108561697Y-83979305D01*
X108566235Y-83982102D01*
X108606824Y-84039353D01*
X108610054Y-84110276D01*
X108574428Y-84171687D01*
X108565932Y-84179062D01*
X108555793Y-84187098D01*
X108441261Y-84301829D01*
X108432249Y-84313240D01*
X108347184Y-84451243D01*
X108341037Y-84464424D01*
X108289862Y-84618710D01*
X108286995Y-84632086D01*
X108277328Y-84726438D01*
X108277000Y-84732855D01*
X108277000Y-84757885D01*
X108281475Y-84773124D01*
X108282865Y-84774329D01*
X108290548Y-84776000D01*
X109638000Y-84776000D01*
X109706121Y-84796002D01*
X109752614Y-84849658D01*
X109764000Y-84902000D01*
X109764000Y-85158000D01*
X109743998Y-85226121D01*
X109690342Y-85272614D01*
X109638000Y-85284000D01*
X108295116Y-85284000D01*
X108279877Y-85288475D01*
X108278672Y-85289865D01*
X108277001Y-85297548D01*
X108277001Y-85327095D01*
X108277338Y-85333614D01*
X108287257Y-85429206D01*
X108290149Y-85442600D01*
X108341588Y-85596784D01*
X108347761Y-85609962D01*
X108433063Y-85747807D01*
X108442099Y-85759208D01*
X108556829Y-85873739D01*
X108568240Y-85882751D01*
X108706243Y-85967816D01*
X108719424Y-85973963D01*
X108873710Y-86025138D01*
X108887088Y-86028006D01*
X108889854Y-86028289D01*
X108891451Y-86028941D01*
X108893811Y-86029447D01*
X108893721Y-86029868D01*
X108955582Y-86055128D01*
X108996366Y-86113242D01*
X108999256Y-86184180D01*
X108963336Y-86245419D01*
X108952073Y-86254837D01*
X108780920Y-86381773D01*
X108770639Y-86388643D01*
X108677070Y-86444726D01*
X108501265Y-86550100D01*
X108491054Y-86556220D01*
X108480153Y-86562047D01*
X108401616Y-86599192D01*
X108185485Y-86701414D01*
X108174061Y-86706146D01*
X107867156Y-86815958D01*
X107855324Y-86819547D01*
X107682240Y-86862903D01*
X107539129Y-86898751D01*
X107527004Y-86901162D01*
X107464439Y-86910442D01*
X107394121Y-86900652D01*
X107340258Y-86854398D01*
X107319953Y-86786367D01*
X107325189Y-86752821D01*
X107324929Y-86752766D01*
X107325941Y-86748006D01*
X107326117Y-86746874D01*
X107328342Y-86740028D01*
X107330702Y-86717579D01*
X107347614Y-86556665D01*
X107348304Y-86550100D01*
X107346002Y-86528195D01*
X107329032Y-86366735D01*
X107329032Y-86366733D01*
X107328342Y-86360172D01*
X107269327Y-86178544D01*
X107242651Y-86132339D01*
X107201803Y-86061590D01*
X107173840Y-86013156D01*
X107130487Y-85965007D01*
X107050475Y-85876145D01*
X107050474Y-85876144D01*
X107046053Y-85871234D01*
X106891552Y-85758982D01*
X106885524Y-85756298D01*
X106885522Y-85756297D01*
X106723119Y-85683991D01*
X106723118Y-85683991D01*
X106717088Y-85681306D01*
X106623687Y-85661453D01*
X106536744Y-85642972D01*
X106536739Y-85642972D01*
X106530287Y-85641600D01*
X106434500Y-85641600D01*
X106366379Y-85621598D01*
X106319886Y-85567942D01*
X106308500Y-85515600D01*
X106308500Y-85478498D01*
X106307115Y-85460900D01*
X106306067Y-85447579D01*
X106306066Y-85447574D01*
X106305562Y-85441169D01*
X106259145Y-85281399D01*
X106174453Y-85138193D01*
X106171771Y-85135511D01*
X106146498Y-85071139D01*
X106160400Y-85001516D01*
X106170572Y-84985688D01*
X106174453Y-84981807D01*
X106259145Y-84838601D01*
X106266868Y-84812020D01*
X106303767Y-84685008D01*
X106305562Y-84678831D01*
X106308112Y-84646441D01*
X106308307Y-84643958D01*
X106308307Y-84643950D01*
X106308500Y-84641502D01*
X106308500Y-84208498D01*
X106306195Y-84179206D01*
X106306067Y-84177579D01*
X106306066Y-84177574D01*
X106305562Y-84171169D01*
X106259145Y-84011399D01*
X106174453Y-83868193D01*
X106171771Y-83865511D01*
X106146498Y-83801139D01*
X106160400Y-83731516D01*
X106170572Y-83715688D01*
X106174453Y-83711807D01*
X106259145Y-83568601D01*
X106268568Y-83536166D01*
X106279149Y-83499747D01*
X106317362Y-83439912D01*
X106381858Y-83410234D01*
X106400146Y-83408900D01*
X108160666Y-83408900D01*
X108228787Y-83428902D01*
G37*
%TD.AperFunction*%
%TA.AperFunction,Conductor*%
G36*
X110301621Y-73909776D02*
G01*
X110583389Y-73980355D01*
X110595215Y-73983942D01*
X110758673Y-74042429D01*
X110880447Y-74086001D01*
X110891870Y-74090732D01*
X111078456Y-74178980D01*
X111161966Y-74218477D01*
X111165742Y-74220263D01*
X111176643Y-74226090D01*
X111208730Y-74245322D01*
X111436495Y-74381839D01*
X111446776Y-74388709D01*
X111690096Y-74569167D01*
X111699655Y-74577011D01*
X111897731Y-74756537D01*
X111913076Y-74773193D01*
X111916098Y-74777132D01*
X111916105Y-74777139D01*
X111920725Y-74783160D01*
X111926649Y-74787906D01*
X111926651Y-74787908D01*
X111948162Y-74805141D01*
X111958477Y-74814381D01*
X112614102Y-75470006D01*
X112618444Y-75474570D01*
X112712790Y-75578857D01*
X112722254Y-75590674D01*
X112753609Y-75635051D01*
X112753615Y-75635061D01*
X112772836Y-75662265D01*
X112781997Y-75677377D01*
X112807960Y-75727894D01*
X112814993Y-75744362D01*
X112831413Y-75791917D01*
X112835393Y-75806077D01*
X112849942Y-75872511D01*
X112851507Y-75881059D01*
X112864987Y-75972342D01*
X112866387Y-75981825D01*
X112866619Y-75983471D01*
X112883245Y-76107341D01*
X112883861Y-76111934D01*
X112885253Y-76121603D01*
X112885319Y-76122032D01*
X112886774Y-76130957D01*
X112911256Y-76273195D01*
X112914715Y-76291320D01*
X112914891Y-76292159D01*
X112919088Y-76310473D01*
X112957833Y-76466257D01*
X112958019Y-76466937D01*
X112958021Y-76466945D01*
X112963797Y-76488069D01*
X112964021Y-76488890D01*
X112964331Y-76489929D01*
X112964554Y-76490617D01*
X112964556Y-76490624D01*
X112970184Y-76507999D01*
X112971619Y-76512431D01*
X112971865Y-76513134D01*
X112986504Y-76554982D01*
X112990488Y-76568882D01*
X112999222Y-76607639D01*
X113049684Y-76731912D01*
X113072456Y-76787993D01*
X113083266Y-76814616D01*
X113199987Y-77005088D01*
X113237041Y-77047864D01*
X113266522Y-77112447D01*
X113256407Y-77182719D01*
X113211804Y-77235124D01*
X113074593Y-77326806D01*
X113074588Y-77326810D01*
X113071162Y-77329099D01*
X113068068Y-77331813D01*
X113068062Y-77331817D01*
X112944159Y-77440478D01*
X112943125Y-77439299D01*
X112940445Y-77442675D01*
X112939161Y-77443434D01*
X112930486Y-77452109D01*
X112924468Y-77457746D01*
X112905245Y-77474604D01*
X112897818Y-77480634D01*
X112894387Y-77483210D01*
X112888829Y-77487383D01*
X112885888Y-77490263D01*
X112885881Y-77490269D01*
X112885521Y-77490622D01*
X112879280Y-77496734D01*
X112876731Y-77499985D01*
X112860069Y-77521235D01*
X112850010Y-77532584D01*
X112293194Y-78089400D01*
X112230882Y-78123426D01*
X112160067Y-78118361D01*
X112115004Y-78089400D01*
X109291081Y-75265477D01*
X109257056Y-75203166D01*
X109257055Y-75168000D01*
X109256000Y-75168000D01*
X109256000Y-75149884D01*
X109764000Y-75149884D01*
X109768475Y-75165123D01*
X109769865Y-75166328D01*
X109777548Y-75167999D01*
X110032095Y-75167999D01*
X110038614Y-75167662D01*
X110134206Y-75157743D01*
X110147600Y-75154851D01*
X110301784Y-75103412D01*
X110314962Y-75097239D01*
X110452807Y-75011937D01*
X110464208Y-75002901D01*
X110578739Y-74888171D01*
X110587751Y-74876760D01*
X110672816Y-74738757D01*
X110678963Y-74725576D01*
X110730138Y-74571290D01*
X110733005Y-74557914D01*
X110742672Y-74463562D01*
X110743000Y-74457146D01*
X110743000Y-74432115D01*
X110738525Y-74416876D01*
X110737135Y-74415671D01*
X110729452Y-74414000D01*
X109782115Y-74414000D01*
X109766876Y-74418475D01*
X109765671Y-74419865D01*
X109764000Y-74427548D01*
X109764000Y-75149884D01*
X109256000Y-75149884D01*
X109256000Y-74032000D01*
X109276002Y-73963879D01*
X109329658Y-73917386D01*
X109382000Y-73906000D01*
X110271006Y-73906000D01*
X110301621Y-73909776D01*
G37*
%TD.AperFunction*%
%TA.AperFunction,Conductor*%
G36*
X105021121Y-73552502D02*
G01*
X105067614Y-73606158D01*
X105079000Y-73658500D01*
X105079000Y-74522885D01*
X105083475Y-74538124D01*
X105084865Y-74539329D01*
X105092548Y-74541000D01*
X105461565Y-74541000D01*
X105477056Y-74545549D01*
X105480367Y-74543760D01*
X105506594Y-74541000D01*
X106286878Y-74541000D01*
X106300409Y-74537027D01*
X106301544Y-74529129D01*
X106260893Y-74389210D01*
X106254646Y-74374775D01*
X106250098Y-74367084D01*
X106232639Y-74298268D01*
X106255156Y-74230937D01*
X106310501Y-74186468D01*
X106381102Y-74178980D01*
X106447647Y-74213851D01*
X107227021Y-74993225D01*
X107261047Y-75055537D01*
X107255982Y-75126352D01*
X107213435Y-75183188D01*
X107146915Y-75207999D01*
X107078904Y-75193521D01*
X107078118Y-75193050D01*
X107021619Y-75166328D01*
X106779909Y-75052007D01*
X106779900Y-75052003D01*
X106777117Y-75050687D01*
X106616521Y-74993225D01*
X106466519Y-74939553D01*
X106466510Y-74939550D01*
X106463611Y-74938513D01*
X106460615Y-74937763D01*
X106460610Y-74937761D01*
X106143614Y-74858358D01*
X106143615Y-74858358D01*
X106140620Y-74857608D01*
X105811254Y-74808751D01*
X105808168Y-74808599D01*
X105808164Y-74808599D01*
X105713349Y-74803941D01*
X105509468Y-74793925D01*
X105497913Y-74792822D01*
X105492049Y-74791987D01*
X105492047Y-74791987D01*
X105492040Y-74791986D01*
X105492207Y-74790810D01*
X105488928Y-74789570D01*
X105476702Y-74792087D01*
X105461506Y-74793926D01*
X105447780Y-74795587D01*
X105432643Y-74796500D01*
X104697000Y-74796500D01*
X104628879Y-74776498D01*
X104582386Y-74722842D01*
X104571000Y-74670500D01*
X104571000Y-73658500D01*
X104591002Y-73590379D01*
X104644658Y-73543886D01*
X104697000Y-73532500D01*
X104953000Y-73532500D01*
X105021121Y-73552502D01*
G37*
%TD.AperFunction*%
%TA.AperFunction,Conductor*%
G36*
X103284122Y-73552502D02*
G01*
X103330615Y-73606158D01*
X103342001Y-73658500D01*
X103342001Y-73738984D01*
X103342195Y-73743920D01*
X103344430Y-73772336D01*
X103346730Y-73784931D01*
X103389107Y-73930790D01*
X103395352Y-73945221D01*
X103471912Y-74074678D01*
X103478189Y-74082770D01*
X103504139Y-74148854D01*
X103490241Y-74218477D01*
X103478189Y-74237230D01*
X103471912Y-74245322D01*
X103395352Y-74374779D01*
X103389107Y-74389210D01*
X103346731Y-74535065D01*
X103344430Y-74547667D01*
X103342193Y-74576084D01*
X103342000Y-74581014D01*
X103342000Y-74609589D01*
X103321998Y-74677710D01*
X103268342Y-74724203D01*
X103194895Y-74733809D01*
X103184436Y-74732032D01*
X103170660Y-74728888D01*
X102902088Y-74651514D01*
X102888751Y-74646847D01*
X102729815Y-74581014D01*
X102630530Y-74539889D01*
X102617807Y-74533762D01*
X102373180Y-74398561D01*
X102361232Y-74391054D01*
X102133269Y-74229305D01*
X102122225Y-74220497D01*
X102084147Y-74186468D01*
X101939224Y-74056958D01*
X101923226Y-74039718D01*
X101916543Y-74031008D01*
X101889110Y-74009030D01*
X101878796Y-73999791D01*
X101626600Y-73747595D01*
X101592574Y-73685283D01*
X101597639Y-73614468D01*
X101640186Y-73557632D01*
X101706706Y-73532821D01*
X101715695Y-73532500D01*
X103216001Y-73532500D01*
X103284122Y-73552502D01*
G37*
%TD.AperFunction*%
%TA.AperFunction,Conductor*%
G36*
X105021121Y-72021002D02*
G01*
X105067614Y-72074658D01*
X105079000Y-72127000D01*
X105079000Y-72139500D01*
X105058998Y-72207621D01*
X105005342Y-72254114D01*
X104953000Y-72265500D01*
X104697000Y-72265500D01*
X104628879Y-72245498D01*
X104582386Y-72191842D01*
X104571000Y-72139500D01*
X104571000Y-72127000D01*
X104591002Y-72058879D01*
X104644658Y-72012386D01*
X104697000Y-72001000D01*
X104953000Y-72001000D01*
X105021121Y-72021002D01*
G37*
%TD.AperFunction*%
%TA.AperFunction,Conductor*%
G36*
X103397091Y-71593502D02*
G01*
X103443584Y-71647158D01*
X103453688Y-71717432D01*
X103437423Y-71763639D01*
X103395355Y-71834773D01*
X103389107Y-71849210D01*
X103346731Y-71995065D01*
X103344430Y-72007667D01*
X103342193Y-72036085D01*
X103342000Y-72041014D01*
X103342000Y-72139500D01*
X103321998Y-72207621D01*
X103268342Y-72254114D01*
X103216000Y-72265500D01*
X101484500Y-72265500D01*
X101416379Y-72245498D01*
X101369886Y-72191842D01*
X101358500Y-72139500D01*
X101358500Y-72038498D01*
X101357933Y-72031290D01*
X101356067Y-72007579D01*
X101356066Y-72007574D01*
X101355562Y-72001169D01*
X101312979Y-71854596D01*
X101311357Y-71849012D01*
X101311356Y-71849010D01*
X101309145Y-71841399D01*
X101263156Y-71763637D01*
X101245698Y-71694823D01*
X101268215Y-71627491D01*
X101323559Y-71583022D01*
X101371611Y-71573500D01*
X103328970Y-71573500D01*
X103397091Y-71593502D01*
G37*
%TD.AperFunction*%
%TD*%
M02*
