%TF.GenerationSoftware,KiCad,Pcbnew,(6.0.1)*%
%TF.CreationDate,2022-09-16T08:00:15-07:00*%
%TF.ProjectId,takshaka-mux-board-rounded,74616b73-6861-46b6-912d-6d75782d626f,rev?*%
%TF.SameCoordinates,Original*%
%TF.FileFunction,Legend,Top*%
%TF.FilePolarity,Positive*%
%FSLAX46Y46*%
G04 Gerber Fmt 4.6, Leading zero omitted, Abs format (unit mm)*
G04 Created by KiCad (PCBNEW (6.0.1)) date 2022-09-16 08:00:15*
%MOMM*%
%LPD*%
G01*
G04 APERTURE LIST*
%ADD10C,0.150000*%
%ADD11C,0.120000*%
G04 APERTURE END LIST*
D10*
X111020476Y-84222380D02*
X111020476Y-83222380D01*
X111353809Y-83936666D01*
X111687142Y-83222380D01*
X111687142Y-84222380D01*
X112687142Y-84222380D02*
X112115714Y-84222380D01*
X112401428Y-84222380D02*
X112401428Y-83222380D01*
X112306190Y-83365238D01*
X112210952Y-83460476D01*
X112115714Y-83508095D01*
X112389523Y-81717142D02*
X112341904Y-81764761D01*
X112199047Y-81812380D01*
X112103809Y-81812380D01*
X111960952Y-81764761D01*
X111865714Y-81669523D01*
X111818095Y-81574285D01*
X111770476Y-81383809D01*
X111770476Y-81240952D01*
X111818095Y-81050476D01*
X111865714Y-80955238D01*
X111960952Y-80860000D01*
X112103809Y-80812380D01*
X112199047Y-80812380D01*
X112341904Y-80860000D01*
X112389523Y-80907619D01*
X111691904Y-76326666D02*
X112168095Y-76326666D01*
X111596666Y-76612380D02*
X111930000Y-75612380D01*
X112263333Y-76612380D01*
X88789523Y-93792380D02*
X88980000Y-93792380D01*
X89075238Y-93744761D01*
X89122857Y-93697142D01*
X89218095Y-93554285D01*
X89265714Y-93363809D01*
X89265714Y-92982857D01*
X89218095Y-92887619D01*
X89170476Y-92840000D01*
X89075238Y-92792380D01*
X88884761Y-92792380D01*
X88789523Y-92840000D01*
X88741904Y-92887619D01*
X88694285Y-92982857D01*
X88694285Y-93220952D01*
X88741904Y-93316190D01*
X88789523Y-93363809D01*
X88884761Y-93411428D01*
X89075238Y-93411428D01*
X89170476Y-93363809D01*
X89218095Y-93316190D01*
X89265714Y-93220952D01*
X110388095Y-91100000D02*
X110292857Y-91052380D01*
X110150000Y-91052380D01*
X110007142Y-91100000D01*
X109911904Y-91195238D01*
X109864285Y-91290476D01*
X109816666Y-91480952D01*
X109816666Y-91623809D01*
X109864285Y-91814285D01*
X109911904Y-91909523D01*
X110007142Y-92004761D01*
X110150000Y-92052380D01*
X110245238Y-92052380D01*
X110388095Y-92004761D01*
X110435714Y-91957142D01*
X110435714Y-91623809D01*
X110245238Y-91623809D01*
X110864285Y-92052380D02*
X110864285Y-91052380D01*
X111435714Y-92052380D01*
X111435714Y-91052380D01*
X111911904Y-92052380D02*
X111911904Y-91052380D01*
X112150000Y-91052380D01*
X112292857Y-91100000D01*
X112388095Y-91195238D01*
X112435714Y-91290476D01*
X112483333Y-91480952D01*
X112483333Y-91623809D01*
X112435714Y-91814285D01*
X112388095Y-91909523D01*
X112292857Y-92004761D01*
X112150000Y-92052380D01*
X111911904Y-92052380D01*
X111479047Y-73541428D02*
X112240952Y-73541428D01*
X111860000Y-73922380D02*
X111860000Y-73160476D01*
X96775714Y-74192380D02*
X96204285Y-74192380D01*
X96490000Y-74192380D02*
X96490000Y-73192380D01*
X96394761Y-73335238D01*
X96299523Y-73430476D01*
X96204285Y-73478095D01*
X88489523Y-72182380D02*
X87918095Y-72182380D01*
X88203809Y-72182380D02*
X88203809Y-71182380D01*
X88108571Y-71325238D01*
X88013333Y-71420476D01*
X87918095Y-71468095D01*
X89346666Y-71182380D02*
X89156190Y-71182380D01*
X89060952Y-71230000D01*
X89013333Y-71277619D01*
X88918095Y-71420476D01*
X88870476Y-71610952D01*
X88870476Y-71991904D01*
X88918095Y-72087142D01*
X88965714Y-72134761D01*
X89060952Y-72182380D01*
X89251428Y-72182380D01*
X89346666Y-72134761D01*
X89394285Y-72087142D01*
X89441904Y-71991904D01*
X89441904Y-71753809D01*
X89394285Y-71658571D01*
X89346666Y-71610952D01*
X89251428Y-71563333D01*
X89060952Y-71563333D01*
X88965714Y-71610952D01*
X88918095Y-71658571D01*
X88870476Y-71753809D01*
X96464761Y-91460952D02*
X96369523Y-91413333D01*
X96321904Y-91365714D01*
X96274285Y-91270476D01*
X96274285Y-91222857D01*
X96321904Y-91127619D01*
X96369523Y-91080000D01*
X96464761Y-91032380D01*
X96655238Y-91032380D01*
X96750476Y-91080000D01*
X96798095Y-91127619D01*
X96845714Y-91222857D01*
X96845714Y-91270476D01*
X96798095Y-91365714D01*
X96750476Y-91413333D01*
X96655238Y-91460952D01*
X96464761Y-91460952D01*
X96369523Y-91508571D01*
X96321904Y-91556190D01*
X96274285Y-91651428D01*
X96274285Y-91841904D01*
X96321904Y-91937142D01*
X96369523Y-91984761D01*
X96464761Y-92032380D01*
X96655238Y-92032380D01*
X96750476Y-91984761D01*
X96798095Y-91937142D01*
X96845714Y-91841904D01*
X96845714Y-91651428D01*
X96798095Y-91556190D01*
X96750476Y-91508571D01*
X96655238Y-91460952D01*
X89302380Y-88854761D02*
X88302380Y-88854761D01*
X89016666Y-88521428D01*
X88302380Y-88188095D01*
X89302380Y-88188095D01*
X88635714Y-87283333D02*
X89302380Y-87283333D01*
X88635714Y-87711904D02*
X89159523Y-87711904D01*
X89254761Y-87664285D01*
X89302380Y-87569047D01*
X89302380Y-87426190D01*
X89254761Y-87330952D01*
X89207142Y-87283333D01*
X89302380Y-86664285D02*
X89254761Y-86759523D01*
X89159523Y-86807142D01*
X88302380Y-86807142D01*
X88635714Y-86426190D02*
X88635714Y-86045238D01*
X88302380Y-86283333D02*
X89159523Y-86283333D01*
X89254761Y-86235714D01*
X89302380Y-86140476D01*
X89302380Y-86045238D01*
X89302380Y-85711904D02*
X88635714Y-85711904D01*
X88302380Y-85711904D02*
X88350000Y-85759523D01*
X88397619Y-85711904D01*
X88350000Y-85664285D01*
X88302380Y-85711904D01*
X88397619Y-85711904D01*
X88635714Y-85235714D02*
X89635714Y-85235714D01*
X88683333Y-85235714D02*
X88635714Y-85140476D01*
X88635714Y-84950000D01*
X88683333Y-84854761D01*
X88730952Y-84807142D01*
X88826190Y-84759523D01*
X89111904Y-84759523D01*
X89207142Y-84807142D01*
X89254761Y-84854761D01*
X89302380Y-84950000D01*
X89302380Y-85140476D01*
X89254761Y-85235714D01*
X89302380Y-84188095D02*
X89254761Y-84283333D01*
X89159523Y-84330952D01*
X88302380Y-84330952D01*
X89254761Y-83426190D02*
X89302380Y-83521428D01*
X89302380Y-83711904D01*
X89254761Y-83807142D01*
X89159523Y-83854761D01*
X88778571Y-83854761D01*
X88683333Y-83807142D01*
X88635714Y-83711904D01*
X88635714Y-83521428D01*
X88683333Y-83426190D01*
X88778571Y-83378571D01*
X88873809Y-83378571D01*
X88969047Y-83854761D01*
X89302380Y-83045238D02*
X88635714Y-82521428D01*
X88635714Y-83045238D02*
X89302380Y-82521428D01*
X89254761Y-81759523D02*
X89302380Y-81854761D01*
X89302380Y-82045238D01*
X89254761Y-82140476D01*
X89159523Y-82188095D01*
X88778571Y-82188095D01*
X88683333Y-82140476D01*
X88635714Y-82045238D01*
X88635714Y-81854761D01*
X88683333Y-81759523D01*
X88778571Y-81711904D01*
X88873809Y-81711904D01*
X88969047Y-82188095D01*
X89302380Y-81283333D02*
X88635714Y-81283333D01*
X88826190Y-81283333D02*
X88730952Y-81235714D01*
X88683333Y-81188095D01*
X88635714Y-81092857D01*
X88635714Y-80997619D01*
X88778571Y-79569047D02*
X88826190Y-79426190D01*
X88873809Y-79378571D01*
X88969047Y-79330952D01*
X89111904Y-79330952D01*
X89207142Y-79378571D01*
X89254761Y-79426190D01*
X89302380Y-79521428D01*
X89302380Y-79902380D01*
X88302380Y-79902380D01*
X88302380Y-79569047D01*
X88350000Y-79473809D01*
X88397619Y-79426190D01*
X88492857Y-79378571D01*
X88588095Y-79378571D01*
X88683333Y-79426190D01*
X88730952Y-79473809D01*
X88778571Y-79569047D01*
X88778571Y-79902380D01*
X89302380Y-78759523D02*
X89254761Y-78854761D01*
X89207142Y-78902380D01*
X89111904Y-78950000D01*
X88826190Y-78950000D01*
X88730952Y-78902380D01*
X88683333Y-78854761D01*
X88635714Y-78759523D01*
X88635714Y-78616666D01*
X88683333Y-78521428D01*
X88730952Y-78473809D01*
X88826190Y-78426190D01*
X89111904Y-78426190D01*
X89207142Y-78473809D01*
X89254761Y-78521428D01*
X89302380Y-78616666D01*
X89302380Y-78759523D01*
X89302380Y-77569047D02*
X88778571Y-77569047D01*
X88683333Y-77616666D01*
X88635714Y-77711904D01*
X88635714Y-77902380D01*
X88683333Y-77997619D01*
X89254761Y-77569047D02*
X89302380Y-77664285D01*
X89302380Y-77902380D01*
X89254761Y-77997619D01*
X89159523Y-78045238D01*
X89064285Y-78045238D01*
X88969047Y-77997619D01*
X88921428Y-77902380D01*
X88921428Y-77664285D01*
X88873809Y-77569047D01*
X89302380Y-77092857D02*
X88635714Y-77092857D01*
X88826190Y-77092857D02*
X88730952Y-77045238D01*
X88683333Y-76997619D01*
X88635714Y-76902380D01*
X88635714Y-76807142D01*
X89302380Y-76045238D02*
X88302380Y-76045238D01*
X89254761Y-76045238D02*
X89302380Y-76140476D01*
X89302380Y-76330952D01*
X89254761Y-76426190D01*
X89207142Y-76473809D01*
X89111904Y-76521428D01*
X88826190Y-76521428D01*
X88730952Y-76473809D01*
X88683333Y-76426190D01*
X88635714Y-76330952D01*
X88635714Y-76140476D01*
X88683333Y-76045238D01*
X111050476Y-86942380D02*
X111050476Y-85942380D01*
X111383809Y-86656666D01*
X111717142Y-85942380D01*
X111717142Y-86942380D01*
X112145714Y-86037619D02*
X112193333Y-85990000D01*
X112288571Y-85942380D01*
X112526666Y-85942380D01*
X112621904Y-85990000D01*
X112669523Y-86037619D01*
X112717142Y-86132857D01*
X112717142Y-86228095D01*
X112669523Y-86370952D01*
X112098095Y-86942380D01*
X112717142Y-86942380D01*
X112071428Y-78788571D02*
X112214285Y-78836190D01*
X112261904Y-78883809D01*
X112309523Y-78979047D01*
X112309523Y-79121904D01*
X112261904Y-79217142D01*
X112214285Y-79264761D01*
X112119047Y-79312380D01*
X111738095Y-79312380D01*
X111738095Y-78312380D01*
X112071428Y-78312380D01*
X112166666Y-78360000D01*
X112214285Y-78407619D01*
X112261904Y-78502857D01*
X112261904Y-78598095D01*
X112214285Y-78693333D01*
X112166666Y-78740952D01*
X112071428Y-78788571D01*
X111738095Y-78788571D01*
%TO.C,U2*%
X101568095Y-79382380D02*
X101568095Y-80191904D01*
X101615714Y-80287142D01*
X101663333Y-80334761D01*
X101758571Y-80382380D01*
X101949047Y-80382380D01*
X102044285Y-80334761D01*
X102091904Y-80287142D01*
X102139523Y-80191904D01*
X102139523Y-79382380D01*
X102568095Y-79477619D02*
X102615714Y-79430000D01*
X102710952Y-79382380D01*
X102949047Y-79382380D01*
X103044285Y-79430000D01*
X103091904Y-79477619D01*
X103139523Y-79572857D01*
X103139523Y-79668095D01*
X103091904Y-79810952D01*
X102520476Y-80382380D01*
X103139523Y-80382380D01*
%TO.C,C2*%
X107588571Y-87032380D02*
X107017142Y-87032380D01*
X107302857Y-87032380D02*
X107302857Y-86032380D01*
X107207619Y-86175238D01*
X107112380Y-86270476D01*
X107017142Y-86318095D01*
X108207619Y-86032380D02*
X108302857Y-86032380D01*
X108398095Y-86080000D01*
X108445714Y-86127619D01*
X108493333Y-86222857D01*
X108540952Y-86413333D01*
X108540952Y-86651428D01*
X108493333Y-86841904D01*
X108445714Y-86937142D01*
X108398095Y-86984761D01*
X108302857Y-87032380D01*
X108207619Y-87032380D01*
X108112380Y-86984761D01*
X108064761Y-86937142D01*
X108017142Y-86841904D01*
X107969523Y-86651428D01*
X107969523Y-86413333D01*
X108017142Y-86222857D01*
X108064761Y-86127619D01*
X108112380Y-86080000D01*
X108207619Y-86032380D01*
X108969523Y-86365714D02*
X108969523Y-87032380D01*
X108969523Y-86460952D02*
X109017142Y-86413333D01*
X109112380Y-86365714D01*
X109255238Y-86365714D01*
X109350476Y-86413333D01*
X109398095Y-86508571D01*
X109398095Y-87032380D01*
X110207619Y-86508571D02*
X109874285Y-86508571D01*
X109874285Y-87032380D02*
X109874285Y-86032380D01*
X110350476Y-86032380D01*
%TO.C,C1*%
X107598571Y-76382380D02*
X107027142Y-76382380D01*
X107312857Y-76382380D02*
X107312857Y-75382380D01*
X107217619Y-75525238D01*
X107122380Y-75620476D01*
X107027142Y-75668095D01*
X108217619Y-75382380D02*
X108312857Y-75382380D01*
X108408095Y-75430000D01*
X108455714Y-75477619D01*
X108503333Y-75572857D01*
X108550952Y-75763333D01*
X108550952Y-76001428D01*
X108503333Y-76191904D01*
X108455714Y-76287142D01*
X108408095Y-76334761D01*
X108312857Y-76382380D01*
X108217619Y-76382380D01*
X108122380Y-76334761D01*
X108074761Y-76287142D01*
X108027142Y-76191904D01*
X107979523Y-76001428D01*
X107979523Y-75763333D01*
X108027142Y-75572857D01*
X108074761Y-75477619D01*
X108122380Y-75430000D01*
X108217619Y-75382380D01*
X108979523Y-75715714D02*
X108979523Y-76382380D01*
X108979523Y-75810952D02*
X109027142Y-75763333D01*
X109122380Y-75715714D01*
X109265238Y-75715714D01*
X109360476Y-75763333D01*
X109408095Y-75858571D01*
X109408095Y-76382380D01*
X110217619Y-75858571D02*
X109884285Y-75858571D01*
X109884285Y-76382380D02*
X109884285Y-75382380D01*
X110360476Y-75382380D01*
%TO.C,J3*%
X96276666Y-81062380D02*
X96276666Y-81776666D01*
X96229047Y-81919523D01*
X96133809Y-82014761D01*
X95990952Y-82062380D01*
X95895714Y-82062380D01*
X96657619Y-81062380D02*
X97276666Y-81062380D01*
X96943333Y-81443333D01*
X97086190Y-81443333D01*
X97181428Y-81490952D01*
X97229047Y-81538571D01*
X97276666Y-81633809D01*
X97276666Y-81871904D01*
X97229047Y-81967142D01*
X97181428Y-82014761D01*
X97086190Y-82062380D01*
X96800476Y-82062380D01*
X96705238Y-82014761D01*
X96657619Y-81967142D01*
%TO.C,U1*%
X101618095Y-83802380D02*
X101618095Y-84611904D01*
X101665714Y-84707142D01*
X101713333Y-84754761D01*
X101808571Y-84802380D01*
X101999047Y-84802380D01*
X102094285Y-84754761D01*
X102141904Y-84707142D01*
X102189523Y-84611904D01*
X102189523Y-83802380D01*
X103189523Y-84802380D02*
X102618095Y-84802380D01*
X102903809Y-84802380D02*
X102903809Y-83802380D01*
X102808571Y-83945238D01*
X102713333Y-84040476D01*
X102618095Y-84088095D01*
D11*
%TO.C,U2*%
X102350000Y-81760000D02*
X105800000Y-81760000D01*
X102350000Y-81760000D02*
X100400000Y-81760000D01*
X102350000Y-71640000D02*
X100400000Y-71640000D01*
X102350000Y-71640000D02*
X104300000Y-71640000D01*
%TO.C,C2*%
X108775000Y-83818748D02*
X108775000Y-84341252D01*
X110245000Y-83818748D02*
X110245000Y-84341252D01*
%TO.C,C1*%
X108775000Y-72948748D02*
X108775000Y-73471252D01*
X110245000Y-72948748D02*
X110245000Y-73471252D01*
%TO.C,J3*%
X93980000Y-72330000D02*
X95310000Y-72330000D01*
X90110000Y-72330000D02*
X90110000Y-92770000D01*
X95310000Y-74930000D02*
X95310000Y-92770000D01*
X90110000Y-92770000D02*
X95310000Y-92770000D01*
X92710000Y-72330000D02*
X92710000Y-74930000D01*
X92710000Y-74930000D02*
X95310000Y-74930000D01*
X90110000Y-72330000D02*
X92710000Y-72330000D01*
X95310000Y-72330000D02*
X95310000Y-73660000D01*
%TO.C,U1*%
X102350000Y-92660000D02*
X104300000Y-92660000D01*
X102350000Y-92660000D02*
X100400000Y-92660000D01*
X102350000Y-82540000D02*
X98900000Y-82540000D01*
X102350000Y-82540000D02*
X104300000Y-82540000D01*
%TD*%
M02*
